<svg width="192" height="127" viewBox="0 0 192 127" fill="none" xmlns="http://www.w3.org/2000/svg">
<g clip-path="url(#clip0_675_308)">
<g opacity="0.1">
<path d="M133.9 126.724C136.286 126.724 138.22 124.216 138.22 121.122C138.22 118.028 136.286 115.52 133.9 115.52C131.514 115.52 129.579 118.028 129.579 121.122C129.579 124.216 131.514 126.724 133.9 126.724Z" fill="#484848"/>
<path d="M137.318 97.1545C137.924 96.1136 138.238 94.9315 138.228 93.7303C138.228 90.6297 136.294 88.1279 133.908 88.1279C131.522 88.1279 129.589 90.6355 129.589 93.7303C129.577 94.9308 129.888 96.1128 130.491 97.1545C129.9 98.2003 129.589 99.379 129.589 100.578C129.589 101.776 129.9 102.955 130.491 104.001C129.9 105.047 129.589 106.226 129.589 107.425C129.589 108.624 129.9 109.803 130.491 110.849C129.888 111.891 129.577 113.073 129.589 114.273C129.589 117.374 131.523 119.876 133.908 119.876C136.292 119.876 138.228 117.368 138.228 114.273C138.24 113.073 137.929 111.891 137.326 110.849C137.917 109.803 138.228 108.624 138.228 107.425C138.228 106.226 137.917 105.047 137.326 104.001C137.917 102.955 138.228 101.776 138.228 100.578C138.228 99.379 137.917 98.2003 137.326 97.1545H137.318Z" fill="#484848"/>
<path d="M133.9 92.4859C136.286 92.4859 138.22 89.9777 138.22 86.8836C138.22 83.7895 136.286 81.2812 133.9 81.2812C131.514 81.2812 129.579 83.7895 129.579 86.8836C129.579 89.9777 131.514 92.4859 133.9 92.4859Z" fill="#484848"/>
<path d="M133.9 85.6383C136.286 85.6383 138.22 83.13 138.22 80.0359C138.22 76.9418 136.286 74.4336 133.9 74.4336C131.514 74.4336 129.579 76.9418 129.579 80.0359C129.579 83.13 131.514 85.6383 133.9 85.6383Z" fill="#484848"/>
<path d="M150.07 33.1744C150.66 32.4296 151.197 31.6455 151.678 30.8277L140.334 28.9809L152.611 29.072C153.787 26.5332 154.429 23.7832 154.496 20.9904C154.563 18.1975 154.055 15.4204 153.002 12.8289L136.53 21.2896L151.723 10.2322C150.299 7.79761 148.385 5.67949 146.099 4.00964C143.814 2.3398 141.206 1.15397 138.437 0.525969C135.669 -0.102028 132.8 -0.158752 130.009 0.35933C127.218 0.877412 124.564 1.95921 122.213 3.53738C119.862 5.11556 117.864 7.15632 116.344 9.53265C114.823 11.909 113.812 14.57 113.374 17.3501C112.936 20.1302 113.081 22.9698 113.798 25.6922C114.516 28.4146 115.792 30.9615 117.545 33.1744C116.626 34.333 115.835 35.5863 115.187 36.9125L129.92 44.4973L114.211 39.2651C113.105 42.4947 112.831 45.9465 113.411 49.3079C113.992 52.6693 115.409 55.8341 117.536 58.5158C115.135 61.5397 113.642 65.1719 113.226 68.997C112.811 72.8222 113.491 76.686 115.187 80.1467C116.883 83.6073 119.528 86.5252 122.82 88.5666C126.111 90.608 129.915 91.6906 133.798 91.6906C137.681 91.6906 141.485 90.608 144.777 88.5666C148.068 86.5252 150.713 83.6073 152.409 80.1467C154.106 76.686 154.785 72.8222 154.37 68.997C153.954 65.1719 152.461 61.5397 150.06 58.5158C152.929 54.9024 154.489 50.4385 154.489 45.8412C154.489 41.2439 152.929 36.78 150.06 33.1667L150.07 33.1744Z" fill="#FF9D00"/>
<path opacity="0.1" d="M113.118 45.8502C113.11 50.4484 114.671 54.9142 117.545 58.5238C115.145 61.5477 113.652 65.1799 113.236 69.0051C112.821 72.8303 113.5 76.6941 115.197 80.1547C116.893 83.6154 119.538 86.5332 122.829 88.5746C126.12 90.616 129.925 91.6986 133.808 91.6986C137.691 91.6986 141.495 90.616 144.786 88.5746C148.078 86.5332 150.723 83.6154 152.419 80.1547C154.115 76.6941 154.795 72.8303 154.379 69.0051C153.964 65.1799 152.471 61.5477 150.07 58.5238C152.844 55.0357 113.118 43.5481 113.118 45.8502Z" fill="black"/>
</g>
<g opacity="0.1">
<path d="M12.7269 99.8886C14.1786 99.8886 15.3555 98.3616 15.3555 96.478C15.3555 94.5944 14.1786 93.0674 12.7269 93.0674C11.2752 93.0674 10.0983 94.5944 10.0983 96.478C10.0983 98.3616 11.2752 99.8886 12.7269 99.8886Z" fill="#484848"/>
<path d="M12.7269 95.7207C14.1786 95.7207 15.3555 94.1937 15.3555 92.31C15.3555 90.4264 14.1786 88.8994 12.7269 88.8994C11.2752 88.8994 10.0983 90.4264 10.0983 92.31C10.0983 94.1937 11.2752 95.7207 12.7269 95.7207Z" fill="#484848"/>
<path d="M2.8873 63.7805C2.52831 63.3274 2.20156 62.8502 1.90941 62.3523L8.81921 61.2283L1.34614 61.2845C0.630696 59.7397 0.240389 58.0667 0.19903 56.3675C0.15767 54.6683 0.466126 52.9786 1.10558 51.4015L11.1251 56.5581L1.88007 49.8144C2.74719 48.3333 3.91262 47.0448 5.30387 46.0292C6.69512 45.0136 8.28242 44.2925 9.96701 43.9108C11.6516 43.529 13.3974 43.4949 15.0959 43.8104C16.7944 44.1259 18.4092 44.7844 19.8398 45.7448C21.2705 46.7052 22.4863 47.9471 23.4118 49.3931C24.3372 50.8391 24.9525 52.4583 25.2192 54.15C25.486 55.8417 25.3986 57.5697 24.9624 59.2265C24.5262 60.8833 23.7506 62.4334 22.6838 63.7805C23.2434 64.4848 23.7247 65.2469 24.1194 66.0536L15.1501 70.6734L24.7139 67.4934C25.3856 69.4602 25.5517 71.5619 25.1972 73.6083C24.8428 75.6547 23.9789 77.5812 22.6838 79.2136C24.145 81.0544 25.0539 83.2655 25.3067 85.594C25.5594 87.9226 25.1458 90.2746 24.113 92.3812C23.0803 94.4878 21.4702 96.264 19.4667 97.5066C17.4632 98.7493 15.1472 99.4083 12.7836 99.4083C10.42 99.4083 8.104 98.7493 6.10052 97.5066C4.09704 96.264 2.48689 94.4878 1.45416 92.3812C0.421426 90.2746 0.00778432 87.9226 0.260527 85.594C0.51327 83.2655 1.4222 81.0544 2.88339 79.2136C1.13734 77.0135 0.18811 74.2958 0.18811 71.497C0.18811 68.6982 1.13734 65.9806 2.88339 63.7805H2.8873Z" fill="#FF9D00"/>
<path opacity="0.1" d="M25.3789 71.4972C25.383 74.2967 24.4334 77.0156 22.6838 79.2138C24.145 81.0546 25.0539 83.2657 25.3067 85.5943C25.5594 87.9228 25.1458 90.2748 24.113 92.3814C23.0803 94.488 21.4701 96.2642 19.4667 97.5069C17.4632 98.7495 15.1472 99.4085 12.7836 99.4085C10.4199 99.4085 8.10399 98.7495 6.10051 97.5069C4.09703 96.2642 2.48688 94.488 1.45415 92.3814C0.421412 90.2748 0.00777064 87.9228 0.260514 85.5943C0.513257 83.2657 1.42218 81.0546 2.88338 79.2138C1.19553 77.0996 25.3789 70.0962 25.3789 71.4972Z" fill="black"/>
</g>
<g opacity="0.1">
<path d="M71.9873 123.702C73.9305 123.702 75.5057 121.658 75.5057 119.138C75.5057 116.617 73.9305 114.574 71.9873 114.574C70.0441 114.574 68.4688 116.617 68.4688 119.138C68.4688 121.658 70.0441 123.702 71.9873 123.702Z" fill="#484848"/>
<path d="M74.7723 99.612C75.2627 98.7629 75.5158 97.7997 75.5057 96.8215C75.5057 94.3023 73.9411 92.2578 71.9853 92.2578C70.0295 92.2578 68.4649 94.3023 68.4649 96.8215C68.4546 97.8 68.7085 98.7634 69.2003 99.612C68.7182 100.464 68.465 101.425 68.465 102.402C68.465 103.378 68.7182 104.339 69.2003 105.191C68.7182 106.043 68.465 107.003 68.465 107.98C68.465 108.956 68.7182 109.916 69.2003 110.768C68.7085 111.617 68.4546 112.58 68.4649 113.559C68.4649 116.078 70.0413 118.122 71.9853 118.122C73.9294 118.122 75.5057 116.078 75.5057 113.559C75.5158 112.581 75.2627 111.617 74.7723 110.768C75.2533 109.916 75.5059 108.956 75.5059 107.98C75.5059 107.003 75.2533 106.043 74.7723 105.191C75.2533 104.339 75.5059 103.378 75.5059 102.402C75.5059 101.425 75.2533 100.464 74.7723 99.612Z" fill="#484848"/>
<path d="M71.9873 95.808C73.9305 95.808 75.5057 93.7648 75.5057 91.2443C75.5057 88.7239 73.9305 86.6807 71.9873 86.6807C70.0441 86.6807 68.4688 88.7239 68.4688 91.2443C68.4688 93.7648 70.0441 95.808 71.9873 95.808Z" fill="#484848"/>
<path d="M71.9873 90.2289C73.9305 90.2289 75.5057 88.1856 75.5057 85.6652C75.5057 83.1448 73.9305 81.1016 71.9873 81.1016C70.0441 81.1016 68.4688 83.1448 68.4688 85.6652C68.4688 88.1856 70.0441 90.2289 71.9873 90.2289Z" fill="#484848"/>
<path d="M58.8229 47.4894C58.3419 46.8833 57.9041 46.2449 57.5125 45.5787L66.7575 44.0749L56.7595 44.1485C55.8002 42.0804 55.2768 39.8401 55.2213 37.5647C55.1658 35.2893 55.5794 33.0265 56.4368 30.9149L69.8535 37.8098L57.4792 28.7988C58.6353 26.8081 60.1933 25.0751 62.0559 23.708C63.9185 22.3409 66.0456 21.3691 68.3043 20.8534C70.5631 20.3376 72.9049 20.2889 75.1835 20.7104C77.4621 21.1319 79.6284 22.0145 81.5472 23.303C83.466 24.5915 85.096 26.2583 86.3353 28.1992C87.5746 30.1401 88.3965 32.3133 88.7499 34.5832C89.1032 36.853 88.9803 39.1707 88.3888 41.3913C87.7972 43.612 86.7499 45.6879 85.3121 47.4894C86.0608 48.4336 86.7047 49.4549 87.2327 50.5357L75.2319 56.7136L88.0287 52.4503C88.9276 55.0821 89.15 57.8945 88.6756 60.6328C88.2013 63.3712 87.0452 65.9492 85.3121 68.1334C87.2674 70.5968 88.4837 73.5557 88.8219 76.6717C89.1601 79.7878 88.6066 82.9352 87.2246 85.7543C85.8426 88.5733 83.6879 90.9501 81.0068 92.6131C78.3258 94.276 75.2266 95.1578 72.0636 95.1578C68.9005 95.1578 65.8014 94.276 63.1203 92.6131C60.4393 90.9501 58.2846 88.5733 56.9025 85.7543C55.5205 82.9352 54.967 79.7878 55.3052 76.6717C55.6434 73.5557 56.8597 70.5968 58.815 68.1334C56.4788 65.1892 55.2087 61.5527 55.2087 57.8075C55.2087 54.0623 56.4788 50.4258 58.815 47.4816L58.8229 47.4894Z" fill="#FF9D00"/>
<path opacity="0.1" d="M88.9186 57.8157C88.9244 61.5616 87.6536 65.1997 85.3121 68.1406C87.2674 70.6041 88.4837 73.5629 88.8219 76.679C89.1601 79.795 88.6066 82.9425 87.2246 85.7615C85.8426 88.5806 83.6879 90.9574 81.0068 92.6203C78.3258 94.2832 75.2266 95.1651 72.0636 95.1651C68.9005 95.1651 65.8014 94.2832 63.1203 92.6203C60.4393 90.9574 58.2846 88.5806 56.9025 85.7615C55.5205 82.9425 54.967 79.795 55.3052 76.679C55.6434 73.5629 56.8597 70.6041 58.815 68.1406C56.5561 65.2997 88.9186 55.9399 88.9186 57.8157Z" fill="black"/>
</g>
<path opacity="0.15" d="M20.5956 81.8646L17.9005 73.6888L82.4415 72.9893L85.0858 81.0837L20.5956 81.8646Z" fill="black"/>
<path d="M16.2928 81.8646L13.5977 73.6888L78.1388 72.9893L80.783 81.0837L16.2928 81.8646Z" fill="#484848"/>
<path d="M103.143 69.3012C96.4698 69.3012 91.2107 66.6767 87.3656 61.4277C83.5206 56.1787 81.598 49.8199 81.598 42.3514C81.598 34.8325 83.4573 28.4867 87.1759 23.3139C90.8945 18.1411 96.14 15.5573 102.912 15.5625C110.094 15.5625 115.505 18.2878 119.145 23.7383C122.786 29.1889 124.606 35.4972 124.608 42.6634C124.608 49.7779 122.724 55.9972 118.956 61.3211C115.187 66.645 109.917 69.3051 103.143 69.3012ZM103.339 63.3965C107.729 63.3965 111.01 61.5007 113.182 57.7089C115.354 53.9172 116.44 49.1371 116.44 43.3688C116.44 36.948 115.329 31.6906 113.106 27.5966C110.883 23.5025 107.473 21.4549 102.877 21.4536C94.1411 21.4536 89.7732 28.3291 89.7732 42.0801C89.7732 56.2924 94.2937 63.3978 103.335 63.3965H103.339ZM105.537 119.941H95.8851L159.073 16.6148H168.543L105.537 119.941ZM161.437 121.001C154.664 121.001 149.383 118.353 145.595 113.056C141.808 107.759 139.906 101.4 139.89 93.9778C139.89 86.5093 141.737 80.1887 145.429 75.0159C149.122 69.8431 154.38 67.2593 161.205 67.2645C168.335 67.2645 173.709 69.9898 177.324 75.4403C180.94 80.8908 182.748 87.1986 182.749 94.3635C182.749 101.431 180.878 107.639 177.134 112.986C173.391 118.333 168.157 121.005 161.433 121.001H161.437ZM161.551 114.945C165.92 114.945 169.184 113.082 171.341 109.355C173.499 105.628 174.578 100.867 174.578 95.0727C174.578 88.8716 173.486 83.671 171.302 79.471C169.118 75.2711 165.716 73.1678 161.095 73.1614C152.308 73.1614 147.915 80.0369 147.915 93.7879C147.912 107.894 152.456 114.947 161.547 114.945H161.551Z" fill="#484848"/>
<path d="M103.143 69.3012C96.4698 69.3012 91.2107 66.6767 87.3656 61.4277C83.5206 56.1787 81.598 49.8199 81.598 42.3514C81.598 34.8325 83.4573 28.4867 87.1759 23.3139C90.8945 18.1411 96.14 15.5573 102.912 15.5625C110.094 15.5625 115.505 18.2878 119.145 23.7383C122.786 29.1889 124.606 35.4972 124.608 42.6634C124.608 49.7779 122.724 55.9972 118.956 61.3211C115.187 66.645 109.917 69.3051 103.143 69.3012ZM103.339 63.3965C107.729 63.3965 111.01 61.5007 113.182 57.7089C115.354 53.9172 116.44 49.1371 116.44 43.3688C116.44 36.948 115.329 31.6906 113.106 27.5966C110.883 23.5025 107.473 21.4549 102.877 21.4536C94.1411 21.4536 89.7732 28.3291 89.7732 42.0801C89.7732 56.2924 94.2937 63.3978 103.335 63.3965H103.339ZM105.537 119.941H95.8851L159.073 16.6148H168.543L105.537 119.941ZM161.437 121.001C154.664 121.001 149.383 118.353 145.595 113.056C141.808 107.759 139.906 101.4 139.89 93.9778C139.89 86.5093 141.737 80.1887 145.429 75.0159C149.122 69.8431 154.38 67.2593 161.205 67.2645C168.335 67.2645 173.709 69.9898 177.324 75.4403C180.94 80.8908 182.748 87.1986 182.749 94.3635C182.749 101.431 180.878 107.639 177.134 112.986C173.391 118.333 168.157 121.005 161.433 121.001H161.437ZM161.551 114.945C165.92 114.945 169.184 113.082 171.341 109.355C173.499 105.628 174.578 100.867 174.578 95.0727C174.578 88.8716 173.486 83.671 171.302 79.471C169.118 75.2711 165.716 73.1678 161.095 73.1614C152.308 73.1614 147.915 80.0369 147.915 93.7879C147.912 107.894 152.456 114.947 161.547 114.945H161.551Z" fill="#484848"/>
<path opacity="0.15" d="M103.143 69.3012C96.4698 69.3012 91.2107 66.6767 87.3656 61.4277C83.5206 56.1787 81.598 49.8199 81.598 42.3514C81.598 34.8325 83.4573 28.4867 87.1759 23.3139C90.8945 18.1411 96.14 15.5573 102.912 15.5625C110.094 15.5625 115.505 18.2878 119.145 23.7383C122.786 29.1889 124.606 35.4972 124.608 42.6634C124.608 49.7779 122.724 55.9972 118.956 61.3211C115.187 66.645 109.917 69.3051 103.143 69.3012ZM103.339 63.3965C107.729 63.3965 111.01 61.5007 113.182 57.7089C115.354 53.9172 116.44 49.1371 116.44 43.3688C116.44 36.948 115.329 31.6906 113.106 27.5966C110.883 23.5025 107.473 21.4549 102.877 21.4536C94.1411 21.4536 89.7732 28.3291 89.7732 42.0801C89.7732 56.2924 94.2937 63.3978 103.335 63.3965H103.339ZM105.537 119.941H95.8851L159.073 16.6148H168.543L105.537 119.941ZM161.437 121.001C154.664 121.001 149.383 118.353 145.595 113.056C141.808 107.759 139.906 101.4 139.89 93.9778C139.89 86.5093 141.737 80.1887 145.429 75.0159C149.122 69.8431 154.38 67.2593 161.205 67.2645C168.335 67.2645 173.709 69.9898 177.324 75.4403C180.94 80.8908 182.748 87.1986 182.749 94.3635C182.749 101.431 180.878 107.639 177.134 112.986C173.391 118.333 168.157 121.005 161.433 121.001H161.437ZM161.551 114.945C165.92 114.945 169.184 113.082 171.341 109.355C173.499 105.628 174.578 100.867 174.578 95.0727C174.578 88.8716 173.486 83.671 171.302 79.471C169.118 75.2711 165.716 73.1678 161.095 73.1614C152.308 73.1614 147.915 80.0369 147.915 93.7879C147.912 107.894 152.456 114.947 161.547 114.945H161.551Z" fill="black"/>
<path d="M97.0801 69.3012C90.4069 69.3012 85.1478 66.6767 81.3027 61.4277C77.4576 56.1787 75.5351 49.8199 75.5351 42.3514C75.5351 34.8325 77.3944 28.4867 81.113 23.3139C84.8316 18.1411 90.077 15.5573 96.8493 15.5625C104.031 15.5625 109.442 18.2878 113.082 23.7383C116.723 29.1889 118.544 35.4972 118.545 42.6634C118.545 49.7779 116.661 55.9972 112.893 61.3211C109.124 66.645 103.854 69.3051 97.0801 69.3012ZM97.2756 63.3965C101.666 63.3965 104.947 61.5007 107.119 57.7089C109.291 53.9172 110.377 49.1371 110.377 43.3688C110.377 36.948 109.266 31.6906 107.043 27.5966C104.82 23.5025 101.41 21.4549 96.8141 21.4536C88.0782 21.4536 83.7103 28.3291 83.7103 42.0801C83.7103 56.2924 88.2308 63.3978 97.2717 63.3965H97.2756ZM99.474 119.941H89.8221L153.01 16.6148H162.48L99.474 119.941ZM155.374 121.001C148.601 121.001 143.32 118.353 139.532 113.056C135.745 107.759 133.843 101.4 133.827 93.9778C133.827 86.5093 135.674 80.1887 139.366 75.0159C143.059 69.8431 148.317 67.2593 155.142 67.2645C162.272 67.2645 167.646 69.9898 171.261 75.4403C174.877 80.8908 176.685 87.1986 176.687 94.3635C176.687 101.431 174.815 107.639 171.072 112.986C167.328 118.333 162.094 121.005 155.37 121.001H155.374ZM155.488 114.945C159.857 114.945 163.121 113.082 165.278 109.355C167.436 105.628 168.515 100.867 168.515 95.0727C168.515 88.8716 167.423 83.671 165.239 79.471C163.055 75.2711 159.652 73.1678 155.028 73.1614C146.241 73.1614 141.848 80.0369 141.848 93.7879C141.848 107.894 146.393 114.947 155.484 114.945H155.488Z" fill="#484848"/>
<path d="M118.195 122.534C119.001 121.054 118.085 119.24 117.033 117.918C115.981 116.597 114.698 115.225 114.725 113.541C114.764 111.124 117.354 109.696 119.419 108.413C120.955 107.462 122.372 106.334 123.64 105.053C124.171 104.559 124.61 103.977 124.936 103.332C125.365 102.386 125.351 101.311 125.328 100.276C125.238 96.824 125.065 93.3772 124.811 89.9355" stroke="#484848" stroke-width="4" stroke-miterlimit="10"/>
<path d="M128.746 89.7461C128.717 89.1147 128.527 88.5007 128.196 87.9609C127.864 87.4211 127.4 86.9727 126.847 86.6572L125.994 88.3276L126.02 86.3045C125.613 86.1867 125.19 86.1363 124.766 86.1553C124.014 86.1902 123.29 86.4452 122.684 86.8882C122.079 87.3311 121.619 87.942 121.364 88.6437C121.109 89.3453 121.069 90.1062 121.25 90.8301C121.432 91.554 121.825 92.2084 122.382 92.7105C122.939 93.2126 123.633 93.54 124.377 93.6511C125.122 93.7623 125.882 93.6523 126.564 93.335C127.245 93.0177 127.816 92.5073 128.204 91.8685C128.593 91.2297 128.781 90.4911 128.746 89.7461Z" fill="#FF9D00"/>
<path d="M121.96 115.275C121.56 116.044 120.906 116.653 120.107 117.001C119.308 117.349 118.413 117.414 117.571 117.185C116.73 116.957 115.993 116.448 115.485 115.745C114.977 115.042 114.728 114.188 114.78 113.325C114.832 112.462 115.183 111.643 115.772 111.005C116.361 110.367 117.154 109.95 118.017 109.822C118.88 109.695 119.761 109.866 120.513 110.306C121.264 110.745 121.84 111.428 122.144 112.239L119.765 114.155L122.386 113.551C122.385 114.151 122.239 114.742 121.96 115.275Z" fill="#FF9D00"/>
<path d="M120.08 107.949C119.581 107.972 119.082 107.897 118.612 107.729C118.141 107.562 117.709 107.303 117.34 106.97C116.97 106.637 116.67 106.234 116.458 105.786C116.245 105.338 116.123 104.852 116.1 104.358C116.071 103.767 116.183 103.178 116.429 102.639C116.656 102.135 116.992 101.687 117.413 101.326C117.834 100.964 118.33 100.699 118.866 100.548L118.844 102.098L119.707 100.408C120.715 100.362 121.701 100.714 122.447 101.387C123.194 102.061 123.639 103 123.687 103.999C123.734 104.998 123.379 105.975 122.699 106.715C122.019 107.454 121.071 107.896 120.063 107.943L120.08 107.949Z" fill="#FF9D00"/>
<path d="M129.319 101.857C128.814 101.89 128.307 101.823 127.828 101.66C127.35 101.497 126.908 101.241 126.531 100.907C126.153 100.573 125.846 100.167 125.629 99.7143C125.411 99.2614 125.287 98.77 125.263 98.2688C125.24 97.7677 125.317 97.2669 125.491 96.7958C125.665 96.3246 125.932 95.8926 126.277 95.525C126.621 95.1574 127.036 94.8616 127.498 94.6548C127.959 94.448 128.457 94.3345 128.963 94.3208C129.675 94.2865 130.381 94.4525 131.001 94.7995L130.328 96.6249L131.713 95.3091C132.456 95.9803 132.9 96.9164 132.947 97.9117C132.965 98.2608 132.932 98.6105 132.849 98.9504C132.66 99.7494 132.213 100.465 131.576 100.99C130.939 101.515 130.147 101.819 129.319 101.857Z" fill="#FF9D00"/>
<path opacity="0.1" d="M128.234 90.7515C127.356 90.8465 126.503 91.1178 125.621 91.172C124.739 91.2263 123.771 91.017 123.213 90.3368C122.912 89.9725 122.763 89.5093 122.509 89.1101C122.269 88.7385 121.94 88.4316 121.551 88.2168C121.307 88.6948 121.168 89.2189 121.144 89.7542C121.12 90.2894 121.212 90.8236 121.413 91.3211C121.613 91.8186 121.919 92.2679 122.309 92.6392C122.699 93.0105 123.164 93.2953 123.673 93.4745C124.183 93.6536 124.725 93.7232 125.264 93.6784C125.803 93.6337 126.326 93.4756 126.799 93.2149C127.271 92.9541 127.682 92.5966 128.004 92.1662C128.326 91.7357 128.552 91.2422 128.666 90.7186C128.521 90.7263 128.379 90.736 128.234 90.7515Z" fill="black"/>
<path opacity="0.1" d="M129.319 101.858C128.663 101.888 128.011 101.749 127.425 101.455C126.839 101.161 126.34 100.722 125.976 100.181C125.612 99.64 125.395 99.0147 125.346 98.3659C125.298 97.7172 125.419 97.067 125.699 96.4785C126.001 96.681 126.26 96.9389 126.464 97.2382C126.736 97.6432 126.9 98.1121 127.219 98.4842C127.806 99.176 128.824 99.4008 129.742 99.3601C130.659 99.3194 131.547 99.0597 132.462 98.9725C132.589 98.9609 132.718 98.9532 132.853 98.9493C132.664 99.7493 132.217 100.466 131.579 100.991C130.941 101.516 130.148 101.821 129.319 101.858Z" fill="black"/>
<path opacity="0.1" d="M120.08 107.948C119.581 107.972 119.082 107.897 118.612 107.729C118.141 107.561 117.709 107.303 117.34 106.97C116.97 106.636 116.67 106.234 116.458 105.786C116.245 105.338 116.123 104.852 116.1 104.358C116.071 103.767 116.183 103.178 116.429 102.639C116.743 102.846 117.015 103.109 117.233 103.414C117.528 103.827 117.714 104.303 118.06 104.685C118.701 105.392 119.781 105.642 120.753 105.619C121.725 105.596 122.603 105.371 123.54 105.299C123.308 106.04 122.851 106.691 122.232 107.165C121.613 107.639 120.862 107.912 120.08 107.948Z" fill="black"/>
<path opacity="0.1" d="M121.96 115.276C121.517 116.138 120.756 116.799 119.836 117.121C118.915 117.443 117.904 117.403 117.013 117.007C116.121 116.612 115.417 115.892 115.047 114.997C114.676 114.102 114.667 113.1 115.021 112.198C115.334 112.403 115.615 112.651 115.856 112.937C116.217 113.375 116.456 113.871 116.875 114.278C117.657 115.033 118.909 115.345 120.027 115.374C120.673 115.38 121.318 115.347 121.96 115.276Z" fill="black"/>
<path d="M177.064 122.341C177.87 120.86 176.954 119.046 175.902 117.725C174.85 116.403 173.567 115.031 173.594 113.347C173.634 110.931 176.223 109.503 178.288 108.22C179.824 107.269 181.241 106.141 182.509 104.859C183.04 104.366 183.479 103.783 183.806 103.139C184.234 102.193 184.22 101.117 184.197 100.083C184.107 96.6306 183.935 93.1838 183.68 89.7422" stroke="#484848" stroke-width="4" stroke-miterlimit="10"/>
<path d="M187.616 89.5518C187.586 88.9203 187.397 88.3064 187.065 87.7666C186.733 87.2267 186.269 86.7784 185.716 86.4628L184.864 88.1333L184.889 86.1101C184.482 85.9924 184.059 85.942 183.636 85.9609C182.884 85.9958 182.159 86.2509 181.553 86.6938C180.948 87.1368 180.488 87.7477 180.233 88.4493C179.978 89.151 179.938 89.9119 180.12 90.6357C180.301 91.3596 180.695 92.014 181.251 92.5162C181.808 93.0183 182.502 93.3456 183.247 93.4568C183.991 93.568 184.752 93.4579 185.433 93.1406C186.114 92.8233 186.685 92.313 187.074 91.6742C187.462 91.0354 187.651 90.2968 187.616 89.5518Z" fill="#FF9D00"/>
<path d="M180.829 115.082C180.43 115.851 179.776 116.46 178.977 116.808C178.178 117.156 177.282 117.221 176.441 116.992C175.599 116.763 174.862 116.255 174.354 115.552C173.846 114.849 173.597 113.994 173.649 113.131C173.702 112.268 174.052 111.449 174.641 110.811C175.231 110.174 176.023 109.756 176.886 109.629C177.75 109.502 178.631 109.672 179.382 110.112C180.133 110.552 180.709 111.235 181.013 112.045L178.635 113.962L181.255 113.357C181.254 113.958 181.108 114.549 180.829 115.082Z" fill="#FF9D00"/>
<path d="M178.949 107.754C178.45 107.777 177.951 107.703 177.481 107.535C177.011 107.367 176.578 107.109 176.209 106.776C175.839 106.442 175.539 106.04 175.327 105.592C175.114 105.143 174.993 104.658 174.969 104.163C174.94 103.573 175.052 102.984 175.298 102.445C175.525 101.941 175.861 101.493 176.282 101.131C176.703 100.77 177.199 100.505 177.735 100.354L177.713 101.904L178.576 100.214H178.586C179.085 100.191 179.584 100.265 180.054 100.433C180.524 100.601 180.957 100.859 181.326 101.193C181.696 101.526 181.995 101.929 182.208 102.377C182.421 102.825 182.542 103.31 182.566 103.805C182.589 104.3 182.514 104.794 182.344 105.26C182.175 105.726 181.914 106.154 181.578 106.52C181.241 106.887 180.835 107.184 180.383 107.394C179.931 107.605 179.441 107.725 178.942 107.748L178.949 107.754Z" fill="#FF9D00"/>
<path d="M188.189 101.664C187.683 101.697 187.176 101.63 186.698 101.467C186.219 101.304 185.778 101.048 185.4 100.713C185.022 100.379 184.716 99.974 184.498 99.521C184.28 99.068 184.156 98.5766 184.132 98.0755C184.109 97.5743 184.186 97.0735 184.36 96.6024C184.534 96.1313 184.801 95.6993 185.146 95.3317C185.49 94.964 185.905 94.6682 186.367 94.4614C186.828 94.2547 187.326 94.1411 187.833 94.1275C188.544 94.0931 189.25 94.2591 189.871 94.6061L189.198 96.4316L190.582 95.1158C191.326 95.787 191.769 96.723 191.817 97.7183C191.834 98.0674 191.801 98.4171 191.719 98.757C191.529 99.556 191.082 100.272 190.445 100.797C189.808 101.321 189.016 101.626 188.189 101.664Z" fill="#FF9D00"/>
<path opacity="0.1" d="M187.103 90.5582C186.225 90.6531 185.372 90.9244 184.49 90.9787C183.608 91.0329 182.64 90.8236 182.083 90.1435C181.781 89.7791 181.633 89.316 181.378 88.9168C181.138 88.5452 180.809 88.2383 180.42 88.0234C180.176 88.5014 180.037 89.0255 180.013 89.5608C179.989 90.0961 180.081 90.6302 180.282 91.1277C180.483 91.6252 180.788 92.0746 181.178 92.4459C181.568 92.8172 182.033 93.1019 182.543 93.2811C183.052 93.4603 183.595 93.5298 184.134 93.4851C184.672 93.4403 185.195 93.2823 185.668 93.0215C186.14 92.7607 186.551 92.4032 186.873 91.9728C187.195 91.5424 187.421 91.0489 187.535 90.5252C187.391 90.533 187.248 90.5427 187.103 90.5582Z" fill="black"/>
<path opacity="0.1" d="M188.189 101.664C187.533 101.693 186.88 101.554 186.294 101.261C185.709 100.967 185.21 100.528 184.845 99.9869C184.481 99.4456 184.264 98.8203 184.216 98.1716C184.167 97.5228 184.289 96.8727 184.568 96.2842C184.87 96.4867 185.13 96.7445 185.333 97.0438C185.605 97.4488 185.769 97.9178 186.088 98.2899C186.675 98.9817 187.694 99.2065 188.611 99.1658C189.528 99.1251 190.416 98.8654 191.332 98.7782C191.459 98.7666 191.588 98.7588 191.723 98.7549C191.534 99.5549 191.086 100.272 190.448 100.797C189.81 101.322 189.017 101.626 188.189 101.664Z" fill="black"/>
<path opacity="0.1" d="M178.949 107.754C178.45 107.777 177.951 107.703 177.481 107.535C177.011 107.367 176.578 107.109 176.209 106.775C175.839 106.442 175.539 106.04 175.327 105.591C175.114 105.143 174.993 104.658 174.969 104.163C174.94 103.573 175.052 102.983 175.298 102.444C175.612 102.651 175.884 102.914 176.102 103.219C176.397 103.632 176.583 104.109 176.929 104.491C177.571 105.198 178.65 105.448 179.622 105.425C180.565 105.405 181.472 105.177 182.409 105.105C182.177 105.845 181.72 106.497 181.101 106.971C180.482 107.445 179.731 107.718 178.949 107.754Z" fill="black"/>
<path opacity="0.1" d="M180.829 115.081C180.386 115.944 179.626 116.604 178.705 116.927C177.784 117.249 176.773 117.208 175.882 116.813C174.991 116.418 174.287 115.698 173.916 114.803C173.545 113.908 173.536 112.906 173.89 112.004C174.203 112.208 174.484 112.457 174.725 112.742C175.087 113.18 175.325 113.676 175.744 114.083C176.526 114.839 177.778 115.151 178.897 115.18C179.542 115.185 180.187 115.152 180.829 115.081Z" fill="black"/>
<path d="M101.264 101.662C101.267 101.192 101.16 100.728 100.95 100.306C100.74 99.8851 100.433 99.5183 100.055 99.2354C100.008 97.4584 98.7288 96.007 97.084 95.7822C96.9569 95.1784 96.6717 94.6185 96.257 94.1586C95.8422 93.6987 95.3126 93.355 94.7214 93.1622C94.5775 93.1171 94.4304 93.0827 94.2813 93.0595H94.2383L94.162 93.0498H94.0975H94.033H93.9489H93.898H93.7591C92.0811 93.0498 90.6846 94.321 90.3971 95.9973C89.3117 95.7492 88.3162 96.0709 88.1382 96.7511C88.0923 96.9314 88.1025 97.1212 88.1675 97.2956C88.3514 97.8227 88.9499 98.3266 89.7615 98.5766L89.8671 98.6076C89.9199 98.6231 89.9727 98.6347 90.0255 98.6463H90.0607C89.7624 99.2767 89.72 99.9966 89.9424 100.657C90.1649 101.318 90.6351 101.868 91.2557 102.195C91.2313 102.208 91.2078 102.223 91.1853 102.239C91.0851 102.33 91.0052 102.441 90.9506 102.565C90.7545 102.906 90.6021 103.27 90.4969 103.648C90.4187 103.972 90.405 104.311 90.3013 104.63C90.1233 105.212 89.6657 105.721 89.6129 106.34C89.5894 106.615 89.6344 106.938 89.4369 107.126C89.3877 107.168 89.3354 107.207 89.2804 107.241C89.1419 107.335 89.0247 107.456 88.9362 107.597C88.8785 107.714 88.8011 107.82 88.7073 107.911C88.5294 108.045 88.236 108.031 88.148 108.237C88.06 108.442 88.2868 108.684 88.234 108.909C88.191 109.091 87.9896 109.175 87.8429 109.297C87.6788 109.473 87.5642 109.689 87.5104 109.923C87.2182 109.979 86.9172 109.97 86.6288 109.897C86.3405 109.824 86.0718 109.69 85.8421 109.502C85.9209 109.702 85.9786 109.909 86.0142 110.12C85.7815 109.874 85.3981 109.803 85.1146 109.675C84.7488 109.509 84.4223 109.268 84.1562 108.969L84.6686 108.9L82.3999 105.489L81.731 105.353L82.3315 106.495C82.2823 106.518 82.2392 106.552 82.2053 106.594C82.1714 106.637 82.1477 106.686 82.1359 106.739C82.1035 106.865 82.0956 106.997 82.1124 107.126C82.1442 107.432 82.1958 107.736 82.2669 108.035L82.441 108.838C82.4557 108.913 82.4747 108.987 82.4977 109.06C82.2709 109.052 82.0441 109.078 81.8249 109.136C81.3752 108.971 80.9069 108.861 80.4304 108.808C80.3256 108.79 80.218 108.796 80.1156 108.824C79.9993 108.877 79.8984 108.958 79.8222 109.06C79.431 109.508 79.0839 109.993 78.7856 110.506C77.5672 112.607 75.9399 114.44 74.4164 116.339C73.3642 116.763 72.3041 117.166 71.2421 117.566L68.9597 118.428C68.504 118.6 68.0307 118.777 67.5457 118.746C67.3266 118.732 67.0607 118.699 66.9374 118.883C66.8775 118.975 66.8307 119.074 66.7986 119.178C66.7184 119.178 66.6382 119.197 66.5639 119.201H66.5502C66.4055 118.845 66.2803 118.463 66.0026 118.203C65.9467 118.212 65.8938 118.234 65.8487 118.268C65.8037 118.302 65.7678 118.346 65.7444 118.397C65.6897 118.498 65.6564 118.608 65.5938 118.701C65.4706 118.879 65.2574 118.967 65.1049 119.118C64.9523 119.269 64.8565 119.505 64.6922 119.653C64.4621 119.818 64.1925 119.922 63.9099 119.953C63.4865 120.052 63.0781 120.206 62.6953 120.41C62.5542 120.496 62.4032 120.565 62.2455 120.616C62.0721 120.649 61.8946 120.655 61.7194 120.633L60.5107 120.546C60.4032 120.532 60.294 120.537 60.188 120.56C60.0635 120.605 59.9576 120.69 59.8868 120.801C59.8161 120.912 59.7844 121.043 59.7969 121.174C59.8116 121.304 59.853 121.429 59.9186 121.542C59.9842 121.656 60.0726 121.755 60.1782 121.833C60.3881 121.985 60.6202 122.105 60.8667 122.187C61.917 122.59 62.9998 122.905 64.1035 123.127V123.369C64.8686 123.751 65.7132 123.95 66.5698 123.951C66.6329 123.956 66.6962 123.944 66.7536 123.918C66.8328 123.859 66.8877 123.774 66.9081 123.678C67.1646 122.918 67.3268 122.13 67.3912 121.331C67.5422 121.321 67.6901 121.284 67.8273 121.22C68.2439 121.108 68.6566 121.391 69.0849 121.437C69.613 121.494 70.1039 121.189 70.6026 121.001C70.675 120.974 70.7473 120.951 70.8197 120.928C70.6774 121.11 70.5095 121.271 70.321 121.406C70.1136 121.554 69.8809 121.662 69.6775 121.815C69.5085 121.968 69.3273 122.108 69.1357 122.232C69.0007 122.294 68.8615 122.347 68.7192 122.391C68.5128 122.465 68.3159 122.564 68.1324 122.683C67.9681 122.779 67.8288 122.912 67.7256 123.071C67.6737 123.145 67.6417 123.231 67.6328 123.321C67.624 123.411 67.6384 123.502 67.6749 123.584C67.7114 123.667 67.7686 123.739 67.8411 123.794C67.9137 123.849 67.9992 123.884 68.0894 123.897C68.2528 123.925 68.4195 123.93 68.5842 123.91C69.2374 123.862 69.8887 123.802 70.54 123.743C70.8157 123.725 71.0897 123.686 71.3595 123.627C71.5023 123.592 71.6431 123.546 71.7859 123.509C72.0294 123.445 72.2793 123.408 72.531 123.399C72.6041 123.393 72.6776 123.4 72.7481 123.42C72.9007 123.468 73.0082 123.614 73.1627 123.652C73.263 123.662 73.3642 123.648 73.4581 123.612C73.9348 123.509 74.4214 123.458 74.9092 123.459C75.1224 123.447 75.3728 123.406 75.4725 123.211C75.5938 122.968 75.3904 122.697 75.3102 122.435C75.2693 122.269 75.247 122.099 75.2437 121.928C75.2065 121.505 75.0841 121.095 74.8838 120.72C74.7774 120.546 74.6877 120.361 74.6159 120.17C75.5505 119.818 76.4447 119.368 77.2836 118.829C77.7647 118.533 78.2615 118.213 78.8052 118.104C79.4388 117.978 80.0921 118.145 80.716 118.323C82.2021 118.749 83.6639 119.255 85.095 119.837C85.7795 120.114 86.464 120.408 87.1642 120.612C87.3689 120.886 87.6165 121.125 87.8976 121.321C88.367 121.622 88.9401 121.709 89.4916 121.751C90.2367 121.819 90.9849 121.847 91.733 121.835C92.304 121.825 92.8927 121.786 93.4032 121.529C93.5279 121.465 93.6453 121.388 93.7533 121.3C94.1444 121.37 94.5454 121.162 94.8524 120.897C95.2588 120.554 95.5519 120.098 95.6934 119.589C95.8734 118.889 95.7345 118.073 96.1687 117.502C96.2841 117.349 96.4347 117.225 96.5481 117.07C96.6878 116.862 96.7564 116.615 96.7437 116.366L96.7632 116.337C96.8615 116.112 96.9273 115.875 96.9588 115.632C97.0103 115.442 97.0756 115.256 97.1544 115.075C97.3749 114.535 97.5668 113.983 97.7294 113.422C97.8425 113.051 97.9313 112.672 97.9954 112.289C98.0423 111.983 98.0697 111.675 98.0951 111.366C98.1265 110.884 98.2212 110.408 98.3768 109.95C98.7628 108.857 98.981 107.712 99.0241 106.555C99.0241 106.531 99.0241 106.51 99.0241 106.487C99.5919 106.425 100.116 106.156 100.494 105.732C100.872 105.307 101.077 104.758 101.068 104.192C101.068 103.851 100.996 103.514 100.857 103.202C101.127 102.733 101.267 102.202 101.264 101.662ZM90.2035 114.977C90.2368 115.095 90.2759 115.213 90.315 115.331C90.1351 115.155 89.9571 114.973 89.7752 114.798C89.8476 114.82 89.9199 114.843 89.9903 114.868C90.0653 114.898 90.1373 114.934 90.2055 114.977H90.2035ZM89.3273 114.395C88.2595 113.477 87.0234 112.764 85.9301 111.876C86.5169 112.169 87.1036 112.508 87.6903 112.833C88.3735 113.221 89.0646 113.592 89.7635 113.946C89.6488 114.118 89.5029 114.268 89.3332 114.388L89.3273 114.395ZM89.783 112.081L89.8339 112.029C89.8339 112.159 89.8339 112.281 89.8339 112.392C89.738 112.361 89.6383 112.33 89.5464 112.295C89.6308 112.226 89.7105 112.153 89.785 112.074L89.783 112.081ZM80.3815 114.57C80.8213 114.077 81.2038 113.537 81.5218 112.959C81.9442 113.694 82.6327 114.223 83.2194 114.837C82.2767 114.705 81.3321 114.603 80.3835 114.562L80.3815 114.57Z" fill="url(#paint0_linear_675_308)"/>
<path d="M81.907 105.637L82.5818 105.772L84.8798 109.136L83.8648 109.272L81.907 105.637Z" fill="#2E2E2E"/>
<path d="M65.5664 119.291C65.7483 119.887 65.9725 120.47 66.2372 121.035C66.9987 120.877 67.7477 120.665 68.4786 120.401C68.3371 120.183 68.1816 119.974 68.0131 119.775C67.8334 119.577 67.6187 119.414 67.3794 119.293C67.1467 119.192 66.8592 119.268 66.6108 119.281C66.2627 119.294 65.9145 119.297 65.5664 119.291Z" fill="#FBBEBE"/>
<path d="M67.3834 120.19C67.0039 120.072 66.7712 119.692 66.6167 119.326C66.4622 118.96 66.337 118.56 66.0436 118.291C65.9878 118.3 65.935 118.322 65.89 118.356C65.8449 118.39 65.809 118.434 65.7855 118.485C65.7288 118.582 65.6955 118.692 65.631 118.785C65.5097 118.96 65.2946 119.045 65.1401 119.194C64.9856 119.343 64.8897 119.57 64.7235 119.719C64.4928 119.884 64.2234 119.986 63.9412 120.018C63.5148 120.113 63.1032 120.265 62.7168 120.467C62.5738 120.549 62.4215 120.614 62.2631 120.661C62.0884 120.694 61.9096 120.7 61.7331 120.678L60.5146 120.591C60.4063 120.578 60.2965 120.583 60.19 120.607C60.0658 120.65 59.9598 120.732 59.8889 120.842C59.818 120.952 59.7862 121.082 59.7988 121.211C59.815 121.341 59.8581 121.465 59.9254 121.577C59.9928 121.689 60.0829 121.785 60.19 121.861C60.4018 122.011 60.6352 122.128 60.8823 122.209C61.9439 122.605 63.0362 122.914 64.1485 123.134V123.372C64.9215 123.751 65.7718 123.95 66.6343 123.953C66.7013 123.959 66.7686 123.948 66.8299 123.92C66.9091 123.863 66.9647 123.779 66.9863 123.684C67.2787 122.837 67.4492 121.954 67.4929 121.06C67.5153 120.834 67.4981 120.606 67.442 120.386C67.3755 120.169 67.6024 120.26 67.3912 120.175" fill="#2E2E2E"/>
<path d="M90.7433 115.639C87.131 115.856 83.5636 114.806 79.9454 114.693C79.4963 114.666 79.0456 114.695 78.6037 114.779C78.143 114.901 77.6971 115.073 77.2738 115.29C75.3356 116.184 73.3289 116.924 71.3243 117.664L69.0242 118.513C68.5627 118.682 68.0874 118.854 67.5965 118.825C67.3775 118.811 67.1095 118.778 66.9844 118.961C66.6108 119.509 66.7888 120.317 67.0352 120.933C67.1154 121.127 67.2503 121.35 67.4655 121.373C67.6177 121.363 67.7667 121.326 67.9055 121.263C68.3241 121.152 68.7426 121.431 69.1729 121.476C69.7068 121.532 70.2016 121.232 70.7043 121.048C71.5374 120.743 72.4488 120.753 73.325 120.608C74.7958 120.366 76.157 119.689 77.4322 118.918C77.9172 118.625 78.4101 118.311 78.9655 118.205C79.6051 118.081 80.2642 118.244 80.892 118.42C82.3887 118.84 83.8621 119.337 85.3062 119.91C86.0578 120.234 86.8285 120.512 87.614 120.743C89.326 121.19 91.137 121.086 92.7851 120.445C93.3719 120.218 93.9899 119.819 94.0231 119.201C94.0427 118.848 93.7669 118.538 93.5831 118.232C93.4638 118.038 93.3464 117.844 93.2174 117.66C92.5954 116.761 91.8405 115.573 90.7433 115.639Z" fill="#2E2E2E"/>
<path opacity="0.1" d="M90.7433 115.639C87.131 115.856 83.5636 114.806 79.9454 114.693C79.4963 114.666 79.0456 114.695 78.6037 114.779C78.143 114.901 77.6971 115.073 77.2738 115.29C75.3356 116.184 73.3289 116.924 71.3243 117.664L69.0242 118.513C68.5627 118.682 68.0874 118.854 67.5965 118.825C67.3775 118.811 67.1095 118.778 66.9844 118.961C66.6108 119.509 66.7888 120.317 67.0352 120.933C67.1154 121.127 67.2503 121.35 67.4655 121.373C67.6177 121.363 67.7667 121.326 67.9055 121.263C68.3241 121.152 68.7426 121.431 69.1729 121.476C69.7068 121.532 70.2016 121.232 70.7043 121.048C71.5374 120.743 72.4488 120.753 73.325 120.608C74.7958 120.366 76.157 119.689 77.4322 118.918C77.9172 118.625 78.4101 118.311 78.9655 118.205C79.6051 118.081 80.2642 118.244 80.892 118.42C82.3887 118.84 83.8621 119.337 85.3062 119.91C86.0578 120.234 86.8285 120.512 87.614 120.743C89.326 121.19 91.137 121.086 92.7851 120.445C93.3719 120.218 93.9899 119.819 94.0231 119.201C94.0427 118.848 93.7669 118.538 93.5831 118.232C93.4638 118.038 93.3464 117.844 93.2174 117.66C92.5954 116.761 91.8405 115.573 90.7433 115.639Z" fill="black"/>
<path d="M72.4997 119.465C73.0656 119.655 73.6354 119.83 74.2091 119.992C74.5318 119.467 75.1341 119.102 75.271 118.504C75.2788 118.478 75.2788 118.45 75.271 118.424C75.2561 118.399 75.2335 118.378 75.2065 118.366C74.7942 118.141 74.3367 118.008 73.8668 117.979C73.4952 117.955 73.327 118.339 73.1588 118.608C73.1001 118.717 72.6503 119.515 72.4997 119.465Z" fill="#FBBEBE"/>
<path d="M73.2957 119.082C73.1268 119.054 72.9657 118.991 72.8225 118.898C72.6794 118.805 72.5575 118.683 72.4645 118.541C72.3843 118.403 72.3002 118.217 72.1398 118.227C71.9795 118.237 71.9247 118.411 71.8915 118.556C71.7832 119.099 71.6267 119.632 71.424 120.147C71.2196 120.665 70.8735 121.115 70.4246 121.448C70.2153 121.591 69.9826 121.7 69.7773 121.851C69.6061 122.002 69.423 122.139 69.2296 122.262C69.0934 122.323 68.9529 122.375 68.8091 122.417C68.5984 122.489 68.3969 122.586 68.2087 122.705C68.0437 122.801 67.9037 122.934 67.8 123.093C67.7499 123.174 67.7205 123.265 67.7144 123.36C67.7082 123.454 67.7255 123.549 67.7647 123.635C67.8069 123.706 67.8635 123.766 67.9309 123.813C67.9983 123.86 68.075 123.893 68.1559 123.909C68.3208 123.936 68.4887 123.94 68.6546 123.92C69.3137 123.872 69.9709 123.814 70.628 123.756C70.9062 123.739 71.1828 123.701 71.4553 123.643C71.6001 123.608 71.7409 123.562 71.8836 123.525C72.1301 123.463 72.3825 123.426 72.6366 123.417C72.7103 123.411 72.7844 123.418 72.8557 123.438C73.0082 123.486 73.1158 123.632 73.2722 123.666C73.373 123.677 73.4749 123.664 73.5695 123.628C74.0505 123.527 74.5408 123.476 75.0325 123.477C75.2476 123.465 75.5019 123.424 75.5996 123.232C75.7229 122.994 75.5195 122.727 75.4373 122.471C75.3967 122.307 75.3738 122.139 75.3688 121.971C75.3318 121.554 75.2087 121.15 75.007 120.783C74.8388 120.477 74.6159 120.14 74.7274 119.814C74.7873 119.712 74.8253 119.6 74.8388 119.483C74.8115 118.958 73.593 119.151 73.2957 119.082Z" fill="#2E2E2E"/>
<path d="M85.3277 109.899C84.6878 109.619 84.1751 109.115 83.8883 108.483C83.8296 108.347 83.7788 108.206 83.722 108.068C83.5317 107.613 83.237 107.208 82.8615 106.886C82.8213 106.842 82.772 106.807 82.7169 106.784C82.6619 106.761 82.6024 106.75 82.5427 106.752C82.4849 106.769 82.4327 106.801 82.3915 106.845C82.3502 106.888 82.3214 106.942 82.308 107C82.2745 107.127 82.2659 107.258 82.2826 107.388C82.316 107.688 82.3682 107.987 82.439 108.281L82.6151 109.072C82.6373 109.193 82.674 109.312 82.7246 109.424C82.7999 109.557 82.8993 109.675 83.018 109.771C83.1783 109.919 83.3407 110.06 83.5049 110.198C83.5955 110.279 83.6945 110.35 83.8003 110.411C83.9738 110.492 84.1593 110.546 84.3499 110.57C85.0676 110.702 85.7971 110.891 86.4015 111.345C86.4015 111.345 86.4015 110.816 86.3878 110.764C86.3805 110.61 86.3274 110.463 86.2352 110.339C86.0084 110.097 85.6172 110.025 85.3277 109.899Z" fill="#FBBEBE"/>
<path opacity="0.1" d="M85.3277 109.899C84.6878 109.619 84.1751 109.115 83.8883 108.483C83.8296 108.347 83.7788 108.206 83.722 108.068C83.5317 107.613 83.237 107.208 82.8615 106.886C82.8213 106.842 82.772 106.807 82.7169 106.784C82.6619 106.761 82.6024 106.75 82.5427 106.752C82.4849 106.769 82.4327 106.801 82.3915 106.845C82.3502 106.888 82.3214 106.942 82.308 107C82.2745 107.127 82.2659 107.258 82.2826 107.388C82.316 107.688 82.3682 107.987 82.439 108.281L82.6151 109.072C82.6373 109.193 82.674 109.312 82.7246 109.424C82.7999 109.557 82.8993 109.675 83.018 109.771C83.1783 109.919 83.3407 110.06 83.5049 110.198C83.5955 110.279 83.6945 110.35 83.8003 110.411C83.9738 110.492 84.1593 110.546 84.3499 110.57C85.0676 110.702 85.7971 110.891 86.4015 111.345C86.4015 111.345 86.4015 110.816 86.3878 110.764C86.3805 110.61 86.3274 110.463 86.2352 110.339C86.0084 110.097 85.6172 110.025 85.3277 109.899Z" fill="black"/>
<path d="M92.6815 103.853C93.1665 103.853 93.5596 103.461 93.5596 102.977C93.5596 102.494 93.1665 102.102 92.6815 102.102C92.1965 102.102 91.8033 102.494 91.8033 102.977C91.8033 103.461 92.1965 103.853 92.6815 103.853Z" fill="#2E2E2E"/>
<path d="M92.1378 102.449C91.902 102.396 91.6546 102.431 91.4435 102.548C91.342 102.637 91.2612 102.747 91.2068 102.87C91.0093 103.204 90.8555 103.562 90.7492 103.935C90.6709 104.255 90.6572 104.588 90.5536 104.904C90.3737 105.486 89.9121 105.98 89.8593 106.586C89.8358 106.858 89.8808 107.177 89.6813 107.362C89.6317 107.403 89.5787 107.44 89.5229 107.472C89.384 107.564 89.266 107.684 89.1767 107.825C89.117 107.95 89.0341 108.064 88.9322 108.16C88.7523 108.292 88.457 108.278 88.369 108.482C88.281 108.685 88.5078 108.921 88.455 109.142C88.412 109.323 88.2086 109.406 88.0639 109.53C87.899 109.703 87.7836 109.916 87.7294 110.148C87.4356 110.203 87.1334 110.194 86.8434 110.122C86.5533 110.05 86.2825 109.917 86.0494 109.732C86.2939 110.33 86.2997 110.991 86.3095 111.636C86.3377 111.843 86.2822 112.052 86.155 112.218C86.8552 112.233 87.5358 112.412 88.2184 112.572C88.5103 112.669 88.8261 112.669 89.118 112.572C89.2741 112.489 89.4138 112.379 89.5307 112.247C89.9023 111.873 90.2915 111.472 90.3815 110.95C90.4053 110.657 90.4105 110.363 90.3971 110.069C90.433 109.706 90.5084 109.348 90.622 109.001C90.8185 108.281 90.9494 107.545 91.0132 106.801C91.0543 106.342 91.4532 105.974 91.6645 105.563C92.0556 104.788 92.4663 103.984 92.4976 103.116C92.525 102.833 92.4272 102.486 92.1378 102.449Z" fill="#2E2E2E"/>
<path opacity="0.1" d="M92.1378 102.449C91.902 102.396 91.6546 102.431 91.4435 102.548C91.342 102.637 91.2612 102.747 91.2068 102.87C91.0093 103.204 90.8555 103.562 90.7492 103.935C90.6709 104.255 90.6572 104.588 90.5536 104.904C90.3737 105.486 89.9121 105.98 89.8593 106.586C89.8358 106.858 89.8808 107.177 89.6813 107.362C89.6317 107.403 89.5787 107.44 89.5229 107.472C89.384 107.564 89.266 107.684 89.1767 107.825C89.117 107.95 89.0341 108.064 88.9322 108.16C88.7523 108.292 88.457 108.278 88.369 108.482C88.281 108.685 88.5078 108.921 88.455 109.142C88.412 109.323 88.2086 109.406 88.0639 109.53C87.899 109.703 87.7836 109.916 87.7294 110.148C87.4356 110.203 87.1334 110.194 86.8434 110.122C86.5533 110.05 86.2825 109.917 86.0494 109.732C86.2939 110.33 86.2997 110.991 86.3095 111.636C86.3377 111.843 86.2822 112.052 86.155 112.218C86.8552 112.233 87.5358 112.412 88.2184 112.572C88.5103 112.669 88.8261 112.669 89.118 112.572C89.2741 112.489 89.4138 112.379 89.5307 112.247C89.9023 111.873 90.2915 111.472 90.3815 110.95C90.4053 110.657 90.4105 110.363 90.3971 110.069C90.433 109.706 90.5084 109.348 90.622 109.001C90.8185 108.281 90.9494 107.545 91.0132 106.801C91.0543 106.342 91.4532 105.974 91.6645 105.563C92.0556 104.788 92.4663 103.984 92.4976 103.116C92.525 102.833 92.4272 102.486 92.1378 102.449Z" fill="black"/>
<path d="M91.3164 116.393C90.5634 116.038 90.0138 115.378 89.4056 114.812C88.2438 113.73 86.8239 112.967 85.6035 111.953C84.7958 111.283 84.0721 110.502 83.1822 109.94C82.3996 109.445 81.5119 109.137 80.5889 109.039C80.4834 109.021 80.3752 109.026 80.272 109.054C80.1554 109.106 80.0539 109.186 79.9767 109.287C79.5824 109.727 79.232 110.204 78.9304 110.711C77.3833 113.312 75.187 115.5 73.3661 117.92C73.3077 117.977 73.2731 118.054 73.2691 118.135C73.2651 118.216 73.2921 118.296 73.3446 118.358L73.7143 119.077C73.9216 119.478 74.2541 119.947 74.6922 119.868C74.8932 119.81 75.0731 119.697 75.2104 119.54L76.8729 117.965L78.6155 116.314C79.6364 115.345 80.6749 114.356 81.3419 113.12C81.8621 114.013 82.7852 114.599 83.4189 115.418C83.6595 115.728 83.855 116.071 84.0702 116.401C84.4164 116.93 84.8075 117.426 85.1987 117.92L87.1994 120.449C87.4519 120.809 87.7648 121.124 88.1245 121.379C88.5978 121.676 89.1748 121.755 89.7322 121.804C90.4831 121.871 91.2372 121.899 91.9911 121.885C92.5661 121.875 93.1646 121.838 93.6731 121.585C94.1816 121.331 94.6138 120.809 94.5865 120.242C94.5553 119.944 94.4571 119.657 94.299 119.403C93.5929 118.104 92.658 117.019 91.3164 116.393Z" fill="#2E2E2E"/>
<path d="M93.2213 104.257C93.5939 104.257 93.896 103.956 93.896 103.585C93.896 103.213 93.5939 102.912 93.2213 102.912C92.8486 102.912 92.5465 103.213 92.5465 103.585C92.5465 103.956 92.8486 104.257 93.2213 104.257Z" fill="#E8E8F0"/>
<path d="M93.0727 103.078C93.2251 103.379 93.2518 103.727 93.147 104.047C93.0427 104.362 92.8967 104.662 92.7128 104.939C92.5545 105.224 92.365 105.492 92.1476 105.737C93.19 105.787 94.2012 105.382 95.1204 104.89C95.8616 104.502 96.6009 104.008 96.996 103.27C96.8784 103.298 96.7562 103.301 96.6374 103.279C96.5185 103.258 96.4055 103.212 96.3056 103.144C96.1067 103.007 95.9283 102.842 95.7756 102.656L95.2534 102.074C95.13 101.947 95.0218 101.806 94.9307 101.654C94.8164 101.448 94.7679 101.212 94.7918 100.978C94.5839 101.193 94.3516 101.384 94.0995 101.547C93.7259 101.79 93.3171 101.964 92.9397 102.202C92.8067 102.288 92.5114 102.425 92.5876 102.59C92.6639 102.755 92.9671 102.892 93.0727 103.078Z" fill="#FBBEBE"/>
<path opacity="0.1" d="M93.0727 103.078C93.2251 103.379 93.2518 103.727 93.147 104.047C93.0427 104.362 92.8967 104.662 92.7128 104.939C92.5545 105.224 92.365 105.492 92.1476 105.737C93.19 105.787 94.2012 105.382 95.1204 104.89C95.8616 104.502 96.6009 104.008 96.996 103.27C96.8784 103.298 96.7562 103.301 96.6374 103.279C96.5185 103.258 96.4055 103.212 96.3056 103.144C96.1067 103.007 95.9283 102.842 95.7756 102.656L95.2534 102.074C95.13 101.947 95.0218 101.806 94.9307 101.654C94.8164 101.448 94.7679 101.212 94.7918 100.978C94.5839 101.193 94.3516 101.384 94.0995 101.547C93.7259 101.79 93.3171 101.964 92.9397 102.202C92.8067 102.288 92.5114 102.425 92.5876 102.59C92.6639 102.755 92.9671 102.892 93.0727 103.078Z" fill="black"/>
<path d="M93.0863 103.18C92.9809 103.327 92.9243 103.504 92.9243 103.684C92.9243 103.865 92.9809 104.042 93.0863 104.189C93.1157 104.226 93.2272 104.457 93.2819 104.459C93.3281 104.455 93.3708 104.433 93.4012 104.399C93.6375 104.154 93.8583 103.895 94.0623 103.623C94.2684 103.348 94.5664 103.155 94.9033 103.077C95.312 103.013 95.7051 103.228 96.063 103.433C96.2168 103.509 96.3508 103.619 96.4542 103.755C96.5296 103.89 96.5743 104.039 96.5852 104.193C96.688 105.117 96.7272 106.047 96.7026 106.976C96.7216 107.646 96.6771 108.316 96.5696 108.978C96.5031 109.319 96.4033 109.652 96.3564 109.997C96.3222 110.301 96.3084 110.606 96.3153 110.912V112.191C96.3067 112.425 96.3238 112.66 96.3662 112.89C96.4469 113.165 96.5416 113.436 96.6498 113.702C96.745 114.018 96.8105 114.343 96.8454 114.671L97.0214 115.995C97.0781 116.413 97.1192 116.869 96.863 117.204C96.7495 117.357 96.597 117.477 96.4718 117.628C96.0318 118.182 96.1784 118.987 95.9829 119.675C95.8382 120.179 95.5422 120.629 95.134 120.963C94.8231 121.225 94.4202 121.432 94.0173 121.351C93.4755 121.25 93.1489 120.69 93.0003 120.161C92.8516 119.632 92.8047 119.055 92.4781 118.611C92.216 118.245 91.8112 118.016 91.4454 117.754C91.0797 117.493 90.7198 117.157 90.6396 116.716C90.6044 116.522 90.626 116.328 90.6064 116.134C90.5773 115.887 90.4817 115.653 90.3296 115.455C90.1775 115.257 89.9746 115.103 89.7419 115.01C89.4642 114.904 89.12 114.865 88.9596 114.623C89.3578 114.375 89.648 113.988 89.7732 113.539C89.8946 113.097 89.9603 112.641 89.9688 112.183L90.0627 110.644C90.1038 109.956 90.1233 109.274 90.4284 108.656C90.5653 108.381 90.7355 108.121 90.8763 107.848C91.0649 107.464 91.2257 107.068 91.3574 106.662C91.5784 106.032 91.8014 105.4 91.9989 104.763C92.078 104.454 92.1963 104.156 92.351 103.877C92.5328 103.587 92.7734 103.238 93.0863 103.18Z" fill="#E8E8F0"/>
<path d="M89.6383 113.177L90.049 113.19L90.137 112.576C90.1487 112.453 90.1777 112.332 90.2231 112.218C90.2913 112.096 90.3705 111.982 90.4597 111.875C90.8646 111.309 90.8352 110.557 90.935 109.869C91.068 108.952 91.4552 108.092 91.8385 107.247L92.6365 105.485C92.7076 105.341 92.7646 105.189 92.8067 105.034C92.8415 104.862 92.8579 104.688 92.8556 104.513C92.8556 104.241 92.9455 103.251 92.9514 102.978C92.9514 102.877 92.7284 102.933 92.6815 102.844C92.5817 102.65 92.4448 103.177 92.2571 103.294C92.0801 103.428 91.9512 103.615 91.8894 103.827C91.7173 104.27 91.6117 104.737 91.4513 105.183C91.3106 105.64 91.054 106.053 90.7062 106.383C90.5438 106.526 90.3541 106.638 90.1996 106.79C89.7028 107.276 89.6559 108.043 89.6383 108.727C89.6266 109.152 89.5464 113.177 89.6383 113.177Z" fill="#2E2E2E"/>
<path d="M95.5546 102.444C95.1634 102.599 94.9365 103.026 94.825 103.44C94.7136 103.855 94.6666 104.293 94.4515 104.661C93.9508 105.526 92.6737 105.777 92.3197 106.712C92.2296 107.027 92.1815 107.353 92.1769 107.68C92.1143 108.349 91.8914 108.996 91.8249 109.665C91.7903 110.185 91.8028 110.707 91.862 111.225L92.3099 116.502C92.3968 117.279 92.3511 118.065 92.175 118.827C92.6343 118.893 93.1028 118.816 93.5166 118.608C93.9371 118.414 94.3205 118.158 94.7233 117.938C95.4177 117.55 96.1843 117.288 96.7906 116.775C96.9006 116.69 96.9952 116.587 97.0703 116.471C97.1676 116.249 97.2334 116.015 97.2659 115.775C97.3173 115.588 97.3827 115.406 97.4615 115.228C97.6861 114.697 97.8819 114.153 98.0482 113.601C98.1621 113.234 98.2516 112.861 98.3161 112.482C98.365 112.182 98.3905 111.878 98.4178 111.576C98.4491 111.1 98.5445 110.631 98.7014 110.18C99.0894 109.105 99.309 107.978 99.3527 106.837C99.3662 106.673 99.355 106.507 99.3194 106.345C99.2519 106.149 99.1613 105.962 99.0496 105.787C98.8637 105.44 98.7523 105.059 98.5763 104.708C98.1851 103.913 97.483 103.311 96.7495 102.805C96.374 102.559 95.9614 102.291 95.5546 102.444Z" fill="#2E2E2E"/>
<path d="M86.2176 111.055C85.8999 110.89 85.6124 110.674 85.3668 110.415C85.2553 110.285 85.1712 110.14 85.05 110.012C84.7627 109.709 84.39 109.498 83.9802 109.408C83.5732 109.319 83.1568 109.279 82.7402 109.289C82.4619 109.27 82.1825 109.304 81.9168 109.388C81.7834 109.431 81.6633 109.507 81.5675 109.609C81.4717 109.711 81.4035 109.835 81.3692 109.97C81.3086 110.299 81.5257 110.619 81.7858 110.828C82.0277 111.024 82.3123 111.161 82.617 111.229C82.8655 111.272 83.1163 111.301 83.368 111.316C84.8466 111.469 86.1667 112.266 87.4615 112.993C88.5998 113.63 89.7602 114.226 90.9428 114.781C90.9897 114.431 91.0093 114.077 91.0015 113.723C91.0015 113.46 90.9819 113.057 90.7296 112.902C90.4362 112.719 89.9473 112.679 89.6226 112.57C88.8604 112.324 88.1161 112.026 87.395 111.679C86.9862 111.483 86.5951 111.276 86.2176 111.055Z" fill="#FBBEBE"/>
<path d="M92.6815 102.778C94.1365 102.778 95.316 101.602 95.316 100.152C95.316 98.702 94.1365 97.5264 92.6815 97.5264C91.2265 97.5264 90.0471 98.702 90.0471 100.152C90.0471 101.602 91.2265 102.778 92.6815 102.778Z" fill="#FBBEBE"/>
<path d="M96.3075 105.422C96.0978 105.714 95.9263 106.031 95.7971 106.365C95.4705 107.03 94.96 107.6 94.7057 108.303C94.4358 109.034 94.4456 109.904 93.9234 110.479C93.8185 110.567 93.7394 110.681 93.6946 110.809C93.6914 110.889 93.6822 110.969 93.6672 111.047C93.5929 111.257 93.2467 111.266 93.1822 111.479C93.1646 111.541 93.1822 111.609 93.1509 111.673C93.0981 111.811 92.9162 111.83 92.793 111.913C92.5368 112.086 92.5974 112.485 92.4018 112.733C92.3223 112.825 92.2197 112.895 92.1043 112.935C91.9889 112.975 91.8648 112.984 91.7447 112.962C91.5049 112.912 91.2742 112.826 91.0602 112.708C90.9849 112.666 90.9016 112.64 90.8157 112.632C90.7136 112.635 90.6146 112.668 90.5321 112.727C90.0451 113.034 89.8163 113.642 89.8202 114.216C89.8545 114.789 89.9916 115.352 90.225 115.878C90.2526 115.969 90.2985 116.054 90.36 116.126C90.5204 116.295 90.802 116.268 91.0171 116.173C91.2187 116.055 91.4333 115.96 91.6567 115.89C92.0635 115.816 92.4624 116.095 92.8751 116.072C93.177 116.027 93.4613 115.902 93.6985 115.712C94.1174 115.46 94.4925 115.142 94.8094 114.772C94.9893 114.537 95.1223 114.27 95.2807 114.02C95.4831 113.713 95.7052 113.419 95.9457 113.14L97.4654 111.297C97.6178 111.123 97.7546 110.935 97.8741 110.737C98.0111 110.469 98.118 110.187 98.1929 109.896C98.3557 109.411 98.4614 108.908 98.5078 108.398C98.5156 107.976 98.4782 107.555 98.3963 107.141C98.3453 106.729 98.2353 106.326 98.0697 105.945C97.7313 105.267 96.9275 104.705 96.3075 105.422Z" fill="#2E2E2E"/>
<path d="M101.6 102.001C101.602 101.535 101.492 101.076 101.28 100.661C101.068 100.245 100.759 99.8856 100.379 99.6115C100.368 98.785 100.061 97.9894 99.5122 97.3666C98.9638 96.7437 98.21 96.334 97.3852 96.2106C97.2257 95.4277 96.7925 94.7257 96.1618 94.2283C95.5312 93.7309 94.7436 93.4699 93.9379 93.4915C93.1321 93.513 92.3599 93.8156 91.7572 94.346C91.1546 94.8764 90.7602 95.6005 90.6436 96.3908C89.5483 96.1466 88.5469 96.4645 88.3651 97.133C88.1695 97.8326 88.9518 98.6504 90.1096 98.9604C90.4724 99.062 90.8505 99.0994 91.2264 99.0709C91.4956 99.4626 91.8445 99.7942 92.2507 100.045C92.6569 100.295 93.1114 100.458 93.5851 100.524C93.7242 101.156 94.0386 101.737 94.493 102.202C94.9474 102.667 95.5237 102.996 96.1569 103.154C96.3321 103.573 96.6041 103.946 96.951 104.243C96.951 104.324 96.9373 104.408 96.9373 104.493C96.9247 104.791 96.973 105.088 97.0794 105.367C97.1858 105.646 97.348 105.901 97.5562 106.116C97.7645 106.331 98.0146 106.502 98.2914 106.619C98.5682 106.736 98.866 106.797 99.1669 106.797C99.4678 106.797 99.7656 106.736 100.042 106.619C100.319 106.502 100.569 106.331 100.778 106.116C100.986 105.901 101.148 105.646 101.254 105.367C101.361 105.088 101.409 104.791 101.396 104.493C101.397 104.159 101.324 103.828 101.183 103.524C101.458 103.063 101.602 102.537 101.6 102.001Z" fill="#F86D70"/>
<path opacity="0.1" d="M89.1083 97.267C89.2901 96.5984 90.2817 96.2806 91.3868 96.5248C91.5153 95.7222 91.9259 94.9904 92.546 94.4585C93.1662 93.9267 93.956 93.629 94.7761 93.618C94.8524 93.618 94.9287 93.618 95.003 93.618C94.6861 93.5222 94.3565 93.4739 94.0251 93.4746C93.205 93.4856 92.4152 93.7833 91.795 94.3151C91.1749 94.847 90.7643 95.5788 90.6357 96.3814C89.5405 96.1372 88.5391 96.455 88.3572 97.1236C88.1617 97.8232 88.944 98.6409 90.1018 98.951C90.3172 99.0102 90.538 99.0478 90.7609 99.0634C89.6617 98.7456 88.9225 97.9511 89.1083 97.267Z" fill="black"/>
<path opacity="0.1" d="M97.6805 104.629C97.6805 104.544 97.6805 104.46 97.6942 104.377C97.3472 104.081 97.0752 103.709 96.9001 103.29C96.2673 103.131 95.6917 102.8 95.2375 102.336C94.7833 101.871 94.4685 101.29 94.3283 100.658C93.8545 100.593 93.3999 100.429 92.9936 100.179C92.5874 99.9287 92.2386 99.5969 91.9696 99.2049C91.7505 99.2221 91.5303 99.2163 91.3124 99.1875C91.5828 99.5486 91.923 99.8528 92.3131 100.082C92.7033 100.312 93.1357 100.462 93.5851 100.525C93.7242 101.157 94.0386 101.738 94.493 102.202C94.9474 102.667 95.5237 102.997 96.1569 103.154C96.3322 103.574 96.6041 103.947 96.951 104.243C96.951 104.325 96.9373 104.408 96.9373 104.493C96.9273 105.087 97.1549 105.661 97.5705 106.09C97.986 106.518 98.5556 106.766 99.1552 106.78C98.7176 106.613 98.342 106.317 98.0785 105.933C97.815 105.549 97.6761 105.094 97.6805 104.629Z" fill="black"/>
<path d="M93.8868 101.114C94.0657 100.979 94.064 100.679 93.883 100.443C93.702 100.207 93.4103 100.124 93.2314 100.259C93.0525 100.394 93.0541 100.694 93.2351 100.93C93.4161 101.166 93.7079 101.249 93.8868 101.114Z" fill="#FBBEBE"/>
</g>
<defs>
<linearGradient id="paint0_linear_675_308" x1="80.5321" y1="123.953" x2="80.5321" y2="93.0169" gradientUnits="userSpaceOnUse">
<stop stop-color="#808080" stop-opacity="0.25"/>
<stop offset="0.54" stop-color="#808080" stop-opacity="0.12"/>
<stop offset="1" stop-color="#808080" stop-opacity="0.1"/>
</linearGradient>
<clipPath id="clip0_675_308">
<rect width="192" height="127" fill="white"/>
</clipPath>
</defs>
</svg>
