<svg width="158" height="163" viewBox="0 0 158 163" fill="none" xmlns="http://www.w3.org/2000/svg">
<g clip-path="url(#clip0_675_409)">
<path d="M110.209 19.884L109.907 20.1973L130.677 39.6782L130.98 39.365L110.209 19.884Z" fill="#9D9D9D"/>
<path d="M131.013 37.2529L130.575 37.2791L130.707 39.4074L128.542 39.3818L128.538 39.8144L131.174 39.8452L131.013 37.2529Z" fill="#9D9D9D"/>
<path d="M112.349 19.7478L112.345 20.1804L110.18 20.1548L110.313 22.2831L109.874 22.3093L109.714 19.7168L112.349 19.7478Z" fill="#9D9D9D"/>
<path d="M120.443 32.1593C121.777 32.1593 122.858 31.0944 122.858 29.7808C122.858 28.4672 121.777 27.4023 120.443 27.4023C119.11 27.4023 118.029 28.4672 118.029 29.7808C118.029 31.0944 119.11 32.1593 120.443 32.1593Z" fill="#9D9D9D"/>
<path d="M48.2295 19.8843L27.459 39.3652L27.7617 39.6785L48.5322 20.1975L48.2295 19.8843Z" fill="#9D9D9D"/>
<path d="M27.2652 39.8452L29.9016 39.8144L29.8966 39.3818L27.7322 39.4074L27.8646 37.2791L27.426 37.2529L27.2652 39.8452Z" fill="#9D9D9D"/>
<path d="M48.7255 19.7168L48.565 22.3093L48.1264 22.2831L48.2585 20.1548L46.0942 20.1804L46.0895 19.7478L48.7255 19.7168Z" fill="#9D9D9D"/>
<path d="M37.9956 32.1593C39.329 32.1593 40.41 31.0944 40.41 29.7808C40.41 28.4672 39.329 27.4023 37.9956 27.4023C36.6622 27.4023 35.5813 28.4672 35.5813 29.7808C35.5813 31.0944 36.6622 32.1593 37.9956 32.1593Z" fill="#9D9D9D"/>
<path d="M97.2174 49.2992H60.7826C60.2589 49.2986 59.7568 49.0934 59.3865 48.7285C59.0162 48.3637 58.8079 47.8691 58.8073 47.3532V1.94602C58.8079 1.43008 59.0162 0.935449 59.3865 0.570627C59.7568 0.205804 60.2589 0.000587546 60.7826 0H97.2174C97.7411 0.000587546 98.2432 0.205804 98.6135 0.570627C98.9838 0.935449 99.1921 1.43008 99.1927 1.94602V47.3532C99.1921 47.8691 98.9838 48.3637 98.6135 48.7285C98.2432 49.0934 97.7411 49.2986 97.2174 49.2992ZM60.7826 0.43245C60.3753 0.432901 59.9848 0.59251 59.6968 0.876262C59.4087 1.16001 59.2467 1.54473 59.2463 1.94602V47.3532C59.2467 47.7544 59.4087 48.1392 59.6968 48.4229C59.9848 48.7067 60.3753 48.8663 60.7826 48.8667H97.2174C97.6247 48.8663 98.0152 48.7067 98.3033 48.4229C98.5913 48.1392 98.7533 47.7544 98.7538 47.3532V1.94602C98.7533 1.54473 98.5913 1.16001 98.3033 0.876262C98.0152 0.59251 97.6247 0.432901 97.2174 0.43245H60.7826Z" fill="#3F3D56"/>
<path d="M60.7826 0.43245C60.3753 0.432901 59.9848 0.59251 59.6968 0.876262C59.4087 1.16001 59.2467 1.54473 59.2463 1.94602V47.3532C59.2467 47.7544 59.4087 48.1392 59.6968 48.4229C59.9848 48.7067 60.3753 48.8663 60.7826 48.8667H97.2174C97.6247 48.8663 98.0152 48.7067 98.3033 48.4229C98.5913 48.1392 98.7533 47.7544 98.7538 47.3532V1.94602C98.7533 1.54473 98.5913 1.16001 98.3033 0.876262C98.0152 0.59251 97.6247 0.432901 97.2174 0.43245H60.7826Z" fill="white"/>
<path d="M75.9692 21.8262H67.9492C67.6873 21.8259 67.4362 21.7233 67.2511 21.5409C67.0659 21.3585 66.9618 21.1111 66.9615 20.8532V11.5297C66.9618 11.2717 67.0659 11.0244 67.2511 10.8419C67.4362 10.6595 67.6873 10.5569 67.9492 10.5566H75.9692C76.231 10.5569 76.4821 10.6595 76.6673 10.8419C76.8524 11.0244 76.9566 11.2717 76.9569 11.5297V20.8532C76.9566 21.1111 76.8524 21.3585 76.6673 21.5409C76.4821 21.7233 76.231 21.8259 75.9692 21.8262Z" fill="#FF9D00"/>
<path d="M91.5527 26.1504H83.5327C83.2708 26.1501 83.0198 26.0475 82.8346 25.8651C82.6494 25.6827 82.5453 25.4354 82.545 25.1774V15.8539C82.5453 15.5959 82.6494 15.3486 82.8346 15.1662C83.0198 14.9837 83.2708 14.8811 83.5327 14.8809H91.5527C91.8146 14.8811 92.0656 14.9837 92.2508 15.1662C92.4359 15.3486 92.5401 15.5959 92.5404 15.8539V25.1774C92.5401 25.4354 92.4359 25.6827 92.2508 25.8651C92.0656 26.0475 91.8146 26.1501 91.5527 26.1504Z" fill="#CCCCCC"/>
<path d="M79.042 39.3399H71.022C70.7601 39.3396 70.509 39.237 70.3239 39.0546C70.1387 38.8721 70.0346 38.6248 70.0343 38.3668V29.0433C70.0346 28.7854 70.1387 28.538 70.3239 28.3556C70.509 28.1732 70.7601 28.0706 71.022 28.0703H79.042C79.3038 28.0706 79.5549 28.1732 79.7401 28.3556C79.9252 28.538 80.0294 28.7854 80.0297 29.0433V38.3668C80.0294 38.6248 79.9252 38.8721 79.7401 39.0546C79.5549 39.237 79.3038 39.3396 79.042 39.3399Z" fill="#FF6584"/>
<path d="M156.025 95.9886H119.59C119.066 95.988 118.564 95.7828 118.194 95.418C117.823 95.0532 117.615 94.5585 117.615 94.0426V48.6355C117.615 48.1195 117.823 47.6249 118.194 47.2601C118.564 46.8953 119.066 46.69 119.59 46.6895H156.025C156.548 46.69 157.05 46.8953 157.421 47.2601C157.791 47.6249 157.999 48.1195 158 48.6355V94.0426C157.999 94.5585 157.791 95.0532 157.421 95.418C157.05 95.7828 156.548 95.988 156.025 95.9886ZM119.59 47.1219C119.183 47.1223 118.792 47.282 118.504 47.5657C118.216 47.8495 118.054 48.2342 118.054 48.6355V94.0426C118.054 94.4439 118.216 94.8286 118.504 95.1124C118.792 95.3961 119.183 95.5557 119.59 95.5562H156.025C156.432 95.5557 156.822 95.3961 157.111 95.1124C157.399 94.8286 157.561 94.4439 157.561 94.0426V48.6355C157.561 48.2342 157.399 47.8495 157.111 47.5657C156.822 47.282 156.432 47.1223 156.025 47.1219H119.59Z" fill="#3F3D56"/>
<path d="M119.59 47.1219C119.183 47.1223 118.792 47.282 118.504 47.5657C118.216 47.8495 118.054 48.2342 118.054 48.6355V94.0426C118.054 94.4439 118.216 94.8286 118.504 95.1124C118.792 95.3961 119.183 95.5557 119.59 95.5562H156.025C156.432 95.5557 156.822 95.3961 157.111 95.1124C157.399 94.8286 157.561 94.4439 157.561 94.0426V48.6355C157.561 48.2342 157.399 47.8495 157.111 47.5657C156.822 47.282 156.432 47.1223 156.025 47.1219H119.59Z" fill="white"/>
<path d="M144.063 56.7444H131.552C131.319 56.7444 131.096 56.6533 130.931 56.4911C130.766 56.3289 130.674 56.1089 130.674 55.8795C130.674 55.6502 130.766 55.4302 130.931 55.268C131.096 55.1058 131.319 55.0146 131.552 55.0146H144.063C144.295 55.0146 144.519 55.1058 144.683 55.268C144.848 55.4302 144.941 55.6502 144.941 55.8795C144.941 56.1089 144.848 56.3289 144.683 56.4911C144.519 56.6533 144.295 56.7444 144.063 56.7444Z" fill="#FF9D00"/>
<path d="M150.208 64.9603H125.406C125.291 64.9605 125.177 64.9382 125.07 64.8949C124.963 64.8515 124.866 64.7878 124.785 64.7075C124.703 64.6271 124.638 64.5317 124.594 64.4267C124.55 64.3217 124.527 64.2091 124.527 64.0954C124.527 63.9817 124.55 63.8691 124.594 63.764C124.638 63.659 124.703 63.5636 124.785 63.4833C124.866 63.4029 124.963 63.3393 125.07 63.2959C125.177 63.2525 125.291 63.2303 125.406 63.2305H150.208C150.324 63.2303 150.438 63.2525 150.545 63.2959C150.651 63.3393 150.748 63.4029 150.83 63.4833C150.912 63.5636 150.977 63.659 151.021 63.764C151.065 63.8691 151.088 63.9817 151.088 64.0954C151.088 64.2091 151.065 64.3217 151.021 64.4267C150.977 64.5317 150.912 64.6271 150.83 64.7075C150.748 64.7878 150.651 64.8515 150.545 64.8949C150.438 64.9382 150.324 64.9605 150.208 64.9603Z" fill="#CCCCCC"/>
<path d="M150.208 69.5013H125.406C125.291 69.5015 125.177 69.4792 125.07 69.4359C124.963 69.3925 124.866 69.3288 124.785 69.2485C124.703 69.1682 124.638 69.0727 124.594 68.9677C124.55 68.8627 124.527 68.7501 124.527 68.6364C124.527 68.5227 124.55 68.4101 124.594 68.3051C124.638 68.2 124.703 68.1046 124.785 68.0243C124.866 67.9439 124.963 67.8803 125.07 67.8369C125.177 67.7935 125.291 67.7713 125.406 67.7715H150.208C150.324 67.7713 150.438 67.7935 150.545 67.8369C150.651 67.8803 150.748 67.9439 150.83 68.0243C150.912 68.1046 150.977 68.2 151.021 68.3051C151.065 68.4101 151.088 68.5227 151.088 68.6364C151.088 68.7501 151.065 68.8627 151.021 68.9677C150.977 69.0727 150.912 69.1682 150.83 69.2485C150.748 69.3288 150.651 69.3925 150.545 69.4359C150.438 69.4792 150.324 69.5015 150.208 69.5013Z" fill="#CCCCCC"/>
<path d="M150.208 74.0423H125.406C125.291 74.0425 125.177 74.0203 125.07 73.9769C124.963 73.9335 124.866 73.8698 124.785 73.7895C124.703 73.7092 124.638 73.6138 124.594 73.5087C124.55 73.4037 124.527 73.2911 124.527 73.1774C124.527 73.0637 124.55 72.9511 124.594 72.8461C124.638 72.741 124.703 72.6456 124.785 72.5653C124.866 72.485 124.963 72.4213 125.07 72.3779C125.177 72.3345 125.291 72.3123 125.406 72.3125H150.208C150.324 72.3123 150.438 72.3345 150.545 72.3779C150.651 72.4213 150.748 72.485 150.83 72.5653C150.912 72.6456 150.977 72.741 151.021 72.8461C151.065 72.9511 151.088 73.0637 151.088 73.1774C151.088 73.2911 151.065 73.4037 151.021 73.5087C150.977 73.6138 150.912 73.7092 150.83 73.7895C150.748 73.8698 150.651 73.9335 150.545 73.9769C150.438 74.0203 150.324 74.0425 150.208 74.0423Z" fill="#CCCCCC"/>
<path d="M150.208 78.5823H125.406C125.291 78.5825 125.177 78.5603 125.07 78.5169C124.963 78.4736 124.866 78.4099 124.785 78.3295C124.703 78.2492 124.638 78.1538 124.594 78.0488C124.55 77.9437 124.527 77.8311 124.527 77.7174C124.527 77.6037 124.55 77.4911 124.594 77.3861C124.638 77.2811 124.703 77.1857 124.785 77.1053C124.866 77.025 124.963 76.9613 125.07 76.9179C125.177 76.8746 125.291 76.8523 125.406 76.8525H150.208C150.324 76.8523 150.438 76.8746 150.545 76.9179C150.651 76.9613 150.748 77.025 150.83 77.1053C150.912 77.1857 150.977 77.2811 151.021 77.3861C151.065 77.4911 151.088 77.6037 151.088 77.7174C151.088 77.8311 151.065 77.9437 151.021 78.0488C150.977 78.1538 150.912 78.2492 150.83 78.3295C150.748 78.4099 150.651 78.4736 150.545 78.5169C150.438 78.5603 150.324 78.5825 150.208 78.5823Z" fill="#CCCCCC"/>
<path d="M150.208 83.1233H125.406C125.291 83.1235 125.177 83.1013 125.07 83.0579C124.963 83.0146 124.866 82.9509 124.785 82.8706C124.703 82.7902 124.638 82.6948 124.594 82.5898C124.55 82.4847 124.527 82.3722 124.527 82.2585C124.527 82.1447 124.55 82.0322 124.594 81.9271C124.638 81.8221 124.703 81.7267 124.785 81.6463C124.866 81.566 124.963 81.5023 125.07 81.459C125.177 81.4156 125.291 81.3934 125.406 81.3936H150.208C150.324 81.3934 150.438 81.4156 150.545 81.459C150.651 81.5023 150.748 81.566 150.83 81.6463C150.912 81.7267 150.977 81.8221 151.021 81.9271C151.065 82.0322 151.088 82.1447 151.088 82.2585C151.088 82.3722 151.065 82.4847 151.021 82.5898C150.977 82.6948 150.912 82.7902 150.83 82.8706C150.748 82.9509 150.651 83.0146 150.545 83.0579C150.438 83.1013 150.324 83.1235 150.208 83.1233Z" fill="#CCCCCC"/>
<path d="M150.208 87.6644H125.406C125.291 87.6646 125.177 87.6423 125.07 87.599C124.963 87.5556 124.866 87.4919 124.785 87.4116C124.703 87.3312 124.638 87.2358 124.594 87.1308C124.55 87.0258 124.527 86.9132 124.527 86.7995C124.527 86.6858 124.55 86.5732 124.594 86.4681C124.638 86.3631 124.703 86.2677 124.785 86.1874C124.866 86.107 124.963 86.0434 125.07 86C125.177 85.9566 125.291 85.9344 125.406 85.9346H150.208C150.324 85.9344 150.438 85.9566 150.545 86C150.651 86.0434 150.748 86.107 150.83 86.1874C150.912 86.2677 150.977 86.3631 151.021 86.4681C151.065 86.5732 151.088 86.6858 151.088 86.7995C151.088 86.9132 151.065 87.0258 151.021 87.1308C150.977 87.2358 150.912 87.3312 150.83 87.4116C150.748 87.4919 150.651 87.5556 150.545 87.599C150.438 87.6423 150.324 87.6646 150.208 87.6644Z" fill="#CCCCCC"/>
<path d="M38.4101 95.9886H1.97538C1.45166 95.988 0.94956 95.7828 0.579234 95.418C0.208909 95.0532 0.000599529 94.5585 3.8147e-06 94.0426V48.6355C0.000599529 48.1195 0.208909 47.6249 0.579234 47.2601C0.94956 46.8953 1.45166 46.69 1.97538 46.6895H38.4101C38.9338 46.69 39.4359 46.8953 39.8062 47.2601C40.1765 47.6249 40.3848 48.1195 40.3854 48.6355V94.0426C40.3848 94.5585 40.1765 95.0532 39.8062 95.418C39.4359 95.7828 38.9338 95.988 38.4101 95.9886ZM1.97538 47.1219C1.56804 47.1223 1.17752 47.282 0.889484 47.5657C0.601451 47.8495 0.439431 48.2342 0.438973 48.6355V94.0426C0.439431 94.4439 0.601451 94.8286 0.889484 95.1124C1.17752 95.3961 1.56804 95.5557 1.97538 95.5562H38.4101C38.8174 95.5557 39.2079 95.3961 39.496 95.1124C39.784 94.8286 39.946 94.4439 39.9465 94.0426V48.6355C39.946 48.2342 39.784 47.8495 39.496 47.5657C39.2079 47.282 38.8174 47.1223 38.4101 47.1219H1.97538Z" fill="#3F3D56"/>
<path d="M1.97538 47.1219C1.56804 47.1223 1.17752 47.282 0.889484 47.5657C0.601451 47.8495 0.439431 48.2342 0.438973 48.6355V94.0426C0.439431 94.4439 0.601451 94.8286 0.889484 95.1124C1.17752 95.3961 1.56804 95.5557 1.97538 95.5562H38.4101C38.8174 95.5557 39.2079 95.3961 39.496 95.1124C39.784 94.8286 39.946 94.4439 39.9465 94.0426V48.6355C39.946 48.2342 39.784 47.8495 39.496 47.5657C39.2079 47.282 38.8174 47.1223 38.4101 47.1219H1.97538Z" fill="white"/>
<path d="M32.6317 57.4105H21.6574C21.4246 57.4105 21.2013 57.3193 21.0366 57.1571C20.872 56.9949 20.7795 56.7749 20.7795 56.5456C20.7795 56.3162 20.872 56.0962 21.0366 55.934C21.2013 55.7718 21.4246 55.6807 21.6574 55.6807H32.6317C32.8646 55.6807 33.0879 55.7718 33.2525 55.934C33.4172 56.0962 33.5097 56.3162 33.5097 56.5456C33.5097 56.7749 33.4172 56.9949 33.2525 57.1571C33.0879 57.3193 32.8646 57.4105 32.6317 57.4105Z" fill="#3F3D56"/>
<path d="M32.6317 61.9515H21.6574C21.4246 61.9515 21.2013 61.8604 21.0366 61.6982C20.872 61.536 20.7795 61.316 20.7795 61.0866C20.7795 60.8572 20.872 60.6372 21.0366 60.475C21.2013 60.3128 21.4246 60.2217 21.6574 60.2217H32.6317C32.8646 60.2217 33.0879 60.3128 33.2525 60.475C33.4172 60.6372 33.5097 60.8572 33.5097 61.0866C33.5097 61.316 33.4172 61.536 33.2525 61.6982C33.0879 61.8604 32.8646 61.9515 32.6317 61.9515Z" fill="#3F3D56"/>
<path d="M16.0264 64.5361H8.00643C7.74457 64.5359 7.49351 64.4333 7.30835 64.2508C7.12318 64.0684 7.01902 63.8211 7.01873 63.5631V54.2396C7.01902 53.9816 7.12318 53.7343 7.30835 53.5519C7.49351 53.3695 7.74457 53.2669 8.00643 53.2666H16.0264C16.2883 53.2669 16.5394 53.3695 16.7245 53.5519C16.9097 53.7343 17.0138 53.9816 17.0141 54.2396V63.5631C17.0138 63.8211 16.9097 64.0684 16.7245 64.2508C16.5394 64.4333 16.2883 64.5359 16.0264 64.5361Z" fill="#FF9D00"/>
<path d="M32.5557 71.2483H7.75374C7.63832 71.2485 7.52399 71.2263 7.41729 71.1829C7.3106 71.1396 7.21364 71.0759 7.13195 70.9956C7.05027 70.9152 6.98546 70.8198 6.94125 70.7148C6.89703 70.6097 6.87428 70.4972 6.87428 70.3834C6.87428 70.2697 6.89703 70.1572 6.94125 70.0521C6.98546 69.9471 7.05027 69.8517 7.13195 69.7713C7.21364 69.691 7.3106 69.6273 7.41729 69.584C7.52399 69.5406 7.63832 69.5184 7.75374 69.5186H32.5557C32.6711 69.5184 32.7854 69.5406 32.8921 69.584C32.9988 69.6273 33.0958 69.691 33.1775 69.7713C33.2591 69.8517 33.3239 69.9471 33.3682 70.0521C33.4124 70.1572 33.4351 70.2697 33.4351 70.3834C33.4351 70.4972 33.4124 70.6097 33.3682 70.7148C33.3239 70.8198 33.2591 70.9152 33.1775 70.9956C33.0958 71.0759 32.9988 71.1396 32.8921 71.1829C32.7854 71.2263 32.6711 71.2485 32.5557 71.2483Z" fill="#CCCCCC"/>
<path d="M32.5557 75.7894H7.75374C7.63832 75.7896 7.52399 75.7673 7.41729 75.724C7.3106 75.6806 7.21364 75.6169 7.13195 75.5366C7.05027 75.4562 6.98546 75.3608 6.94125 75.2558C6.89703 75.1508 6.87428 75.0382 6.87428 74.9245C6.87428 74.8108 6.89703 74.6982 6.94125 74.5931C6.98546 74.4881 7.05027 74.3927 7.13195 74.3124C7.21364 74.232 7.3106 74.1684 7.41729 74.125C7.52399 74.0816 7.63832 74.0594 7.75374 74.0596H32.5557C32.6711 74.0594 32.7854 74.0816 32.8921 74.125C32.9988 74.1684 33.0958 74.232 33.1775 74.3124C33.2591 74.3927 33.3239 74.4881 33.3682 74.5931C33.4124 74.6982 33.4351 74.8108 33.4351 74.9245C33.4351 75.0382 33.4124 75.1508 33.3682 75.2558C33.3239 75.3608 33.2591 75.4562 33.1775 75.5366C33.0958 75.6169 32.9988 75.6806 32.8921 75.724C32.7854 75.7673 32.6711 75.7896 32.5557 75.7894Z" fill="#CCCCCC"/>
<path d="M32.5557 80.3304H7.75374C7.63832 80.3306 7.52399 80.3084 7.41729 80.265C7.3106 80.2216 7.21364 80.1579 7.13195 80.0776C7.05027 79.9973 6.98546 79.9019 6.94125 79.7968C6.89703 79.6918 6.87428 79.5792 6.87428 79.4655C6.87428 79.3518 6.89703 79.2392 6.94125 79.1342C6.98546 79.0291 7.05027 78.9337 7.13195 78.8534C7.21364 78.7731 7.3106 78.7094 7.41729 78.666C7.52399 78.6226 7.63832 78.6004 7.75374 78.6006H32.5557C32.6711 78.6004 32.7854 78.6226 32.8921 78.666C32.9988 78.7094 33.0958 78.7731 33.1775 78.8534C33.2591 78.9337 33.3239 79.0291 33.3682 79.1342C33.4124 79.2392 33.4351 79.3518 33.4351 79.4655C33.4351 79.5792 33.4124 79.6918 33.3682 79.7968C33.3239 79.9019 33.2591 79.9973 33.1775 80.0776C33.0958 80.1579 32.9988 80.2216 32.8921 80.265C32.7854 80.3084 32.6711 80.3306 32.5557 80.3304Z" fill="#CCCCCC"/>
<path d="M32.5557 84.8704H7.75374C7.63832 84.8706 7.52399 84.8484 7.41729 84.805C7.3106 84.7616 7.21364 84.698 7.13195 84.6176C7.05027 84.5373 6.98546 84.4419 6.94125 84.3369C6.89703 84.2318 6.87428 84.1192 6.87428 84.0055C6.87428 83.8918 6.89703 83.7792 6.94125 83.6742C6.98546 83.5692 7.05027 83.4738 7.13195 83.3934C7.21364 83.3131 7.3106 83.2494 7.41729 83.206C7.52399 83.1627 7.63832 83.1404 7.75374 83.1406H32.5557C32.6711 83.1404 32.7854 83.1627 32.8921 83.206C32.9988 83.2494 33.0958 83.3131 33.1775 83.3934C33.2591 83.4738 33.3239 83.5692 33.3682 83.6742C33.4124 83.7792 33.4351 83.8918 33.4351 84.0055C33.4351 84.1192 33.4124 84.2318 33.3682 84.3369C33.3239 84.4419 33.2591 84.5373 33.1775 84.6176C33.0958 84.698 32.9988 84.7616 32.8921 84.805C32.7854 84.8484 32.6711 84.8706 32.5557 84.8704Z" fill="#CCCCCC"/>
<path d="M32.5557 89.4114H7.75374C7.63832 89.4116 7.52399 89.3894 7.41729 89.346C7.3106 89.3027 7.21364 89.239 7.13195 89.1586C7.05027 89.0783 6.98546 88.9829 6.94125 88.8779C6.89703 88.7728 6.87428 88.6602 6.87428 88.5465C6.87428 88.4328 6.89703 88.3202 6.94125 88.2152C6.98546 88.1102 7.05027 88.0148 7.13195 87.9344C7.21364 87.8541 7.3106 87.7904 7.41729 87.7471C7.52399 87.7037 7.63832 87.6814 7.75374 87.6816H32.5557C32.6711 87.6814 32.7854 87.7037 32.8921 87.7471C32.9988 87.7904 33.0958 87.8541 33.1775 87.9344C33.2591 88.0148 33.3239 88.1102 33.3682 88.2152C33.4124 88.3202 33.4351 88.4328 33.4351 88.5465C33.4351 88.6602 33.4124 88.7728 33.3682 88.8779C33.3239 88.9829 33.2591 89.0783 33.1775 89.1586C33.0958 89.239 32.9988 89.3027 32.8921 89.346C32.7854 89.3894 32.6711 89.4116 32.5557 89.4114Z" fill="#CCCCCC"/>
<path d="M52.1839 122.306V112.983C52.1842 112.725 52.2883 112.477 52.4735 112.295C52.6587 112.113 52.9097 112.01 53.1716 112.01H61.1916C61.4535 112.01 61.7045 112.113 61.8897 112.295C62.0749 112.477 62.179 112.725 62.1793 112.983V122.306C62.179 122.564 62.0749 122.812 61.8897 122.994C61.7045 123.176 61.4535 123.279 61.1916 123.279H53.1716C52.9097 123.279 52.6587 123.176 52.4735 122.994C52.2883 122.812 52.1842 122.564 52.1839 122.306Z" fill="#E6E6E6"/>
<path d="M55.0729 119.202V109.878C55.0732 109.62 55.1773 109.373 55.3625 109.191C55.5476 109.008 55.7987 108.906 56.0606 108.905H64.0806C64.3424 108.906 64.5935 109.008 64.7787 109.191C64.9638 109.373 65.068 109.62 65.0683 109.878V119.202C65.068 119.46 64.9638 119.707 64.7787 119.89C64.5935 120.072 64.3424 120.175 64.0806 120.175H56.0606C55.7987 120.175 55.5476 120.072 55.3625 119.89C55.1773 119.707 55.0732 119.46 55.0729 119.202Z" fill="#FF9D00"/>
<path d="M91.0245 116.219C90.7227 116.047 90.4628 115.812 90.2631 115.531C90.0635 115.249 89.9289 114.928 89.8688 114.59C89.8088 114.252 89.8247 113.905 89.9156 113.573C90.0064 113.242 90.17 112.934 90.3946 112.671L87.9086 94.7705L93.0871 95.0209L93.9001 112.481C94.3228 112.883 94.5814 113.422 94.627 113.999C94.6726 114.575 94.502 115.148 94.1475 115.609C93.793 116.069 93.2793 116.386 92.7037 116.498C92.1281 116.611 91.5306 116.512 91.0245 116.219Z" fill="#A0616A"/>
<path d="M93.7978 95.2591C93.6917 95.3822 93.5558 95.4769 93.4025 95.5345L88.7488 97.2842C88.5151 97.3721 88.256 97.3684 88.025 97.2739C87.794 97.1793 87.6085 97.0011 87.5068 96.7759L83.3844 87.6492C82.9886 86.8026 82.9212 85.8425 83.195 84.9503C83.3974 84.3135 83.7705 83.7423 84.2748 83.2968C84.7792 82.8514 85.3962 82.5482 86.0608 82.4193C86.5719 82.3157 87.0997 82.323 87.6077 82.4408C88.2163 82.5745 88.7816 82.8555 89.2522 83.2586C89.7228 83.6616 90.084 84.1739 90.3031 84.7491L93.9684 94.2936C94.03 94.4549 94.0467 94.6295 94.0167 94.7993C93.9867 94.969 93.9112 95.1278 93.7978 95.2591Z" fill="#CCCCCC"/>
<path d="M69.5471 159.911H66.3272L65.1598 147.618L69.5476 147.676L69.5471 159.911Z" fill="#A0616A"/>
<path d="M64.0274 159.004H70.237V162.856H60.1176C60.1176 162.35 60.2187 161.849 60.4152 161.382C60.6117 160.914 60.8997 160.49 61.2627 160.132C61.6258 159.774 62.0568 159.491 62.5312 159.297C63.0055 159.104 63.5139 159.004 64.0274 159.004Z" fill="#2F2E41"/>
<path d="M84.5171 159.911H81.2973L79.7656 147.676L84.5177 147.676L84.5171 159.911Z" fill="#A0616A"/>
<path d="M78.9974 159.004H85.2071V162.856H75.0877C75.0877 162.35 75.1888 161.849 75.3853 161.382C75.5818 160.914 75.8698 160.49 76.2328 160.132C76.5959 159.774 77.0269 159.491 77.5012 159.297C77.9756 159.104 78.484 159.004 78.9974 159.004Z" fill="#2F2E41"/>
<path d="M84.9221 155.558L79.8651 155.189C79.5775 155.167 79.3077 155.043 79.1064 154.84C78.9051 154.636 78.7861 154.367 78.7719 154.084L77.6443 131.126C77.6335 130.906 77.5414 130.697 77.3853 130.539C77.2293 130.381 77.02 130.284 76.7967 130.267C76.5735 130.25 76.3516 130.314 76.1728 130.447C75.994 130.58 75.8706 130.772 75.8256 130.989L71.1216 153.603C71.0633 153.882 70.904 154.129 70.6734 154.3C70.4429 154.471 70.157 154.552 69.8696 154.53L65.2982 154.17C65.1416 154.158 64.989 154.115 64.8494 154.043C64.7098 153.972 64.586 153.874 64.4853 153.756C64.3845 153.637 64.3089 153.499 64.2627 153.351C64.2166 153.203 64.2008 153.048 64.2165 152.894L68.4574 111.115C68.474 110.951 68.5254 110.793 68.6083 110.651C68.6912 110.509 68.8037 110.385 68.9385 110.289C69.0733 110.192 69.2272 110.125 69.3902 110.091C69.5532 110.058 69.7217 110.058 69.8844 110.093L86.0117 113.547C86.2788 113.604 86.5174 113.752 86.687 113.963C86.8566 114.174 86.9468 114.437 86.9422 114.706L86.1911 154.418C86.1852 154.723 86.0585 155.013 85.8381 155.226C85.6177 155.44 85.3212 155.56 85.0121 155.561C84.9822 155.561 84.9522 155.56 84.9221 155.558Z" fill="#2F2E41"/>
<path d="M80.4979 76.183C84.0604 76.183 86.9484 73.3379 86.9484 69.8283C86.9484 66.3187 84.0604 63.4736 80.4979 63.4736C76.9354 63.4736 74.0474 66.3187 74.0474 69.8283C74.0474 73.3379 76.9354 76.183 80.4979 76.183Z" fill="#A0616A"/>
<path d="M70.4895 114.337C69.8693 113.789 69.3769 113.115 69.0462 112.362C68.7155 111.608 68.5544 110.793 68.574 109.973C68.574 100.839 76.5989 80.4341 76.8505 79.7974C76.875 79.644 77.0868 79.5778 78.1976 78.8385C79.3092 78.0987 80.9119 77.985 82.9616 78.5007C83.17 78.5533 83.3597 78.6611 83.5102 78.8125C83.6607 78.9639 83.7662 79.153 83.8152 79.3593L84.1965 79.902C84.2297 80.0396 84.2951 80.1677 84.3877 80.2758C84.4802 80.3839 84.5973 80.4691 84.7293 80.5246C86.3822 81.2106 91.6361 84.374 89.8458 96.2791C88.1828 107.338 87.5079 113.842 87.295 116.125C87.2699 116.396 87.1491 116.65 86.9537 116.842C86.7583 117.034 86.5007 117.153 86.2256 117.177C85.4152 117.248 84.0243 117.343 82.3677 117.343C78.5277 117.343 73.2606 116.833 70.4895 114.337Z" fill="#CCCCCC"/>
<path d="M62.7817 110.953C62.6283 110.645 62.5454 110.307 62.5388 109.964C62.5321 109.62 62.602 109.28 62.7435 108.966C62.8849 108.652 63.0945 108.373 63.3574 108.147C63.6204 107.922 63.9303 107.756 64.2653 107.662L72.3263 91.4326L76.4847 94.4832L67.2837 109.428C67.4077 109.993 67.3171 110.583 67.029 111.087C66.7408 111.591 66.2752 111.973 65.7202 112.161C65.1653 112.349 64.5597 112.329 64.0181 112.107C63.4765 111.884 63.0366 111.474 62.7817 110.953Z" fill="#A0616A"/>
<path d="M76.94 95.0718C76.7822 95.1158 76.6158 95.1198 76.456 95.0835L71.602 93.9818C71.3582 93.9264 71.1452 93.7812 71.0068 93.5758C70.8685 93.3705 70.8153 93.1207 70.8582 92.8779L72.5975 83.0364C72.7477 82.1162 73.2348 81.282 73.9668 80.6914C74.495 80.2737 75.1279 80.0042 75.7986 79.9112C76.4694 79.8182 77.1532 79.9052 77.7779 80.1629C78.261 80.3574 78.6951 80.6533 79.0503 81.03C79.4801 81.4751 79.7904 82.0187 79.9533 82.6117C80.1161 83.2047 80.1263 83.8284 79.9828 84.4263L77.6277 94.3638C77.5877 94.5315 77.5028 94.6856 77.3819 94.8101C77.2609 94.9346 77.1084 95.025 76.94 95.0718Z" fill="#CCCCCC"/>
<path d="M78.9876 75.5694C78.6737 75.2538 78.4419 74.8682 78.3121 74.4453C78.1822 74.0224 78.1582 73.5748 78.242 73.1408C78.4669 71.9818 78.599 71.2235 78.624 70.9476C78.7097 70.0038 77.7412 69.2398 76.7829 69.1183C76.7458 69.1135 76.7147 69.1103 76.6888 69.1083C76.7132 69.1319 76.7394 69.156 76.7624 69.1773C76.9444 69.3457 77.171 69.5555 77.1171 69.7718C77.0847 69.902 76.9639 69.9945 76.7477 70.0541C75.2491 70.4672 74.0949 70.0879 73.1153 68.8597C72.84 68.5107 72.6507 68.1034 72.5624 67.67C72.2116 65.9741 73.1465 64.5283 73.9927 63.6143C74.6904 62.8607 75.8216 61.9457 77.2478 61.8673C78.357 61.8063 79.676 62.4351 80.0708 63.5683C80.257 63.2964 80.5049 63.071 80.7949 62.91C81.0849 62.7489 81.409 62.6566 81.7415 62.6404C82.4988 62.6243 83.2441 62.8285 83.8841 63.2275C87.0119 64.9926 88.3561 69.1971 86.8195 72.4093C85.8529 74.4297 83.7588 75.9339 81.3542 76.3347C81.2037 76.3599 81.0512 76.3726 80.8985 76.3727C80.5416 76.3721 80.1884 76.3007 79.8601 76.1627C79.5317 76.0247 79.235 75.8229 78.9876 75.5694Z" fill="#2F2E41"/>
<path d="M48.7391 163H99.9525C100.022 163 100.089 162.973 100.138 162.924C100.187 162.876 100.215 162.81 100.215 162.741C100.215 162.673 100.187 162.607 100.138 162.558C100.089 162.51 100.022 162.482 99.9525 162.482H48.7391C48.6694 162.482 48.6026 162.51 48.5534 162.558C48.5041 162.607 48.4765 162.673 48.4765 162.741C48.4765 162.81 48.5041 162.876 48.5534 162.924C48.6026 162.973 48.6694 163 48.7391 163Z" fill="#3F3D56"/>
</g>
<defs>
<clipPath id="clip0_675_409">
<rect width="158" height="163" fill="white"/>
</clipPath>
</defs>
</svg>
