<svg width="157" height="147" viewBox="0 0 157 147" fill="none" xmlns="http://www.w3.org/2000/svg">
<g clip-path="url(#clip0_675_256)">
<path d="M91.6203 17.1321C92.005 17.2386 92.3618 17.4288 92.6656 17.6891C92.9694 17.9495 93.2128 18.2737 93.3786 18.639C93.5444 19.0042 93.6287 19.4017 93.6254 19.8032C93.6221 20.2048 93.5314 20.6008 93.3597 20.9633L97.5303 25.6306L95.3307 28.8736L89.5329 22.1991C88.9471 21.8683 88.5021 21.3327 88.2824 20.6938C88.0627 20.0548 88.0834 19.3569 88.3407 18.7323C88.598 18.1078 89.074 17.5999 89.6784 17.3049C90.2829 17.01 90.9738 16.9485 91.6203 17.1321Z" fill="#A0616A"/>
<path d="M130.665 28.5934C130.289 27.9774 129.796 27.4422 129.214 27.0184C128.632 26.5947 127.973 26.2907 127.274 26.124C126.575 25.9573 125.85 25.9312 125.141 26.047C124.432 26.1628 123.753 26.4184 123.142 26.7991L109.426 35.35L94.6307 22.6904L90.9496 26.1404L107.295 47.4865L128.538 36.339C128.042 36.5992 131.264 29.5749 130.665 28.5934Z" fill="#CCCCCC"/>
<path d="M103.493 57.0255C103.494 63.8442 102.161 70.5964 99.5692 76.8964C96.9775 83.1964 93.178 88.9206 88.388 93.7422C83.5979 98.5638 77.9111 102.388 71.6523 104.997C65.3935 107.606 58.6854 108.948 51.9113 108.946C23.4239 108.946 0.329694 85.7003 0.329694 57.0255C0.324777 51.4478 1.21306 45.9058 2.96037 40.6127C6.39085 30.2753 12.9629 21.2849 21.7473 14.9129C30.5316 8.54088 41.0836 5.10968 51.9113 5.1045C61.2494 5.10123 70.4132 7.65055 78.4243 12.4803C86.4355 17.3101 92.9933 24.239 97.3977 32.5274C98.4897 34.5723 99.4423 36.6897 100.249 38.8647C100.361 39.1675 100.47 39.4704 100.576 39.7761V39.779C101.048 41.1232 101.465 42.4924 101.825 43.8866C102.936 48.1766 103.496 52.5921 103.493 57.0255Z" fill="#4C4C4C"/>
<path d="M46.2678 21.9945C43.9497 20.7327 41.376 20.0205 38.7429 19.912C36.1099 19.8036 33.4869 20.3019 31.0742 21.3688C28.9499 22.2994 26.713 23.9688 26.0044 26.9834C28.8705 25.2807 32.5807 27.9709 33.3183 32.2865L33.1461 32.3343C32.7566 35.3234 33.6262 38.5778 35.3098 40.4313C35.5308 38.506 36.7884 37.1957 38.0254 36.3772C39.2624 35.5587 40.6308 34.9641 41.5749 33.5572C42.6942 31.8893 42.9784 29.4517 43.4231 27.228C43.8678 25.0042 44.7113 22.6142 46.2678 21.9945Z" fill="white"/>
<path d="M30.2241 47.432C29.4303 48.6319 28.37 49.3848 27.4186 50.3222C26.4701 51.2626 25.5674 52.5317 25.3783 54.1615C25.2579 55.2057 25.4442 56.2672 25.4184 57.3229C25.3926 58.3786 25.043 59.567 24.3295 59.8295C23.2032 60.2391 22.3435 58.1334 21.1859 57.9863C20.266 57.8709 19.4378 59.3276 19.7043 60.5911C19.9708 61.8545 21.2231 62.414 21.9424 61.5891C22.5929 62.6881 22.1344 64.6813 21.1572 65.0188C21.054 65.711 20.9509 66.4004 20.8506 67.0927C18.3804 65.3533 15.8844 63.5852 13.7839 61.0381C11.4478 58.2294 9.99881 54.7821 9.62299 51.1385C9.35077 48.2108 9.7548 44.8619 8.41944 42.6091C7.35052 40.8063 5.51649 40.4082 3.86588 40.5207C3.56502 40.5409 3.26127 40.5755 2.96037 40.613C3.9338 37.6701 5.17012 34.8221 6.65416 32.1037C6.99 31.9586 7.30207 31.7631 7.57974 31.5239C9.11576 30.2115 9.79779 27.5549 11.0443 25.7174C11.1246 25.5992 11.2077 25.4838 11.2936 25.3713C12.5689 23.6954 14.2768 22.8329 15.9274 22.031C19.5811 20.2456 23.3408 18.437 27.198 18.685L26.1004 18.7918C24.8195 22.4032 23.5376 26.0145 22.2547 29.6259C22.0599 30.1797 21.8631 30.7345 21.6644 31.2903C20.9366 33.344 20.1858 35.5305 20.2975 37.8295C20.3634 39.1909 20.8334 40.6447 21.7275 41.112C22.5613 41.5447 23.4726 41.014 24.2779 40.489C24.6189 40.2697 24.9571 40.0505 25.298 39.8284C26.5217 39.0352 27.8771 38.2217 29.1695 38.7525C30.353 39.2371 31.227 40.8553 31.3933 42.6004C31.5457 44.2968 31.1344 45.9961 30.2241 47.432Z" fill="white"/>
<path d="M37.5016 72.087C33.9279 69.8722 30.3541 67.6573 26.7804 65.4424L26.841 65.2852C24.6191 66.137 23.6966 70.1127 24.0638 73.364C24.431 76.6153 25.6761 79.5217 26.3052 82.6896C27.1533 87.0249 26.8332 91.5096 25.378 95.6783C30.0773 90.3707 34.2361 84.6023 37.792 78.4596C38.2888 77.6854 38.6673 76.8406 38.9149 75.9533C39.142 75.0094 39.1071 73.8745 38.6524 73.1175C38.3599 72.6831 37.9643 72.3289 37.5016 72.087Z" fill="white"/>
<path d="M23.3973 31.7922C23.0178 32.6511 22.8718 33.7962 23.2162 34.6849C23.5679 35.5924 24.3114 36.0026 24.9959 36.3441L26.9705 37.3293C27.6275 37.6571 28.3356 37.9881 29.0053 37.7185C29.813 37.3932 30.373 36.1185 30.2281 34.9352C30.0739 33.676 29.2854 32.8098 28.5561 32.0722C27.5356 31.04 26.515 30.0078 25.4944 28.9756L24.9193 29.6847C24.2972 30.2955 23.7825 31.0081 23.3973 31.7922Z" fill="white"/>
<path d="M92.9071 45.2541C93.7955 45.4647 94.6839 45.6752 95.5722 45.8858C95.4174 48.9059 93.9302 51.701 91.9357 52.7134C91.1047 53.1346 90.1791 53.2903 89.4913 54.0778C88.8695 54.7932 88.5543 55.9065 88.2648 56.9709C87.7576 58.8286 87.2504 60.6862 86.7431 62.5438C86.1987 64.5456 85.4995 66.7696 84.0839 67.4907C82.8688 68.1109 81.479 67.3522 80.5448 66.0802C79.6106 64.8081 79.0403 63.0976 78.4872 61.4304C78.5216 63.2476 77.682 65.0302 76.4928 65.6619C75.3007 66.2936 73.8506 65.7225 73.054 64.312C72.4809 63.2995 72.243 61.964 71.6813 60.9371C71.1197 59.9103 69.9419 59.3218 69.3287 60.2852C68.9246 60.9256 68.9762 61.9063 68.7756 62.7198C68.4632 63.9831 67.5176 64.7764 66.5805 64.8456C65.6463 64.9149 64.735 64.3726 63.9527 63.637C62.3394 62.114 61.1501 59.6968 60.6888 57.0113C60.4853 55.8142 60.428 54.5105 60.7805 53.3884C61.1329 52.2663 61.984 51.401 62.8294 51.6144C63.3853 50.4318 62.2878 48.8626 61.2991 49.0011C60.3076 49.1395 59.531 50.2097 58.7172 51.0318C57.9062 51.8538 56.7715 52.4509 55.9547 51.6346C55.9604 52.3932 55.3472 52.8951 54.817 52.8317C54.2897 52.7711 53.8198 52.3442 53.3355 52.0413C51.4643 50.8673 49.0886 51.6462 47.759 53.8672C48.59 50.3077 49.8079 46.2233 52.3612 45.3868C53.4043 45.0435 54.542 45.3262 55.5277 44.732C57.2729 43.6792 57.6254 39.7014 56.1181 38.0602C56.31 39.612 56.2728 41.4235 55.459 42.485C54.6451 43.5465 52.9372 42.8542 53.0404 41.285C52.8054 42.3667 51.6362 42.5311 51.0975 41.7004C50.5558 40.8697 50.6017 39.5111 50.9857 38.5188C51.3697 37.5265 52.023 36.814 52.6563 36.1304C54.0175 34.6622 55.3988 33.1767 56.9749 32.2536C58.5538 31.3306 60.3764 31.0191 61.9582 31.9364C62.7922 32.4209 63.5257 33.2286 64.3768 33.6555C65.2279 34.0853 66.3083 34.0305 66.8728 33.0267C67.5061 31.9075 67.2081 30.246 67.4431 28.847C67.8643 26.375 70.3202 25.2184 71.6813 26.851C70.6641 26.5885 69.6124 27.8 69.4862 29.2682C69.3573 30.7364 70.0938 32.219 71.0796 32.6633C72.7359 33.4017 74.3578 31.544 75.6102 29.8249C76.9169 28.025 78.2255 26.226 79.5361 24.428C79.7454 24.1219 79.9802 23.8343 80.2382 23.5684C80.6486 23.1657 81.1958 22.9351 81.7689 22.9233C82.3419 22.9115 82.898 23.1195 83.3245 23.505C84.6484 24.5924 85.2702 26.8222 86.3563 28.3567C87.9324 30.5864 90.2909 31.1287 92.4859 31.5614C94.1222 31.8815 95.7595 32.2036 97.3977 32.5277C98.4897 34.5726 99.4423 36.6899 100.249 38.8649C97.475 40.0505 94.9159 42.2687 92.9071 45.2541Z" fill="white"/>
<path d="M98.1971 79.9603C96.9694 82.4696 95.5415 84.8745 93.9273 87.1513C92.8957 86.7071 91.7867 87.5003 90.821 88.2445C89.8123 89.0233 88.6001 89.782 87.5656 89.0724C86.5082 88.3455 86.1672 86.3119 86.5025 84.6995C86.8377 83.0899 87.6745 81.8092 88.4855 80.5919C89.3452 79.2997 90.265 77.9584 91.46 77.4565C92.6579 76.9546 94.1967 77.6642 94.5463 79.3776L95.3946 79.3487C94.9188 78.6911 95.1682 77.3295 95.8072 77.0902C96.5437 76.8104 97.1827 77.8286 97.6183 78.7286C97.8132 79.1353 98.0109 79.5449 98.1971 79.9603Z" fill="white"/>
<path d="M65.7106 67.7759C63.8874 67.8913 62.4432 65.632 61.4835 63.4094C60.5238 61.1868 59.6482 58.6452 58.0031 57.5139C57.0631 56.8674 55.9914 56.7787 54.9719 56.4655C53.9523 56.1523 52.8851 55.5041 52.3977 54.1842L51.2411 53.7139C49.7137 54.5784 48.1662 55.4586 46.8501 56.8654C45.3739 58.4438 44.4545 60.467 44.2336 62.6233C44.0126 64.9535 44.8285 67.5517 46.3528 68.4271C47.5573 69.1188 48.9597 68.6828 50.1798 69.316C51.7042 70.1071 52.6092 72.4052 52.9518 74.6743C53.2944 76.9434 53.2075 79.3015 53.4526 81.5963C53.6977 83.8912 54.3732 86.279 55.7712 87.4551C57.5206 88.9267 60.0875 87.7038 60.8724 85.0249C61.2574 83.7109 61.2441 82.2281 61.5321 80.8641C62.0392 78.462 63.4075 76.6798 64.4928 74.7093C65.5781 72.7389 66.4324 70.0626 65.7106 67.7759Z" fill="white"/>
<path d="M47.6945 44.1722C47.8645 44.3298 48.0232 44.4993 48.1692 44.6796C48.3205 44.942 48.3976 45.241 48.3925 45.5443C48.3874 45.8476 48.3001 46.1437 48.1401 46.4008C48.3597 46.3882 48.5743 46.3299 48.7704 46.2296C48.9665 46.1293 49.1398 45.9891 49.2794 45.818C49.6121 45.4365 49.9049 45.0214 50.1529 44.5794C50.3389 44.2742 50.5366 43.8615 50.4104 43.499C50.3243 43.2516 50.1206 43.146 49.9778 42.96C49.7515 42.665 49.6954 42.1966 49.5783 41.7918C49.3253 40.9174 48.7193 40.2745 48.0614 40.1826L48.1528 40.2002C47.878 40.295 47.6861 40.7343 47.7468 41.1295C47.8022 41.4895 48.0319 41.7883 48.0091 42.1554C47.9762 42.6833 47.4521 42.931 47.4197 43.459C47.4146 43.7238 47.5133 43.9801 47.6945 44.1722Z" fill="white"/>
<path d="M44.5707 35.2006C44.5734 35.1999 44.5761 35.1997 44.5788 35.199C44.6349 35.1476 44.6869 35.0918 44.7344 35.0322L44.5707 35.2006Z" fill="#E6E6E6"/>
<path d="M45.1175 37.6785C45.5206 37.4176 45.7457 36.6959 45.6124 36.092C45.48 35.4917 45.0112 35.0881 44.5788 35.199C44.4534 35.327 44.2977 35.4208 44.1263 35.4716C43.955 35.5224 43.7736 35.5284 43.5993 35.4893C43.332 35.42 43.0385 35.2416 42.8067 35.4443C42.674 35.5957 42.5812 35.7782 42.5367 35.975C42.4508 36.2402 42.365 36.5053 42.2792 36.7704C42.2385 36.8654 42.2278 36.9706 42.2488 37.0719C42.2652 37.1124 42.2917 37.1481 42.3258 37.1753C42.3599 37.2026 42.4004 37.2206 42.4433 37.2276C42.9582 37.3804 43.4731 37.5331 43.988 37.6859C44.3632 37.7973 44.7683 37.9045 45.1175 37.6785Z" fill="white"/>
<path d="M83.9876 71.8889C83.7496 71.4967 83.5115 71.1045 83.2736 70.7122C83.0398 70.258 82.7202 69.854 82.3326 69.523C82.2474 69.4512 82.1488 69.3972 82.0426 69.3643C81.9364 69.3314 81.8247 69.3202 81.7141 69.3313C81.6036 69.3425 81.4963 69.3758 81.3987 69.4293C81.3011 69.4827 81.2151 69.5553 81.1457 69.6427L81.1747 69.8668C81.7172 70.5519 82.2912 71.313 82.4288 72.3298C82.4831 72.7306 82.4642 73.1455 82.5118 73.5481C82.5593 73.9506 82.6946 74.3681 82.9527 74.5417C83.3275 74.7938 83.7676 74.4222 84.0343 73.9687C84.2727 73.5963 84.3797 73.154 84.338 72.7129C84.2785 72.417 84.1593 72.1365 83.9876 71.8889Z" fill="white"/>
<path d="M94.5801 56.9089C94.6489 56.4545 94.7178 56.0001 94.7866 55.5458C94.8984 55.0467 94.9123 54.5305 94.8275 54.0261C94.8083 53.9159 94.7674 53.8107 94.7072 53.7167C94.647 53.6226 94.5688 53.5417 94.477 53.4785C94.3853 53.4154 94.2819 53.3713 94.173 53.349C94.0642 53.3266 93.9519 53.3264 93.8429 53.3483L93.7218 53.5385C93.6985 54.4143 93.6508 55.3686 93.1055 56.2357C92.8906 56.5776 92.6107 56.8827 92.3896 57.2216C92.1684 57.5604 92.0048 57.9675 92.0912 58.2676C92.2167 58.7034 92.7911 58.7043 93.2853 58.5303C93.7059 58.4 94.0708 58.1309 94.321 57.7664C94.4649 57.5014 94.553 57.2096 94.5801 56.9089Z" fill="#E6E6E6"/>
<path d="M87.7212 72.3994C87.8376 72.0627 87.6696 71.6765 87.6341 71.3043C87.6171 70.8236 87.7437 70.3489 87.9975 69.9414C88.2497 69.557 88.4407 69.1354 88.5638 68.6918C88.6157 68.4896 88.6062 68.2765 88.5367 68.0798C88.4579 67.9016 88.267 67.8204 88.1576 67.9614L88.3918 68.1133C88.0755 68.0565 87.7506 68.0723 87.4413 68.1596C87.2648 68.2276 87.1072 68.3374 86.9818 68.4797C86.8564 68.622 86.7669 68.7926 86.7208 68.9771C86.6822 69.2647 86.6189 69.5485 86.5319 69.8252C86.3922 70.1143 86.1217 70.2105 85.9517 70.4642C85.8358 70.6892 85.7773 70.9396 85.7815 71.193C85.7857 71.4463 85.8524 71.6947 85.9757 71.9156C86.1891 72.277 86.5284 72.5456 86.9277 72.6692C87.2137 72.7725 87.5904 72.7779 87.7212 72.3994Z" fill="white"/>
<path d="M94.3702 74.418C94.4736 74.6889 94.6121 74.9448 94.7821 75.1791C95.1005 75.5019 95.5331 75.3035 95.9192 75.2251C96.2697 75.1694 96.6285 75.2101 96.9578 75.3431C97.2871 75.476 97.5745 75.6962 97.7895 75.9802C97.6397 75.2284 97.3129 74.5237 96.8365 73.9254C96.3601 73.3271 95.748 72.8527 95.0516 72.5418C94.1413 72.1683 93.1825 72.1322 92.2358 72.0986L92.0723 72.1408C92.489 73.3617 93.7974 73.3344 94.3702 74.418Z" fill="white"/>
<path d="M66.2093 76.916L66.2118 76.9213C66.2276 76.8906 66.2435 76.8599 66.2593 76.8291L66.2093 76.916Z" fill="#E6E6E6"/>
<path d="M65.2007 78.8808C64.9807 79.2828 64.7915 79.7011 64.6348 80.1321C64.4273 80.8302 64.2898 81.5474 64.2246 82.2731C64.1734 82.6857 64.1576 83.2127 64.4144 83.4138C64.4882 83.4631 64.5772 83.4836 64.6649 83.4717C64.7526 83.4597 64.833 83.4159 64.891 83.3487C65.0337 83.1967 65.1504 83.022 65.2365 82.8318C65.7413 81.9567 66.1332 81.0204 66.4027 80.0455C66.6486 79.0187 66.6463 77.8099 66.2117 76.9209C65.8747 77.5742 65.5377 78.2275 65.2007 78.8808Z" fill="white"/>
<path d="M55.4699 26.5227C55.6301 26.6804 55.8327 26.7874 56.0526 26.8306C56.2725 26.8738 56.5002 26.8513 56.7075 26.7659C57.1369 26.5769 57.5308 26.315 57.872 25.9916C58.1545 25.7812 58.3942 25.518 58.5779 25.2165C58.6791 25.0363 58.744 24.8377 58.7688 24.6322C58.7936 24.4267 58.7778 24.2183 58.7223 24.0189C58.5628 23.5494 58.1582 23.3921 57.8012 23.2855C57.2297 23.1149 56.6582 22.9443 56.0867 22.7737L56.5001 22.3987C56.0748 22.1689 55.6042 22.5953 55.3383 23.1233C55.1678 23.468 55.049 23.8363 54.9857 24.2161C54.8434 25.0448 54.9825 26.0316 55.4699 26.5227Z" fill="#E6E6E6"/>
<path d="M65.5597 23.1132C65.7208 23.292 65.9435 23.4023 66.1824 23.4219C66.4214 23.4415 66.6588 23.3688 66.8465 23.2186C67.008 23.0965 67.1422 22.9415 67.2402 22.7637C67.3383 22.5859 67.398 22.3894 67.4156 22.1868C67.456 21.7343 67.2338 21.2314 66.9163 21.1923L66.989 20.7686C66.3774 20.6575 65.6249 20.6352 65.2972 21.3827C65.1866 21.6691 65.1527 21.9796 65.1988 22.2833C65.2449 22.587 65.3693 22.8731 65.5597 23.1132Z" fill="#E6E6E6"/>
<path d="M64.2119 0.58341C60.6268 0.176344 57.0278 1.21951 54.2068 3.48342C51.3858 5.74733 49.5738 9.04654 49.1693 12.6553C48.3272 20.17 52.2603 36.4886 59.4312 43.2438C62.8077 30.3014 74.6393 22.6247 76.2048 15.725C77.8777 8.35237 71.6776 1.43108 64.2119 0.58341Z" fill="#FF9D00"/>
<path d="M61.7324 17.2899C64.1826 17.2899 66.1689 15.2905 66.1689 12.8241C66.1689 10.3578 64.1826 8.3584 61.7324 8.3584C59.2821 8.3584 57.2958 10.3578 57.2958 12.8241C57.2958 15.2905 59.2821 17.2899 61.7324 17.2899Z" fill="white"/>
<path d="M57.0675 49.6829C58.6724 49.6829 59.9734 48.3734 59.9734 46.758C59.9734 45.1426 58.6724 43.833 57.0675 43.833C55.4627 43.833 54.1617 45.1426 54.1617 46.758C54.1617 48.3734 55.4627 49.6829 57.0675 49.6829Z" fill="#FF9D00"/>
<path opacity="0.2" d="M65.4032 9.62488C65.9026 9.92693 66.3379 10.325 66.6845 10.7965C67.031 11.2679 67.2819 11.8034 67.4228 12.3724C67.5638 12.9414 67.592 13.5328 67.5059 14.1128C67.4197 14.6928 67.2209 15.25 66.9209 15.7527C66.6208 16.2554 66.2253 16.6936 65.757 17.0424C65.2886 17.3913 64.7566 17.6438 64.1913 17.7857C63.0496 18.0722 61.8416 17.8904 60.8331 17.2804C61.8614 17.5106 62.9376 17.365 63.8689 16.8696C64.8003 16.3741 65.5261 15.5612 65.9165 14.5763C66.3068 13.5914 66.3362 12.4989 65.9993 11.4942C65.6625 10.4894 64.9815 9.6382 64.0781 9.09277C64.5454 9.19702 64.9929 9.37672 65.4032 9.62488Z" fill="#292929"/>
<path opacity="0.2" d="M76.2222 15.7395C74.6567 22.6392 62.825 30.3159 59.4486 43.2583C58.7742 42.6169 58.1479 41.9262 57.5747 41.1918C61.3688 29.0263 72.464 21.6341 73.9766 14.9678C75.3304 9.00124 71.5276 3.33088 66.0709 0.935547C72.6762 2.60692 77.7552 8.98325 76.2222 15.7395Z" fill="#292929"/>
<path d="M22.637 18.0082C19.9447 17.7025 17.242 18.4859 15.1235 20.186C13.005 21.8861 11.6443 24.3637 11.3406 27.0737C10.7081 32.7171 13.6618 44.9717 19.0469 50.0447C21.5825 40.3254 30.4676 34.5604 31.6433 29.379C32.8995 23.8424 28.2435 18.6448 22.637 18.0082Z" fill="#FF9D00"/>
<path d="M20.775 30.5539C22.615 30.5539 24.1067 29.0524 24.1067 27.2003C24.1067 25.3481 22.615 23.8467 20.775 23.8467C18.9349 23.8467 17.4433 25.3481 17.4433 27.2003C17.4433 29.0524 18.9349 30.5539 20.775 30.5539Z" fill="white"/>
<path d="M17.2718 54.8804C18.477 54.8804 19.454 53.897 19.454 52.6838C19.454 51.4707 18.477 50.4873 17.2718 50.4873C16.0667 50.4873 15.0897 51.4707 15.0897 52.6838C15.0897 53.897 16.0667 54.8804 17.2718 54.8804Z" fill="#FF9D00"/>
<path opacity="0.2" d="M23.5316 24.798C23.9066 25.0249 24.2336 25.3238 24.4938 25.6778C24.7541 26.0319 24.9425 26.434 25.0483 26.8613C25.1541 27.2887 25.1753 27.7328 25.1106 28.1683C25.046 28.6039 24.8967 29.0223 24.6713 29.3998C24.446 29.7773 24.149 30.1064 23.7973 30.3684C23.4456 30.6303 23.0461 30.82 22.6215 30.9265C22.197 31.033 21.7558 31.0544 21.3231 30.9893C20.8904 30.9242 20.4747 30.7739 20.0996 30.5471C20.8719 30.72 21.68 30.6106 22.3794 30.2385C23.0789 29.8665 23.6239 29.256 23.9171 28.5164C24.2102 27.7768 24.2322 26.9563 23.9793 26.2018C23.7264 25.4473 23.2149 24.808 22.5365 24.3984C22.8874 24.4767 23.2235 24.6117 23.5316 24.798Z" fill="#292929"/>
<path opacity="0.2" d="M31.6563 29.3897C30.4807 34.5712 21.5955 40.3361 19.06 50.0554C18.5535 49.5737 18.0831 49.055 17.6527 48.5035C20.502 39.3677 28.8341 33.8164 29.97 28.8102C30.9866 24.3295 28.1308 20.0713 24.0331 18.2725C28.9934 19.5276 32.8076 24.316 31.6563 29.3897Z" fill="#292929"/>
<path d="M126.945 139.495H123.287L121.547 125.292L126.946 125.292L126.945 139.495Z" fill="#A0616A"/>
<path d="M128.913 146.486H126.317L125.854 144.02L124.667 146.486H117.783C117.453 146.486 117.131 146.38 116.866 146.183C116.6 145.987 116.404 145.709 116.305 145.392C116.207 145.075 116.212 144.735 116.32 144.421C116.427 144.107 116.632 143.836 116.903 143.647L122.401 139.825V137.331L128.184 137.678L128.913 146.486Z" fill="#262626"/>
<path d="M112.776 139.495H109.118L107.378 125.292L112.777 125.292L112.776 139.495Z" fill="#A0616A"/>
<path d="M114.744 146.486H112.149L111.685 144.02L110.499 146.486H103.614C103.284 146.486 102.963 146.38 102.697 146.183C102.431 145.987 102.235 145.709 102.137 145.392C102.038 145.075 102.044 144.735 102.151 144.421C102.259 144.107 102.463 143.836 102.735 143.647L108.233 139.825V137.331L114.015 137.678L114.744 146.486Z" fill="#262626"/>
<path d="M98.879 101.997C99.579 103.054 107.195 132.109 107.195 132.109L113.947 132.884L113.146 125.574L111.921 112.637L110.024 104.001C110.024 104.001 116.723 88.6542 117.146 87.4317L117.447 86.5544L119.541 105.675C119.789 106.357 119.898 107.084 119.859 107.81C119.796 109.004 120.986 126.973 120.986 126.973L121.558 133.416L127.344 134.225L129.691 123.076C131.651 119.454 130.528 106.584 129.726 105.386C128.925 104.188 129.243 95.8451 129.243 95.8451C130.267 95.4825 136.37 74.5328 133.317 74.6565C133.513 73.5397 133.667 72.5426 133.667 72.5426L128.368 68.2408L115.106 64.7705L111.76 63.1533C111.76 63.1533 105.784 74.276 105.844 74.8292C105.926 75.5298 105.766 76.2376 105.392 76.8339L99.3585 97.1592C99.3585 97.1592 98.172 100.929 98.879 101.997Z" fill="#262626"/>
<path d="M132.198 29.2648L130.088 24.7559L122.907 25.0337L120.565 29.7246C120.565 29.7246 113.871 37.7723 113.654 40.3891C113.382 43.6803 115.647 59.8106 113.382 58.765C113.382 58.765 108.043 65.0732 111.202 65.0732C114.361 65.0732 128.652 74.1031 129.59 75.1186C130.527 76.1341 134.713 76.7925 134.362 74.6725C134.011 72.5525 132.198 61.087 132.198 61.087L137.107 43.0586C138.52 39.1663 138.96 34.8003 135.766 32.1857L132.198 29.2648Z" fill="#CCCCCC"/>
<path d="M105.599 15.9934C104.639 15.6096 103.612 15.42 102.579 15.4354C101.546 15.4509 100.526 15.671 99.577 16.0833C98.6282 16.4955 97.7694 17.0919 97.0496 17.8382C96.3298 18.5846 95.7631 19.4663 95.3818 20.4331C93.7783 24.4992 93.5126 34.2091 96.4965 39.0756C100.333 32.3672 108.095 29.8901 110.01 26.278C112.056 22.4183 109.639 17.6074 105.599 15.9934Z" fill="#FF9D00"/>
<path d="M102.369 25.0308C103.786 25.0308 104.935 23.8743 104.935 22.4475C104.935 21.0208 103.786 19.8643 102.369 19.8643C100.952 19.8643 99.8026 21.0208 99.8026 22.4475C99.8026 23.8743 100.952 25.0308 102.369 25.0308Z" fill="white"/>
<path d="M94.6471 42.3684C95.5755 42.3684 96.3281 41.6108 96.3281 40.6764C96.3281 39.7419 95.5755 38.9844 94.6471 38.9844C93.7188 38.9844 92.9662 39.7419 92.9662 40.6764C92.9662 41.6108 93.7188 42.3684 94.6471 42.3684Z" fill="#FF9D00"/>
<path opacity="0.2" d="M104.901 21.2222C105.371 21.7169 105.626 22.3794 105.612 23.0639C105.597 23.7484 105.313 24.399 104.822 24.8727C104.331 25.3465 103.673 25.6046 102.993 25.5904C102.313 25.5762 101.666 25.2909 101.195 24.7971C101.734 25.0827 102.357 25.1659 102.951 25.0316C103.546 24.8974 104.074 24.5546 104.44 24.0645C104.807 23.5743 104.988 22.969 104.951 22.3567C104.915 21.7444 104.663 21.1652 104.241 20.7227C104.486 20.8523 104.709 21.0209 104.901 21.2222Z" fill="#292929"/>
<path opacity="0.2" d="M110.017 26.2893C108.103 29.9015 100.341 32.3785 96.5041 39.0869C96.2244 38.6259 95.9789 38.1446 95.7697 37.6471C99.7224 31.4362 107.031 29.0054 108.88 25.5154C110.536 22.3918 109.268 18.6455 106.584 16.4746C110.019 18.4169 111.892 22.7523 110.017 26.2893Z" fill="#292929"/>
<path d="M93.8896 40.0937C94.2803 40.0126 94.684 40.0187 95.0722 40.1117C95.4603 40.2046 95.8235 40.3821 96.1361 40.6316C96.4488 40.8811 96.7032 41.1966 96.8816 41.5558C97.06 41.915 97.158 42.3093 97.1687 42.7107L102.991 44.9603L102.496 48.8553L94.3179 45.5621C93.6467 45.5355 93.0085 45.2619 92.5243 44.7932C92.0401 44.3246 91.7435 43.6934 91.6907 43.0194C91.6379 42.3453 91.8326 41.6752 92.2379 41.136C92.6431 40.5967 93.2308 40.2259 93.8896 40.0937Z" fill="#A0616A"/>
<path d="M134.572 32.0673C133.959 31.6906 133.278 31.4394 132.568 31.3281C131.858 31.2169 131.134 31.2477 130.436 31.4189C129.738 31.5902 129.081 31.8984 128.502 32.3259C127.923 32.7534 127.433 33.2917 127.061 33.9102L118.704 47.8015L99.8085 43.2932L98.0871 48.0503L122.284 59.5875L134.539 39.9398C136.374 37.3443 137.273 33.7271 134.572 32.0673Z" fill="#CCCCCC"/>
<path d="M134.884 15.0427C134.884 16.3816 134.558 17.7001 133.934 18.8826C133.31 20.065 132.408 21.0752 131.305 21.8245C130.203 22.5737 128.935 23.0392 127.612 23.1799C126.289 23.3206 124.952 23.1324 123.719 22.6316C122.485 22.1309 121.392 21.333 120.537 20.308C119.681 19.283 119.088 18.0622 118.811 16.7528C118.533 15.4434 118.579 14.0854 118.945 12.7981C119.31 11.5108 119.984 10.3334 120.907 9.36945L120.946 9.33022C121.011 9.26149 121.076 9.1928 121.144 9.12734C121.145 9.12734 121.145 9.12726 121.146 9.1271C121.146 9.12694 121.146 9.1267 121.147 9.1264C121.147 9.12609 121.147 9.12572 121.147 9.12532C121.147 9.12492 121.148 9.1245 121.148 9.12406C121.232 9.04554 121.317 8.96702 121.404 8.89178C122.579 7.85556 124.025 7.18195 125.569 6.95158C127.114 6.72122 128.692 6.94387 130.114 7.59287C131.536 8.24187 132.743 9.28973 133.589 10.611C134.434 11.9322 134.884 13.4709 134.884 15.0427Z" fill="#262626"/>
<path d="M124.756 23.7938C128.519 23.7938 131.57 20.723 131.57 16.935C131.57 13.147 128.519 10.0762 124.756 10.0762C120.992 10.0762 117.942 13.147 117.942 16.935C117.942 20.723 120.992 23.7938 124.756 23.7938Z" fill="#9E616A"/>
<path d="M131.992 18.8912L130.863 18.6904C130.232 18.575 129.651 18.2685 129.198 17.8118C128.745 17.3551 128.441 16.7701 128.327 16.135L127.226 17.9934L127.178 18.0095C124.553 18.8866 121.822 18.6243 118.831 17.2085C117.975 16.8001 117.146 16.3396 116.346 15.8296L116.287 15.7925L116.282 15.7228C116.13 13.4915 116.627 11.6275 117.683 10.4741C118.089 10.0401 118.581 9.69727 119.127 9.46805C119.673 9.23883 120.261 9.12839 120.853 9.14397C120.895 9.13291 120.934 9.11141 120.966 9.08144C120.981 9.07019 120.996 9.05907 121.011 9.04849V9.03697L121.089 8.99988C121.258 8.92034 121.429 8.84413 121.6 8.77449C122.949 8.24911 124.417 8.11732 125.836 8.39425C127.256 8.67118 128.569 9.3456 129.624 10.34C131.723 12.357 132.686 15.7418 132.02 18.763L131.992 18.8912Z" fill="#262626"/>
<path d="M146.364 24.7351C144.045 23.5304 147.027 19.158 146.428 16.6017C145.829 14.0453 141.513 13.223 141.238 10.611C140.963 7.99906 140.317 5.30507 138.604 3.32308C137.51 2.05658 135.898 1.12162 134.238 1.28026C133.676 1.33393 133.133 1.50881 132.644 1.793C132.156 2.07719 131.734 2.464 131.407 2.92709C131.081 3.39018 130.857 3.91867 130.752 4.47657C130.647 5.03446 130.662 5.60866 130.797 6.16004C130.324 5.48596 129.101 5.63205 128.799 6.3988C128.529 7.08043 129.124 7.90608 129.824 7.96638C130.739 9.10459 131.788 10.3125 133.222 10.5422C133.451 10.595 133.689 10.5948 133.917 10.5418C134.146 10.4887 134.359 10.384 134.541 10.2357C134.879 9.90948 134.905 9.25728 134.505 9.0135C136.308 9.73431 137.364 11.6963 137.632 13.6301C137.899 15.564 137.529 17.5207 137.286 19.4577C137.042 21.3947 136.937 23.4324 137.691 25.2311C138.583 27.3564 140.635 28.8796 142.875 29.3681C145.115 29.8566 147.5 29.3792 149.528 28.3036C151.555 27.2278 153.246 25.5857 154.627 23.7447C152.248 25.4452 148.957 26.0823 146.364 24.7351Z" fill="#262626"/>
<path d="M131.702 18.7011C131.702 18.7011 129.683 11.1171 121.031 9.3667C121.021 9.36346 120.988 9.35036 120.946 9.33077C120.92 9.31439 120.888 9.29802 120.855 9.28167C120.953 9.22604 121.047 9.17699 121.144 9.12787L121.146 9.12763L121.147 9.12693L121.147 9.12586L121.148 9.1246C121.232 9.04608 121.317 8.96756 121.404 8.89231L121.651 8.90214C121.651 8.90214 130.333 7.51818 131.702 18.7011Z" fill="#FD6584"/>
<path opacity="0.2" d="M127.182 43.0361L122.296 48.7351L114.221 46.335L123.024 50.4183L127.182 43.0361Z" fill="black"/>
<path d="M156.515 146.916L81.3798 147C81.294 147 81.2117 146.965 81.151 146.904C81.0904 146.843 81.0563 146.76 81.0563 146.674C81.0563 146.587 81.0904 146.504 81.151 146.443C81.2117 146.382 81.294 146.347 81.3798 146.347L156.515 146.263C156.601 146.263 156.683 146.297 156.744 146.358C156.805 146.42 156.839 146.503 156.839 146.589C156.839 146.676 156.805 146.759 156.744 146.82C156.683 146.881 156.601 146.916 156.515 146.916Z" fill="#CACACA"/>
</g>
<defs>
<clipPath id="clip0_675_256">
<rect width="157" height="147" fill="white"/>
</clipPath>
</defs>
</svg>
