<svg width="149" height="153" viewBox="0 0 149 153" fill="none" xmlns="http://www.w3.org/2000/svg">
<g clip-path="url(#clip0_675_212)">
<path d="M107.298 36.2636H106.461V13.2941C106.461 9.76826 105.06 6.38686 102.567 3.89374C100.074 1.40062 96.6927 1.73414e-09 93.167 1.73414e-09H44.504C42.7583 -2.81952e-05 41.0296 0.343805 39.4168 1.01187C37.8039 1.67993 36.3384 2.65914 35.104 3.89359C33.8696 5.12804 32.8903 6.59355 32.2223 8.20645C31.5542 9.81935 31.2103 11.5481 31.2103 13.2939V139.307C31.2103 142.832 32.6108 146.214 35.1038 148.707C37.5969 151.2 40.9781 152.601 44.5038 152.601H93.1664C96.6921 152.601 100.073 151.2 102.566 148.707C105.059 146.214 106.46 142.832 106.46 139.307V52.6137H107.297L107.298 36.2636Z" fill="#545454"/>
<path d="M103.734 12.4033V140.196C103.733 142.869 102.671 145.433 100.782 147.324C98.8915 149.214 96.3282 150.277 93.6551 150.278H43.9936C41.3195 150.278 38.7547 149.216 36.8634 147.326C34.972 145.435 33.9091 142.871 33.9083 140.196V12.4033C33.9091 9.72918 34.972 7.16483 36.8632 5.27431C38.7545 3.38379 41.3192 2.32192 43.9932 2.32227H50.0174C49.7216 3.04972 49.609 3.8387 49.6896 4.61985C49.7701 5.40101 50.0412 6.15043 50.4792 6.80224C50.9172 7.45404 51.5085 7.98829 52.2013 8.35801C52.8941 8.72773 53.6671 8.92161 54.4524 8.9226H82.7652C83.5505 8.92161 84.3235 8.72773 85.0162 8.35801C85.709 7.98829 86.3004 7.45404 86.7384 6.80224C87.1763 6.15043 87.4475 5.40101 87.528 4.61985C87.6086 3.8387 87.496 3.04972 87.2002 2.32227H93.6531C96.3262 2.32272 98.8897 3.38471 100.78 5.27477C102.67 7.16482 103.733 9.72822 103.734 12.4014V12.4033Z" fill="white"/>
<path d="M91.4239 86.014H47.2939C47.0772 86.0138 46.8695 85.9276 46.7163 85.7744C46.5631 85.6212 46.4769 85.4135 46.4767 85.1968V74.2498C46.477 74.0332 46.5632 73.8255 46.7164 73.6723C46.8696 73.5191 47.0772 73.4329 47.2939 73.4326H91.4239C91.6405 73.4329 91.8482 73.5191 92.0014 73.6723C92.1546 73.8255 92.2407 74.0332 92.241 74.2498V85.1971C92.2407 85.4137 92.1546 85.6214 92.0014 85.7746C91.8482 85.9278 91.6405 86.014 91.4239 86.0143V86.014ZM47.2939 73.7594C47.1639 73.7595 47.0392 73.8112 46.9473 73.9032C46.8553 73.9951 46.8036 74.1198 46.8035 74.2498V85.197C46.8036 85.3271 46.8553 85.4518 46.9473 85.5437C47.0392 85.6356 47.1639 85.6873 47.2939 85.6875H91.4239C91.5539 85.6873 91.6786 85.6356 91.7705 85.5437C91.8624 85.4518 91.9141 85.3271 91.9143 85.197V74.2498C91.9141 74.1198 91.8624 73.9951 91.7705 73.9032C91.6786 73.8112 91.5539 73.7595 91.4239 73.7594H47.2939Z" fill="#E6E6E6"/>
<path d="M60.9416 77.375C60.7899 77.375 60.6444 77.4353 60.5371 77.5426C60.4298 77.6499 60.3696 77.7954 60.3696 77.9471C60.3696 78.0988 60.4298 78.2444 60.5371 78.3516C60.6444 78.4589 60.7899 78.5192 60.9416 78.5192H87.9098C88.0614 78.525 88.2092 78.4704 88.3205 78.3672C88.4318 78.2641 88.4976 78.121 88.5035 77.9693C88.5093 77.8177 88.4546 77.6699 88.3515 77.5586C88.2484 77.4472 88.1052 77.3814 87.9536 77.3756C87.9452 77.3753 87.9368 77.3752 87.9285 77.3752L60.9416 77.375Z" fill="#E6E6E6"/>
<path d="M60.9416 80.8066C60.7899 80.8066 60.6444 80.8669 60.5371 80.9742C60.4298 81.0815 60.3696 81.227 60.3696 81.3787C60.3696 81.5305 60.4298 81.676 60.5371 81.7833C60.6444 81.8906 60.7899 81.9509 60.9416 81.9509H87.9098C88.0614 81.9567 88.2092 81.902 88.3205 81.7989C88.4318 81.6957 88.4976 81.5526 88.5035 81.401C88.5093 81.2493 88.4546 81.1016 88.3515 80.9902C88.2484 80.8789 88.1052 80.8131 87.9536 80.8073C87.9452 80.8069 87.9368 80.8068 87.9285 80.8069L60.9416 80.8066Z" fill="#E6E6E6"/>
<path d="M91.4239 104.26H47.2939C47.0772 104.26 46.8695 104.174 46.7163 104.021C46.5631 103.867 46.4769 103.66 46.4767 103.443V92.4959C46.477 92.2793 46.5632 92.0716 46.7164 91.9184C46.8696 91.7652 47.0772 91.679 47.2939 91.6787H91.4239C91.6405 91.679 91.8482 91.7652 92.0014 91.9184C92.1546 92.0716 92.2407 92.2793 92.241 92.4959V103.443C92.2407 103.66 92.1545 103.867 92.0013 104.021C91.8481 104.174 91.6405 104.26 91.4239 104.26ZM47.2939 92.0055C47.1639 92.0056 47.0392 92.0573 46.9473 92.1493C46.8553 92.2412 46.8036 92.3659 46.8035 92.4959V103.443C46.8036 103.573 46.8553 103.698 46.9473 103.79C47.0392 103.882 47.1639 103.933 47.2939 103.934H91.4239C91.5539 103.933 91.6786 103.882 91.7705 103.79C91.8624 103.698 91.9141 103.573 91.9143 103.443V92.4959C91.9141 92.3659 91.8624 92.2412 91.7705 92.1493C91.6786 92.0573 91.5539 92.0056 91.4239 92.0055H47.2939Z" fill="#E6E6E6"/>
<path d="M60.9416 95.6807C60.7899 95.6807 60.6444 95.7409 60.5371 95.8482C60.4298 95.9555 60.3696 96.1011 60.3696 96.2528C60.3696 96.4045 60.4298 96.55 60.5371 96.6573C60.6444 96.7646 60.7899 96.8249 60.9416 96.8249H87.9098C88.0593 96.824 88.2026 96.7647 88.309 96.6594C88.4153 96.5542 88.4762 96.4116 88.4786 96.262C88.4811 96.1125 88.4249 95.9679 88.322 95.8593C88.2192 95.7507 88.0779 95.6866 87.9285 95.6809H60.9416V95.6807Z" fill="#E6E6E6"/>
<path d="M60.9416 99.1133C60.7899 99.1133 60.6444 99.1736 60.5371 99.2809C60.4298 99.3881 60.3696 99.5337 60.3696 99.6854C60.3696 99.8371 60.4298 99.9826 60.5371 100.09C60.6444 100.197 60.7899 100.258 60.9416 100.258H87.9098C88.0593 100.257 88.2026 100.197 88.309 100.092C88.4153 99.9869 88.4762 99.8442 88.4786 99.6946C88.4811 99.5451 88.4249 99.4005 88.322 99.2919C88.2192 99.1833 88.0779 99.1192 87.9285 99.1135H60.9416V99.1133Z" fill="#E6E6E6"/>
<path d="M91.4239 122.567H47.2939C47.0772 122.567 46.8695 122.48 46.7163 122.327C46.5631 122.174 46.4769 121.966 46.4767 121.75V110.803C46.477 110.586 46.5632 110.378 46.7164 110.225C46.8696 110.072 47.0772 109.986 47.2939 109.985H91.4239C91.6405 109.986 91.8482 110.072 92.0014 110.225C92.1546 110.378 92.2407 110.586 92.241 110.803V121.75C92.2407 121.966 92.1546 122.174 92.0014 122.327C91.8482 122.481 91.6405 122.567 91.4239 122.567V122.567ZM47.2939 110.312C47.1639 110.312 47.0392 110.364 46.9473 110.456C46.8553 110.548 46.8036 110.673 46.8035 110.803V121.75C46.8036 121.88 46.8553 122.004 46.9473 122.096C47.0392 122.188 47.1639 122.24 47.2939 122.24H91.4239C91.5539 122.24 91.6786 122.188 91.7705 122.096C91.8624 122.004 91.9141 121.88 91.9143 121.75V110.803C91.9141 110.673 91.8624 110.548 91.7705 110.456C91.6786 110.364 91.5539 110.312 91.4239 110.312H47.2939Z" fill="#E6E6E6"/>
<path d="M60.9416 113.987C60.7899 113.987 60.6444 114.048 60.5371 114.155C60.4298 114.262 60.3696 114.408 60.3696 114.559C60.3696 114.711 60.4298 114.857 60.5371 114.964C60.6444 115.071 60.7899 115.132 60.9416 115.132H87.9098C87.9849 115.134 88.0598 115.122 88.1303 115.096C88.2007 115.07 88.2654 115.031 88.3205 114.98C88.3756 114.928 88.4202 114.867 88.4515 114.799C88.4829 114.731 88.5006 114.657 88.5035 114.582C88.5063 114.507 88.4944 114.432 88.4683 114.361C88.4422 114.291 88.4025 114.226 88.3515 114.171C88.3004 114.116 88.239 114.071 88.1707 114.04C88.1025 114.008 88.0287 113.991 87.9536 113.988C87.9452 113.988 87.9368 113.987 87.9285 113.988L60.9416 113.987Z" fill="#E6E6E6"/>
<path d="M60.9416 117.42C60.7899 117.42 60.6444 117.48 60.5371 117.587C60.4298 117.695 60.3696 117.84 60.3696 117.992C60.3696 118.144 60.4298 118.289 60.5371 118.397C60.6444 118.504 60.7899 118.564 60.9416 118.564H87.9098C87.9849 118.567 88.0598 118.555 88.1303 118.529C88.2007 118.503 88.2654 118.463 88.3205 118.412C88.3756 118.361 88.4202 118.3 88.4515 118.231C88.4829 118.163 88.5006 118.089 88.5035 118.014C88.5063 117.939 88.4944 117.864 88.4683 117.794C88.4422 117.723 88.4025 117.659 88.3515 117.604C88.3004 117.548 88.239 117.504 88.1707 117.472C88.1025 117.441 88.0287 117.423 87.9536 117.421C87.9452 117.42 87.9368 117.42 87.9285 117.42H60.9416V117.42Z" fill="#E6E6E6"/>
<path d="M148.611 153H0.389046C0.17434 153 0 152.899 0 152.775C0 152.651 0.17434 152.551 0.389046 152.551H148.611C148.826 152.551 149 152.651 149 152.775C149 152.899 148.825 153 148.611 153Z" fill="#E6E6E6"/>
<path d="M6.24163 144.247C6.91909 144.486 7.64647 144.545 8.35368 144.421C9.06089 144.296 9.72409 143.991 10.2794 143.536C11.6937 142.349 12.137 140.393 12.4977 138.583L13.5648 133.227L11.3308 134.765C9.72416 135.871 8.08144 137.013 6.96884 138.615C5.85623 140.218 5.37078 142.405 6.2646 144.139" fill="#E6E6E6"/>
<path d="M6.58695 151.104C6.30568 149.056 6.01647 146.981 6.21379 144.91C6.38899 143.071 6.95002 141.275 8.09225 139.802C8.69851 139.022 9.4362 138.353 10.2722 137.827C10.4901 137.689 10.6908 138.035 10.4738 138.172C9.027 139.086 7.90792 140.436 7.27787 142.027C6.58223 143.796 6.47058 145.725 6.59081 147.605C6.66338 148.741 6.81689 149.871 6.9717 150.998C6.98388 151.049 6.97625 151.103 6.95034 151.149C6.92444 151.194 6.88219 151.228 6.83214 151.244C6.78107 151.258 6.72665 151.251 6.68067 151.225C6.63469 151.199 6.60086 151.155 6.58652 151.104H6.58695Z" fill="#F2F2F2"/>
<path d="M8.61099 147.817C8.90154 148.259 9.30092 148.618 9.77064 148.86C10.2404 149.103 10.7646 149.22 11.2929 149.201C12.6505 149.137 13.7824 148.189 14.8012 147.29L17.8148 144.63L15.8204 144.534C14.3861 144.466 12.9148 144.402 11.5477 144.844C10.1807 145.286 8.92167 146.351 8.67197 147.764" fill="#E6E6E6"/>
<path d="M5.79211 152.283C7.14475 149.887 8.71597 147.225 11.5215 146.374C12.3016 146.138 13.1196 146.054 13.9314 146.125C14.1873 146.147 14.1233 146.542 13.867 146.52C12.5062 146.407 11.148 146.766 10.0212 147.537C8.93668 148.275 8.09246 149.301 7.37792 150.39C6.94013 151.055 6.54809 151.751 6.15603 152.445C6.03108 152.667 5.66607 152.507 5.79211 152.283Z" fill="#F2F2F2"/>
<path d="M52.7994 83.0885C54.695 83.0885 56.2317 81.5517 56.2317 79.6561C56.2317 77.7604 54.695 76.2236 52.7994 76.2236C50.9038 76.2236 49.3671 77.7604 49.3671 79.6561C49.3671 81.5517 50.9038 83.0885 52.7994 83.0885Z" fill="#FF9D00"/>
<path d="M51.1562 79.0146C51.1167 79.0146 51.0847 79.2708 51.0847 79.5866C51.0847 79.9025 51.1167 80.1589 51.1562 80.1589H54.5312C54.5707 80.164 54.6033 79.9122 54.604 79.5963C54.6259 79.3997 54.6018 79.2006 54.5336 79.0149H51.1562V79.0146Z" fill="#E6E6E6"/>
<path d="M52.7994 101.402C54.695 101.402 56.2317 99.8652 56.2317 97.9695C56.2317 96.0739 54.695 94.5371 52.7994 94.5371C50.9038 94.5371 49.3671 96.0739 49.3671 97.9695C49.3671 99.8652 50.9038 101.402 52.7994 101.402Z" fill="#FF9D00"/>
<path d="M51.1562 97.3281C51.1167 97.3281 51.0847 97.5843 51.0847 97.9001C51.0847 98.216 51.1167 98.4723 51.1562 98.4723H54.5312C54.5707 98.4775 54.6033 98.2256 54.604 97.9098C54.6259 97.7131 54.6018 97.5141 54.5336 97.3283L51.1562 97.3281Z" fill="#E6E6E6"/>
<path d="M52.7994 119.709C54.695 119.709 56.2317 118.172 56.2317 116.276C56.2317 114.381 54.695 112.844 52.7994 112.844C50.9038 112.844 49.3671 114.381 49.3671 116.276C49.3671 118.172 50.9038 119.709 52.7994 119.709Z" fill="#FF9D00"/>
<path d="M51.1562 115.635C51.1167 115.635 51.0847 115.891 51.0847 116.207C51.0847 116.523 51.1167 116.779 51.1562 116.779H54.5312C54.5707 116.784 54.6033 116.532 54.604 116.216C54.6259 116.02 54.6018 115.821 54.5336 115.635L51.1562 115.635Z" fill="#E6E6E6"/>
<path d="M79.9106 55.1107C79.7324 55.1113 79.5575 55.0624 79.4054 54.9696C79.2533 54.8767 79.13 54.7435 79.0491 54.5847C78.3605 53.2385 77.41 52.0434 76.2533 51.0696C75.0966 50.0958 73.757 49.3629 72.3132 48.9138C71.7221 48.7345 71.1188 48.5979 70.508 48.5051L70.3835 48.4862L76.8075 28.4004L76.9161 28.4042C89.3964 31.7956 96.537 41.7984 98.4282 44.7833C98.5003 44.8974 98.5476 45.0254 98.5672 45.1589C98.5867 45.2925 98.578 45.4286 98.5417 45.5586C98.5053 45.6886 98.4421 45.8095 98.3561 45.9135C98.2701 46.0175 98.1633 46.1023 98.0424 46.1625L80.3441 55.0082C80.2095 55.0756 80.0611 55.1107 79.9106 55.1107Z" fill="#E6E6E6"/>
<path d="M118.437 97.9089C118.503 97.6255 118.632 97.3602 118.812 97.1317C118.993 96.9032 119.221 96.7171 119.481 96.5864C119.741 96.4558 120.027 96.3837 120.318 96.3754C120.609 96.3671 120.899 96.4227 121.166 96.5383L125.95 91.3223L126.844 94.89L122.163 99.2961C121.94 99.7324 121.563 100.071 121.106 100.249C120.649 100.426 120.143 100.43 119.683 100.258C119.224 100.087 118.843 99.7537 118.613 99.3206C118.384 98.8875 118.321 98.3851 118.436 97.9086L118.437 97.9089Z" fill="#FEB8B8"/>
<path d="M128.712 149.942H125.789L124.398 138.666H128.714L128.712 149.942Z" fill="#FEB8B8"/>
<path d="M129.458 148.987H123.7C122.727 148.987 121.794 149.374 121.106 150.062C120.418 150.75 120.032 151.683 120.031 152.656V152.776H129.457L129.458 148.987Z" fill="#252525"/>
<path d="M145.5 147.046L142.767 148.083L137.465 138.035L141.499 136.504L145.5 147.046Z" fill="#FEB8B8"/>
<path d="M145.858 145.889L140.476 147.932C139.566 148.277 138.831 148.97 138.432 149.857C138.033 150.744 138.003 151.754 138.348 152.664L138.391 152.775L147.204 149.43L145.858 145.889Z" fill="#252525"/>
<path d="M135.877 112.435L138.299 125.471C138.299 125.471 144.875 143.813 144.413 144.275C143.952 144.736 137.607 146.351 137.953 145.313C138.299 144.275 130.339 128.701 130.339 128.701L135.877 112.435Z" fill="#252525"/>
<path d="M126.053 88.7451C126.053 88.7451 121.162 95.138 121.803 95.4872C122.444 95.8363 124.927 97.685 124.927 97.685L127.452 90.7531L126.053 88.7451Z" fill="#E4E4E4"/>
<path d="M124.687 95.1983C124.687 95.1983 123.879 101.197 124.226 102.466C124.572 103.735 124.341 139.728 124.11 140.305C123.88 140.882 123.187 142.843 123.534 143.766C123.88 144.689 128.609 146.996 129.301 146.189C129.994 145.381 135.07 115.964 135.07 115.964C135.07 115.964 142.222 98.1976 140.607 96.4675C138.992 94.7373 124.687 95.1983 124.687 95.1983Z" fill="#252525"/>
<path d="M135.065 56.6435C138.187 56.6435 140.718 54.1126 140.718 50.9907C140.718 47.8687 138.187 45.3379 135.065 45.3379C131.943 45.3379 129.413 47.8687 129.413 50.9907C129.413 54.1126 131.943 56.6435 135.065 56.6435Z" fill="#FEB8B8"/>
<path d="M129.159 63.7665C129.301 62.8512 129.757 62.0136 130.447 61.3961L131.478 58.2451H137.534L139.222 60.8936C141.047 61.6797 142.4 62.9263 142.451 64.3958C142.73 65.3717 141.528 96.3514 141.182 97.5049C141.081 97.8407 139.701 98.0202 137.761 98.1001C135.982 98.1726 133.734 98.1623 131.575 98.1127C128.001 98.0296 124.67 97.8381 124.109 97.7355C122.841 97.5051 129.033 64.4944 129.159 63.7665Z" fill="#E4E4E4"/>
<path d="M134.514 104.848C134.759 104.691 134.967 104.482 135.123 104.236C135.279 103.991 135.379 103.714 135.417 103.425C135.454 103.136 135.428 102.843 135.339 102.565C135.251 102.288 135.103 102.033 134.906 101.819L138.248 95.5801L134.586 95.9146L131.973 101.787C131.635 102.143 131.439 102.61 131.423 103.1C131.406 103.59 131.57 104.069 131.884 104.447C132.197 104.824 132.638 105.073 133.123 105.147C133.607 105.221 134.102 105.114 134.514 104.847L134.514 104.848Z" fill="#FEB8B8"/>
<path d="M135.069 60.3588C135.069 60.3588 129.763 62.5506 131.724 68.0885C133.685 73.6265 135.877 80.2017 135.877 80.2017C135.877 80.2017 133.108 95.0836 133.108 95.6612C133.108 96.2387 131.378 99.3527 132.07 99.9297C132.762 100.507 137.376 101.66 137.492 101.083C137.845 99.7544 138.269 98.4451 138.76 97.1609C138.991 96.6995 144.413 82.2791 143.72 81.0101C143.211 80.0763 142.764 71.5197 142.563 67.0667C142.517 65.796 142.141 64.5593 141.471 63.4782C140.802 62.3971 139.862 61.509 138.746 60.9012C137.671 60.3296 136.419 60.0213 135.069 60.3588Z" fill="#E4E4E4"/>
<path d="M137.241 53.5174C136.812 53.3194 136.314 53.2784 135.85 53.1554C134.189 52.7148 133.077 51.075 133.432 49.5911C133.497 49.4024 133.527 49.2032 133.519 49.0037C133.457 48.5641 132.942 48.2805 132.449 48.1798C131.955 48.0791 131.43 48.0939 130.958 47.9318C130.617 47.8108 130.314 47.6001 130.082 47.3218C129.85 47.0435 129.698 46.7079 129.641 46.3502C129.568 45.6553 129.745 44.9571 130.14 44.3811L130.319 44.8294C130.583 44.6381 130.786 44.3735 130.901 44.0682C131.095 44.0914 131.28 44.1623 131.44 44.2744C131.599 44.3865 131.728 44.5364 131.816 44.7107C132.102 44.8582 132.143 44.2527 132.46 44.1633C132.598 44.1481 132.736 44.1782 132.855 44.2492C133.492 44.5088 134.232 44.2868 134.916 44.143C136.103 43.895 137.329 43.8937 138.517 44.1393C139.303 44.3031 140.082 44.5887 140.645 45.0959C141.077 45.5197 141.416 46.0286 141.64 46.5903C142.244 47.9176 142.643 49.3539 142.444 50.7714C142.262 51.9609 141.702 53.0602 140.847 53.9062C140.391 54.3651 138.904 55.9656 138.088 55.6929C137.063 55.3493 138.448 54.075 137.241 53.5174Z" fill="#252525"/>
<path d="M69.1307 58.9306C70.0793 58.9306 70.8483 58.1615 70.8483 57.2128C70.8483 56.2642 70.0793 55.4951 69.1307 55.4951C68.182 55.4951 67.413 56.2642 67.413 57.2128C67.413 58.1615 68.182 58.9306 69.1307 58.9306Z" fill="#1C1C1C"/>
<path d="M57.6036 55.0852C57.4464 55.085 57.2916 55.0463 57.1527 54.9726L39.557 45.6895C39.4403 45.6279 39.3374 45.5431 39.2547 45.4402C39.172 45.3374 39.1113 45.2186 39.0763 45.0914C39.0413 44.9642 39.0327 44.8311 39.051 44.7004C39.0694 44.5697 39.1144 44.4442 39.1831 44.3315C41.5335 40.564 44.51 37.2255 47.9841 34.46C54.0606 29.6438 60.9725 27.2275 68.5268 27.2681C71.36 27.2806 74.1795 27.6623 76.914 28.4036L77.0224 28.433L70.5969 48.5176L70.5065 48.504C69.9277 48.4167 69.3441 48.3649 68.759 48.349C62.2211 48.1645 59.3879 52.6167 58.473 54.5392C58.4179 54.6558 58.3396 54.7599 58.2428 54.8452C58.1461 54.9305 58.033 54.9951 57.9104 55.0352C57.8115 55.0682 57.7079 55.0851 57.6036 55.0852Z" fill="#FF9D00"/>
<path d="M76.888 28.5078L72.3449 48.8112C71.7486 48.6303 71.1402 48.4925 70.5241 48.399L76.8858 28.5078H76.888Z" fill="#1C1C1C"/>
</g>
<defs>
<clipPath id="clip0_675_212">
<rect width="149" height="153" fill="white"/>
</clipPath>
</defs>
</svg>
