<svg width="35" height="34" viewBox="0 0 35 34" fill="none" xmlns="http://www.w3.org/2000/svg">
<circle cx="17.6479" cy="16.9238" r="16.9238" fill="#B2B2B2"/>
<path d="M20.0538 16.9236L23.6623 13.3151C24.1051 12.8723 24.1051 12.1544 23.6623 11.7112L22.8603 10.9093C22.4175 10.4664 21.6996 10.4664 21.2564 10.9093L17.648 14.5177L14.0395 10.9093C13.5967 10.4664 12.8788 10.4664 12.4356 10.9093L11.6336 11.7112C11.1908 12.154 11.1908 12.872 11.6336 13.3151L15.2421 16.9236L11.6336 20.532C11.1908 20.9748 11.1908 21.6928 11.6336 22.1359L12.4356 22.9379C12.8784 23.3807 13.5967 23.3807 14.0395 22.9379L17.648 19.3295L21.2564 22.9379C21.6992 23.3807 22.4175 23.3807 22.8603 22.9379L23.6623 22.1359C24.1051 21.6931 24.1051 20.9752 23.6623 20.532L20.0538 16.9236Z" fill="white"/>
</svg>
