<svg width="849" height="220" viewBox="0 0 849 220" fill="none" xmlns="http://www.w3.org/2000/svg">
<g clip-path="url(#clip0_107_2758)">
<path d="M328.167 196.702H315.107V177.547H298.053V196.702H285.08V147.812H298.053V166.18H315.107V147.812H328.167V196.702Z" fill="#E60012"/>
<path d="M378.534 147.812V180.44C378.534 193.449 372.377 197.099 358.029 197.099C338.429 197.099 336.374 192.158 336.374 180.44V147.812H349.425V180.14C349.425 185.732 352.529 185.779 358.029 185.779C363.613 185.779 365.468 185.284 365.468 179.566V147.812H378.534Z" fill="#E60012"/>
<path d="M397.775 188.285L395.365 196.702H381.755L396.457 147.812H416.286L431.183 196.702H417.86L415.31 188.285H397.775ZM406.622 157.588H406.491L400.573 178.771H412.706L406.622 157.588Z" fill="#E60012"/>
<path d="M470.928 196.702H457.867V147.812H479.916L493.969 185.382H494.512L493.667 147.812H506.747V196.702H484.533L470.695 159.171H470.122L470.928 196.702Z" fill="#E60012"/>
<path d="M525.939 188.285L523.5 196.702H509.944L524.617 147.812H544.441L559.339 196.702H546.025L543.509 188.285H525.939ZM534.802 157.588H534.695L528.728 178.771H540.875L534.802 157.588Z" fill="#E60012"/>
<path d="M575.557 196.702H562.546V147.812H584.595L598.597 185.382H599.132L598.374 147.812H611.415V196.702H589.181L575.305 159.171H574.828L575.557 196.702Z" fill="#E60012"/>
<path d="M642.774 147.812H668.506C678.204 147.812 683.937 149.666 683.937 160.306C683.937 166.51 682.742 170.548 676.309 171.636V172.141C683.481 172.577 684.724 176.955 684.724 183.09C684.724 195.109 679.117 196.702 668.777 196.702H642.774V147.812ZM655.834 167.413H665.231C669.808 167.413 670.916 166.606 670.916 162.685C670.916 159.753 670.469 158.627 666.805 158.501H655.834V167.413ZM655.834 186.013H665.688C669.925 186.013 671.703 185.052 671.703 181.043C671.703 177.033 670.196 176.441 665.92 176.441H655.834V186.013Z" fill="#E60012"/>
<path d="M702.226 188.285L699.816 196.702H686.279L700.962 147.812H720.727L735.645 196.702H722.322L719.795 188.285H702.226ZM711.088 157.588H710.991L705.024 178.771H717.152L711.088 157.588Z" fill="#E60012"/>
<path d="M751.882 196.702H738.832V147.812H760.871L774.952 185.382H775.428L774.651 147.812H787.682V196.702H765.438L751.639 159.171H751.115L751.882 196.702Z" fill="#E60012"/>
<path d="M808.905 166.18H812.812L825.416 147.812H841.215L823.987 171.801L842.634 196.702H826.454L812.812 177.547H808.905V196.702H795.835V147.812H808.905V166.18Z" fill="#E60012"/>
<path d="M383.334 75.692H362.626L359.842 74.6343V71.8091L362.106 69.8676L366.309 69.304L369.089 67.8874L370.215 65.4022L370.784 62.5769L370.215 59.8293H363.51L362.626 57.8491L360.692 55.0626L356.47 53.1023L352.005 54.5387L350.027 59.538L336.899 59.2666L336.607 53.6451L339.43 53.9363L344.177 53.6451L349.211 53.1023L352.573 51.1598L353.987 48.3645L353.108 45.2679L353.71 43.8692L355.654 42.4615L358.151 38.8699H360.979L368.553 38.2585L371.624 35.2097L373.004 30.7154L368.787 28.5015L359.842 27.085L360.158 21.7845L360.396 18.1242L356.47 14.7652H351.164L348.37 19.2118L346.674 27.085L338.561 27.3951L334.11 27.6864L330.451 32.4143L330.99 35.7833L335.49 37.7347C335.49 37.7347 343.356 37.1422 344.177 37.1422C345.008 37.1422 347.272 38.8699 347.272 38.8699L348.083 42.714L346.135 44.7142L338.561 45.0054L333.24 44.4129L328.794 42.4615L326.248 44.4129L311.167 43.8692L311.4 41.9277L313.372 39.6761L315.583 37.1422H319.281L322.05 36.3171L324.062 33.5118L324.824 30.4828L321.472 27.6864L317.565 27.3951L313.931 25.6863L313.372 21.7845L311.4 18.4056L308.621 15.6102L304.412 15.3378L301.338 18.4056L301.046 25.395L297.965 25.9776C297.965 25.9776 293.782 26.2688 292.946 26.5114C292.115 26.7937 289.331 29.3565 289.331 29.3565L287.611 32.123L288.141 36.0258L292.115 38.2585H296.59L301.338 37.7347L302.464 39.1423L305.258 41.3551L307.8 42.4615C307.8 42.4615 307.202 44.4129 306.386 44.7142C305.535 45.0054 303.878 47.2381 303.878 47.2381L304.412 53.1023L301.046 52.8299L297.426 54.5387L295.72 59.2666L291.289 60.6643L287.908 68.7214L291.527 70.9641H298.558L297.669 75.4106L289.331 76.2944L282.004 77.9446C282.004 77.9446 277.548 79.6534 275.839 83.264C274.177 86.9043 275.839 88.2831 275.839 88.2831L280.624 93.0597L288.141 94.4186L292.946 89.7007L300.755 87.458C300.755 87.458 314.776 84.9241 315.583 84.9241C316.429 84.9241 322.881 85.7979 322.881 85.7979L323.464 89.7007L319.509 90.5357H307.202C306.386 90.5357 302.742 93.9136 302.742 93.9136L302.464 99.2141L306.672 101.185H323.464L324.062 115.999L324.29 120.485L324.824 123.533L327.919 124.639H331.588L334.362 121.31L335.49 117.669L335.766 112.087L335.49 105.932L336.321 100.34L339.43 100.049C339.43 100.049 344.177 100.864 345.285 100.864C346.432 100.864 349.745 101.748 349.745 101.748L354.249 101.467L357.067 97.8065L356.227 93.0597L352.005 91.9533L346.432 91.1183L337.19 90.8171L336.899 86.623H347.272L353.987 87.458L359.263 88.8855L364.628 90.5357L370.215 92.5358L375.244 91.9533L379.442 89.7007L383.101 85.5265L384.462 80.74L383.334 75.692ZM313.372 53.3935L317.012 53.9363L322.628 54.5387L323.464 57.5966L322.347 59.538H318.435L313.372 59.8293L310.035 58.7129L309.748 54.5387L313.372 53.3935ZM322.881 75.4106C322.881 75.4106 320.918 75.692 319.509 76.0121C318.139 76.2944 314.481 76.0121 314.481 76.0121L310.267 75.692L310.035 72.0804L311.167 69.5952L315.914 68.7214L320.636 67.8874L322.881 69.5952L324.062 72.9254L322.881 75.4106ZM348.657 72.9254L346.956 75.692H338.842L336.899 75.1582L336.321 72.3817L336.899 69.5952L340.256 69.304L347.272 69.0226L348.909 70.7116L348.657 72.9254Z" fill="#E60012"/>
<path d="M496.126 43.6366L506.504 46.4518C506.504 46.4518 515.425 48.947 516.844 49.2383C518.253 49.5196 521.615 50.121 523.004 49.8009C524.404 49.5196 527.494 46.9857 527.494 46.9857L534.481 37.7734L532.829 34.9283H524.939L507.903 34.4045L488.847 33.5694V27.1725C488.847 27.1725 484.669 22.3859 481.588 22.1046C478.507 21.8233 472.871 22.1046 472.871 22.1046L470.987 24.9586L470.636 32.7543C470.636 32.7543 437.947 30.4917 434.866 31.6081C431.785 32.7543 426.48 38.346 426.48 38.346L427.588 43.908L430.134 46.9857L434.351 49.8009L437.704 48.1507C437.704 48.1507 442.164 45.0541 443.272 45.3454C444.399 45.6168 453.903 44.2092 453.903 44.2092L461.162 42.7916H469.266L472.871 44.2092L473.727 49.8009L471.764 52.0635L468.683 51.4809C468.683 51.4809 467.313 50.3546 466.487 50.121C465.622 49.8009 463.65 49.5196 463.65 49.5196L458.373 52.5973L454.496 54.0149L450.308 52.5973L445.808 52.0635L441.318 54.0149L438.773 57.1015L439.093 74.9643L442.747 108.534L445.526 111.32L449.442 109.893L452.513 108.252L452.796 95.6613L472.055 95.9525L473.173 105.7L473.727 111.883L475.408 117.475C475.408 117.475 477.944 117.193 478.741 117.193C479.616 117.193 482.987 116.048 482.987 116.048L484.377 111.601L485.495 106.039L486.049 95.9525L503.929 95.37L508.156 92.2923L508.438 97.894C508.438 97.894 507.602 103.457 507.903 104.883C508.156 106.262 507.029 111.32 507.029 111.32C507.029 111.32 509.012 114.912 509.856 114.912C510.682 114.912 517.135 112.738 517.135 112.738L519.399 106.262L521.285 96.7587L524.666 60.4605L520.137 55.674L513.753 55.3827H502.277L496.67 52.3637H492.22L485.786 51.4809L485.495 48.4032L488.264 43.3741L496.126 43.6366ZM451.979 71.5854L451.687 68.2075L451.979 66.3147L452.221 64.081L457.013 63.1983L460.035 65.1785L463.116 69.3815L460.035 69.9064L456.158 70.2165L453.067 71.8767L451.979 71.5854ZM472.6 85.8665C472.6 85.8665 468.683 86.7204 467.848 86.953C467.041 87.2443 459.792 87.5067 459.792 87.5067L454.205 87.8467L453.067 85.8665V81.9438L453.34 79.9924L460.589 80.4974H472.6V85.8665ZM497.273 66.5474L500.032 63.1983L503.929 63.4796L508.7 64.3335L509.254 67.9739L509.012 71.5854L505.902 71.8767L498.623 71.3041L495.562 69.9064L497.273 66.5474ZM494.473 81.0899L500.917 81.3911L505.649 80.8086L509.254 79.0997L509.556 83.0214L508.7 88.0793L504.793 86.1478L486.894 85.5454L486.369 80.8086L488.847 80.226L494.473 81.0899ZM486.369 61.8195L486.049 64.8972L483.784 68.5375L481.588 70.7603L478.741 71.0227L475.126 70.479L473.416 66.0324L472.6 61.5481L475.66 61.2658L479.033 61.0142H484.066L486.369 61.8195Z" fill="#E60012"/>
<path d="M692.926 104.826C677.378 95.4863 664.269 76.4882 664.269 76.4882L663.724 72.7604L666.271 72.5079L671.373 71.6242L675.93 67.9739C675.93 67.9739 679.02 31.7542 678.495 30.8804C677.922 30.0454 676.785 28.3365 674.501 27.5114C672.208 26.6476 668.603 28.8803 668.603 28.8803L653.249 28.6377C653.249 28.6377 646.7 27.7351 645.319 27.2301C643.891 26.6476 640.189 26.3563 640.189 26.3563L634.222 32.6081L633.425 39.6761L624.621 32.6081L622.328 29.434L620.656 25.5213L618.062 23.2398L612.445 23.8134L607.887 28.6377L603.359 38.521L598.821 43.3741L589.201 50.1608L582.087 53.2574L581.805 55.839L583.506 60.6256L587.529 62.907L593.447 62.3344L597.402 60.3532L607.887 60.9745V64.3335L598.821 65.4409L595.109 68.2651L594.517 71.1003V74.2167L597.985 75.6433L607.616 75.3431V84.099C607.616 84.099 604.768 84.4489 603.913 84.4489C603.106 84.4489 600.794 83.5652 600.794 83.5652L598.218 82.6725L594.517 86.1478L592.582 89.5068L594.807 93.1959L598.218 96.0301L602.504 92.8947L606.187 89.5068L608.461 87.5067V97.1275L606.187 98.5928H602.223L596.518 98.2926L593.447 98.5928L590.318 101.952L589.201 105.068L590.561 109.66L593.729 112.465L597.985 112.165L601.921 109.893L607.616 107.631L629.402 107.058L630.821 109.049L631.948 113.058L634.222 115.31H637.361L653.842 105.36L658.642 101.098L659.478 98.8453L656.922 95.7388L653.512 95.4863L650.664 97.7389L646.437 97.4089L646.175 92.6223L649.537 91.7783L652.948 89.7882L656.369 87.8079H658.642L661.179 95.1374L664.269 99.9716L667.135 105.068L670.547 109.32L673.365 113.058L677.621 114.728H682.139L686.395 113.873L690.662 110.175L693.227 108.185L692.926 104.826ZM631.725 97.7389L619.227 97.1275L620.355 90.6033L626.847 92.0209L630.821 90.9334L632.23 86.953L631.948 83.264C631.948 83.264 628.003 82.4488 627.138 82.4488C626.292 82.4488 621.211 81.8474 621.211 81.8474V78.1484L622.328 75.6433L626.584 75.3431L630.297 74.508L632.23 71.1003L630.539 66.8486L622.328 66.275L622.881 60.6256L627.701 60.0818L630.297 58.9754L631.123 56.1015L629.12 52.4611C629.12 52.4611 625.467 51.8686 624.621 51.8686C623.756 51.8686 618.946 51.5585 618.946 51.5585L612.669 51.3159L608.189 50.452L610.977 47.6169L615.234 43.6366L619.227 42.2389H622.328L625.467 45.3454L629.402 48.7531L631.948 48.1507L634.543 47.0542L635.369 97.7389H631.725ZM647.254 37.3947L664.269 37.1133L665.425 39.9376L664.833 43.908L660.625 44.2092L648.119 43.6366L646.437 40.5201L647.254 37.3947ZM654.065 73.9354L647.856 82.4488L645.553 82.6725L645.319 72.5079L646.7 71.6242H654.425L654.065 73.9354ZM660.916 61.732L649.77 60.9745L647.254 59.4893L647.545 54.9662H663.18L664.269 59.7716L660.916 61.732Z" fill="#E60012"/>
<path d="M742.33 35.5596V39.8113L747.451 43.229H757.645L767.858 41.7925L777.789 38.3848L780.346 34.1331L780.093 27.9101L775.807 22.8233L772.357 22.532L769.869 25.9388L765.856 29.0553L749.405 34.4532L742.33 35.5596Z" fill="#E60012"/>
<path d="M797.642 25.3374L793.698 29.599L794.756 34.9969L799.625 37.8211L808.157 38.3848L822.033 39.2685L830.575 38.6761L835.114 35.5596V30.2004L829.992 27.3464L814.405 25.9388L797.642 25.3374Z" fill="#E60012"/>
<path d="M742.038 52.8687L738.346 55.9653L738.909 61.9069L742.621 65.8674L747.451 65.5672C747.451 65.5672 750.842 64.1595 751.678 63.8484C752.533 63.6247 757.082 62.1982 757.082 62.1982L763.573 62.4507L765.04 67.8188V79.4298L763.33 87.6717L759.326 93.6124L754.525 96.1374H743.797L740.076 98.9616L739.211 102.962C739.211 102.962 740.076 106.621 740.912 106.621C741.766 106.621 749.405 107.185 749.405 107.185L757.382 106.36L763.33 104.369L769.025 100.68L774.67 94.7298L777.789 85.3804L778.635 72.3329L779.752 62.1982L781.763 60.1981L780.928 52.8687L775.807 50.8686L768.403 51.4322L763.33 52.5585L755.089 51.976L742.038 52.8687Z" fill="#E60012"/>
<path d="M793.979 49.1508C793.979 49.1508 789.985 50.8686 789.674 51.7334C789.392 52.5585 788.566 57.3729 788.566 57.3729L790.276 61.3443L793.094 62.4507L797.642 62.1982L801.345 62.4507L803.327 78.2746C803.327 78.2746 803.608 86.5355 803.9 88.2543C804.212 89.9532 804.736 98.9616 804.736 98.9616L805.601 107.495L806.165 113.738L809.284 115.999L813.229 115.728L817.204 113.417L818.632 110L819.205 96.1374L817.806 79.7499L816.922 64.1595H821.46L826.028 66.4211L831.421 68.6737L837.057 68.9739L843.354 66.4211L845.569 62.1982L848.717 56.5577L849 51.4322L793.979 49.1508Z" fill="#E60012"/>
<path d="M127.169 0C125.843 0 124.735 1.08654 124.691 2.42657L124.755 85.6816C124.755 85.953 124.609 86.2253 124.356 86.283V86.3317L100.436 100.098C100.155 100.263 99.8143 100.34 99.4352 100.34C98.1088 100.34 97.0251 99.3016 96.9813 97.9616V94.1562L97.0251 94.1085L95.233 45.5392C95.233 45.1704 94.9454 44.8792 94.5285 44.8792C94.1444 44.8792 93.824 45.1704 93.824 45.588L91.2925 97.3114L89.5431 48.8496C89.5043 48.4519 89.2028 48.1507 88.8386 48.1507C88.4157 48.1507 88.1192 48.4808 88.1192 48.9082L85.5638 100.632H85.5101L83.8045 52.1987C83.7657 51.7722 83.4791 51.4809 83.0512 51.4809C82.6771 51.4809 82.3418 51.8298 82.3418 52.2185L79.7914 103.903V103.962L78.0759 55.5189C78.0759 55.1014 77.7365 54.8201 77.3574 54.8201C76.9922 54.8201 76.6479 55.1014 76.6479 55.5189L74.1065 106.651L72.4059 58.8004H72.3522C72.3522 58.4117 72.0755 58.0916 71.7014 58.0916C71.2695 58.0916 70.9869 58.3729 70.9581 58.7517L68.4117 110.534V177.392C68.4117 178.771 67.2902 179.849 65.915 179.849C65.3806 179.849 64.9189 179.674 64.5398 179.421C42.2182 164.403 27.491 138.92 27.491 110C27.491 69.1777 56.7652 35.2097 95.5285 27.8226C96.3594 27.4637 96.9376 26.6476 96.9813 25.6863V2.62042C96.9813 1.29033 95.8499 0.183907 94.4847 0.183907H94.1056C40.7992 8.39708 0 54.4224 0 110C0 165.655 40.8918 211.68 94.2847 219.855H94.4847C95.8499 219.855 96.9813 218.757 96.9813 217.379V135.667V135.61C96.9813 135.366 97.1376 135.134 97.3605 134.988L121.232 121.222C121.572 121.067 121.897 120.99 122.271 120.99C123.641 120.99 124.735 122.086 124.755 123.396V123.561V125.649L124.735 125.659L126.46 174.227C126.46 174.606 126.79 174.926 127.169 174.926C127.553 174.926 127.879 174.606 127.879 174.227L130.464 122.484L132.178 170.975C132.222 171.334 132.519 171.636 132.883 171.636C133.282 171.636 133.573 171.296 133.573 170.898L136.163 119.183L136.211 119.165L137.946 167.597C137.946 168.024 138.291 168.315 138.646 168.315C139.019 168.315 139.355 168.024 139.355 167.597L141.94 115.873L143.651 164.325C143.651 164.714 143.981 165.034 144.355 165.034C144.734 165.034 145.06 164.714 145.06 164.325L147.63 113.194L149.344 161.005V161.025C149.344 161.403 149.627 161.743 150.04 161.743C150.423 161.743 150.763 161.403 150.763 161.025L153.3 109.271V42.0251C153.377 40.6662 154.446 39.6274 155.778 39.6274C156.293 39.6274 156.735 39.7725 157.109 40.0151C179.897 54.9662 195.008 80.74 195.008 110C195.008 150.89 165.597 184.926 126.766 192.245C125.6 192.4 124.735 193.381 124.691 194.614V194.72C124.691 194.72 124.735 194.779 124.735 194.828H124.691V217.573C124.735 218.912 125.79 220 127.169 220H127.305C181.116 212.176 222.494 165.936 222.494 110C222.494 54.0626 181.077 7.72706 127.169 0Z" fill="#E60012"/>
</g>
<defs>
<clipPath id="clip0_107_2758">
<rect width="849" height="220" fill="white"/>
</clipPath>
</defs>
</svg>
