<?xml version="1.0" encoding="utf-8"?>
<!-- Generator: Adobe Illustrator 28.0.0, SVG Export Plug-In . SVG Version: 6.00 Build 0)  -->
<svg version="1.1" id="圖層_1" xmlns="http://www.w3.org/2000/svg" xmlns:xlink="http://www.w3.org/1999/xlink" x="0px" y="0px"
	 viewBox="0 0 552 199.3" style="enable-background:new 0 0 552 199.3;" xml:space="preserve">
<style type="text/css">
	.st0{fill:#00573D;}
	.st1{fill:#B3863B;}
	.st2{fill:#C89E4E;}
	.st3{fill:#DDC39C;}
	.st4{fill:#804C2E;}
	.st5{fill:url(#SVGID_1_);}
	.st6{fill:url(#SVGID_00000088091292818515891890000016094189443533698452_);}
	.st7{fill:url(#SVGID_00000078751373037626154280000017862885598376123040_);}
	.st8{fill:url(#SVGID_00000072973506696655928790000001244456483116928652_);}
	.st9{fill:none;}
	.st10{fill:url(#SVGID_00000182517365318348087040000012461752787791057838_);}
	.st11{fill:url(#SVGID_00000140711385461881622350000001116207812109359761_);}
</style>
<g>
	<g>
		<path class="st0" d="M217.1,143.4v5.2h-15.6v15.2H216v5.2h-14.5v19.6h-8.8v-45.3h24.4V143.4z"/>
		<path class="st0" d="M225.9,137.7l5.4,5.4l-5.4,5.4l-5.4-5.4L225.9,137.7z M230,154.8v33.9h-8.1v-33.9L230,154.8L230,154.8z"/>
		<path class="st0" d="M246,154.8l0.2,8.4c1.8-5.7,5.3-9,8.5-9c0.8,0,1.7,0.1,3.1,0.5l-1.3,7.1c-1-0.3-2-0.4-2.7-0.4
			c-2.3,0-4.8,1.7-5.9,4.8c-1.2,2.9-1.2,8.1-1.2,10.4v12.2h-8.1v-33.9L246,154.8L246,154.8z"/>
		<path class="st0" d="M276.9,160.1c-2-0.9-3.9-1.4-6-1.4c-3.1,0-4.7,1.6-4.7,3.5c0,1.4,1.2,3,3.9,4.8l3,2c3.6,2.3,7.2,5.2,7.2,10.2
			c0,5.8-4.8,10.4-12,10.4c-4.1,0-7.4-1.3-9.5-2.5l2-4.1c1.7,0.9,4.3,2.2,7.4,2.2c2.6,0,4.9-1.4,4.9-4.2c0-3-3.2-4.6-5.6-6.2
			l-2.7-1.9c-3.8-2.6-5.9-5.3-5.9-9c0-5,4.7-9.4,11.7-9.4c1.3,0,4.3,0.1,8,1.7L276.9,160.1z"/>
		<path class="st0" d="M293.5,145.8v9h6.4v4.4h-6.1v20.1c0,2.9,0,5.1,3,5.1c1.1,0,2-0.3,2.6-0.5l1.2,4.4c-2.2,0.7-4.6,1-7,1
			c-3.2,0-5.7-1.1-6.9-3.4c-1-1.8-0.9-4-0.9-5.9v-20.6H281V155h5.1l0.2-9L293.5,145.8L293.5,145.8z"/>
		<path class="st0" d="M335.2,143.4c4.1,0,7.7,0.3,10.8,2c3,1.6,4.8,4.6,4.8,8.3c0,4.8-3,9.3-9.5,11.1c1.7,0.3,4.1,0.6,6.6,2.2
			c2.8,1.9,4.5,4.8,4.5,8.7c0,4.3-2.2,8.6-6.6,10.7c-2.8,1.6-5.9,2.2-13.1,2.2h-11.2v-45.3h13.7V143.4z M333,162.8
			c1.8,0,4.4,0,6.2-1c2.2-1.3,3.1-3.9,3.1-6.9c0-1.9-0.4-4.2-2.2-5.6c-1.5-1.2-3.5-1.2-6.5-1.2h-3.4v14.6L333,162.8L333,162.8z
			 M333.6,183.7c1.9,0,4.8,0,6.7-1.3c2.3-1.5,3-4.5,3-7.3c0-2.4-0.6-5-2.8-6.5c-1.8-1.3-4.1-1.3-7.6-1.3H330v16.3h3.6V183.7z"/>
		<path class="st0" d="M374.9,188.8l-0.5-5.6c-2.3,4.3-5.9,6.4-10,6.4c-6,0-9.2-4.6-9.2-9.1c0-7.4,7.4-10.2,18.7-14.1v-0.9
			c0-4.4-2.5-6.2-6.6-6.2c-3.5,0-6.4,1.4-8.3,2.5l-1.9-4.2c3-1.5,7.1-3.2,12-3.2c3.1,0,9.2,0.8,11.7,5.3c0.9,1.6,1.1,3.1,1.1,6.8
			v10.1c0,4.1,0.2,8.3,1,12.5H375v-0.3H374.9z M362.9,179.4c0,3.4,2.4,5,4.6,5c2.3,0,4.1-1.5,5-3.8c1.1-2.4,1.3-5.1,1.3-8.7v-1.8
			C366.1,173.2,362.9,175.1,362.9,179.4L362.9,179.4z"/>
		<path class="st0" d="M397.3,154.8l0.3,5.9c2.4-4.9,6.4-6.5,10-6.5c4.6,0,7.4,2.5,8.8,5.1c1,2,1.1,4.8,1.1,8.2v21.3h-8.1v-20.7
			c0-2.2,0.4-8.4-4.8-8.4c-6.5,0-6.4,9.6-6.4,12.8v16.3h-8.1V155h7.2V154.8z"/>
		<path class="st0" d="M433.9,138.9v31.2l12.8-15.3h6.5l-12.3,13.8l13.4,20.1h-9.6l-10.8-16.9v16.9h-8.1v-49.8H433.9z"/>
	</g>
	<g>
		<g>
			<path class="st0" d="M480.3,45.9l-11.1-3.1c0,0-3,10.3-16.4,23.2l3.9,3C456.6,69.1,471.8,59.7,480.3,45.9z M470.9,60.5
				c0,0-5.7,14.3-19.2,27.2l3.9,3c0,0,3.4-2.5,8-6.6v33h9.5V74.9c3.3-3.5,6.5-7.4,8.9-11.3L470.9,60.5z M485,48.4v5.4h41.2v-5.4H485
				z M481.2,73.6h28.7v38h-11.6v5.5h15.6c3.7,0,5.5-0.6,5.5-8.2V73.6h6.7v-5.5h-44.9L481.2,73.6L481.2,73.6z"/>
			<path class="st0" d="M386.5,82.6h8.9v-5.5h-8.9v-6.9h6.3v-5.5h-20.4c2.9-2.9,6.4-6.7,9.2-11c5.9,8,13.4,12.1,13.4,12.1l2.3-3.7
				c-8.9-9.5-9.9-18.1-9.9-18.1H376c0,0-2.2,11.7-12.8,23l2.6,3.6c0,0,2-1.5,4.7-4.1v3.8h6.3v6.9h-11v5.5h11v16.8
				c-1.7-2.7-6.2-10.5-8.2-12.6l-3.9,2.1c0,0,3.9,9.9,4.7,16.2l7.3-4.5v6.5l-13.2,2.9l2.5,8.2l28.6-9.8l0.4-5.3l-8.9,2V82.6H386.5z
				 M386.6,99.5l4.4,1.3c1.9-2.9,6.9-12.1,6.9-12.1l-7.4-2.6C389.3,94.7,386.6,99.5,386.6,99.5z M426.1,95.6
				c9.2-3,12.2-5.6,12.2-5.6l-4.8-6.7c-2.4,3.1-6,5.7-8.7,7.4c-0.5-3-0.9-6.4-0.8-10h5.2c3.7,0,5.5-0.6,5.5-8.2V46.6h-35.9v62.3
				c0,7.6,1.8,9,5.4,8.2c0.8-0.2,1.4-0.3,2-0.4l14.1-3v-5.5l-11.8,2.6v-30h6.7c0,5.3,1.2,27.4,20.8,36.5l2.8-3.3
				C438.7,113.8,430.2,108.2,426.1,95.6z M408.4,52h16.8v9h-16.8V52z M408.4,75.2v-8.8h16.8v8.8H408.4z"/>
		</g>
		<g>
			<path class="st0" d="M233.6,89.9v-7.3h20.6c3.7,0,5.5-0.6,5.5-8.2v-10h-62.1v5.5h26.5v7.3H193V86c0,7.6,1.8,9.3,5.5,9.3h17.1
				c-1.3,2.8-7.1,10.3-24.3,18.2l2.2,4.2c0,0,18.3-4.3,30.6-18.2v18.6h9.5V95.3h20.3V108h-12.2v5.5H258c3.7,0,5.5-0.6,5.5-8.2V90
				L233.6,89.9L233.6,89.9z M233.6,69.9h16.6v7.3h-16.6V69.9L233.6,69.9z M224.1,89.9h-21.6v-7.3h21.6V89.9z M204.4,54.6h3.9
				c1,1.3,3.7,3.9,5.2,8.2l7.7-2.5c0,0-2.2-2.7-5.6-5.6h12.2v-5.5h-18.6c1.1-1.3,2.2-2.8,3.2-4.3L202,41.7c0,0-1.9,9.3-11.5,19.2
				l3.9,2.5C194.3,63.4,198.2,61.4,204.4,54.6z M230.8,63.4c0,0,3.9-2,10.1-8.8h3.9c1,1.3,3.8,3.9,5.2,8.2l7.7-2.5
				c-2.5-3-2.5-3-5.6-5.6h11.7v-5.5h-18.1c1.1-1.3,2.2-2.8,3.2-4.3l-10.4-3.1c0,0-1.9,9.3-11.5,19.2L230.8,63.4z"/>
			<path class="st0" d="M348.5,77v7.3h-72.4v-7.4L348.5,77L348.5,77z"/>
		</g>
	</g>
	<g>
		<g>
			
				<rect x="72.5" y="64.5" transform="matrix(0.707 -0.7072 0.7072 0.707 -31.1368 86.4325)" class="st1" width="32.5" height="32.5"/>
			<polygon class="st2" points="88.9,57.8 111.9,80.8 109.6,80.8 109.6,80.8 88.9,60.1 			"/>
			<polygon class="st3" points="88.9,60.1 68.1,80.8 68.1,80.8 65.8,80.8 88.9,57.8 			"/>
			<polygon class="st2" points="88.9,103.9 65.8,80.8 68.1,80.8 68.1,80.8 88.9,101.5 			"/>
			<polygon class="st4" points="88.9,101.5 109.6,80.8 109.6,80.8 111.9,80.8 88.9,103.9 			"/>
		</g>
		
			<linearGradient id="SVGID_1_" gradientUnits="userSpaceOnUse" x1="31.4999" y1="721.1996" x2="129.8867" y2="620.525" gradientTransform="matrix(1 0 0 1 0 -598)">
			<stop  offset="0" style="stop-color:#B3863B"/>
			<stop  offset="0.1212" style="stop-color:#B4883E"/>
			<stop  offset="0.2186" style="stop-color:#B98E48"/>
			<stop  offset="0.3076" style="stop-color:#C09959"/>
			<stop  offset="0.3918" style="stop-color:#CAA871"/>
			<stop  offset="0.4717" style="stop-color:#D7BB8F"/>
			<stop  offset="0.5" style="stop-color:#DDC39C"/>
			<stop  offset="0.5283" style="stop-color:#D7BB8F"/>
			<stop  offset="0.6082" style="stop-color:#CAA871"/>
			<stop  offset="0.6924" style="stop-color:#C09959"/>
			<stop  offset="0.7814" style="stop-color:#B98E48"/>
			<stop  offset="0.8788" style="stop-color:#B4883E"/>
			<stop  offset="1" style="stop-color:#B3863B"/>
		</linearGradient>
		<path class="st5" d="M30.6,79.6c0-35.1,28.9-63.7,64.5-63.7c16,0,30.7,5.7,41.9,15.2l0.5-0.5c-12.7-12.3-30.3-19.9-49.6-19.9
			c-39.2,0-71,31.4-71,70.1c0,32,26.2,56.8,58.5,56.8c17.5,0,33.2-6.6,43.8-18.6l-0.4-0.4c-9.4,8-21.7,12.4-35.2,12.4
			C54.4,131.2,30.6,108.6,30.6,79.6z"/>
		
			<linearGradient id="SVGID_00000041986731965093684690000006731091469150464186_" gradientUnits="userSpaceOnUse" x1="145.0217" y1="636.7605" x2="48.9202" y2="737.1842" gradientTransform="matrix(1 0 0 1 0 -598)">
			<stop  offset="0" style="stop-color:#00573D"/>
			<stop  offset="0.1173" style="stop-color:#03593F"/>
			<stop  offset="0.2115" style="stop-color:#0D6046"/>
			<stop  offset="0.2977" style="stop-color:#1E6C53"/>
			<stop  offset="0.3791" style="stop-color:#367C64"/>
			<stop  offset="0.4565" style="stop-color:#549279"/>
			<stop  offset="0.5" style="stop-color:#69A088"/>
			<stop  offset="0.5435" style="stop-color:#549279"/>
			<stop  offset="0.6209" style="stop-color:#367C64"/>
			<stop  offset="0.7023" style="stop-color:#1E6C53"/>
			<stop  offset="0.7885" style="stop-color:#0D6046"/>
			<stop  offset="0.8827" style="stop-color:#03593F"/>
			<stop  offset="1" style="stop-color:#00573D"/>
		</linearGradient>
		<path style="fill:url(#SVGID_00000041986731965093684690000006731091469150464186_);" d="M147.1,82.1c0,35.1-28.9,63.7-64.5,63.7
			c-16,0-30.7-5.7-41.9-15.2l-0.5,0.5C53,143.5,70.5,151,89.8,151c39.3,0,71-31.4,71-70.1c0-32-26.2-56.8-58.5-56.8
			c-17.5,0-33.2,6.6-43.8,18.6l0.4,0.4c9.3-8.2,21.7-12.6,35.1-12.6C123.3,30.4,147.1,53,147.1,82.1z"/>
		
			<linearGradient id="SVGID_00000033356940780173569370000006007555922322407808_" gradientUnits="userSpaceOnUse" x1="90.2162" y1="619.1774" x2="71.7758" y2="707.3843" gradientTransform="matrix(1 0 0 1 0 -598)">
			<stop  offset="5.494510e-03" style="stop-color:#804C2E"/>
			<stop  offset="0.3" style="stop-color:#B3863B"/>
			<stop  offset="1" style="stop-color:#804C2E"/>
		</linearGradient>
		<path style="fill:url(#SVGID_00000033356940780173569370000006007555922322407808_);" d="M88.1,128.9c-26.4,0-48.9-21.4-48.9-47.9
			c0-38.6,28.2-60.8,61.7-60.8c13.3,0,25.6,4.2,35.5,11.5l0.4-0.4c-11.3-9.5-25.9-15.2-41.9-15.2c-35.6,0-64.5,28.5-64.5,63.7
			c0,29,23.8,51.6,53.1,51.6c13.5,0,25.8-4.4,35.2-12.4l-0.6-0.6C110.1,124.8,99.6,128.9,88.1,128.9z"/>
		
			<linearGradient id="SVGID_00000147178304653949887470000017697852670186238355_" gradientUnits="userSpaceOnUse" x1="89.2259" y1="620.7007" x2="72.629" y2="708.9092" gradientTransform="matrix(1 0 0 1 0 -598)">
			<stop  offset="0" style="stop-color:#C89E4E"/>
			<stop  offset="0.3" style="stop-color:#F4E8D0"/>
			<stop  offset="1" style="stop-color:#C89E4E"/>
		</linearGradient>
		<path style="fill:url(#SVGID_00000147178304653949887470000017697852670186238355_);" d="M95.1,15.9c-35.8,0-64.7,28.5-64.7,63.7
			c0,29,23.9,51.6,53.3,51.6c13.5,0,25.9-4.4,35.3-12.4l-0.2-0.2c-9.3,7.7-21.4,11.8-34.7,11.8C54.8,130.4,31,108,31,79.3
			c0.1-34.8,29-62.9,64.5-62.9c15.8,0,30.1,5.6,41.3,14.7l0.1-0.1C125.8,21.6,111.1,15.9,95.1,15.9z"/>
		<path class="st9" d="M102.2,23.9c-17.5,0-33.2,6.6-43.8,18.6l0.9,0.9c8.2-6.6,18.7-10.7,30.1-10.7c26.4,0,48.9,21.4,48.9,47.9
			c0,38.6-28.2,60.9-61.7,60.9c-13.3,0-25.6-4.3-35.5-11.5l-1,1c12.8,12.4,30.3,19.9,49.6,19.9c39.3,0,71-31.4,71-70.1
			C160.8,48.8,134.6,23.9,102.2,23.9z"/>
		
			<linearGradient id="SVGID_00000156569659179487091080000003695325176432289687_" gradientUnits="userSpaceOnUse" x1="105.8861" y1="650.4901" x2="86.8298" y2="738.3942" gradientTransform="matrix(1 0 0 1 0 -598)">
			<stop  offset="5.494510e-03" style="stop-color:#004730"/>
			<stop  offset="0.7" style="stop-color:#00573D"/>
			<stop  offset="1" style="stop-color:#004730"/>
		</linearGradient>
		<path style="fill:url(#SVGID_00000156569659179487091080000003695325176432289687_);" d="M89.5,32.8c26.4,0,48.9,21.4,48.9,47.9
			c0,38.6-28.2,60.9-61.7,60.9c-13.3,0-25.6-4.3-35.5-11.5l-0.4,0.4c11.3,9.5,25.9,15.2,41.9,15.2c35.6,0,64.5-28.5,64.5-63.7
			c0-29-23.8-51.6-53.2-51.6c-13.5,0-25.8,4.4-35.2,12.4l0.6,0.6C67.5,36.8,78,32.8,89.5,32.8z"/>
		
			<linearGradient id="SVGID_00000133493997699282664850000016065159352283627178_" gradientUnits="userSpaceOnUse" x1="87.6713" y1="738.153" x2="105.4972" y2="650.2524" gradientTransform="matrix(1 0 0 1 0 -598)">
			<stop  offset="0" style="stop-color:#007559"/>
			<stop  offset="0.3" style="stop-color:#EAF5F5"/>
			<stop  offset="1" style="stop-color:#007559"/>
		</linearGradient>
		<path style="fill:url(#SVGID_00000133493997699282664850000016065159352283627178_);" d="M82.5,145.7c35.8,0,64.7-28.5,64.7-63.7
			c0-29-23.9-51.6-53.3-51.6c-13.5,0-25.9,4.4-35.4,12.4l0.2,0.2c9.3-7.8,21.4-12,34.6-12c29.3,0,53.1,22.4,53.1,51.1
			c0,34.8-28.8,63-64.4,63c-15.8,0-30.1-5.6-41.3-14.7l-0.1,0.1C51.9,140,66.5,145.7,82.5,145.7z"/>
	</g>
</g>
</svg>
