<?xml version="1.0" encoding="utf-8"?>
<!-- Generator: Adobe Illustrator 28.1.0, SVG Export Plug-In . SVG Version: 6.00 Build 0)  -->
<svg version="1.1" id="圖層_1" xmlns="http://www.w3.org/2000/svg" xmlns:xlink="http://www.w3.org/1999/xlink" x="0px" y="0px"
	 viewBox="0 0 287 229" style="enable-background:new 0 0 287 229;" xml:space="preserve">
<style type="text/css">
	.st0{fill-rule:evenodd;clip-rule:evenodd;fill:#FF5F00;}
	.st1{fill-rule:evenodd;clip-rule:evenodd;fill:#EB001B;}
	.st2{fill-rule:evenodd;clip-rule:evenodd;fill:#F79E1B;}
</style>
<g id="Components---Sprint-3">
	<g id="assets-_x2F_-logo-_x2F_-mastercard-_x2F_-symbol">
		<polygon id="Fill-1" class="st0" points="104.7,159.2 182.3,159.2 182.3,19.1 104.7,19.1 		"/>
		<path id="Fill-2" class="st1" d="M109.6,89.1c0-28.4,13.2-53.7,33.9-70.1C128.4,7.1,109.4,0,88.7,0C39.7,0,0,39.9,0,89.1
			s39.7,89.1,88.7,89.1c20.7,0,39.7-7.1,54.8-19.1C122.9,142.8,109.6,117.5,109.6,89.1"/>
		<path id="Fill-4" class="st2" d="M284.3,144.3v-3.5h-0.9l-1,2.4l-1-2.4h-0.9v3.5h0.6v-2.6l1,2.2h0.7l1-2.3v2.6h0.5V144.3z
			 M278.6,144.3v-2.9h1.2v-0.6h-2.9v0.6h1.2v2.9H278.6z M287,89.1c0,49.2-39.7,89.1-88.7,89.1c-20.7,0-39.7-7.1-54.8-19.1
			c20.6-16.3,33.9-41.6,33.9-70.1c0-28.4-13.2-53.7-33.9-70.1C158.6,7.1,177.6,0,198.3,0C247.3,0,287,39.9,287,89.1L287,89.1z"/>
	</g>
</g>
<g>
	<g>
		<path d="M258.9,222.5c-4.7-1.2-8-3.8-9.4-8.6c-2.4-8.6,3.8-16.4,12.5-15.5c2.1,0.2,4,1.5,6.1,2.3c0-3.4,0-7.1,0-11
			c1.8,0,3.4,0,5.1,0c0,10.8,0,21.5,0,32.4c-1.7,0-3.2,0-4.9,0c-0.1-0.8-0.1-1.5-0.2-2.1c-1.7,0.9-3.4,1.7-5.1,2.6
			C261.7,222.5,260.3,222.5,258.9,222.5z M268.7,210.4c0-4.4-2.9-7.6-7-7.6c-4.1-0.1-7.1,3.1-7.2,7.4c0,4.4,3,7.6,7.2,7.6
			C265.6,217.8,268.6,214.6,268.7,210.4z"/>
		<path d="M211.3,222.5c-0.2-0.1-0.4-0.3-0.6-0.3c-8.5-2.1-11.1-12.1-7-18.7c2.8-4.6,10.9-7.8,17.1-2.2c0-0.9,0.1-1.6,0.1-2.4
			c1.7,0,3.3,0,5,0c0,7.7,0,15.3,0,23.1c-1.6,0-3.2,0-4.9,0c-0.1-0.8-0.1-1.5-0.2-2c-1.7,0.9-3.4,1.8-5.1,2.6
			C214.2,222.5,212.7,222.5,211.3,222.5z M221.3,210.2c0-4.4-3-7.5-7.1-7.5s-7,3.2-7,7.6c0,4.4,3.1,7.5,7.3,7.5
			C218.4,217.7,221.4,214.5,221.3,210.2z"/>
		<path d="M67.9,222.5c-1.6-0.7-3.4-1.2-4.8-2.2c-4.5-3-6.1-9.2-4.1-14.6c1.9-5,6.5-8,12-7.4c2.1,0.2,4.1,1.5,6.2,2.2
			c0-0.3,0.1-1,0.2-1.8c1.6,0,3.2,0,4.9,0c0,7.7,0,15.4,0,23.2c-1.7,0-3.2,0-4.9,0c-0.1-0.8-0.2-1.5-0.2-2c-1.7,0.9-3.5,1.7-5.2,2.5
			C70.6,222.5,69.2,222.5,67.9,222.5z M77.5,210.4c0-4.3-2.9-7.6-7-7.6c-4.1-0.1-7.1,3-7.2,7.4c-0.1,4.4,2.9,7.6,7.2,7.6
			C74.4,217.8,77.5,214.6,77.5,210.4z"/>
		<path d="M144,222.5c-0.2-0.1-0.3-0.2-0.5-0.2c-10-1.8-11.2-12.4-8.2-18.2c2.3-4.4,7.2-6.6,12.5-5.7c4.5,0.8,7.8,4.4,8.4,9.4
			c0.2,1.5,0.2,3,0.3,4.7c-5.9,0-11.5,0-17.1,0c0,5.4,5.6,6.8,13.7,3.4c0.7,1.1,1.5,2.2,2.3,3.4c-2.1,2-4.8,2.5-7.3,3.3
			C146.7,222.5,145.4,222.5,144,222.5z M139.5,208c4,0,7.9,0,11.8,0c-0.3-3.4-2.3-5.4-5.6-5.4C142.3,202.5,139.9,204.5,139.5,208z"
			/>
		<path d="M94.5,222.5c-2.5-0.8-4.9-1.7-7.7-2.6c1-1.7,1.8-2.9,2.2-3.6c3.2,0.6,6,1.4,8.9,1.7c1.2,0.1,2.7-0.4,3.8-1.1
			c1.5-0.9,1.3-2.6-0.3-3.3c-1.3-0.5-2.7-0.7-4.1-1c-1.5-0.3-3-0.5-4.5-0.9c-2.6-0.9-4.5-2.5-4.7-5.4c-0.2-3,1.2-5.5,4-6.8
			c3.1-1.6,6.5-1.4,9.8-0.9c1.9,0.3,3.7,1.1,5.7,1.8c-0.9,1.7-1.5,2.9-2.2,4.2c-2.1-0.6-4-1.3-5.9-1.5c-1.3-0.2-2.9-0.1-4.2,0.3
			c-0.7,0.2-1.7,1.3-1.7,2.1c0,0.6,1.1,1.6,1.8,1.8c2,0.5,4.1,0.6,6.2,1.1c4.5,1,6.6,3.7,6.3,7.5c-0.3,2.9-2.5,5.1-6.1,6.1
			c-0.7,0.2-1.4,0.4-2.1,0.6C97.9,222.5,96.2,222.5,94.5,222.5z"/>
		<path d="M122.2,222.5c-4.8-1.8-5.9-3.5-6-8.6c0-3.4,0-6.8,0-10.5c-1.5-0.1-3-0.1-4.6-0.2c0-1.5,0-2.9,0-4.5c1.4,0,2.9,0,4.5,0
			c0-2.4,0-4.6,0-7c1.8,0,3.3,0,5.1,0c0,2.2,0,4.5,0,6.9c2.8,0,5.4,0,8.2,0c0,1.6,0,3,0,4.7c-2.6,0-5.3,0-8,0c0,4.1-0.1,8.1,0.1,12
			c0.1,1.6,1.7,2.5,3.6,2.3c0.7,0,1.3-0.2,2-0.3c0.6-0.2,1.2-0.4,1.9-0.7c0.2,0.3,0.3,0.5,0.4,0.7c0.4,1.1,0.7,2.2,1.2,3.6
			c-1.5,0.6-2.9,1.1-4.4,1.7C124.9,222.5,123.6,222.5,122.2,222.5z"/>
		<path d="M188.7,222.5c-0.2-0.1-0.3-0.2-0.5-0.3c-7-1.2-10.9-7.6-9.5-14.9c1-4.8,4.9-8.5,9.9-9c3.7-0.4,7.4-0.2,10.5,2.6
			c-0.8,1.3-1.6,2.6-2.4,4c-2.5-1.5-4.9-2.8-7.7-1.8c-1.4,0.5-3,1.4-3.9,2.5c-2.3,2.6-2.1,7.3,0.2,10c2.5,2.9,6.6,3,11.5,0.2
			c0.8,1.3,1.6,2.5,2.6,4.3c-2.1,0.9-4,1.6-6,2.4C191.9,222.5,190.3,222.5,188.7,222.5z"/>
		<path d="M16.1,198.7c1.7,0,3.2,0,4.8,0c0.1,0.7,0.2,1.4,0.3,2.5c2.1-2.3,4.5-3.2,7.5-3s5.3,1.5,7.1,4c2.3-2.9,5.4-4.2,9-4
			c4.7,0.2,8.1,2.8,8.4,7.4c0.4,5.4,0.1,10.8,0.1,16.3c-1.8,0-3.5,0-5.5,0c0-2.8,0-5.6,0-8.3c0-2,0-4-0.2-6c-0.3-3-2-4.5-4.8-4.5
			c-3.1-0.1-5.3,1.5-5.6,4.4s-0.2,5.8-0.2,8.8c0,1.8,0,3.7,0,5.8c-1.5,0-2.9,0.1-4.3-0.1c-0.3,0-0.8-0.9-0.8-1.5
			c-0.1-3.3,0-6.6,0-9.9c0-0.9,0-1.7-0.1-2.6c-0.3-3.3-1.9-5-5-5c-3.4,0-5.4,1.6-5.6,5c-0.2,3.8-0.1,7.6-0.2,11.4c0,0.8,0,1.6,0,2.5
			c-1.7,0-3.3,0-5,0C16.1,214.2,16.1,206.5,16.1,198.7z"/>
		<path d="M238,221.9c-1.8,0-3.3,0-5,0c0-7.8,0-15.4,0-23.2c1.7,0,3.3,0,4.9,0c0.1,0.7,0.1,1.4,0.2,2.6c2.5-3.5,5.8-3.4,9.4-3
			c-0.5,1.6-0.9,3.1-1.4,4.7c-0.7-0.1-1.4-0.2-2-0.3c-3.3-0.5-5.7,1-5.9,4.4c-0.3,4.1-0.2,8.2-0.2,12.3C238,220.2,238,221,238,221.9
			z"/>
		<path d="M167.1,221.9c-1.7,0-3.2,0-4.9,0c0-7.7,0-15.3,0-23.1c1.6,0,3.2,0,4.9,0c0,0.7,0.1,1.4,0.2,2.6c2.5-3.4,5.8-3.4,9.4-2.9
			c-0.5,1.6-0.9,3.1-1.4,4.7c-0.6-0.1-1.1-0.1-1.7-0.2c-3.9-0.7-6.3,1.1-6.4,5c-0.1,4,0,8-0.1,12.1
			C167.2,220.6,167.2,221.2,167.1,221.9z"/>
	</g>
</g>
</svg>
