<svg width="1334" height="212" viewBox="0 0 1334 212" fill="none" xmlns="http://www.w3.org/2000/svg">
<path fill-rule="evenodd" clip-rule="evenodd" d="M265.873 182.455V208.349H254.794V182.455H245.267V174.517H275.394V182.455H265.873ZM288.917 208.349V188.409C288.917 184.004 290.452 180.494 293.539 177.88C296.62 175.265 300.717 173.946 305.822 173.946C310.928 173.946 315.031 175.271 318.135 177.892C321.24 180.524 322.787 184.034 322.787 188.409V208.343H311.796V195.882H301.862V187.956H311.796V187.555C311.796 185.924 311.265 184.628 310.184 183.657C309.098 182.697 307.652 182.208 305.822 182.208C303.898 182.208 302.428 182.703 301.419 183.692C300.416 184.681 299.908 186.107 299.908 187.985V208.343L288.917 208.349ZM338.913 208.343H349.992V174.517H338.913V208.343ZM366.26 174.517H377.003V196.029C377.003 197.543 377.439 198.715 378.295 199.527C379.151 200.328 380.385 200.746 381.973 200.746C383.584 200.746 384.818 200.334 385.668 199.527C386.512 198.715 386.943 197.543 386.943 196.029V174.517H397.615V196.029C397.615 197.543 398.028 198.715 398.872 199.527C399.722 200.328 400.944 200.746 402.549 200.746C404.131 200.746 405.347 200.334 406.191 199.527C407.041 198.715 407.46 197.543 407.46 196.029V174.517H418.286V195.482C418.286 199.592 416.857 202.872 414 205.322C411.144 207.766 407.324 208.991 402.555 208.991C400.715 209.003 398.886 208.7 397.148 208.096C395.392 207.475 393.748 206.576 392.279 205.434C390.726 206.612 389.097 207.507 387.397 208.096C385.659 208.7 383.831 209.003 381.99 208.991C377.245 208.991 373.431 207.766 370.563 205.322C367.694 202.872 366.254 199.592 366.254 195.476L366.26 174.517ZM434.034 208.349V188.409C434.034 184.004 435.569 180.494 438.65 177.88C441.731 175.265 445.828 173.946 450.939 173.946C456.045 173.946 460.147 175.271 463.252 177.892C466.351 180.524 467.903 184.034 467.903 188.409V208.343H456.913V195.882H446.979V187.956H456.913V187.555C456.913 185.924 456.37 184.628 455.295 183.657C454.215 182.697 452.757 182.208 450.939 182.208C449.003 182.208 447.539 182.703 446.536 183.692C445.526 184.681 445.025 186.107 445.025 187.985V208.343L434.034 208.349ZM483.864 208.349V179.717C483.864 177.909 484.472 176.466 485.706 175.395C486.934 174.329 488.569 173.793 490.611 173.793C492.305 173.793 493.757 174.158 494.979 174.912C496.189 175.642 497.547 177.055 499.028 179.14L504.866 187.167C506.088 188.857 507.038 190.27 507.729 191.418C508.425 192.567 508.974 193.633 509.393 194.616C509.165 192.731 508.972 190.843 508.815 188.951C508.702 187.662 508.635 186.37 508.614 185.076V174.517H519.286V204.28C519.303 204.919 519.174 205.553 518.908 206.135C518.642 206.717 518.246 207.23 517.751 207.636C516.724 208.478 515.378 208.92 513.702 208.92C512.28 208.92 511.064 208.626 510.06 208.066C509.057 207.495 507.965 206.4 506.784 204.78L498.131 192.896L497.293 191.689C495.368 189.069 494.046 186.943 493.326 185.329C493.739 187.579 494.035 189.634 494.241 191.483C494.43 193.326 494.536 195.058 494.536 196.683V208.343L483.864 208.349ZM618.38 182.479C618.065 182.462 617.75 182.454 617.435 182.455H615.907C611.078 182.455 607.377 183.221 604.81 184.782C602.242 186.324 600.961 188.55 600.961 191.442C600.961 194.386 602.242 196.624 604.804 198.167C607.377 199.722 611.078 200.493 615.907 200.493C616.591 200.493 617.105 200.493 617.453 200.481C617.807 200.47 618.114 200.47 618.38 200.47V208.343H617.235C613.374 208.343 609.998 208.107 607.112 207.636C604.219 207.165 601.782 206.459 599.798 205.516C596.558 203.92 594.055 201.895 592.29 199.451C590.519 197.007 589.64 194.327 589.64 191.418C589.64 188.509 590.513 185.842 592.278 183.421C594.031 180.995 596.534 178.987 599.798 177.385C601.782 176.425 604.225 175.695 607.112 175.224C610.004 174.759 613.374 174.517 617.235 174.517H618.38V182.479ZM633.426 198.114C634.571 200.216 636.241 202.107 638.425 203.809C640.621 205.499 643.088 206.788 645.833 207.672C648.584 208.555 651.476 208.991 654.51 208.991C657.568 208.991 660.483 208.555 663.252 207.672C666.014 206.788 668.476 205.499 670.63 203.809C672.755 202.189 674.378 200.322 675.529 198.191C676.65 196.113 677.236 193.79 677.235 191.43C677.235 189.069 676.657 186.825 675.523 184.717C674.308 182.511 672.641 180.585 670.63 179.063C668.405 177.391 665.909 176.111 663.252 175.277C660.427 174.383 657.48 173.934 654.516 173.946C651.565 173.935 648.629 174.372 645.81 175.242C643.143 176.062 640.645 177.35 638.431 179.046C636.241 180.742 634.571 182.638 633.426 184.758C632.297 186.804 631.705 189.101 631.705 191.436C631.705 193.771 632.297 196.068 633.426 198.114ZM646.364 184.946C648.607 183.174 651.311 182.296 654.51 182.296C657.692 182.296 660.389 183.168 662.597 184.929C664.804 186.684 665.908 188.845 665.908 191.424C665.908 193.968 664.804 196.129 662.579 197.914C660.365 199.686 657.668 200.581 654.51 200.581C651.358 200.581 648.649 199.68 646.406 197.89C644.157 196.106 643.041 193.945 643.041 191.424C643.041 188.874 644.139 186.713 646.364 184.946ZM692.322 198.114C693.462 200.216 695.138 202.107 697.328 203.809C699.512 205.499 701.991 206.788 704.736 207.672C707.48 208.555 710.373 208.991 713.413 208.991C716.476 208.991 719.386 208.555 722.149 207.672C724.917 206.788 727.372 205.499 729.515 203.809C731.652 202.189 733.281 200.322 734.42 198.191C735.559 196.065 736.126 193.815 736.126 191.43C736.132 189.085 735.545 186.776 734.42 184.717C733.208 182.507 731.538 180.58 729.521 179.063C727.299 177.389 724.805 176.108 722.149 175.277C719.324 174.382 716.376 173.933 713.413 173.946C710.459 173.935 707.522 174.372 704.7 175.242C702.034 176.064 699.536 177.352 697.322 179.046C695.138 180.742 693.462 182.638 692.328 184.758C691.195 186.802 690.601 189.1 690.601 191.436C690.601 193.772 691.189 196.07 692.322 198.114ZM705.267 184.946C707.498 183.174 710.213 182.296 713.413 182.296C716.594 182.296 719.286 183.168 721.493 184.929C723.695 186.684 724.805 188.845 724.805 191.424C724.805 193.968 723.695 196.129 721.476 197.914C719.256 199.686 716.565 200.581 713.413 200.581C710.255 200.581 707.545 199.68 705.296 197.89C703.048 196.106 701.926 193.945 701.926 191.424C701.926 188.874 703.042 186.713 705.267 184.946ZM750.647 208.349V186.548C750.647 182.756 752.128 179.694 755.109 177.367C758.096 175.035 762.021 173.869 766.902 173.869C771.394 173.869 775.148 175.012 778.182 177.297C781.216 179.576 782.727 182.373 782.727 185.7C782.727 189.257 781.098 192.107 777.834 194.263C774.576 196.424 770.237 197.502 764.819 197.502H763.674V189.416H765.38C767.251 189.416 768.726 189.063 769.807 188.38C770.271 188.111 770.66 187.73 770.939 187.272C771.218 186.814 771.378 186.294 771.404 185.759C771.429 185.224 771.321 184.691 771.087 184.208C770.853 183.726 770.503 183.31 770.066 182.997C769.074 182.28 767.868 181.917 766.643 181.967C765.096 181.967 763.886 182.355 763.018 183.144C762.157 183.939 761.72 185.058 761.72 186.495V208.343L750.647 208.349ZM824.536 208.349H823.385C819.531 208.349 816.148 208.113 813.262 207.642C810.37 207.165 807.926 206.459 805.948 205.516C802.702 203.926 800.205 201.895 798.44 199.451C796.67 197.007 795.784 194.327 795.784 191.418C795.784 188.503 796.67 185.836 798.417 183.415C800.176 181.001 802.69 178.987 805.948 177.385C807.926 176.419 810.364 175.701 813.262 175.224C816.148 174.759 819.531 174.517 823.385 174.517H824.536V182.232C824.241 182.232 823.946 182.232 823.621 182.22L822.234 182.208C818.356 182.208 815.275 182.638 812.979 183.504C810.688 184.375 809.047 185.712 808.056 187.549H824.536V195.075H807.843C808.587 196.936 810.175 198.332 812.607 199.256C815.05 200.199 818.332 200.658 822.464 200.658L823.745 200.646C824.04 200.629 824.312 200.629 824.536 200.629V208.349ZM839.965 208.319V186.189C839.965 182.526 841.418 179.552 844.345 177.279C847.267 175.012 851.098 173.864 855.832 173.864C860.147 173.864 863.818 174.841 866.852 176.773C869.88 178.704 871.391 181.03 871.391 183.751C871.391 185.459 870.742 186.966 869.461 188.285C868.163 189.605 866.374 190.541 864.09 191.094C866.923 191.342 868.959 192.007 870.187 193.079C871.427 194.157 872.041 195.829 872.041 198.108V208.343H860.961V200.199C860.961 198.42 860.477 197.195 859.503 196.548C858.524 195.888 856.635 195.564 853.837 195.564H852.822V187.95H854.462C856.227 187.95 857.567 187.685 858.464 187.143C858.892 186.912 859.246 186.566 859.486 186.144C859.726 185.723 859.842 185.242 859.822 184.758C859.828 184.311 859.727 183.87 859.526 183.47C859.326 183.071 859.033 182.725 858.671 182.461C857.837 181.844 856.817 181.526 855.779 181.56C854.262 181.56 853.105 181.973 852.273 182.803C851.44 183.627 851.033 184.793 851.033 186.313V208.319H839.965ZM886.803 208.349V188.409C886.803 184.004 888.338 180.494 891.425 177.88C894.506 175.265 898.602 173.946 903.714 173.946C908.814 173.946 912.922 175.271 916.021 177.892C919.126 180.524 920.678 184.034 920.678 188.409V208.343H909.682V195.882H899.748V187.956H909.682V187.555C909.682 185.924 909.145 184.628 908.07 183.657C906.99 182.697 905.532 182.208 903.714 182.208C901.772 182.208 900.308 182.703 899.305 183.692C898.29 184.681 897.794 186.107 897.794 187.985V208.343L886.803 208.349ZM954.707 182.455V208.349H943.634V182.455H934.107V174.517H964.234V182.455H954.707ZM978.253 208.343H989.32V174.517H978.253V208.343ZM1038.65 174.517L1029.65 201.235C1028.71 204.003 1027.5 205.987 1026.03 207.195C1024.55 208.39 1022.59 208.991 1020.13 208.991C1017.68 208.991 1015.7 208.384 1014.2 207.177C1012.71 205.964 1011.5 203.985 1010.56 201.229L1001.52 174.517H1012.61L1018.49 192.496C1018.72 193.15 1018.97 193.986 1019.25 195.022C1019.53 196.047 1019.82 197.201 1020.13 198.509L1021.11 194.622C1021.34 193.697 1021.55 192.991 1021.71 192.496L1027.62 174.517H1038.65ZM1078.06 208.349H1076.92C1073.06 208.349 1069.68 208.113 1066.79 207.642C1063.91 207.165 1061.46 206.459 1059.48 205.516C1056.23 203.926 1053.74 201.895 1051.97 199.451C1050.2 197.007 1049.32 194.327 1049.32 191.418C1049.32 188.503 1050.19 185.836 1051.95 183.415C1053.72 181.001 1056.23 178.987 1059.48 177.385C1061.46 176.419 1063.91 175.701 1066.79 175.224C1069.68 174.759 1073.06 174.517 1076.92 174.517H1078.07V182.232C1077.77 182.232 1077.47 182.232 1077.15 182.22L1075.77 182.208C1071.89 182.208 1068.81 182.638 1066.52 183.504C1064.21 184.375 1062.58 185.712 1061.58 187.549H1078.07V195.075H1061.37C1062.12 196.936 1063.71 198.332 1066.14 199.256C1068.58 200.199 1071.86 200.658 1075.99 200.658L1077.27 200.646C1077.58 200.629 1077.84 200.629 1078.07 200.629V208.343L1078.06 208.349ZM1148.99 208.319V186.177C1148.99 182.514 1150.46 179.546 1153.41 177.285C1156.35 175.012 1160.2 173.869 1164.98 173.869C1169.2 173.869 1172.73 174.853 1175.58 176.814C1178.42 178.775 1179.85 181.172 1179.85 183.998C1179.85 185.335 1179.44 186.519 1178.64 187.549C1177.82 188.574 1176.61 189.457 1174.98 190.193C1177.3 191.018 1179.06 192.137 1180.29 193.55C1181.52 194.975 1182.13 196.624 1182.13 198.485C1182.13 199.757 1181.86 200.947 1181.3 202.048C1180.7 203.196 1179.87 204.208 1178.85 205.022C1177.3 206.255 1175.5 207.132 1173.57 207.589C1171.56 208.09 1168.69 208.343 1164.95 208.343H1161.86V200.817H1165.6C1167.23 200.817 1168.52 200.534 1169.44 199.969C1169.86 199.743 1170.21 199.407 1170.45 198.997C1170.69 198.587 1170.82 198.119 1170.82 197.643C1170.82 197.16 1170.7 196.685 1170.45 196.268C1170.21 195.851 1169.86 195.508 1169.43 195.276C1168.52 194.71 1167.23 194.422 1165.6 194.422H1161.86V187.708H1163.5C1165.32 187.708 1166.68 187.432 1167.58 186.89C1168.01 186.655 1168.37 186.305 1168.61 185.88C1168.85 185.454 1168.96 184.969 1168.94 184.481C1168.94 184.038 1168.83 183.601 1168.63 183.207C1168.42 182.813 1168.13 182.475 1167.76 182.22C1166.91 181.596 1165.87 181.276 1164.81 181.313C1163.26 181.313 1162.09 181.719 1161.28 182.514C1160.47 183.321 1160.07 184.481 1160.07 185.989V208.319H1148.99ZM1196.27 208.349V188.409C1196.27 184.004 1197.81 180.494 1200.89 177.88C1203.98 175.265 1208.07 173.946 1213.18 173.946C1218.28 173.946 1222.39 175.271 1225.49 177.892C1228.6 180.524 1230.14 184.034 1230.14 188.409V208.343H1219.15V195.882H1209.22V187.956H1219.15V187.555C1219.15 185.924 1218.61 184.628 1217.53 183.657C1216.45 182.697 1215 182.208 1213.18 182.208C1211.24 182.208 1209.77 182.703 1208.78 183.692C1207.77 184.681 1207.26 186.107 1207.26 187.985V208.343L1196.27 208.349ZM1246.1 208.349V179.717C1246.1 177.909 1246.72 176.466 1247.95 175.395C1249.17 174.329 1250.8 173.793 1252.85 173.793C1254.54 173.793 1255.99 174.158 1257.22 174.912C1258.43 175.642 1259.78 177.055 1261.27 179.14L1267.1 187.167C1268.32 188.857 1269.27 190.27 1269.97 191.418C1270.66 192.567 1271.21 193.633 1271.63 194.616C1271.4 192.732 1271.21 190.843 1271.06 188.951C1270.94 187.662 1270.87 186.37 1270.85 185.076V174.517H1281.53V204.28C1281.55 204.919 1281.42 205.555 1281.15 206.137C1280.88 206.719 1280.49 207.232 1279.99 207.636C1278.97 208.478 1277.62 208.92 1275.94 208.92C1274.52 208.92 1273.3 208.626 1272.3 208.066C1271.29 207.495 1270.2 206.4 1269.03 204.78L1260.37 192.896L1259.53 191.689C1257.6 189.069 1256.29 186.943 1255.57 185.329C1255.98 187.579 1256.27 189.634 1256.48 191.483C1256.67 193.326 1256.78 195.058 1256.78 196.683V208.343L1246.1 208.349ZM1297.85 208.349V174.517H1308.91V186.254H1310.5C1312.64 186.254 1314.67 184.599 1316.56 181.301L1317 180.553L1320.48 174.517H1332.77L1326.62 184.31L1326.59 184.411C1325.23 186.589 1323.64 188.038 1321.82 188.757C1324.86 189.145 1326.98 190.023 1328.19 191.365C1329.4 192.708 1330 195.028 1330 198.314V208.343H1319.1V199.539C1319.1 197.578 1318.68 196.247 1317.84 195.552C1317.02 194.857 1315.53 194.51 1313.39 194.51H1308.91V208.349H1297.85ZM740.86 35.6867C739.833 38.5016 733.464 37.5476 730.158 38.2837C726.835 39.0316 722.485 38.531 719.221 38.2837C715.691 38.0246 711.724 38.531 708.519 37.8126C705.113 37.047 702.563 39.4438 699.01 38.5192C698.426 38.3779 697.782 37.7242 697.346 37.577C695.227 36.8939 693.096 37.9774 691.632 36.8703L690.923 36.6348C691.071 34.397 695.941 32.3594 697.576 31.1993C698.892 30.2807 700.444 28.9027 701.867 28.1253C703.042 27.4776 704.122 27.4363 705.19 26.712C705.981 25.7639 706.772 24.8158 707.575 23.8677C708.59 23.1198 709.965 22.8253 710.898 21.9832C712.846 20.2283 714.735 18.6737 716.848 17.0189C720.024 17.2957 720.773 19.4746 722.792 20.7996C724.551 21.9597 726.747 22.1952 728.73 23.1669C730.465 24.009 731.191 26.606 732.773 27.6542C733.67 28.2431 734.52 28.2549 735.388 28.832C736.008 29.2442 736.303 30.1982 736.817 30.7282C738.115 32.065 739.721 33.2604 741.096 34.5089C741.072 35.1037 741.072 35.3804 740.86 35.6867ZM789.616 35.6867C787.898 34.9506 785.195 36.0577 783.188 35.4511C782.403 35.2156 780.254 34.5678 779.392 34.2733H776.294C773.986 33.6844 770.91 32.2711 768.685 31.4349C766.932 30.7753 765.084 31.0992 763.455 30.2571C761.49 29.2324 759.046 27.5836 757.027 26.7061C755.853 26.1938 754.607 26.3233 753.468 25.7639L752.754 24.8217C751.792 24.2033 750.493 24.1444 749.661 23.3966C748.952 22.7723 748.333 21.7889 747.524 21.2707C745.995 20.299 744.148 20.034 742.766 18.9092C740.848 17.3604 739.892 14.9519 737.773 13.4738C735.677 12.0133 732.933 11.3832 730.873 9.92867L728.73 7.79689H727.786C727.113 7.50244 725.684 6.43656 724.923 5.91244C723.553 4.95844 722.514 3.05633 721.127 2.13178C720.277 1.56056 719.309 1.55467 718.507 0.954C718.211 0.724333 717.975 0.147222 717.562 0H712.557C711.465 1.20722 709.806 2.36733 708.755 3.54511L708.519 4.72289C708.136 5.28233 707.233 5.82411 706.855 6.38356C706.011 7.62022 705.645 9.03944 704.712 10.1642L703.768 10.6353C703.325 11.1653 703.284 12.0251 702.811 12.5257C702.144 13.2323 700.982 13.5857 700.202 14.1804C699.559 14.6574 699.547 15.4996 699.01 16.0708C698.449 16.6714 697.54 16.7421 696.867 17.2544C695.681 18.1554 694.896 20.0811 693.544 20.7996C691.821 21.7064 689.684 21.9184 688.067 22.9254C687.022 23.5791 686.001 24.8688 684.979 25.5283C683.976 26.1702 682.931 26.1172 681.881 26.7061C681.279 27.0477 680.641 28.0606 679.986 28.3609L676.651 28.5964C675.642 28.9439 674.331 30.1747 673.322 30.4927H670.229C669.479 30.7459 668.741 31.8059 668.092 32.1416C667.212 32.6068 664.698 33.1132 663.813 33.3252H660.005C657.939 33.7787 655.809 33.5902 653.825 34.2674C652.173 34.8387 651.464 36.3286 649.54 36.8703C647.586 37.4239 645.331 36.6701 643.124 37.3414C642.297 37.5947 641.4 38.4309 640.751 38.7666C639.688 39.2966 638.65 39.114 637.652 39.7088C636.885 40.1622 634.919 43.2598 634.323 44.1961L633.615 44.4317C632.924 45.4917 633.597 46.5222 633.373 47.5057C633.136 48.5362 632.109 49.3371 631.708 50.1086C631.236 51.0037 631.885 51.0449 630.994 51.5219C630.958 53.9069 631.348 54.5017 632.18 55.7796C634.11 55.8679 637.327 57.6404 638.844 57.1929C640.184 56.8101 641.642 55.4851 642.888 55.0729C643.82 54.7549 645.101 55.1671 645.497 55.0729C647.014 54.7078 648.897 53.4299 650.26 52.9411H651.683C652.173 52.7821 652.698 52.1461 653.111 51.9989C654.882 51.3629 655.85 51.6809 657.627 51.0508C658.595 50.7092 659.864 49.5491 660.725 49.1604H662.142C662.644 49.0073 663.653 48.3654 664.049 48.2182H665.713C668.074 47.3938 670.595 45.5329 672.85 44.4317C673.936 43.9017 674.957 44.2844 675.706 43.4894C679.36 43.9606 682.164 48.3831 683.781 51.0508L689.973 51.2863C691.213 51.0272 694.577 50.5502 696.159 51.0508C696.85 51.2746 697.092 51.8163 698.054 51.993C698.39 52.6702 699.376 53.6124 699.01 54.8314C698.91 55.1436 698.284 55.3732 698.538 56.2507C698.65 56.6747 699.341 57.4167 699.482 57.8996C700.025 59.7899 699.707 63.4174 699.482 64.7601C699.246 66.1734 700.427 67.3924 699.718 68.5408C698.975 69.7774 695.427 69.2239 693.544 69.2474C691.667 69.271 683.622 70.3663 682.601 71.1319C680.995 71.7267 680.96 74.4414 680.694 75.631C682.589 77.539 684.614 81.1253 687.352 82.0087C689.708 82.7683 692.399 81.5022 693.544 81.0664H696.389C698.603 80.5659 703.555 78.8699 705.904 80.3598C707.097 81.1136 710.054 83.6104 710.414 85.0886C710.343 85.7128 710.266 86.3488 710.178 86.973C710.143 89.7054 709.859 96.2833 710.662 97.3728V100.918C707.894 107.248 696.708 106.83 689.259 108.479L687.83 108.244C686.073 108.135 684.309 108.296 682.601 108.721C680.098 109.368 677.229 110.546 675.459 112.03C675.028 112.401 674.998 113.073 674.514 113.444C674.437 116.712 674.443 120.781 676.415 122.66C676.686 122.942 677.147 122.695 677.843 123.137L678.079 123.843C678.575 124.214 681.302 125.286 681.881 125.492C683.468 126.069 684.1 124.65 684.737 124.314H687.352C687.671 124.008 687.99 123.69 688.303 123.372C689.619 122.63 691.189 122.642 692.588 121.959C696.307 120.116 699.772 117.519 704.24 116.282H709.712C716.706 114.527 726.528 118.172 733.251 120.063H736.344C737.017 120.104 737.566 120.463 738.009 120.534C739.325 120.769 741.574 119.868 742.524 119.592H746.096C749.017 118.755 751.857 117.183 752.996 114.627C753.863 113.226 752.429 111.377 752.282 109.904C751.502 109.451 751.001 108.538 750.133 108.244H747.996C746.662 107.914 744.478 107.36 743.239 107.066H738.009C732.047 107.066 725.979 106.995 723.016 103.992C721.328 101.99 721.812 96.3658 721.836 92.4084C721.853 90.5358 722.509 89.6996 722.792 88.3922C723.117 86.8611 721.635 86.6609 721.83 85.5479C721.901 85.2122 722.686 84.6351 722.792 84.3819V82.2501C723.76 80.083 727.266 77.9218 729.686 77.2858C733.641 76.2434 742.814 78.3693 745.859 76.5791C746.863 75.9784 746.096 74.7123 746.568 73.5051C746.887 73.1871 747.199 72.8691 747.524 72.5629C748.291 70.5312 746.828 68.6173 746.326 67.5927C742.867 66.7564 738.676 67.1216 735.388 68.0638C733.287 68.6703 732.1 66.7211 729.922 67.3571C727.608 68.0343 723.353 68.2581 720.891 67.8282C717.981 67.3218 713.123 69.536 710.662 67.8282C709.635 66.4797 711.052 65.1076 710.414 63.335C710.373 63.1996 709.777 62.4399 709.706 62.1572C709.34 60.5967 710.402 59.4248 710.662 58.3766V55.7796C711.199 54.06 712.338 51.3511 713.513 50.1086C716.281 48.0474 717.527 50.4501 719.941 50.1086C720.744 49.9908 721.747 49.3371 722.314 49.1604H726.835L731.351 48.4538C731.847 48.5362 732.72 49.1369 733.493 48.9249C734.231 48.7247 736.091 47.9709 737.059 47.7471C738.092 47.8178 739.113 47.9002 740.146 47.9827C740.901 47.806 743.599 47.4232 744.431 47.0346L745.139 46.3279C746.019 46.0334 747.129 46.4633 747.76 46.0923C748.864 45.5623 748.982 43.9311 749.189 42.5472C749.602 42.3941 749.419 42.5001 749.661 42.3117H751.319C751.473 42.3706 758.592 47.8296 758.698 47.9768C759.495 47.859 759.89 47.3526 760.362 47.2701C760.616 47.223 763.857 48.5598 764.17 48.6834C765.48 49.2429 766.737 47.6823 768.449 48.2123C769.824 48.6422 774.192 49.6374 776.299 49.1546C778.867 48.5774 781.5 47.2407 783.666 46.3279L786.045 46.0923C786.576 45.7979 786.989 44.7556 787.473 44.4317H788.424C789.923 43.7839 792.248 42.3823 792.939 40.8866C793.193 40.5273 793.193 39.9208 793.175 39.2377C792.006 38.0893 791.233 36.3874 789.616 35.6867ZM916.606 73.7348C916.606 72.2684 916.901 71.4911 917.55 70.6608C918.459 69.4948 920.295 69.5419 921.357 68.5408C923.771 68.5408 924.958 69.0943 926.593 69.483C928.405 69.9188 929.574 68.9118 930.63 69.483C933.021 69.5124 933.074 70.6726 934.438 71.6148C934.538 72.557 934.969 73.8938 934.438 74.6888C933.647 76.8147 926.882 78.0454 923.972 77.0443C923.559 76.9089 923.034 76.2434 922.55 76.1021C920.425 75.5191 919.185 76.2081 917.792 75.1599C917.284 74.73 917.16 74.1411 916.606 73.7348ZM916.364 54.5959C916.718 54.2661 917.06 53.8303 917.32 53.4181C918.524 53.1826 920.2 53.0766 921.115 52.4759C923.376 52.4818 924.261 52.682 925.637 53.1826C927.006 53.6713 928.718 52.9647 929.916 53.4181L930.63 54.1248C932.637 54.9316 934.91 54.2543 936.574 55.3026C938.416 55.3143 938.428 55.809 939.431 56.4862C939.502 62.8403 935.087 61.0796 930.164 62.1572C924.952 63.2997 920.23 62.8286 916.364 60.5083V54.5959ZM901.147 60.0313C900.96 60.4902 900.67 60.8997 900.298 61.2277C899.926 61.5556 899.483 61.7932 899.004 61.9217C896.891 63.2408 888.739 61.4506 886.16 63.1053H882.594C881.685 62.7049 880.186 59.3011 881.166 57.9054C881.414 54.2956 892.033 55.9798 894.252 53.4181C895.94 53.4063 897.103 53.636 898.054 54.3603C899.895 54.3014 900.716 54.7372 901.147 56.0151C901.572 56.6276 901.577 59.4189 901.147 60.0313ZM892.582 75.1658C891.549 75.3837 888.981 76.002 888.066 75.3954C885.009 75.4308 885.434 73.7642 884.023 72.3214C884.076 69.6126 887.883 69.3417 889.967 68.7763C891.195 68.4466 892.859 69.059 893.774 68.5408C897.145 68.4996 898.998 68.2758 901.147 69.483C901.294 69.8952 901.194 69.7127 901.383 69.9541C901.619 76.8559 897.764 74.0174 892.582 75.1599V75.1658ZM949.66 90.047C947.311 90.047 943.032 89.0047 941.574 89.3403C935.352 90.7537 922.945 90.8773 918.022 88.6337C917.875 88.2214 917.981 88.3981 917.786 88.1567C917.757 86.5843 917.768 85.0709 918.27 84.1404C921.009 84.1758 923.582 84.3583 925.401 84.8471H930.394C931.616 85.0414 933.8 85.7069 935.152 84.8471C938.286 84.641 942.264 78.9052 943.711 76.5732C944.006 76.1021 945.139 74.6004 945.139 73.9762C945.133 73.5404 944.46 72.8279 944.431 72.5629C944.36 72.0918 945.34 69.7833 945.611 69.2474C946.154 68.211 950.593 61.6802 951.319 61.215C952.246 60.6202 953.19 60.8381 954.176 60.2728C955.486 59.519 956.596 58.2411 957.747 57.4343C957.688 52.1579 952.984 52.4994 950.611 49.6374C949.59 49.6139 949.153 49.5903 948.704 50.1086C947.14 49.9142 946.603 48.8424 945.381 48.4479H942.046C939.124 47.8237 935.116 48.2477 933.245 46.5634H918.028C917.615 46.3632 917.284 45.4563 916.842 45.1442C916.936 44.6613 916.901 44.6849 917.078 44.4376C917.06 43.1302 917.155 42.3293 917.55 41.5991C919.061 41.3164 921.77 41.8818 923.5 41.3636C925.46 40.7747 933.475 38.8196 936.338 39.7088C940.045 40.8512 942.318 41.7699 946.562 40.651C947.919 40.2977 949.017 40.8277 949.891 40.1799C950.392 39.8266 950.463 39.4497 950.847 39.0021C950.8 37.7949 950.493 36.2108 949.891 35.4511C948.143 32.8129 946.272 34.0378 942.996 33.0956C941.444 32.6362 938.44 31.7117 936.338 32.1416C935.423 32.33 933.34 32.6657 932.059 32.3771C931.203 32.1946 929.538 31.7647 928.736 31.6704C927.703 31.5527 926.079 32.6539 924.45 32.1416C922.555 31.5527 919.439 30.7106 917.792 29.7801C918.005 26.4706 925.241 25.4341 929.438 26.235C930.884 26.5118 933.948 25.44 935.624 25.7639C936.657 25.9641 939.478 25.9406 940.618 26.4706C940.948 26.6237 941.326 27.2832 941.804 27.4128H946.089C946.479 27.5129 947.122 28.0252 947.748 27.8898C948.25 27.7838 950.605 27.3303 951.083 26.9476C951.567 26.5589 951.85 25.7757 952.506 25.5283C954.512 24.7628 955.846 24.8982 956.549 22.9254H956.791C956.826 17.967 952.919 18.4322 949.176 17.2544C948.728 17.1131 948.297 16.4359 947.996 16.3122L941.574 16.0708C940.529 15.7528 938.912 14.7281 938.009 14.4219C937.058 14.098 935.146 14.3394 934.438 14.1863C930.365 13.2853 926.74 14.8871 923.028 13.7093C921.9 13.356 920.572 13.7564 919.693 13.2382C918.571 13.091 918.512 12.7436 917.792 12.296C917.863 10.8709 917.945 9.45167 918.028 8.03833C917.084 4.51678 912.787 3.04456 910.898 0.235556H908.991C907.964 1.28378 906.341 1.47222 904.954 1.89033C904.057 2.16122 902.959 1.76667 902.333 2.12589C898.98 2.51456 898.543 7.27867 896.861 9.45167C892.275 12.7966 876.78 13.409 869.992 11.5834C868.222 11.1064 866.634 12.0133 865.713 12.2901H862.856C862.384 12.3608 860.702 12.2783 860.005 12.5257C859.627 12.6611 859.273 13.3324 858.819 13.4679H855.962C855.566 13.568 854.651 14.0862 854.297 14.1804C853.187 14.2629 852.078 14.3453 850.962 14.416L850.49 15.1227L845.974 15.3641C845.006 15.6998 844.286 16.8363 843.59 17.49C841.577 19.3921 839.363 20.4521 838.124 23.1669L837.888 25.5283C837.593 26.5412 837.014 28.2961 837.888 29.309C839.428 32.2063 845.626 31.0639 847.875 33.0897C848.879 33.9907 851.641 38.8019 852.154 40.1799C852.804 41.8994 851.682 43.8251 851.446 44.6731V47.7412C851.369 48.0239 850.773 48.7777 850.732 48.919C850.242 50.2734 850.815 51.5572 850.254 52.7114C849.929 53.371 848.896 54.2131 848.589 54.8314C848.052 55.915 848.3 56.8042 847.639 57.6758L846.689 58.1469C844.977 60.1079 843.017 61.9806 840.745 63.335L838.602 63.812C837.475 64.5776 836.076 65.8554 834.795 66.4149C834.517 66.3619 833.839 66.1558 833.13 66.4149C832.363 66.6976 830.787 68.2522 830.037 68.2993C829.654 68.3229 828.296 67.9578 827.422 68.2993C826.112 68.8293 824.867 70.3369 823.621 70.9022L821.714 71.1378C820.31 71.6678 814.437 74.0174 813.634 74.9184C811.78 76.9913 809.077 86.5313 811.485 89.8173C812.341 91.6017 815.983 93.492 818.864 92.4084C824.294 90.365 828.922 88.1979 834.081 86.0308L835.981 85.7952C838.183 84.7117 840.072 82.9568 841.931 81.5376C843.743 80.1478 846.665 79.553 848.589 78.228C849.121 77.8629 849.298 76.9737 849.776 76.5791H850.484C852.166 75.4484 856.947 70.1131 857.862 68.3052V67.363C858.388 66.4031 859.869 65.879 860.477 64.9957C861.256 63.865 862.95 60.3906 863.334 59.0891L863.57 51.0508C864.397 47.7118 864.237 41.658 863.57 38.054C863.305 36.623 862.095 30.0569 862.378 29.0734C862.921 27.2302 865.595 25.9288 866.657 24.3447L872.129 24.1091C872.448 24.1739 873.351 24.5037 874.036 24.3447C874.555 24.2269 875.812 23.6969 876.409 23.638C877.548 23.5261 879.2 24.1268 880.452 23.638L881.408 22.6899C883.415 21.8478 885.015 23.5732 886.16 23.8677C887.883 24.3211 889.394 24.2446 890.917 24.5802H893.296C893.662 24.7333 894.335 25.3752 894.961 25.5283H897.812C898.343 25.7521 899.329 26.606 899.954 26.9417V29.0734C899.571 29.7448 898.62 29.2266 897.812 29.5446C897.085 29.839 896.283 30.9284 895.439 31.1934H886.638C886.242 31.1051 885.327 30.581 884.967 30.4927C883.598 30.1393 876.621 32.1592 875.936 32.6127C875.105 33.6075 874.312 34.6329 873.558 35.6867H873.321C873.262 39.5792 873.534 39.4909 874.986 41.5991C882.051 41.6933 888.952 39.5086 895.439 41.128C896.731 41.4519 898.479 40.9749 899.476 41.5991C900.114 41.9407 900.226 42.4118 900.91 42.7769C900.881 43.3834 900.881 43.6602 900.674 43.9606C900.149 45.0618 898.963 45.3739 898.29 46.322C893.561 46.4456 888.892 47.4066 884.501 49.1604L880.93 49.396C879.903 49.767 878.533 50.9036 877.595 51.2863L875.936 51.5219C875.346 51.8163 874.467 52.682 873.8 52.9411C873.097 53.2179 872.43 52.8233 871.893 53.1767C870.636 54.007 870.004 55.332 869.042 56.4862C869.373 58.7593 870.783 59.3894 871.421 60.9794C871.698 61.6743 871.35 62.3221 871.657 62.8698C872.058 63.5823 873.044 64.4068 873.316 65.2312V67.5927L874.272 68.5349V70.4311C874.437 71.0553 875.057 71.762 875.216 72.3156V74.9184C876.031 77.9924 879.248 83.4691 881.886 84.6116C883.273 85.5479 885.174 84.5409 886.402 84.1404C888.621 83.4102 892.464 83.6104 894.961 84.1404C896.318 84.429 898.254 83.7694 899.24 84.376C900.556 85.0002 899.96 86.2487 900.668 87.45C900.327 88.3674 899.754 89.1809 899.004 89.8114C897.369 90.9598 895.504 90.1942 893.532 90.9892C893.196 91.1306 892.576 91.8078 892.11 91.9314H889.967L889.259 92.6499C888.019 93.068 886.118 92.8678 884.967 93.121H880.93C880.416 93.2506 878.982 93.7099 878.315 93.8277C876.881 94.0809 875.364 93.3153 873.8 93.8277C873.599 93.8983 873.044 94.4754 872.843 94.5343C870.423 95.2646 867.738 92.7088 864.757 93.8277L864.048 94.5343L858.577 94.7758C858.376 94.8347 857.827 95.4236 857.626 95.4824C854.917 96.3422 852.267 95.4648 850.018 96.6602C848.324 97.573 847.657 99.2926 846.447 100.682C846.541 103.639 848.194 104.94 848.825 107.537C850.407 107.937 853.229 110.34 855.005 108.721C857.603 108.509 858.281 106.012 860.005 104.934C861.351 104.092 862.614 104.363 864.279 103.756L864.999 103.05H867.135C868.67 102.685 870.323 101.542 872.613 102.102C873.251 102.255 874.112 102.838 875.222 102.573C876.444 102.278 877.955 101.259 879.744 101.63C880.31 101.748 882.229 102.172 882.831 102.102C885.475 101.778 890.162 101.348 892.824 101.866C894.642 102.219 895.692 101.042 897.103 101.395C898.254 101.689 899.028 102.749 899.954 103.279V114.15L900.19 118.879C901.371 121.087 903.59 122.742 904.954 124.791C905.827 124.815 907.055 124.897 907.563 124.556H909.469L910.898 122.895C912.019 122.13 913.43 121.835 914.463 121.011H914.699C915.266 120.41 915.171 119.845 915.88 119.35C915.978 117.848 916.14 116.351 916.364 114.863L916.127 112.737L916.836 112.03V103.75C917.113 102.938 917.698 102.49 917.792 101.153C919.681 100.753 923.866 99.2042 926.351 99.7401C928.405 100.176 930.571 100.847 932.537 101.153C934.904 101.53 938.569 101.507 940.624 101.389C941.273 101.354 942.772 100.777 943.711 101.153C947.565 102.738 952.205 104.598 956.549 103.044H958.692C959.264 102.838 959.252 102.202 959.648 101.866C960.551 101.083 962.068 101.542 963.213 100.918C963.213 100.918 966.217 98.4151 966.306 98.3209C967.05 97.5435 966.707 96.7957 967.25 95.718C967.38 95.4648 969.777 92.5027 970.107 92.1729C970.048 91.1129 969.853 91.0422 969.629 90.2884C963.608 89.1401 956.384 90.047 949.66 90.047ZM357.04 60.0313C356.632 59.9548 354.714 60.3847 353.711 60.0313C351.845 59.3777 342.319 58.5886 339.444 59.3247C335.418 60.3552 328.028 60.6968 323.035 59.7958C321.76 59.5661 320.703 60.7557 318.991 60.2669C318.531 60.1432 317.946 59.4189 317.563 59.3247C316.536 59.0714 315.143 60.0726 314.476 60.2669C311.43 61.1797 302.989 59.7546 301.632 58.8536L300.917 58.618C301.047 54.9904 308.042 54.06 310.432 52.2344C311.583 51.3511 313.277 49.4137 314.476 48.6893L315.898 48.4538C317.12 47.7883 318.118 46.3043 319.227 45.6153C321.335 44.3021 323.401 43.4953 325.407 42.0702C326.033 41.6286 326.145 40.8041 326.6 40.1799C327.397 39.0904 331.676 34.9623 332.786 34.2733C334.256 33.3606 338.334 30.9756 339.202 29.7801H341.823C343.422 30.475 344.243 32.7069 345.624 33.5608C347.808 34.9152 349.118 36.3286 350.86 38.054C353.575 40.7393 357.364 42.5296 360.369 44.9087C361.337 45.6683 361.88 47.0993 362.748 47.9768C364.696 49.9496 367.346 51.5926 368.934 53.8892C369.778 55.12 369.961 56.7041 370.834 57.9054C370.138 61.2916 360.918 60.7733 357.04 60.0313ZM425.292 61.6861C424.897 61.5507 424.253 60.8676 423.864 60.7439H417.92C417.436 60.6026 416.899 59.9371 416.491 59.7958H412.69C411.905 59.5426 410.931 58.5886 410.305 58.1469C409.857 57.8112 405.2 56.1859 404.597 56.0151C402.679 55.4616 400.902 56.3272 399.61 55.3084C398.931 54.7667 398.518 53.6301 397.703 53.1826L396.275 52.947L395.33 51.7574C394.132 50.8918 392.792 50.4737 391.523 49.6374C390.673 49.0721 389.77 47.9944 388.908 47.5057C387.893 46.9344 387.002 46.9521 386.051 46.3279L384.629 44.6731C383.903 44.1726 383.259 44.202 382.486 43.725L380.343 41.5991C378.431 40.4096 376.572 39.4556 374.878 38.054C374.352 37.6241 374.028 36.7938 373.449 36.4051C372.688 35.8751 371.779 35.775 371.07 35.2156C370.551 34.8033 370.303 34.1026 369.878 33.5667C369.347 32.8836 366.844 30.8578 366.077 30.2571C363.922 28.5434 361.514 27.3127 359.419 25.5283C358.84 25.0337 358.87 24.1621 358.468 23.638L357.754 23.4024C356.821 22.3837 355.842 21.5416 354.897 20.564C354.425 20.0752 354.271 19.3097 353.711 18.9092C350.565 16.642 347.383 14.7163 344.201 12.5257C342.738 11.5246 342.112 9.72844 340.872 8.50944C340.754 8.40344 337.484 6.70156 337.301 6.61911C334.987 5.58267 331.475 8.52122 329.929 9.45167C328.914 10.0641 328.441 11.5246 327.55 12.2901C327.727 13.4973 328.264 14.5691 328.5 15.5997C329.061 17.9964 327.391 20.4757 326.6 21.7418C325.154 24.0679 323.135 25.7757 321.606 27.8898L321.37 28.832C321.158 29.0676 320.603 29.0263 320.42 29.309C319.977 29.9744 319.995 30.8519 319.463 31.4349C318.826 32.1416 317.527 32.1828 316.849 32.8482C315.544 34.1438 314.635 35.8516 313.047 36.8703C312.067 37.5004 310.928 37.4416 309.954 38.0481C306.153 40.439 300.982 42.6414 296.402 44.202C296.166 44.2786 295.451 43.9606 294.737 44.202C293.911 44.4729 292.164 45.0912 291.402 45.3798H289.744L288.787 46.322C287.288 47.0876 284.372 47.7294 282.843 48.2123L276.663 48.4479C275.188 48.8542 272.697 49.6846 271.192 50.1086L265.006 50.5797C263.188 51.1391 261.712 52.3228 260.254 52.9411L257.397 53.1767C255.024 54.1601 252.132 55.0022 248.602 55.3084C248.289 55.8856 247.605 56.4273 247.41 56.9573V60.0313C246.997 61.4918 245.657 63.0229 245.273 64.5187C244.671 66.8624 249.287 72.5923 250.503 73.5051C251.636 74.3531 259.664 75.1069 261.682 74.2118C262.615 73.7996 264.043 72.7984 264.533 71.8503C266.056 71.8916 266.853 72.9516 268.341 72.557C269.285 72.3097 269.987 71.3086 270.713 70.9022C271.994 70.1956 273.435 70.4193 274.757 69.7244C275.359 69.4064 276.085 68.3523 276.663 68.0697C277.218 67.9872 277.773 67.9048 278.322 67.8341C279.88 67.0686 281.893 66.1263 283.558 65.4609L285.458 65.2312C287.406 64.289 287.447 63.2879 290.93 63.335L290.694 66.6504C290.883 67.4749 291.597 67.787 291.88 68.2993C293.031 70.3781 293.504 73.4521 295.924 74.2118C297.984 75.6251 301.325 74.5062 304.246 74.4473C304.778 73.8879 305.262 73.4933 305.675 72.7926C306.973 72.875 308.077 73.7583 309.718 73.2637C310.621 72.9928 310.645 71.7326 312.097 72.0859C314.228 72.5923 318.035 72.6512 320.184 72.0859H323.749C325.343 71.6972 326.854 70.8198 328.5 70.4311L334.444 70.6667C335.548 70.3899 337.089 69.4948 338.966 69.96C340.247 70.278 343.204 70.2368 344.438 70.9022C345.146 71.2909 345.624 72.2802 346.58 72.557C347.501 72.822 348.888 72.2802 349.425 72.3214C351.491 72.4804 353.168 73.2519 354.897 73.5051C355.47 73.5876 360.18 72.0623 360.847 71.8503C362.157 71.4146 362.659 72.6866 364.176 72.3214C364.542 72.2331 364.932 71.6972 365.593 71.8503C365.793 71.8916 366.537 72.4922 366.791 72.557C369.542 73.299 372.646 72.0506 374.163 71.6148H377.256C378.006 71.4146 378.791 71.1849 379.871 70.9022C380.987 70.6078 383.389 69.7833 384.151 70.1956C386.158 70.5077 386.712 72.398 388.194 73.2578C388.814 73.6347 390.295 74.3178 390.809 74.4473L392.946 74.2118C393.323 74.3531 394.002 75.2482 394.374 75.3896H396.517C397.125 75.5544 397.933 76.1846 398.417 76.3318C401.074 77.2269 404.757 76.1846 406.74 75.6251L409.833 75.3896C410.211 75.2541 410.553 74.5828 411.025 74.4473L414.585 74.6829C415.565 74.3413 416.255 73.1223 417.442 72.7926L421.727 72.557C424.182 71.7797 426.921 70.7138 428.857 69.4889C428.899 67.6928 429.465 64.5658 428.385 63.335C427.795 61.7744 426.957 62.2573 425.292 61.6861ZM1075.46 42.3058C1075.81 41.976 1076.15 41.5402 1076.41 41.128C1078 40.5097 1085.51 39.9973 1086.16 39.2377C1088.22 39.2907 1089.7 40.1328 1091.63 40.4154C1092.92 40.6039 1094.49 39.4732 1095.67 40.1799C1097.46 40.28 1099.95 42.3293 1100.43 43.725C1100.98 45.3444 1100.37 46.3927 1101.13 47.5057C1100.86 49.4608 1099.64 49.9908 1098.76 51.2863C1094.49 50.9507 1090.3 49.9319 1086.4 49.1663C1084.32 48.7541 1080.11 51.0213 1077.84 49.6374C1074.86 49.5079 1075.32 45.4092 1075.46 42.3058ZM1073.55 31.906C1073.51 29.7683 1073.48 24.5449 1072.61 23.1669V21.7418C1072.88 21.1117 1078.38 17.8787 1079.26 17.49C1079.81 17.2544 1080.55 17.4723 1080.92 17.2544C1084.91 17.4311 1089.75 17.1013 1093.05 17.9611H1095.67C1096.38 18.1967 1096.8 19.027 1097.34 19.3803C1098.61 20.2166 1100.3 20.2401 1101.62 21.0351L1103.28 22.9254C1103.07 26.5353 1101.53 30.9049 1098.76 31.906L1095.19 32.1416C1094.56 32.3889 1093.44 33.39 1092.82 33.5608C1091.81 33.8376 1089.26 32.2534 1087.11 32.8541C1084.29 33.6432 1082.34 33.3252 1079.26 33.3252C1078.02 33.3252 1076.17 33.9612 1074.99 33.3252L1073.55 31.906ZM1045.5 36.3992L1036.22 36.6348H1031.94C1031.37 36.7938 1031 37.1177 1030.04 37.1059C1027.65 37.0823 1023.63 36.1637 1022.43 36.8703C1021.53 36.782 1021.54 36.6878 1021 36.3992C1021.1 33.8964 1022.86 34.5678 1024.33 33.5608C1025.72 32.6186 1026.5 30.7341 1027.89 29.7801C1030.11 28.2608 1032.09 27.5011 1033.6 25.2928C1035.7 25.4577 1036.13 26.9476 1037.41 27.8898C1040.21 29.9509 1042.84 32.7187 1045.97 34.2733C1045.97 35.3981 1045.83 35.7691 1045.5 36.3992ZM1135.15 95.4824C1134.87 95.3764 1134.3 94.658 1133.96 94.5343C1132.61 94.0514 1131.95 94.2104 1131.11 93.3566C1130.32 92.5674 1129.95 91.6076 1128.97 90.9892C1127.01 89.7761 1124.61 89.305 1122.79 87.927L1122.54 87.2086C1122.07 86.6844 1121.13 86.5372 1120.64 86.0308C1120.06 85.4242 1119.88 84.4054 1119.22 83.9049C1118.02 83.0157 1116.35 83.2571 1114.93 82.4857L1114.22 81.5376C1113.25 80.8839 1111.98 80.666 1111.13 79.8887C1110.85 79.6296 1110.73 78.917 1110.42 78.705L1108.99 78.4636C1107.96 77.9336 1107.07 76.744 1106.13 76.1021C1104.43 74.9361 1102.53 74.253 1100.9 73.034C1098.79 71.4617 1097.78 68.476 1096.38 66.1793C1094.58 65.7082 1090.37 64.2183 1088.54 65.4609C1087.59 65.7966 1086.91 66.8624 1086.63 67.8341C1085.94 69.0237 1088.19 71.5088 1086.63 73.9762C1085.55 76.8206 1081.05 74.5062 1078.79 76.0962H1077.84L1077.36 74.2118C1077.4 73.829 1077.91 72.3627 1077.6 71.6148C1077.47 71.3086 1076.78 70.8787 1076.64 70.4311C1076.07 68.4701 1077.36 65.3667 1076.41 63.812C1076.4 62.7402 1076.31 61.4682 1076.88 60.9736C1079.22 59.0067 1092.57 59.9077 1095.91 60.2669C1097.7 60.4612 1100.59 61.5624 1101.38 61.215C1105.96 60.7321 1109.16 53.2002 1111.85 50.3441C1111.68 49.1663 1111.13 48.5774 1110.89 47.7412V40.1799C1111.02 39.8089 1111.73 39.3672 1111.85 39.0021C1112.17 37.9186 1111.42 37.0882 1111.85 35.6867C1112.15 34.662 1113.31 33.5431 1113.74 32.6186C1114.17 31.694 1113.96 31.0286 1114.46 30.2571C1115.67 28.3727 1119.29 26.2232 1121.35 25.0513C1121.71 24.2269 1122.08 23.1669 1122.31 22.2129C1123.4 17.7903 1121.07 14.4867 1117.55 13.4738C1114.97 12.7377 1112.92 13.2794 1110.41 12.5316C1108.69 12.0074 1106.62 11.0947 1104.71 10.6353H1099.47C1093.45 9.30444 1084.35 9.37511 1079.02 10.6353H1072.36C1071.56 10.8532 1070.35 11.4186 1069.28 11.5834C1067.74 11.819 1065.54 11.7424 1065 10.8768C1061.42 11.0181 1058.23 15.0814 1056.68 17.49C1056.16 18.2791 1054.97 20.3756 1055.48 21.9832C1055.83 23.0903 1057.08 23.2964 1057.62 24.1032C1058.23 25.0337 1057.74 26.0348 1058.57 26.7061C1058.56 27.1111 1058.48 27.5113 1058.33 27.8898C1055.86 27.7838 1054.28 26.4234 1052.38 25.7639L1050.01 25.5283C1049.02 25.1043 1048.02 24.1091 1047.15 23.638C1045.09 22.5014 1042.85 22.0951 1040.97 20.7996C1040.21 20.2696 1039.83 19.027 1039.07 18.4381C1039.12 16.5654 1039.11 13.4797 1038.36 11.819C1037.7 10.3468 1036.12 9.24556 1035.27 7.79689H1030.51C1029.42 8.29744 1029.03 10.1053 1028.37 11.1123C1026.37 14.151 1023.82 17.2662 1021.94 20.3284C1021.79 21.0351 1021.64 21.7418 1021.47 22.4543C1020.51 23.7381 1019.03 24.115 1017.67 25.0513C1017.22 25.3693 1017.13 26.1349 1016.72 26.4764C1015.69 27.3303 1014.49 27.8132 1013.39 28.5964L1011.72 30.2571C1010.58 31.0109 1009.11 30.9108 1007.91 31.6704V32.1416C1006.43 33.1191 1004.9 33.5313 1003.4 34.5089C1002.69 34.9682 1002.03 36.0164 1001.26 36.3992C1000.12 36.9704 999.119 37.0529 998.163 37.8126C997.147 38.6252 994.361 41.1516 993.883 42.3058V44.4317C993.576 45.633 993.511 47.0758 992.703 48.2123C992.644 51.41 992.939 51.2274 994.125 52.9411C996.032 52.8999 999.379 53.2944 1001.03 52.7056C1003.54 51.8046 1005.23 49.2134 1007.21 47.7412C1008.78 46.5693 1010.52 45.7213 1011.72 44.202H1013.15C1013.56 44.4317 1013.16 44.944 1013.39 45.3798C1014.12 46.7696 1016.38 48.1947 1016.72 49.1604C1017.57 50.7504 1015.71 57.7641 1016 60.0313C1016.22 61.6979 1015.06 62.4458 1016 63.5764C1016.02 65.8378 1015.41 65.8319 1014.81 67.1157C1013.38 67.2629 1011.11 67.7222 1010.06 66.886C1006.53 66.8448 1006.63 68.4996 1004.83 69.96V72.3156C1005.31 73.4168 1010.75 77.804 1011.97 78.2339C1013.24 78.6756 1018.5 77.7039 1019.1 77.2858C1020.87 77.2328 1022.53 77.1327 1023.38 77.9924C1025.79 80.9958 1024.7 84.5821 1024.81 88.8633C1024.84 90.4533 1025.91 91.4191 1025.52 93.121C1025.44 93.439 1024.85 94.3164 1024.81 94.5343C1024.51 95.6768 1025.34 96.2303 1025.52 96.9017C1025.87 98.2208 1025.04 98.8921 1024.81 99.5046C1024.12 101.254 1024.8 102.826 1023.38 103.75C1021.04 105.293 1018.4 103.839 1015.06 104.463C1014.47 104.575 1013.54 105.317 1012.44 104.934C1011.63 104.657 1011.08 104.269 1009.58 104.227C1008.51 105.423 1006.19 106.006 1005.31 107.301C1004.56 108.397 1004.94 109.598 1003.88 110.375C1003.92 114.127 1007.64 115.946 1010.53 116.995C1011.43 117.313 1012.36 118.378 1013.86 117.937C1016.47 117.171 1019.33 115.581 1021.71 114.627L1024.81 114.15C1025.56 113.838 1026.27 112.808 1026.94 112.501L1029.32 112.266C1029.81 112.101 1030.61 111.471 1031.22 111.324C1033.13 110.852 1034.49 111.889 1035.74 112.03L1043.59 111.082C1047.96 110.682 1051.09 112.69 1055.01 111.318C1056.83 110.676 1057.2 108.785 1058.57 107.773V104.934C1057.88 103.427 1052.89 99.8461 1049.78 100.682C1047.49 101.295 1045.31 101.966 1042.88 101.389C1040.54 100.841 1038.71 102.019 1037.41 100.918C1035.93 100.282 1036.34 98.4151 1035.98 96.6661C1035.8 95.8299 1036.6 94.8406 1036.45 93.8277C1036.39 93.4449 1035.83 92.5086 1035.74 92.1729V80.3598C1035.98 79.4411 1036.55 78.6108 1036.93 77.7569C1038.91 76.9796 1041.03 77.7333 1042.88 77.5213C1045.13 77.2563 1046.59 76.5261 1049.3 76.5791C1050.26 75.5898 1051.91 74.9184 1052.63 73.7348C1053.35 72.557 1053.03 70.9611 1053.82 69.96C1053.6 62.8109 1037.47 66.6504 1030.98 65.2312C1029.43 64.8897 1027.36 65.7023 1026.47 65.2312H1025.52C1025.23 64.024 1024.12 61.7744 1024.81 60.7439C1025.05 60.2021 1025.21 60.2316 1025.52 59.7958C1031.66 60.1373 1039.33 62.2161 1044.54 60.2669C1046.19 59.6544 1046.8 58.0998 1048.1 57.1929C1048.09 55.5322 1047.67 53.9717 1046.92 52.9411C1045.32 50.6444 1040.95 51.6043 1038.12 52.2344H1032.89C1032.06 52.5289 1030.84 53.8303 1030.04 54.1189C1028.21 54.2013 1026.39 54.2838 1024.57 54.3544C1024.6 53.106 1025.14 52.8881 1025.27 52.2344C1025.51 51.1568 1024.49 50.8918 1024.8 50.1086C1025.16 48.6776 1026.25 48.4832 1026.7 47.2701C1029.76 47.1229 1033.61 46.6753 1036.22 46.0923H1042.64C1044.56 45.4446 1045.89 43.1184 1047.63 42.3058C1050.24 41.0927 1054.77 41.022 1057.15 42.5413C1057.79 42.9594 1058.2 43.9252 1059.05 44.202C1060.64 44.7143 1062 44.0724 1063.09 44.9087C1063.97 45.7331 1063.13 47.0876 1063.57 48.4479C1063.63 48.6776 1064.23 49.0603 1064.28 49.1604C1065.08 50.6327 1064.08 52.5996 1064.75 54.3603C1064.81 54.4958 1065.4 55.0729 1065.47 55.3026C1065.66 55.968 1065.29 56.8984 1065.23 57.1929C1064.77 59.3541 1064.2 67.1157 1064.76 69.4889C1065.13 71.1142 1065.23 74.4473 1064.76 75.8666C1065.47 79.1467 1064.67 83.9932 1063.81 86.7374C1063.72 88.3863 1063.64 90.047 1063.57 91.7018C1063.42 92.1964 1062.77 92.7029 1062.61 93.121L1062.38 97.8498C1061.5 100.029 1061.49 99.0629 1061.91 101.63C1061.66 102.649 1061.43 103.68 1061.19 104.704C1061.68 106.548 1063.27 107.425 1064.28 108.721C1064.67 109.227 1064.38 110.046 1064.75 110.605C1065.32 111.471 1066.29 112.389 1066.66 113.444L1068.79 114.15C1069.35 113.72 1070.03 113.85 1070.71 113.444C1071.4 113.031 1071.71 111.783 1072.36 111.324C1073.36 110.617 1078.67 108.744 1079.98 108.479C1081.39 108.191 1081.91 109.151 1082.59 109.421H1087.59C1089.31 109.81 1094.42 111.176 1095.67 110.605C1100.28 110.664 1101.28 106.365 1103.52 103.992C1104.22 103.244 1105.61 102.755 1106.13 101.866C1106.72 100.883 1106.2 99.4515 1106.13 98.3209C1104.17 96.4011 1105.1 96.6661 1102.09 95.4824C1101.91 95.4118 1101.13 94.764 1100.9 94.7758C1100.07 94.7993 1098.85 95.4942 1097.81 95.2469C1096.6 94.9642 1093.29 94.1751 1091.39 94.7758C1091.18 94.8347 1090.65 95.4118 1090.44 95.4824C1087.89 96.4011 1085.66 95.7298 1082.59 95.718C1081.27 95.718 1078.96 96.0242 1078.07 95.4824L1077.36 95.2469C1077.42 92.8442 1078 90.1236 1078.55 88.8633C1078.8 87.3558 1079.91 87.45 1080.92 86.7374C1081.88 86.072 1082.68 84.6646 1083.78 84.1404C1084.97 83.5692 1085.7 83.8578 1086.63 83.1923C1087.59 82.5033 1088.15 80.9251 1089.25 80.3598C1090.13 79.9122 1090.75 80.2008 1091.39 79.6472C1094.47 80.719 1094.81 85.33 1097.34 86.973L1099.47 87.6797L1100.43 89.1048C1102.5 91.1659 1104.53 93.6981 1106.13 96.1891C1107.15 97.7673 1107.58 99.5104 1108.75 100.918C1109.84 102.231 1112.47 101.413 1113.98 102.337L1115.41 103.75C1116.89 104.563 1118.38 104.71 1119.69 105.647C1120.41 106.159 1120.94 107.16 1121.83 107.537L1124.69 107.773C1127.3 108.621 1128.14 109.486 1131.58 109.421C1133.36 107.525 1135.88 107.284 1138.24 105.882C1140.32 104.657 1141.5 101.636 1143.23 99.9757C1143.26 97.5553 1143 96.3893 1142.28 95.0113C1140.04 94.5932 1137.72 96.4777 1135.15 95.4824ZM1260 23.8736H1263.09C1264.24 24.1974 1265.16 25.3576 1266.42 25.5224C1268.47 25.8051 1270.92 24.7039 1272.36 24.3447C1273.89 23.9619 1274.68 24.804 1276.4 24.3447C1277.64 24.0149 1279.59 23.2729 1281.15 23.1669L1283.3 23.638L1293.53 23.4024C1294.24 23.5556 1299.18 24.433 1299.47 24.3447C1301.59 23.7204 1304.02 22.2188 1305.65 21.0351C1305.81 20.6229 1305.7 20.7996 1305.89 20.564C1305.89 18.3086 1302.86 14.9931 1301.37 14.4219L1298.52 14.1863C1297.75 13.833 1296.76 12.8083 1295.9 12.5257C1294.56 12.084 1292.76 12.3078 1291.62 12.0546C1287.43 11.1182 1282.81 13.3678 1279.26 12.5257C1277.75 12.1723 1276.43 11.3067 1274.98 10.8768H1271.41C1268.66 10.865 1266.83 10.4057 1264.51 10.8768C1261.57 11.4657 1257.56 9.95222 1255 9.92867C1254.49 10.5647 1253.68 10.5647 1253.1 11.1064C1251.31 12.7907 1249.51 14.4631 1247.39 15.8352C1247.37 17.4782 1247.41 19.1036 1248.1 20.087C1248.44 25.1986 1255.38 22.8548 1260 23.8736ZM601.268 83.9049C600.396 83.9776 599.524 84.0561 598.653 84.1404C598.275 84.0109 597.839 83.3219 597.467 83.1923H595.088C594.108 82.9097 593.258 82.5328 591.995 82.2501C589.604 81.7024 586.718 84.5291 583.436 83.6634C581.813 83.2453 578.342 83.793 576.536 83.1923C576.329 83.1276 575.792 82.5504 575.591 82.4857C573.384 81.779 570.397 82.8508 568.921 83.1923L566.307 82.9568C563.798 83.4161 561.661 83.5398 559.412 84.1346L550.139 84.6116C547.619 85.4124 541.344 85.8777 539.202 85.3182C537.189 84.8 536.274 86.0838 534.68 85.5538C532.732 84.9178 532.284 82.9273 530.637 82.0087C530.572 77.5508 532.467 76.1846 535.636 74.6888L537.537 74.4473C538.222 74.1117 539.343 73.0693 540.152 72.7984C541.262 72.716 542.371 72.6336 543.481 72.5629C543.717 72.3156 543.953 72.0918 544.189 71.8503H545.866C546.415 71.6913 547.147 71.0553 547.518 70.9081L555.369 70.6608L556.089 69.96C558.131 69.2651 560.805 70.1956 562.505 69.96C563.745 69.7833 567.151 69.4771 568.449 69.7244C569.051 69.8363 569.671 70.5136 570.114 70.6667L577.256 70.9022C580.408 70.9022 582.592 71.2497 585.337 71.8444C586.606 71.7738 587.875 71.6913 589.138 71.6089C590.413 71.8621 592.325 72.9633 593.417 72.7926C594.025 72.6983 594.645 71.9917 595.088 71.8503L598.175 71.6148C599.32 71.0023 599.722 69.7009 600.554 68.7763C600.554 65.4138 599.255 62.5106 596.752 61.692H592.231C590.744 61.3151 588.595 60.5201 587.237 60.0372H582.958C582.191 59.8547 581.093 59.2776 580.579 59.0891H576.536C576.182 58.9831 575.403 58.247 575.107 58.1469C574.139 57.7936 570.108 59.0773 568.927 59.3247C567.127 59.7016 564.146 59.0832 562.505 58.8536C561.856 58.7593 561.053 59.2246 560.605 59.3247C558.922 59.6957 556.39 59.1774 554.897 58.8536C553.327 58.512 551.845 59.3011 550.853 59.5602C549.484 59.9136 548.026 59.254 547.288 59.0891C546.102 58.8182 544.821 59.5897 543.953 59.7958C542.318 60.1786 537.295 60.1491 536.345 59.5602C532.585 59.5308 533.057 57.0044 530.637 56.0151C530.59 50.4266 533.901 48.654 538.015 47.2701L543.009 47.0346C543.493 46.8814 543.941 46.2396 544.425 46.0923H548.711C549.354 45.9098 550.393 45.3268 551.09 45.1442H562.263C563.338 45.1442 565.173 44.8321 565.834 44.9087C566.956 45.0264 568.154 45.8332 569.164 46.0864L578.442 45.8509C579.995 46.216 582.279 45.9392 583.672 46.0864C584.369 46.1571 585.101 46.8756 585.573 47.0287H588.902C589.604 47.2053 590.519 47.8119 591.045 47.9768C593.713 48.8424 602.212 47.5822 603.405 46.799C604.55 46.0393 604.821 44.6378 605.789 43.725C605.819 41.0161 605.117 40.6804 604.119 39.2318C603.039 37.6594 602.077 36.7702 600.082 36.1696H598.417L597.467 35.2156C595.696 34.5619 590.844 35.4334 589.616 35.6867C588.318 35.9576 586.405 35.404 585.337 35.2156L582.958 35.4511C578.767 34.5913 575.934 33.2428 570.828 33.3311C570.306 32.7237 569.657 32.2373 568.927 31.906C569.01 30.952 569.134 30.7282 569.636 30.2571V27.1831C569.895 26.606 574.547 22.4426 575.344 21.7418C575.119 17.4311 568.396 15.6527 566.313 12.5257H563.934C563.304 13.3385 562.489 13.9888 561.555 14.4219H559.89L559.654 15.1286C559.088 15.6821 558.297 15.9707 557.754 16.5419C556.549 18.1496 558.155 20.2931 557.518 22.4543C557.211 23.4554 555.965 24.9218 555.611 25.9994V28.5964C555.174 30.0039 553.722 31.6646 552.276 32.1416C550.794 33.0838 547.548 31.9354 545.866 32.6127C544.083 33.3311 535.111 36.1813 531.593 35.2156C530.165 34.8269 526.582 33.6079 524.451 34.2733C522.963 34.7386 522.06 36.4993 520.892 37.3473C520.384 37.7066 519.729 37.6477 519.221 38.054C518.826 38.372 518.625 39.0728 518.277 39.4673C517.864 39.9443 517.037 40.1858 516.612 40.651L516.37 41.5932C515.615 42.4177 514.399 43.0654 513.755 43.9664L513.519 44.9087L512.811 45.1442C512.256 45.9451 512.415 47.0463 511.855 47.7412C512.073 50.6739 514.7 51.7103 515.656 53.8892C516.783 56.4509 516.541 59.5838 517.557 62.3928C517.928 63.4233 519.133 64.819 519.469 65.9438C520.154 68.3111 518.466 72.2272 518.749 73.2637C518.908 73.8408 519.794 75.0009 519.935 75.6251L519.699 78.2339C519.855 81.7389 519.457 85.2465 518.519 88.6278C518.43 89.6466 518.353 90.6771 518.277 91.7018C517.143 94.4754 515.314 99.1689 516.612 103.521C516.76 104.021 521.069 110.423 521.37 110.605C522.426 111.276 523.524 111.506 524.457 112.266C527.544 112.23 527.65 110.729 528.736 108.721L530.637 106.824C531.369 105.234 530.383 103.862 531.593 102.573C532.467 101.642 535.329 100.317 536.823 99.9816C538.086 99.8932 539.361 99.8167 540.624 99.7342C541.746 99.269 542.926 98.3798 544.195 98.0794C546.332 97.5671 548.504 98.8332 550.611 98.3209C551.202 98.1795 551.839 97.5259 552.276 97.3728H559.89C561.283 97.0548 563.22 97.4081 564.648 97.3728L568.927 96.9017C570.456 97.255 573.059 97.7438 574.399 98.0794C577.15 98.7684 579.983 97.785 581.766 98.0794C582.775 98.2443 583.477 99.0217 584.386 99.2631H586.759C592.733 100.912 598.11 102.007 603.647 99.2631C603.901 98.2031 604.562 97.4788 604.839 96.6661V94.7817C605.158 94.0514 606.38 93.3448 606.74 92.6499C607.324 91.4898 607.253 89.9174 608.162 89.1048C608.186 85.5302 604.455 84.5762 601.268 83.9049ZM514.227 18.4322C513.779 15.9824 508.502 13.8624 505.196 13.9508C503.803 14.8106 502.989 13.833 501.867 14.4219C500.764 14.9872 499.831 16.43 498.774 17.013C498.149 17.3663 497.452 17.1426 496.874 17.49C495.02 18.5912 493.657 20.5934 491.874 21.7418C490.753 22.4779 489.572 22.26 488.309 22.9254L488.545 23.3966C487.659 24.1892 486.705 24.9026 485.694 25.5283C484.72 26.0701 484.171 25.9994 483.079 26.4706C482.696 26.6354 482.276 27.2597 481.887 27.4128L479.986 27.6542C479.118 28.0841 478.109 29.1264 477.135 29.5446C475.683 30.157 474.455 29.9038 472.856 30.4868C471.067 31.1346 469.226 32.7422 467.62 33.3252H464.291C463.488 33.6138 462.461 34.6443 461.676 34.98C459.982 35.7043 455.531 35.8044 454.304 36.6289C453.135 37.1648 450.508 42.3234 450.024 43.725L449.788 46.0864C449.198 47.1994 447.781 48.1004 447.167 49.1604C446.483 50.3382 446.831 52.2109 446.931 53.4181C448.472 54.8138 449.493 57.2223 451.211 58.3824C451.736 58.7358 452.415 58.7181 452.875 59.0891C455.289 58.6946 458.016 56.8513 459.775 55.544L462.626 52.47C465.011 50.7504 467.573 49.025 469.999 47.5057C471.085 46.8226 472.419 46.9344 473.564 46.3279C474.815 45.6624 479.396 42.029 481.651 43.4894H485.694C486.945 44.0312 487.612 45.845 488.787 46.5634C488.876 48.8601 488.964 52.523 489.731 54.5959C490.457 56.5392 489.537 60.8793 489.973 62.8698L489.737 70.9022C489.619 71.2261 489.064 71.2497 489.265 72.0859C490.068 75.5309 489.354 79.2114 489.737 83.4338C489.861 84.8 490.032 87.0319 489.737 88.3922V96.1891C489.619 96.6602 489 98.0853 489.029 98.5564C489.059 99.2396 489.36 99.8697 489.265 100.441C489.183 102.961 489.1 105.494 489.029 108.008C490.139 110.605 492.618 115.069 495.445 115.805C497.393 116.588 499.306 113.073 500.203 111.789L501.153 111.318C502.753 108.573 500.179 105.929 500.439 103.044C500.722 99.852 501.974 93.916 501.153 89.3403C500.468 85.5008 499.418 80.2597 499.016 75.3954C498.763 72.3568 499.418 69.6008 498.78 66.6504C497.712 61.745 500.008 56.6393 499.016 52.2344C498.739 51.0272 498.58 49.0132 498.296 47.7412V44.6731C498.001 43.6013 496.85 41.7876 497.11 40.1799C497.192 39.6499 497.913 38.8078 498.06 38.2896L498.296 34.98C499.3 33.3252 503.591 30.1099 505.433 29.309L507.333 29.0734C509.204 27.772 510.757 25.6697 513.041 24.8158C513.348 23.2847 513.318 19.8868 514.227 18.4322ZM1194.12 33.0956H1196.03L1196.26 33.8022H1198.64C1201.01 34.0142 1204.25 33.7846 1205.53 34.7444C1209.61 34.7091 1209.49 32.4478 1211.96 31.1993C1213.02 30.6634 1213.91 30.8578 1214.81 30.2571C1215.53 29.5446 1216.24 28.832 1216.96 28.1253C1217.74 27.6778 1218.57 27.9074 1219.33 27.4187C1219.89 27.0594 1220.24 25.9523 1220.76 25.5283C1221.75 24.698 1223.18 24.5272 1224.09 23.638C1224.88 22.8607 1225.13 21.5003 1225.99 20.7996C1226.01 19.9751 1226.07 18.9092 1225.75 18.4381C1225.3 17.1426 1223.71 16.7362 1221.94 16.7833C1220.78 17.5489 1219.03 16.748 1217.42 17.2544C1217.25 17.3133 1216.67 17.914 1216.48 17.9611L1213.39 17.7256C1211.24 18.2909 1208.53 19.4274 1206.01 18.9033C1203.08 18.3027 1201.05 19.6512 1199.35 18.1967C1197.75 18.2673 1190.74 23.7793 1190.32 25.0513C1190 25.5048 1189.99 26.5 1190.32 26.9476C1190.36 28.6436 1193.05 32.6244 1194.12 33.0956ZM1331.34 38.9962C1329.68 35.8987 1325.09 38.8549 1321.59 38.054C1319.37 37.5417 1309.43 37.63 1306.36 38.2896C1305.21 38.5369 1303.35 38.2307 1302.56 38.054L1294.24 37.8184C1293.61 37.5829 1292.94 37.1707 1291.86 37.1059C1289.49 38.7371 1285.17 37.524 1281.87 38.2837C1280.91 38.5192 1278.21 40.2859 1276.4 39.9443C1274.34 39.5498 1267.62 38.0599 1264.76 39.0021C1264.22 39.167 1263.32 39.7853 1262.61 39.9443C1261.52 40.1917 1260.5 39.4556 1259.76 39.4732C1259 39.485 1256.08 39.6617 1255 39.9443C1254.25 40.1387 1252.82 41.0514 1251.91 40.8866C1251.35 40.7864 1250.49 39.9797 1249.77 39.9443C1248.72 39.8854 1247.63 41.2988 1246.68 41.5991C1245.13 42.082 1243.78 41.128 1242.64 40.8924C1241.34 42.0761 1239.18 42.5708 1238.59 44.4317C1238.34 45.2326 1238.99 46.0806 1238.59 47.2701C1238.3 48.1358 1237.85 48.7129 1237.88 50.3441C1238.68 51.1332 1239.06 52.5466 1240.02 53.1826C1240.86 53.7302 1241.65 53.3474 1242.87 53.6537C1243.52 53.8127 1244.33 54.4663 1244.78 54.5959C1246.97 55.2554 1248.98 52.5407 1250.01 51.993L1252.14 51.7574C1252.48 51.6691 1253.32 51.1273 1253.58 51.0508H1261.18C1264.39 51.0508 1266.73 50.9566 1269.04 51.5219C1270.37 51.8517 1272.64 51.0567 1274.5 51.0508C1275.11 51.6514 1275.95 52.47 1276.64 52.9411C1276.74 54.4722 1276.33 56.1447 1276.88 57.6758C1277.03 58.0762 1277.69 58.6003 1277.83 59.0891V86.2663L1277.59 94.3047V98.792C1277.2 100.382 1276.99 101.33 1277.36 103.044C1277.98 105.929 1276.3 108.409 1276.89 111.553C1277.28 113.685 1277.49 116.618 1278.07 119.115C1278.47 120.858 1277.94 123.207 1278.77 124.55C1278.98 126.299 1280.1 126.558 1280.92 127.624H1283.77C1284.93 126.458 1286.78 125.304 1287.82 124.079C1288.41 123.372 1288.54 122.524 1289.24 121.959C1290.02 121.329 1291.41 120.469 1291.86 119.592C1293.69 115.999 1293.81 109.416 1292.81 105.647C1292.35 103.904 1293.27 102.455 1293.53 101.389C1293.87 99.9168 1293.04 97.2079 1292.81 95.718V78.228C1292.03 74.9538 1292.59 71.6324 1292.58 67.5927C1292.56 64.3714 1292.16 60.5201 1292.81 57.6758C1293.09 56.4509 1292.5 54.7667 1293.05 53.8892C1294.36 51.0213 1298.46 51.993 1302.08 51.993C1304.33 51.993 1308.29 51.3393 1310.41 51.993C1312.77 52.7291 1313.38 53.6242 1316.35 52.9411C1318.06 52.5524 1320.21 53.3828 1321.59 52.7056L1322.3 51.7633C1323.04 51.2746 1323.91 51.3217 1324.68 50.8211C1325.84 50.0556 1326.21 48.389 1327.05 47.2701C1327.52 46.6577 1328.5 46.2396 1328.96 45.6153C1329.88 44.3787 1330.29 43.1714 1331.58 42.3058C1331.61 41.287 1331.76 39.6263 1331.34 38.9962ZM1226.7 58.618C1226.64 58.4296 1226.05 57.8583 1225.99 57.6758V53.1767C1225.83 52.7056 1225.16 51.3511 1224.8 50.8093C1224.1 49.7788 1220.28 46.2749 1219.09 45.845C1217.89 45.421 1217.15 46.2572 1216.23 46.3161C1212.71 46.5693 1210.28 46.3161 1206.73 46.3161H1202.92L1202.21 45.6094L1196.74 45.3739C1195.74 45.0206 1195.23 44.2373 1193.88 43.9606C1190.64 47.17 1185.12 47.7883 1180.8 49.8671C1180.62 54.4958 1181.96 59.0126 1185.8 60.2669C1189.34 62.5577 1195.41 59.5131 1198.88 58.6121L1208.39 58.8477C1211.05 58.8477 1214.37 57.6346 1216 59.0832C1216.54 59.3306 1216.52 59.4837 1216.95 59.7899C1216.99 61.9276 1217.58 64.2654 1216.71 66.1734C1216.48 66.3266 1216.23 66.4856 1216.01 66.6446C1215.39 67.6751 1215.5 68.8117 1214.81 69.7127C1213.37 71.6089 1211.2 72.9633 1209.58 74.6829C1208.98 75.3189 1208.65 76.3023 1207.91 76.8029C1206.17 78.0042 1202.03 79.3292 1199.84 79.8828H1197.45C1194.83 80.5188 1191.2 81.1194 1188.41 81.7672C1186.41 82.2383 1184.92 81.6436 1183.42 82.4739C1183.04 82.6918 1178.12 86.8906 1177.95 87.2027C1176.63 89.6583 1176.87 94.5343 1175.1 96.4247C1175.1 100.341 1176.19 100.341 1177.01 102.802C1178.6 103.167 1180.47 103.886 1182.24 102.802C1183.07 102.29 1183.33 101.024 1184.37 100.676H1186.75C1189.14 99.9403 1191.74 98.0971 1194.12 97.1313C1197.42 95.8004 1200.64 94.3223 1203.4 92.4026L1203.63 91.6959L1205.06 91.4603C1206.64 90.5004 1208.08 88.828 1209.58 87.9152C1210.1 87.5972 1210.58 87.8033 1211.01 87.4441C1211.38 87.132 1211.6 86.3076 1211.96 86.0308C1212.35 85.9424 1212.75 85.8718 1213.14 85.7893C1214.17 85.1062 1215.23 83.8813 1216.23 83.1864C1216.94 82.7153 1217.87 82.6211 1218.38 82.0028C1219 81.2608 1219.02 80.5188 1219.57 79.6413C1221.12 77.1739 1223.81 75.1363 1225.04 72.3156L1225.28 70.4311C1226.49 67.6044 1227.54 65.1606 1226.46 61.2091C1226.54 60.3434 1226.62 59.4719 1226.7 58.6121" fill="#017A55"/>
<path fill-rule="evenodd" clip-rule="evenodd" d="M737.531 52.2344C736.262 53.9893 733.694 52.8409 731.587 53.1766C729.875 53.4534 728.813 54.8726 727.065 55.3084H723.264C722.213 55.5793 720.331 55.9503 718.985 56.2506C717.999 56.4744 716.813 56.0916 716.122 56.4862H715.65C715.496 56.8984 715.614 56.7217 715.414 56.9573C715.532 57.7052 715.65 57.8465 715.898 58.3765L719.693 59.5602C722.137 60.7203 724.698 59.7486 728.022 60.5024C733.688 61.7979 743.764 62.5635 745.139 57.1928C745.612 55.9915 743.51 53.206 742.766 52.2344H737.531ZM360.605 107.06C358.893 107.655 357.595 108.085 355.847 108.479C354.702 108.744 352.831 108.42 352.046 108.244C348.977 107.59 343.688 108.149 341.339 108.715C339.226 109.233 336.386 107.348 333.736 108.244L333.022 108.95L330.165 109.427C329.445 109.775 328.135 110.805 327.314 111.082C323.383 112.389 317.728 109.274 315.662 111.082C313.95 111.111 313.248 110.947 312.333 110.375C312.451 108.673 313.407 108.179 313.998 107.066C314.647 105.823 314.488 103.462 315.184 102.337C315.509 101.819 316.642 101.389 317.085 100.924C318.442 99.4868 318.915 97.4905 320.656 96.4305C322.858 95.0878 328.081 94.9524 330.885 94.3046L333.494 94.5343C336.965 94.5343 343.115 94.7816 345.152 93.1209C346.94 93.2152 347.507 93.8394 349.667 93.8276C352.418 93.8158 357.624 93.0032 359.655 94.2987C360.481 94.8287 360.528 95.8239 361.083 96.6602L363.934 99.5045C363.869 102.779 361.957 104.928 360.605 107.06ZM376.778 85.5478C376.471 85.3299 376.336 84.5644 376.064 84.3818C375.432 84.2935 374.795 84.2169 374.163 84.1345C372.788 83.5809 371.726 81.985 370.356 81.5434L362.742 81.773C358.445 80.7955 354.761 81.8202 350.618 81.0664L346.816 81.3019C346.144 81.0958 345.754 80.6659 344.674 80.5953C342.136 82.4149 336.209 80.6483 332.786 81.5375C332.166 81.6965 330.484 82.0734 329.693 82.25H322.799C322.356 82.3443 321.228 82.6564 320.42 82.4856C319.416 82.2736 316.855 82.7212 315.662 82.25C315.096 82.0263 314.47 81.1194 313.047 81.5434C312.823 81.6023 312.126 82.1735 311.855 82.25C310.592 82.3207 309.317 82.4032 308.048 82.4856C307.316 82.7683 305.952 83.7812 305.203 84.1345L303.768 84.3818C302.966 85.059 302.564 86.1249 301.632 86.7374C301.643 89.776 302.458 89.4522 303.054 91.2306C303.479 92.4732 302.665 92.6439 303.29 93.8276L304.488 94.7757C305.274 96.4482 303.29 98.9333 304.01 101.389C304.382 102.673 304.878 107.984 304.246 108.95C303.821 110.664 302.452 110.422 301.632 111.553C301.024 112.401 301.165 113.155 300.681 114.15H300.445C300.079 114.721 297.081 119.485 296.874 119.591C296.892 123.042 298.964 124.621 300.445 126.682C303.851 127.441 307.357 126.617 310.432 125.969C311.725 125.692 312.734 126.499 313.998 125.969C315.178 125.48 316.595 124.344 317.805 123.849C318.159 123.937 321.819 123.26 322.799 122.895C323.17 122.76 323.607 122.082 323.985 121.953C325.484 121.446 327.58 122.406 328.737 122.188C329.775 121.994 331.098 121.458 331.835 121.246C334.433 120.481 338.263 120.899 340.63 120.298C342.165 119.909 343.9 121.14 345.624 120.775C346.315 120.628 347.206 120.934 347.531 121.011H351.338C353.333 121.494 356.267 121.547 357.99 121.953H360.369C361.585 122.247 363.733 123.137 365.363 122.66C366.773 122.247 372.298 119.733 373.213 118.879C373.809 118.102 373.272 117.277 373.449 116.523C373.609 115.828 374.429 115.31 374.642 114.627C375.279 112.542 374.754 110.34 375.586 108.479C376.223 107.066 377.906 105.658 378.443 104.227C379.027 102.673 378.614 101.695 379.387 100.447C380.131 99.2689 381.193 98.8744 381.772 97.1372C382.244 95.7062 382.628 90.5828 382.244 90.0469C382.026 88.08 378.207 86.6314 376.778 85.5478ZM747.046 85.3182H745.139C743.9 86.437 741.078 86.437 739.432 87.2026C737.696 88.027 735.3 89.4168 733.488 90.0469C731.003 90.9126 728.677 91.0422 726.593 92.1728C726.623 92.7735 726.623 93.0562 726.829 93.3565C727.297 94.2741 728.048 95.0174 728.972 95.4765H731.351L732.295 96.4305C733.682 97.0842 734.774 96.8192 736.344 97.3727C736.728 97.514 737.159 98.1854 737.525 98.3149C738.894 98.8037 739.437 97.9145 740.624 98.3149C742.117 98.8332 744.655 100.676 746.326 99.2631C747.837 99.0982 748.026 98.3032 748.947 97.6083C748.746 94.6756 750.593 92.5085 750.611 89.3403C749.372 88.1978 747.914 86.8022 747.046 85.3182ZM1048.83 86.2663C1047.4 87.9152 1035.47 87.2379 1038.12 91.7017C1038.84 93.0797 1040.83 92.7499 1042.4 93.3565C1043.25 93.6804 1044.16 94.8994 1045.02 95.2409H1047.87C1052.02 95.8416 1054.39 93.6627 1056.43 91.4662C1056.1 89.6995 1055.09 88.4687 1054.29 87.2085C1052.68 86.5607 1051.33 86.2074 1048.83 86.2663ZM1015.06 96.189L1015.76 95.4824H1019.57L1023.37 92.8913C1023.39 89.882 1016.72 87.338 1013.4 87.4499C1012.04 88.6866 1010.05 88.8397 1008.39 89.8055C1007.26 90.4768 1006.74 91.843 1005.78 92.6498C1005.88 94.1044 1006.37 94.175 1006.73 95.2468C1008.14 95.5236 1013.74 96.6072 1015.06 96.189ZM686.88 99.9756C691.106 102.272 693.751 98.4563 695.911 97.3727C697.086 96.7956 698.125 97.0135 699.246 96.4305L699.955 95.4883C701.525 94.6638 704.382 94.4047 705.19 92.8913C705.468 92.2435 704.877 91.631 704.482 90.995C702.575 90.5652 699.831 90.4945 697.818 89.8114C695.25 88.9457 693.71 87.8739 689.731 87.921C688.621 88.7102 686.798 88.8044 685.93 89.8055C684.584 91.3778 684.023 93.539 682.601 95.0113C682.878 96.9664 683.628 96.6189 684.737 97.6024C685.481 98.2737 685.989 99.4868 686.88 99.9756ZM137.65 124.385H173.373V88.875H137.65V124.385ZM155.511 52.8527C125.62 52.8527 101.396 76.9383 101.396 106.63C101.396 136.334 125.62 160.413 155.511 160.413C185.397 160.413 209.621 136.328 209.621 106.63C209.621 76.9324 185.397 52.8527 155.511 52.8527Z" fill="#017A55"/>
<path fill-rule="evenodd" clip-rule="evenodd" d="M155.517 14.5693L155.505 14.5634V14.4869C155.505 9.29285 151.273 5.08819 146.049 5.08819H101.207V5.0293C45.2025 5.68296 0 51.0156 0 106.825C0 163.058 45.8636 208.644 102.446 208.644V208.526H146.002L146.026 208.496C151.22 208.496 155.435 204.345 155.482 199.192L155.517 199.157V159.942H101.207C72.2308 159.23 48.9684 135.692 48.9684 106.725C48.9684 77.6628 72.3961 54.0543 101.502 53.5007V53.383H155.511V14.5634L155.517 14.5693ZM245.84 152.475H1332.19V145.674H245.84V152.475Z" fill="#017A55"/>
</svg>
