<?xml version="1.0" encoding="UTF-8" standalone="no"?>
<!DOCTYPE svg PUBLIC "-//W3C//DTD SVG 1.1//EN" "http://www.w3.org/Graphics/SVG/1.1/DTD/svg11.dtd">
<svg xmlns="http://www.w3.org/2000/svg" version="1.1" viewBox="0.00 0.00 628.00 172.00">
<path fill="#018240" d="
  M 192.78 137.26
  L 192.72 113.01
  Q 192.72 112.50 193.24 112.50
  L 204.52 112.50
  Q 205.03 112.50 205.03 113.02
  L 205.02 128.81
  Q 205.01 131.22 206.31 129.19
  L 216.68 112.94
  Q 216.98 112.47 217.53 112.48
  L 232.52 112.50
  Q 233.17 112.51 232.79 113.03
  L 219.98 130.98
  A 1.73 1.72 -39.6 0 0 219.81 132.71
  L 233.67 163.39
  A 0.43 0.43 0.0 0 1 233.28 164.00
  L 219.73 163.99
  A 1.13 1.13 0.0 0 1 218.68 163.27
  L 211.32 144.50
  Q 210.84 143.27 210.07 144.34
  L 205.98 149.99
  A 5.08 5.07 -27.1 0 0 205.02 152.96
  L 205.02 163.49
  A 0.51 0.51 0.0 0 1 204.51 164.00
  L 193.61 163.98
  Q 193.03 163.98 192.76 163.47
  L 179.35 138.31
  Q 178.48 136.68 178.48 138.53
  L 178.52 163.49
  Q 178.52 164.00 178.01 164.00
  L 161.25 163.98
  A 0.93 0.92 -5.7 0 1 160.34 163.24
  L 159.00 156.28
  A 0.99 0.99 0.0 0 0 158.03 155.49
  L 146.45 155.49
  A 1.01 1.01 0.0 0 0 145.46 156.29
  L 143.96 163.51
  Q 143.87 163.95 143.42 163.96
  C 140.14 164.05 136.85 163.81 133.60 164.05
  Q 131.74 164.19 131.23 162.34
  Q 131.09 161.83 130.57 161.94
  C 117.19 164.93 106.02 164.05 89.76 163.98
  Q 75.74 163.91 69.80 163.03
  C 33.81 157.72 7.71 127.55 4.68 91.51
  C 1.18 49.99 29.39 11.79 71.28 6.16
  C 109.03 1.08 143.06 26.21 153.50 61.73
  C 158.50 78.77 157.70 96.05 152.32 111.73
  A 0.67 0.66 8.7 0 0 152.97 112.61
  L 158.65 112.44
  Q 159.14 112.42 159.27 112.89
  L 165.85 136.14
  Q 166.05 136.84 166.37 136.19
  Q 166.77 135.39 166.35 134.47
  A 1.60 1.57 -57.3 0 1 166.22 133.84
  L 166.21 113.15
  Q 166.21 112.51 166.85 112.51
  L 177.78 112.49
  A 1.04 1.03 75.3 0 1 178.71 113.04
  L 191.74 137.52
  Q 192.79 139.49 192.78 137.26
  Z
  M 80.1119 160.7190
  A 76.03 73.17 90.3 0 0 153.6790 85.0731
  A 76.03 73.17 90.3 0 0 80.9081 8.6610
  A 76.03 73.17 90.3 0 0 7.3410 84.3069
  A 76.03 73.17 90.3 0 0 80.1119 160.7190
  Z
  M 148.33 143.60
  A 0.32 0.32 0.0 0 0 148.64 143.99
  L 155.84 144.02
  A 0.32 0.32 0.0 0 0 156.15 143.63
  L 152.61 128.33
  A 0.32 0.32 0.0 0 0 151.98 128.33
  L 148.33 143.60
  Z"
/>
<path fill="#018240" d="
  M 74.58 12.97
  C 57.67 26.19 52.01 60.87 51.82 80.76
  Q 51.82 81.41 51.17 81.41
  L 33.85 81.41
  Q 33.34 81.41 33.38 80.90
  C 35.36 56.88 47.75 18.95 74.21 12.22
  Q 76.18 11.72 74.58 12.97
  Z"
/>
<path fill="#018240" d="
  M 63.60 14.75
  C 40.63 28.77 28.46 54.60 27.17 80.91
  Q 27.15 81.40 26.65 81.40
  L 10.82 81.43
  A 0.96 0.95 -87.8 0 1 9.87 80.40
  C 12.16 48.98 33.50 23.80 63.04 14.10
  Q 63.43 13.98 63.63 14.12
  Q 64.07 14.45 63.60 14.75
  Z"
/>
<path fill="#018240" d="
  M 68.93 26.69
  C 70.70 22.60 73.40 17.11 77.14 14.50
  Q 77.55 14.20 77.55 14.71
  L 77.51 80.81
  Q 77.51 81.38 76.94 81.38
  L 58.10 81.40
  Q 57.56 81.40 57.59 80.86
  C 58.64 62.01 61.36 44.14 68.93 26.69
  Z"
/>
<path fill="#018240" d="
  M 89.27 18.69
  A 0.94 0.93 -74.5 0 0 89.87 19.77
  C 93.13 20.92 97.67 22.87 96.01 27.44
  Q 94.54 31.48 89.99 31.11
  C 86.31 30.81 81.52 29.33 82.75 24.82
  Q 82.87 24.39 83.30 24.29
  C 88.39 23.07 86.91 28.21 90.85 27.16
  A 0.79 0.79 0.0 0 0 91.16 25.80
  C 88.26 23.31 83.35 23.16 84.35 17.82
  C 85.31 12.67 96.80 13.90 96.99 19.52
  Q 97.01 20.10 96.44 20.18
  Q 93.16 20.68 90.91 18.46
  Q 90.50 18.06 90.14 18.02
  Q 89.42 17.93 89.27 18.69
  Z"
/>
<path fill="#018240" d="
  M 406.78 29.21
  C 407.97 29.91 409.09 29.59 410.29 28.86
  Q 415.88 25.49 420.46 29.63
  C 423.43 32.32 422.09 35.91 418.01 36.08
  C 414.28 36.24 410.57 35.63 407.02 36.04
  C 402.60 36.56 397.96 36.71 393.87 38.27
  Q 391.39 39.21 388.26 40.59
  C 384.99 42.03 380.65 38.87 378.38 36.80
  A 0.73 0.73 0.0 0 0 377.38 36.82
  L 374.67 39.45
  Q 374.28 39.83 374.33 40.38
  C 374.50 42.28 374.97 43.97 374.85 45.85
  C 374.15 57.09 374.33 68.25 374.09 79.49
  C 374.04 81.97 372.88 87.67 369.51 87.36
  C 365.97 87.03 365.30 81.72 366.10 79.11
  C 369.37 68.51 368.79 58.13 368.23 47.29
  A 1.64 1.64 0.0 0 0 366.20 45.78
  Q 364.80 46.13 363.40 45.96
  Q 362.87 45.89 362.61 45.42
  Q 359.63 39.85 363.09 34.58
  C 366.43 29.46 370.48 24.90 372.02 18.79
  A 1.90 1.89 16.4 0 1 374.47 17.46
  Q 378.93 18.98 382.30 22.93
  C 385.19 26.32 384.48 28.67 383.26 32.08
  A 0.89 0.88 -86.4 0 0 384.28 33.25
  C 390.35 31.91 394.56 28.39 392.57 21.48
  C 392.20 20.23 391.27 19.11 390.63 17.84
  Q 390.41 17.42 390.65 17.00
  Q 391.92 14.70 393.85 14.68
  C 399.65 14.63 408.30 17.24 408.91 23.96
  C 409.08 25.81 407.99 27.06 406.69 28.17
  A 0.64 0.64 0.0 0 0 406.78 29.21
  Z"
/>
<path fill="#018240" d="
  M 590.89 22.34
  C 594.52 22.35 598.15 20.09 601.67 17.75
  Q 604.18 16.07 606.16 16.14
  C 609.76 16.25 614.12 19.21 613.67 23.21
  C 613.06 28.71 604.74 33.85 599.58 33.17
  C 595.03 32.56 589.66 29.36 589.19 24.20
  A 1.71 1.70 -2.7 0 1 590.89 22.34
  Z"
/>
<path fill="#018240" d="
  M 505.52 60.50
  A 1.53 1.46 -65.6 0 0 507.93 59.53
  L 509.36 51.20
  Q 509.73 49.02 511.82 49.75
  C 515.20 50.93 518.59 55.05 515.90 58.68
  Q 513.31 62.17 510.60 65.42
  A 0.54 0.53 -47.6 0 0 510.63 66.13
  Q 517.71 73.33 526.70 77.57
  Q 529.20 78.74 530.92 80.82
  A 1.31 1.31 0.0 0 1 529.76 82.96
  Q 524.12 82.30 518.50 84.74
  C 510.09 88.40 508.22 80.12 503.75 75.85
  Q 502.45 74.61 501.26 75.96
  Q 497.35 80.44 494.43 85.42
  Q 493.55 86.93 491.55 88.48
  Q 491.16 88.78 490.67 88.78
  C 486.12 88.78 481.60 84.58 483.99 79.79
  A 1.58 1.55 89.6 0 1 484.63 79.13
  Q 486.60 78.03 486.95 76.96
  C 490.78 65.38 487.92 52.03 487.95 40.04
  Q 487.96 37.39 485.32 37.17
  L 484.74 37.13
  Q 482.33 36.92 482.55 39.33
  Q 482.92 43.22 480.06 45.70
  A 1.04 1.04 0.0 0 0 480.77 47.52
  Q 483.30 47.43 485.48 48.31
  A 2.15 2.14 27.5 0 1 486.48 51.47
  L 483.12 56.61
  A 1.81 1.81 0.0 0 0 483.79 59.20
  L 485.48 60.10
  A 2.16 2.16 0.0 0 1 486.51 62.70
  C 485.61 65.34 483.20 66.13 481.45 68.05
  A 0.49 0.49 0.0 0 0 481.79 68.87
  Q 483.40 68.97 484.94 68.47
  Q 485.92 68.16 485.75 69.17
  C 485.18 72.80 473.44 81.78 470.14 84.20
  A 2.33 2.28 25.5 0 1 468.83 84.65
  C 465.35 84.74 459.33 82.71 458.78 78.54
  A 1.15 1.13 -9.8 0 1 459.68 77.28
  L 464.51 76.23
  A 1.38 1.38 0.0 0 0 465.31 74.03
  Q 462.98 71.02 463.35 67.09
  A 1.69 1.69 0.0 0 1 466.30 66.14
  L 468.79 68.99
  A 0.53 0.53 0.0 0 0 469.72 68.71
  L 469.86 67.62
  A 1.45 1.44 -75.1 0 0 468.98 66.09
  Q 464.53 64.28 461.36 60.71
  A 0.82 0.81 54.2 0 1 461.56 59.46
  L 468.41 55.47
  Q 470.00 54.55 468.86 53.12
  L 465.52 48.93
  Q 464.62 47.81 463.70 48.90
  C 460.77 52.36 458.73 58.35 455.10 60.80
  A 0.78 0.78 0.0 0 1 453.89 60.02
  Q 454.38 57.20 456.08 54.54
  C 460.87 47.03 464.04 38.79 467.67 30.70
  Q 468.60 28.61 469.41 26.03
  C 470.27 23.29 471.74 16.81 476.05 19.33
  C 479.81 21.53 480.75 23.93 480.49 28.07
  Q 480.45 28.62 480.98 28.77
  Q 483.85 29.63 486.30 31.38
  A 0.66 0.66 0.0 0 0 487.31 30.63
  L 486.19 27.39
  A 1.19 1.18 -16.8 0 1 487.02 25.85
  C 489.25 25.28 490.88 24.75 492.68 23.14
  C 496.48 19.74 501.47 14.21 505.65 17.10
  C 508.29 18.92 511.56 23.75 513.33 27.18
  A 1.52 1.52 0.0 0 1 513.16 28.83
  Q 511.81 30.48 510.18 32.47
  C 508.31 34.75 508.69 44.63 508.33 48.14
  C 507.93 51.98 506.49 53.50 504.47 56.73
  C 503.72 57.92 504.70 58.65 505.12 59.70
  Q 505.41 60.40 505.52 60.50
  Z
  M 498.27 37.66
  L 500.16 38.06
  Q 500.70 38.18 500.93 37.67
  Q 501.51 36.32 501.30 34.92
  A 1.58 1.57 -0.7 0 0 499.94 33.60
  Q 495.14 33.03 494.20 37.29
  A 0.99 0.98 86.5 0 0 495.49 38.44
  L 497.52 37.71
  Q 497.88 37.58 498.27 37.66
  Z
  M 470.63 41.46
  Q 473.24 38.16 476.96 36.19
  A 0.69 0.68 -27.7 0 0 477.25 35.27
  Q 476.87 34.57 476.20 34.01
  A 1.09 1.08 -51.9 0 0 474.65 34.20
  L 469.89 40.51
  Q 469.56 40.95 470.00 41.28
  L 470.32 41.51
  Q 470.49 41.64 470.63 41.46
  Z
  M 496.83 45.99
  L 493.85 46.17
  A 0.70 0.70 0.0 0 0 493.19 46.90
  L 493.39 51.32
  A 0.95 0.95 0.0 0 0 494.85 52.08
  C 497.23 50.57 501.74 47.34 501.02 44.08
  Q 500.64 42.36 499.47 43.67
  L 497.78 45.53
  Q 497.40 45.96 496.83 45.99
  Z
  M 478.6837 63.6860
  A 2.16 1.22 115.1 0 0 480.7048 62.2475
  A 2.16 1.22 115.1 0 0 480.5163 59.7740
  A 2.16 1.22 115.1 0 0 478.4952 61.2125
  A 2.16 1.22 115.1 0 0 478.6837 63.6860
  Z
  M 496.18 63.04
  A 1.27 1.27 0.0 0 0 493.83 63.60
  L 493.09 73.89
  A 1.27 1.27 0.0 0 0 495.17 74.96
  L 499.80 71.09
  A 1.27 1.27 0.0 0 0 500.07 69.46
  L 496.18 63.04
  Z"
/>
<path fill="#018240" d="
  M 578.08 36.51
  A 1.37 1.37 0.0 0 0 578.01 38.42
  C 580.12 40.77 583.14 44.28 580.79 47.53
  Q 578.76 50.34 576.73 53.10
  Q 576.42 53.51 576.53 54.02
  Q 577.08 56.54 576.75 59.04
  C 575.89 65.49 576.23 71.99 576.26 78.47
  Q 576.27 80.84 575.25 82.23
  C 570.32 88.98 565.81 82.42 566.58 77.23
  C 567.30 72.31 569.51 68.17 568.12 63.05
  A 1.01 1.01 0.0 0 0 566.41 62.62
  Q 564.01 65.19 560.45 64.76
  A 1.77 1.77 0.0 0 1 558.91 62.80
  C 559.38 58.83 560.54 56.48 563.40 53.41
  C 566.08 50.54 568.92 48.03 569.64 43.94
  A 0.92 0.90 24.8 0 0 569.31 43.08
  C 567.02 41.22 563.61 38.83 563.55 35.71
  C 563.48 32.70 568.37 27.43 570.22 24.93
  C 572.05 22.47 572.90 20.24 573.68 17.40
  Q 574.12 15.79 575.61 16.56
  C 579.53 18.59 584.58 23.13 585.25 28.03
  C 585.66 31.07 580.03 34.63 578.08 36.51
  Z"
/>
<path fill="#018240" d="
  M 104.75 31.06
  L 105.39 31.39
  A 2.16 2.15 -65.3 0 0 108.36 30.29
  L 111.42 22.82
  Q 112.11 21.15 113.77 21.86
  L 115.26 22.49
  Q 116.99 23.23 116.30 24.99
  C 113.49 32.14 110.96 40.44 101.07 33.93
  C 96.15 30.68 100.69 22.21 102.55 18.24
  Q 102.88 17.54 103.60 17.81
  L 107.02 19.10
  A 0.67 0.67 0.0 0 1 107.41 19.97
  L 103.91 28.82
  A 1.78 1.78 0.0 0 0 104.75 31.06
  Z"
/>
<path fill="#018240" d="
  M 305.16 66.02
  A 0.24 0.24 0.0 0 0 304.73 65.90
  C 302.83 68.23 301.39 71.01 299.30 72.95
  Q 294.59 77.33 289.43 80.74
  A 0.93 0.93 0.0 0 1 287.99 79.93
  Q 288.07 78.15 289.32 76.81
  C 292.12 73.81 295.42 71.32 297.57 67.76
  Q 298.16 66.80 297.46 66.27
  A 0.93 0.92 -46.6 0 0 296.30 66.31
  C 294.50 67.84 291.64 70.61 289.14 70.54
  A 0.76 0.76 0.0 0 1 288.57 69.32
  L 295.38 60.41
  A 0.70 0.70 0.0 0 0 294.99 59.30
  Q 292.37 58.64 290.33 56.90
  A 1.01 1.00 25.8 0 0 288.69 57.47
  L 287.74 62.41
  A 2.19 2.01 23.2 0 1 284.44 63.57
  C 282.68 62.40 281.75 60.85 280.39 59.33
  Q 279.98 58.87 279.79 59.46
  Q 278.97 61.94 279.09 64.50
  C 279.37 71.03 280.11 82.99 275.80 88.30
  A 1.57 1.56 42.2 0 1 273.47 88.41
  Q 271.30 86.21 270.31 83.20
  C 269.09 79.48 271.56 76.44 272.59 73.12
  Q 273.40 70.53 273.42 67.28
  Q 273.47 53.86 273.85 41.29
  Q 273.93 38.52 275.96 40.41
  L 278.02 42.34
  A 3.88 3.87 -60.0 0 1 279.08 46.31
  Q 278.07 49.60 279.43 52.59
  A 0.64 0.64 0.0 0 0 280.61 52.56
  Q 282.43 47.94 281.74 43.02
  A 1.95 1.93 -79.6 0 0 280.75 41.57
  C 276.22 39.08 272.37 36.58 270.51 31.31
  A 1.22 1.22 0.0 0 1 271.58 29.68
  C 279.16 29.18 282.33 15.04 290.74 21.05
  C 294.03 23.40 293.62 27.11 292.33 30.90
  C 290.07 37.55 286.53 43.99 288.39 51.27
  A 1.51 1.50 76.8 0 0 290.16 52.37
  L 304.86 49.30
  Q 306.00 49.06 306.41 47.96
  L 306.58 47.50
  A 0.58 0.58 0.0 0 0 305.96 46.73
  Q 303.08 47.11 300.80 48.90
  A 1.39 1.38 26.2 0 1 299.91 49.20
  C 294.93 49.08 296.70 37.01 296.89 34.17
  C 297.17 29.87 296.26 25.59 295.97 21.30
  A 1.37 1.37 0.0 0 1 298.21 20.14
  C 303.05 24.13 307.60 16.73 312.46 19.03
  Q 316.11 20.75 319.10 24.89
  A 1.69 1.69 0.0 0 1 318.89 27.11
  Q 315.46 30.32 315.39 35.43
  C 315.34 39.20 314.99 42.94 314.45 46.65
  A 0.62 0.62 0.0 0 0 315.15 47.35
  C 318.83 46.85 323.57 45.37 326.40 48.10
  C 328.00 49.65 326.85 51.69 324.97 52.42
  C 319.28 54.61 312.08 54.21 306.88 55.29
  Q 304.02 55.88 304.34 58.78
  L 304.39 59.30
  A 1.77 1.76 81.3 0 0 306.48 60.84
  Q 310.56 60.02 316.99 57.52
  C 322.79 55.26 328.26 62.49 329.43 67.34
  Q 329.56 67.85 329.24 68.27
  C 326.52 71.88 325.57 75.51 324.02 79.50
  Q 322.15 84.33 316.65 88.86
  C 309.14 95.04 305.38 89.13 301.02 83.72
  A 0.78 0.78 0.0 0 1 301.66 82.45
  C 304.59 82.56 307.11 82.16 308.95 79.54
  Q 313.56 73.01 315.96 65.84
  Q 316.71 63.62 314.37 63.57
  L 313.97 63.57
  Q 311.63 63.52 310.92 65.75
  Q 308.40 73.64 302.79 79.04
  C 299.17 82.52 296.02 86.26 291.71 88.95
  A 0.89 0.89 0.0 0 1 290.35 88.21
  Q 290.33 86.99 291.24 85.98
  Q 298.88 77.51 304.76 67.71
  Q 305.27 66.87 305.16 66.02
  Z
  M 307.49 25.09
  A 1.26 1.26 0.0 0 0 305.31 24.24
  L 302.63 27.10
  A 1.26 1.26 0.0 0 0 302.30 27.81
  L 302.08 29.65
  A 1.26 1.26 0.0 0 0 303.33 31.06
  L 306.26 31.06
  A 1.26 1.26 0.0 0 0 307.52 29.79
  L 307.49 25.09
  Z
  M 306.45 36.53
  L 301.50 39.41
  A 0.30 0.30 0.0 0 0 301.40 39.82
  L 301.55 40.08
  A 2.48 2.40 -30.2 0 0 304.90 40.91
  L 306.07 40.22
  A 2.48 2.40 -30.2 0 0 307.01 36.90
  L 306.86 36.64
  A 0.30 0.30 0.0 0 0 306.45 36.53
  Z"
/>
<path fill="#018240" d="
  M 118.97 36.99
  Q 118.88 35.36 117.88 36.64
  L 115.15 40.14
  Q 114.53 40.93 113.76 40.29
  L 111.70 38.62
  A 1.11 1.10 -51.1 0 1 111.54 37.07
  L 119.93 26.62
  Q 120.26 26.20 120.76 26.41
  C 125.51 28.36 123.17 32.87 123.08 36.38
  Q 123.02 38.38 124.20 36.77
  L 126.41 33.73
  Q 127.65 32.02 129.23 33.43
  L 130.08 34.18
  Q 131.42 35.38 130.28 36.77
  L 122.72 45.97
  A 1.58 1.57 -60.4 0 1 120.99 46.45
  C 116.90 44.99 119.14 39.91 118.97 36.99
  Z"
/>
<path fill="#018240" d="
  M 596.16 52.69
  A 0.96 0.95 -14.5 0 0 594.98 52.00
  C 592.27 52.77 590.22 54.35 587.42 52.04
  Q 583.96 49.19 583.09 44.56
  A 1.46 1.45 -15.6 0 1 584.01 42.94
  Q 592.46 39.77 601.43 37.39
  C 603.20 36.92 607.47 36.13 610.40 35.19
  Q 612.54 34.51 614.20 34.70
  C 618.83 35.21 624.17 38.15 621.71 43.48
  Q 621.12 44.78 619.73 45.17
  Q 615.22 46.44 610.73 47.76
  A 3.51 3.50 82.2 0 0 608.22 51.07
  C 608.08 60.51 609.15 69.79 609.27 79.22
  C 609.33 83.84 606.29 86.29 602.67 88.62
  Q 597.45 91.98 594.06 87.46
  Q 590.93 83.29 588.94 78.05
  A 0.76 0.75 -8.5 0 1 589.70 77.03
  C 592.26 77.22 596.93 77.99 596.97 74.01
  C 597.05 67.36 597.72 59.13 596.16 52.69
  Z"
/>
<path fill="#018240" d="
  M 387.96 42.44
  L 405.97 38.05
  A 2.63 2.63 0.0 0 1 408.58 38.88
  L 410.43 41.00
  A 2.63 2.63 0.0 0 1 409.37 45.19
  L 394.83 50.65
  A 2.63 2.63 0.0 0 1 392.55 50.45
  L 387.23 47.25
  A 2.63 2.63 0.0 0 1 387.96 42.44
  Z"
/>
<path fill="#018240" d="
  M 134.97 52.16
  L 140.35 48.95
  A 0.43 0.43 0.0 0 1 140.96 49.13
  L 142.74 52.72
  A 0.43 0.43 0.0 0 1 142.58 53.28
  L 130.00 60.90
  A 0.43 0.43 0.0 0 1 129.40 60.75
  L 127.43 57.33
  A 0.43 0.43 0.0 0 1 127.42 56.94
  L 130.87 49.61
  A 0.43 0.43 0.0 0 0 130.24 49.07
  L 125.34 52.35
  A 0.43 0.43 0.0 0 1 124.73 52.21
  L 122.68 48.71
  A 0.43 0.43 0.0 0 1 122.83 48.13
  L 135.32 40.52
  A 0.43 0.43 0.0 0 1 135.91 40.65
  L 138.08 43.99
  A 0.43 0.43 0.0 0 1 138.10 44.42
  L 134.37 51.59
  A 0.43 0.43 0.0 0 0 134.97 52.16
  Z"
/>
<path fill="#018240" d="
  M 399.68 50.64
  C 403.63 49.57 412.11 46.99 413.02 53.14
  C 414.20 61.15 396.82 61.55 392.23 61.54
  Q 387.48 61.53 385.43 57.26
  A 2.32 2.32 0.0 0 1 386.68 54.10
  C 390.85 52.47 395.69 51.72 399.68 50.64
  Z"
/>
<path fill="#018240" d="
  M 142.33 64.09
  Q 143.91 64.72 145.63 64.80
  Q 147.18 64.88 147.70 66.35
  L 148.63 69.02
  Q 149.25 70.77 147.45 70.31
  L 139.05 68.18
  Q 138.54 68.05 138.05 68.22
  L 133.29 69.80
  Q 132.10 70.19 131.71 69.00
  L 130.81 66.23
  Q 130.38 64.94 131.73 64.71
  C 137.69 63.69 139.21 59.48 142.06 55.67
  Q 143.50 53.73 144.20 56.05
  L 144.77 57.96
  Q 145.35 59.92 143.95 61.40
  L 142.16 63.32
  Q 141.68 63.83 142.33 64.09
  Z"
/>
<path fill="#018240" d="
  M 412.05 78.26
  C 413.33 80.50 415.48 81.03 414.92 84.25
  Q 414.61 86.02 412.76 86.13
  C 407.68 86.44 401.30 85.65 396.51 87.17
  C 394.53 87.80 392.51 88.83 390.49 88.07
  Q 387.03 86.77 384.71 82.78
  C 382.18 78.45 378.21 69.89 381.26 65.25
  C 382.76 62.97 386.76 65.16 388.92 65.41
  C 394.08 66.00 403.43 62.66 408.50 61.02
  Q 409.56 60.67 411.65 61.16
  C 415.79 62.13 418.80 65.75 419.96 69.72
  A 2.13 2.13 0.0 0 1 418.87 72.20
  C 416.89 73.19 413.15 75.21 412.04 77.31
  Q 411.79 77.79 412.05 78.26
  Z
  M 396.43 77.62
  A 1.23 1.23 0.0 0 0 397.00 77.19
  L 402.42 69.54
  A 1.23 1.23 0.0 0 0 400.73 67.81
  L 391.92 73.78
  A 1.23 1.23 0.0 0 0 391.38 74.81
  L 391.42 77.77
  A 1.23 1.23 0.0 0 0 393.09 78.90
  L 396.43 77.62
  Z"
/>
<path fill="#ff0000" d="
  M 142.1042 88.4097
  A 7.36 6.99 89.5 0 1 135.0503 81.1110
  A 7.36 6.99 89.5 0 1 141.9758 73.6903
  A 7.36 6.99 89.5 0 1 149.0297 80.9890
  A 7.36 6.99 89.5 0 1 142.1042 88.4097
  Z
  M 144.9111 79.7503
  A 1.47 1.47 0.0 0 0 143.4308 78.2906
  L 140.7109 78.3096
  A 1.47 1.47 0.0 0 0 139.2512 79.7898
  L 139.2689 82.3297
  A 1.47 1.47 0.0 0 0 140.7492 83.7894
  L 143.4691 83.7704
  A 1.47 1.47 0.0 0 0 144.9288 82.2902
  L 144.9111 79.7503
  Z"
/>
<path fill="#018240" d="
  M 131.49 120.41
  A 0.27 0.27 0.0 0 0 131.58 120.88
  Q 135.66 122.11 138.91 124.85
  A 1.68 1.67 -52.6 0 1 139.20 127.09
  C 126.39 145.38 106.20 157.13 83.87 158.62
  A 0.90 0.89 87.9 0 1 82.91 157.72
  L 83.02 87.29
  Q 83.02 86.79 83.52 86.78
  Q 100.03 86.70 116.50 86.76
  C 127.62 86.81 137.71 88.64 140.36 101.24
  C 141.49 106.56 139.99 113.53 135.65 117.61
  C 134.50 118.68 132.83 119.31 131.49 120.41
  Z
  M 103.71 102.39
  L 103.59 114.11
  A 0.68 0.68 0.0 0 0 104.26 114.80
  L 113.80 114.90
  A 6.70 6.09 0.6 0 0 120.56 108.88
  L 120.57 107.98
  A 6.70 6.09 0.6 0 0 113.94 101.82
  L 104.40 101.72
  A 0.68 0.68 0.0 0 0 103.71 102.39
  Z
  M 103.65 129.77
  L 103.61 141.97
  A 0.78 0.78 0.0 0 0 104.39 142.75
  L 116.19 142.79
  A 6.78 6.28 0.2 0 0 122.99 136.53
  L 122.99 135.33
  A 6.78 6.28 0.2 0 0 116.23 129.03
  L 104.43 128.99
  A 0.78 0.78 0.0 0 0 103.65 129.77
  Z"
/>
<path fill="#018240" d="
  M 62.63 154.00
  Q 37.73 145.91 22.85 124.41
  C 15.73 114.13 10.22 100.22 10.24 87.58
  A 0.50 0.49 -0.0 0 1 10.74 87.09
  L 26.75 87.17
  Q 27.15 87.17 27.17 87.57
  C 28.56 113.25 40.47 139.67 63.39 153.09
  Q 63.71 153.28 63.74 153.63
  Q 63.79 154.21 63.22 154.14
  Q 62.92 154.10 62.63 154.00
  Z"
/>
<path fill="#018240" d="
  M 74.09 156.04
  C 47.56 148.89 35.54 111.21 33.35 87.78
  Q 33.28 87.10 33.97 87.10
  L 51.23 87.17
  Q 51.79 87.18 51.80 87.74
  Q 52.10 107.55 57.79 126.46
  C 60.73 136.24 66.39 148.64 74.49 155.26
  Q 76.12 156.59 74.09 156.04
  Z"
/>
<path fill="#018240" d="
  M 68.40 140.32
  C 61.48 123.34 58.25 105.79 57.94 87.48
  A 0.33 0.33 0.0 0 1 58.27 87.14
  L 76.97 87.16
  A 0.56 0.56 0.0 0 1 77.53 87.72
  L 77.54 153.53
  A 0.30 0.29 18.3 0 1 77.07 153.76
  C 73.29 151.04 70.13 144.57 68.40 140.32
  Z"
/>
<path fill="#018240" d="
  M 279.03 144.51
  C 282.26 156.67 294.04 145.40 285.48 142.52
  C 280.07 140.69 273.35 139.74 270.79 133.72
  C 268.19 127.60 271.57 120.10 278.25 118.49
  C 286.92 116.40 297.77 118.05 297.79 129.40
  Q 297.80 129.91 297.28 129.88
  Q 294.16 129.71 291.28 130.28
  C 286.12 131.32 288.16 123.61 281.53 126.00
  A 2.26 2.25 61.7 0 0 280.49 129.47
  Q 280.98 130.11 282.25 130.46
  Q 287.28 131.79 292.09 133.73
  C 302.88 138.06 300.86 154.16 290.23 157.21
  C 280.82 159.91 269.91 157.40 268.82 145.49
  A 1.21 1.20 -5.2 0 1 269.92 144.18
  L 277.60 143.51
  Q 278.74 143.41 279.03 144.51
  Z"
/>
<path fill="#018240" d="
  M 318.35 148.31
  C 322.73 149.50 325.46 146.75 325.44 142.49
  Q 325.38 130.89 325.75 119.21
  Q 325.76 118.68 326.30 118.67
  L 335.71 118.64
  Q 336.20 118.64 336.21 119.13
  Q 336.68 133.82 336.12 143.87
  C 335.46 155.55 325.90 159.48 315.47 157.69
  C 308.39 156.47 304.32 150.23 304.16 143.24
  Q 303.98 134.66 304.10 119.11
  Q 304.10 118.68 304.53 118.68
  L 313.97 118.71
  A 0.47 0.47 0.0 0 1 314.44 119.18
  Q 314.43 129.92 314.47 140.75
  C 314.48 143.72 315.11 147.44 318.35 148.31
  Z"
/>
<path fill="#018240" d="
  M 365.00 118.77
  L 374.31 118.58
  A 0.31 0.31 0.0 0 1 374.63 118.89
  L 374.63 157.20
  A 0.31 0.31 0.0 0 1 374.31 157.51
  L 364.85 157.32
  A 0.31 0.31 0.0 0 1 364.59 157.17
  L 353.43 138.18
  A 0.31 0.31 0.0 0 0 352.85 138.33
  L 352.90 157.04
  A 0.31 0.31 0.0 0 1 352.59 157.35
  L 343.20 157.43
  A 0.31 0.31 0.0 0 1 342.89 157.12
  L 342.96 119.05
  A 0.31 0.31 0.0 0 1 343.27 118.74
  L 352.54 118.65
  A 0.31 0.31 0.0 0 1 352.81 118.80
  L 364.25 138.20
  A 0.31 0.31 0.0 0 0 364.83 138.04
  L 364.69 119.09
  A 0.31 0.31 0.0 0 1 365.00 118.77
  Z"
/>
<path fill="#018240" d="
  M 403.53 138.25
  L 403.50 119.04
  A 0.32 0.32 0.0 0 1 403.82 118.72
  L 413.19 118.64
  A 0.32 0.32 0.0 0 1 413.51 118.96
  L 413.49 157.13
  A 0.32 0.32 0.0 0 1 413.17 157.45
  L 403.47 157.37
  A 0.32 0.32 0.0 0 1 403.20 157.21
  L 391.82 137.72
  A 0.32 0.32 0.0 0 0 391.22 137.88
  L 391.21 157.07
  A 0.32 0.32 0.0 0 1 390.89 157.39
  L 381.56 157.41
  A 0.32 0.32 0.0 0 1 381.24 157.09
  L 381.24 119.08
  A 0.32 0.32 0.0 0 1 381.56 118.76
  L 391.12 118.62
  A 0.32 0.32 0.0 0 1 391.40 118.78
  L 402.93 138.41
  A 0.32 0.32 0.0 0 0 403.53 138.25
  Z"
/>
<path fill="#018240" d="
  M 441.33 118.66
  L 452.40 118.70
  A 0.35 0.35 0.0 0 1 452.70 119.22
  L 440.09 141.09
  A 0.35 0.35 0.0 0 0 440.04 141.26
  L 439.85 157.13
  A 0.35 0.35 0.0 0 1 439.50 157.48
  L 429.60 157.38
  A 0.35 0.35 0.0 0 1 429.25 157.03
  L 429.26 141.12
  A 0.35 0.35 0.0 0 0 429.21 140.95
  L 416.70 119.24
  A 0.35 0.35 0.0 0 1 417.00 118.72
  L 428.05 118.64
  A 0.35 0.35 0.0 0 1 428.36 118.83
  L 434.44 130.33
  A 0.35 0.35 0.0 0 0 435.06 130.33
  L 441.02 118.85
  A 0.35 0.35 0.0 0 1 441.33 118.66
  Z"
/>
<path fill="#018240" d="
  M 497.05 135.91
  A 0.65 0.64 -43.7 0 0 497.02 136.98
  C 498.32 137.88 499.90 138.62 500.71 140.00
  C 503.92 145.53 502.58 153.90 496.00 156.43
  Q 494.00 157.21 488.00 157.27
  Q 479.99 157.35 472.57 157.48
  Q 471.49 157.49 471.50 156.42
  L 471.50 119.25
  Q 471.50 118.64 472.11 118.64
  Q 480.73 118.72 489.52 118.70
  Q 494.35 118.68 496.36 119.63
  Q 500.14 121.42 500.52 125.99
  C 500.92 130.64 500.55 133.69 497.05 135.91
  Z
  M 482.27 127.47
  L 482.23 132.73
  A 0.95 0.95 0.0 0 0 483.17 133.68
  L 486.68 133.71
  A 3.32 3.05 0.5 0 0 490.03 130.69
  L 490.03 129.63
  A 3.32 3.05 0.5 0 0 486.74 126.56
  L 483.23 126.52
  A 0.95 0.95 0.0 0 0 482.27 127.47
  Z
  M 482.22 142.16
  L 482.29 147.84
  A 0.87 0.87 0.0 0 0 483.17 148.69
  L 487.70 148.64
  A 3.68 3.25 -0.7 0 0 491.34 145.34
  L 491.32 144.42
  A 3.68 3.25 -0.7 0 0 487.60 141.22
  L 483.07 141.28
  A 0.87 0.87 0.0 0 0 482.22 142.16
  Z"
/>
<path fill="#018240" d="
  M 527.37 150.86
  L 516.87 150.94
  A 0.60 0.60 0.0 0 0 516.29 151.41
  L 515.05 156.94
  A 0.60 0.60 0.0 0 1 514.46 157.41
  L 504.70 157.38
  A 0.60 0.60 0.0 0 1 504.13 156.60
  L 516.26 119.14
  A 0.60 0.60 0.0 0 1 516.82 118.73
  L 527.68 118.62
  A 0.60 0.60 0.0 0 1 528.26 119.04
  L 540.39 156.65
  A 0.60 0.60 0.0 0 1 539.81 157.44
  L 529.79 157.42
  A 0.60 0.60 0.0 0 1 529.21 156.95
  L 527.96 151.33
  A 0.60 0.60 0.0 0 0 527.37 150.86
  Z
  M 518.83 142.10
  A 0.33 0.33 0.0 0 0 519.15 142.51
  L 525.18 142.46
  A 0.33 0.33 0.0 0 0 525.49 142.04
  L 522.39 131.01
  A 0.33 0.33 0.0 0 0 521.75 131.01
  L 518.83 142.10
  Z"
/>
<path fill="#018240" d="
  M 553.31 157.32
  L 543.95 157.52
  A 0.33 0.33 0.0 0 1 543.61 157.19
  L 543.62 118.97
  A 0.33 0.33 0.0 0 1 543.95 118.64
  L 553.45 118.74
  A 0.33 0.33 0.0 0 1 553.73 118.90
  L 564.91 138.16
  A 0.33 0.33 0.0 0 0 565.52 137.99
  L 565.53 119.05
  A 0.33 0.33 0.0 0 1 565.86 118.72
  L 575.18 118.69
  A 0.33 0.33 0.0 0 1 575.51 119.02
  L 575.50 157.06
  A 0.33 0.33 0.0 0 1 575.17 157.39
  L 565.74 157.44
  A 0.33 0.33 0.0 0 1 565.45 157.28
  L 554.26 138.25
  A 0.33 0.33 0.0 0 0 553.65 138.42
  L 553.63 156.99
  A 0.33 0.33 0.0 0 1 553.31 157.32
  Z"
/>
<path fill="#018240" d="
  M 593.07 131.55
  A 0.26 0.26 0.0 0 0 593.51 131.58
  L 602.46 119.08
  A 1.00 0.98 -71.6 0 1 603.26 118.67
  L 616.49 118.72
  Q 617.18 118.72 616.74 119.25
  L 605.59 132.56
  A 1.29 1.27 51.2 0 0 605.44 133.99
  L 617.22 156.30
  Q 617.83 157.46 616.52 157.45
  L 605.21 157.37
  A 1.09 1.08 -11.4 0 1 604.23 156.72
  L 598.24 142.94
  A 0.81 0.81 0.0 0 0 596.86 142.76
  L 593.05 147.57
  Q 592.79 147.91 592.78 148.33
  L 592.64 156.54
  A 0.92 0.91 -89.0 0 1 591.72 157.44
  L 582.96 157.40
  Q 582.03 157.40 582.03 156.46
  L 582.01 119.22
  Q 582.01 118.69 582.53 118.69
  L 592.03 118.62
  A 0.67 0.67 0.0 0 1 592.70 119.29
  Q 592.73 124.99 592.88 130.75
  Q 592.89 131.22 593.07 131.55
  Z"
/>
</svg>
