<?xml version="1.0" encoding="utf-8"?>
<!-- Generator: Adobe Illustrator 27.2.0, SVG Export Plug-In . SVG Version: 6.00 Build 0)  -->
<svg version="1.1" id="圖層_1" xmlns="http://www.w3.org/2000/svg" xmlns:xlink="http://www.w3.org/1999/xlink" x="0px" y="0px"
	 viewBox="0 0 106.2 37.3" style="enable-background:new 0 0 106.2 37.3;" xml:space="preserve">
<style type="text/css">
	.st0{fill:#ECC680;}
	.st1{fill-rule:evenodd;clip-rule:evenodd;fill:#ECC680;}
</style>
<g>
	<g>
		<path class="st0" d="M76.4,27.3c-0.5-0.9-1.2-1.4-2.1-2c-0.2-0.1-1.2-0.3-1.4-0.4c-0.6-0.3-1.3-0.2-2-0.3
			c-0.3-0.1-0.6-0.1-0.9-0.2c-0.1,0-0.3,0-0.4,0c-0.1,0-0.4-0.1-0.4,0L69,24.5v0.1l0.2,0.1c0.9,0.3,1.1,2,2.1,3
			c1,1.5,1.3,2.1,1.7,2.2c0.5,0.1,1.3-0.8,1.7-0.6C75.2,29.4,76.8,27.9,76.4,27.3z"/>
		<path class="st0" d="M75.4,22.2C75.4,22.2,75.4,22.2,75.4,22.2C75.4,22.2,75.3,22.2,75.4,22.2c-0.1-0.2-0.1-0.4-0.1-0.6
			c-0.1-0.1-0.1-0.2-0.2-0.3c0,0,0,0-0.1,0c-0.4-0.2-1-0.3-1.8-0.4c0,0,0,0,0,0c-0.8,0-2.5,0.3-5.3,1h-0.1l-0.2-0.2v-0.1
			c1-1.1,1.8-1.7,2.6-1.7c0.8,0,1.5,0.1,2.2,0.2c0,0,0.1,0,0.1,0c0.1,0,0.2-0.1,0.3-0.1c0,0,0-0.1,0-0.1c0,0,0.1-0.1,0.1-0.1
			c0,0,0,0,0.1,0c0.1-0.1,0.1-0.2,0.2-0.3c0,0,0-0.1,0-0.1c0,0,0-0.1,0.1-0.1c0,0,0-0.1,0-0.1c0,0,0,0,0,0c0,0,0-0.1,0-0.1
			c0,0,0,0,0,0c0,0,0,0,0,0c0,0-0.1,0,0-0.1c0,0-0.1-0.1-0.1-0.1c-0.2-0.1-0.5-0.1-0.8-0.1c-0.8,0-1.8,0.2-2.8,0.5
			c-0.2,0-0.3-0.1-0.4-0.3c0-0.6,0.2-1,0.7-1.1c0,0,0,0,0,0c0.6,0,1-0.2,1.3-0.3c0,0,0-0.1,0-0.1c0,0,0.1,0,0.1-0.1c0,0,0,0,0.1,0
			c0,0,0,0,0,0c0,0,0,0,0,0c0,0,0-0.1,0-0.1c0,0,0,0,0,0c0,0,0,0,0,0c0,0,0,0,0,0c0,0,0,0,0-0.1c0,0,0,0,0.1,0c0,0,0-0.1,0-0.1
			c0,0,0,0,0,0c0,0,0,0,0,0c0,0,0,0,0,0c0,0,0,0,0-0.1c0,0,0,0,0,0c0,0,0,0,0,0c0,0,0,0,0-0.1c0,0,0,0,0-0.1c0,0,0,0,0-0.1
			c0,0,0,0,0,0c0,0,0,0,0,0c0,0,0,0-0.1,0c0,0-0.1-0.1-0.1-0.1c0,0,0,0,0,0c-0.2-0.1-0.4-0.1-0.7-0.1h-0.3c0,0,0,0,0,0l-0.6,0.1
			c0,0-0.1,0-0.1,0c-0.2-0.1-0.3-0.2-0.3-0.5v-0.3c0-0.2,0.1-0.4,0.3-0.5c0.7-0.2,1.5-0.5,1.5-1.1c0,0,0-0.1,0-0.1L71,13.7
			c-0.1-0.1-0.3-0.2-0.4-0.2c-0.5,0-0.9,0.1-1.2,0.2c0,0,0,0-0.1,0c-0.2,0-0.6-0.2-0.8-0.8c0,0,0-0.1,0-0.1c0.1-0.1,0.3-0.3,0.8-0.5
			c0,0,0,0,0,0c1.8-0.3,2.7-0.8,2.7-1.6v-0.1l-0.3-0.2c0,0-0.1,0-0.1,0h-0.2c-0.3,0-1,0.2-2,0.7c-0.1,0-0.2,0-0.2-0.1v-0.1
			c0.6-0.5,0.9-1,0.9-1.2c0-0.6-0.4-0.9-1.2-0.9c-0.6,0-1.5,0.3-2.8,0.9c0,0-0.1,0-0.1,0l-0.2-0.1V9.6c0.8-1.3,1.5-2,1.5-2.3
			c0,0,0.1-0.6,0.1-0.7c-0.1-0.4-0.2-1-0.9-1c0,0-0.1,0-0.3,0c-0.1,0.1-0.1,0.1-0.2,0.1c-0.1,0-0.1,0-0.2-0.1
			c-0.2,0-0.5,0.1-0.5,0.1c-0.8,0.2-1.1,0.2-1.2,0.3c0,0-0.9,0.4-0.9,0.4l-0.7,0.5l-0.8,0.5c-0.2,0.3-0.1,0.5,0,0.7
			c0.1,0,0.1,0.1,0.1,0.1c0.2,0.2,0.6,0.4,0.6,0.5L63,9.4c0.1,0.2,0.1,0.4,0,0.5c-0.2,0.3,0.4,0.1-0.7,1.5c0,0-0.4,0.6-0.8,1.2
			c0,0.1-0.1,0.2-0.2,0.2c-0.2,0.3-0.4,0.6-0.6,0.9c0,0.1-0.1,0.1-0.1,0.2c-0.1,0.1-0.1,0.2-0.1,0.2c-0.5,0.6-1,1.1-1.5,1.6
			c0,0,0,0.1-0.1,0.1c0,0,0,0,0,0c0,0,0,0,0,0c-0.1,0.1-0.3,0.3-0.5,0.4c0,0.1,0,0.2-0.1,0.3c0,0.1,0,0.2,0.1,0.2c0.1,0,0.1,0,0.2,0
			c0.2-0.1,0.5-0.3,0.8-0.5c0,0,0,0,0,0c0.1,0,0.1-0.1,0.2-0.1c0,0,0,0,0,0c0,0,0,0,0,0c0,0,0-0.1,0.1-0.1c0,0,0,0,0,0c0,0,0,0,0,0
			c0,0,0,0,0.1,0c0.2-0.1,0.4-0.3,0.6-0.4c0,0,0.1-0.1,0.1-0.1c0,0,0,0,0.1,0c0,0,0,0,0,0c0,0,0,0,0,0c0.1,0,0.1-0.1,0.2-0.1
			c0,0,0,0,0,0c0,0,0.1,0,0.1-0.1c0-0.1,0.1-0.2,0.2-0.2c0.3-0.2,0.6-0.5,1-0.8c0,0,0.1,0,0.1,0h0.2l0.1,0.1l0,0.7
			c0,0.1,0,0.2,0,0.3c0,0,0,0,0,0l0,0.6c0,0,0,0,0,0c0,0.1,0,0.3,0,0.4c0,0,0,0,0,0.1l0,0.6c0,0,0,0,0,0c0,0.1,0,0.1,0,0.2
			c0,0,0,0,0,0l0,0.6c0,0,0,0,0,0.1l0,0.1c0,0,0,0,0,0.1c0,0.3,0,0.7-0.1,1c0,0,0,0,0,0c0,0.1,0,0.2,0,0.3c0,0,0,0,0,0
			c-0.1,0.5-0.1,1-0.3,1.5c0,0,0,0,0,0v0.1c0,0.4,0.2,1.1,0.7,2.1v0.1c-0.5,0.2-1,0.4-1.5,0.6c0,0-3.4,1.1-3.4,1.1
			c-0.1,0-0.2,0-0.3,0l-0.4-0.2h-0.1c0,0,0,0,0,0c0,0,0,0,0,0c-0.2,0.2-0.6,0.5-0.8,0.6l-0.5,0.5c-0.1,0.1-0.2,0.2-0.3,0.3
			c-0.3,0.4-0.4,0.9-0.4,1.4c0,0,0,0.1,0,0.1l0.2,0.2c0,0,0.1,0.1,0.2,0.1c0.2,0,0.4-0.2,0.8-0.4c1.8-1.3,3.4-2,4.7-2.5
			c0.1,0,0,0,0.2-0.1l0,0c0,0,0.1,0,0.1,0c-0.1,0.3-0.4,0.7-1.1,1.1c0,0,0,0,0,0c-0.5,0.5-0.8,1.1-0.8,1.8c0,0.5,0.5,1,1.4,1.4
			c0,0,0.1,0,0.1,0c0.2,0,0.4-0.1,0.5-0.4c0,0,0.4-0.4,0.4-0.4l0.3-0.9c0,0-0.1-1.4-0.1-1.5l0-0.2c0-0.1,0-0.2-0.1-0.2
			c0-0.1-0.1-0.1-0.1-0.2V25c0.1-0.1-0.5-0.1,2.2-0.9l1.8-0.7c0.4,0,0.6,1.4,0.6,4.6v0.2c0,0.9-1.4,0.6-1.6,0.7c0,0-0.1,0-0.2,0
			L64.6,29c-0.1,0-0.1,0.1-0.1,0.2c-0.1,0.1-0.1,0.2-0.1,0.2c0.6,0.9,1.2,1.6,1.9,2.1c0,0,0.1,0,0.1,0h0c0,0,0.1,0,0.1,0
			c0.2-0.1,0.3-0.4,0.6-0.8c0,0,0-0.1,0.1-0.1c0.3-0.2,0.6-1.6,1-4.2c0,0,0,0,0,0l-0.1-0.7c0,0,0,0,0,0c0-0.3,0.1-0.7,0.3-1.2
			c0,0,0-0.1,0-0.1l-0.1-0.3l0.1-0.1v-0.1c0,0,0,0,0,0l-0.1-0.9c0-0.1,0-0.1,0.1-0.1c0.2-0.2,0.6-0.1,1.1-0.1l4.1,0.2c0,0,0,0,0,0
			h0.5C74.7,22.7,75.1,22.5,75.4,22.2C75.4,22.2,75.4,22.2,75.4,22.2z M67.1,15.9c0.1,0,0.2,0.4,0.4,0.9c0,0.5-0.8,0.9-2.4,1.2h-0.4
			l-0.3-0.2l0.1-1.3c0-0.1,0.1-0.2,0.3-0.3h0.5C65.9,16.2,66.4,16,67.1,15.9L67.1,15.9z M63.5,12.9v-0.2l0.4-0.5
			c0.6-1.1,1.1-1.7,1.5-1.7c0.9,0.2,1.3,0.3,1.3,0.5V11c0,0.2-0.3,0.7-0.8,1.4l-1.5,0.7v0.1l0.4,0.1l1.3-0.2
			c0.4,0.2,0.6,0.7,0.6,1.5c0,0.2-0.5,0.3-1.6,0.7l-0.3,0.1c0-0.7-0.2-1.3-0.7-1.8l0.1-0.3C63.7,13.2,63.5,13,63.5,12.9z M65.2,22.4
			c0,0.1-0.2,0.2-0.5,0.3c-0.1,0-0.3-0.1-0.4-0.3v-0.8l0.2-0.2h0.1l0.6,0.7V22.4z M67,21.4c-0.4,0-0.6-0.1-0.6-0.3V21
			c0-0.1,0.2-0.2,0.7-0.3h0.1l0.2,0.1C67.3,21.1,67.2,21.3,67,21.4z M64.8,20.7L64.8,20.7c-0.4,0-0.5-0.6-0.5-1.7l0.3-0.3
			c1.2,0,2.1-0.1,2.8-0.4c0.2,0,0.3,0.4,0.4,1.1v0.1C67.2,19.9,66.3,20.3,64.8,20.7z"/>
	</g>
	<g>
		<path class="st1" d="M44.4,21.7c0.6,0.2,1.5,0.2,1.9,0.1c0.3,0.2,0.7,0.1,1.1,0.2c0.2,0,0.3,0.2,0.5,0.3c0.5,0.1,0.9,0,1.1,0.5
			c0.7-0.1,0.7,0.5,1.4,0.5c0.5,0.6,1.3,0.9,1.1,1.8c-0.1,0.4-0.5,0.8-0.8,0.9c-0.6,0.3-1.5-0.1-2.1,0.1c-0.3,0.1-0.5,0.5-0.9,0.6
			c-0.2,0.1-0.6-0.1-0.7,0.1c-0.7-0.1-1.1-0.6-1.6-1.1c-0.4-0.5-0.4-0.4-0.6-1c-0.1-0.4-0.4-0.7-0.5-1c0-0.1,0.1-0.2,0.1-0.4
			c0-0.2-0.2-0.4-0.2-0.6C44.3,22.2,44.4,21.9,44.4,21.7z"/>
		<path class="st1" d="M46.3,8.6l0,0.1c-0.1,0-0.1,0-0.2,0c-0.2,0.1-0.5,0.4-0.7,0.5c-0.5,0.3-1.8,0.4-2.9,0.6
			c-0.9,0.1-2,0.1-2.7,0.4c-0.1,0-0.1,0.2-0.2,0.2c-0.7,0.2-2,0.5-1.8,1.4c-0.5,0.1-0.2,1.3-0.5,1.1c0.1,0.2-0.1,0.6-0.1,1
			c0,0.4,0,0.8-0.5,0.6c-0.1,0.1-0.2,0.2-0.2,0.5c-0.5-0.1-0.8,0.3-1.3,0.3c-0.7,0-1.2-0.7-1.8-1.1c0.1-0.8-0.6-1.1-0.3-1.6
			c-0.2-0.1-0.2-0.7-0.1-1c0,0,0.3-0.2,0.4-0.3c0.1-0.1,0.2-0.3,0.3-0.5c0.1-0.1,0.2,0,0.3-0.1c0.1-0.1,0.2-0.4,0.3-0.5
			c0.3-0.3,0.7-0.5,0.9-0.6c0.6,0.2,1.2,0.1,1.5,0.6c1.7-0.2,2.8-1.1,4.4-1.4c-0.3-0.2-0.6-0.3-1-0.4c-0.2-0.3-0.3-0.8-0.6-1
			c0-0.1,0-0.3,0.1-0.3C39.8,7,39.6,7,39.6,7c0.1-0.7,0-1.4,0.8-1.6C40.7,5,41.6,5.1,42.2,5c0.2,0.2,0.4,0.1,0.9,0.1
			C43.5,5.5,44,6,44.3,6.5c-0.1,0.3,0,0.4,0.1,0.7c-0.3,0.4-0.1,1-0.6,1.1C44.5,8.5,45.7,7.9,46.3,8.6L46.3,8.6z"/>
		<path class="st1" d="M37.2,27.5c0.1-0.2,0.4,0.3,0.1,0.3l-0.1,0l-0.1,0c0-0.1-0.1-0.1-0.1-0.2L37.2,27.5L37.2,27.5z"/>
		<path class="st1" d="M39.2,20.4C39.1,20.2,39.5,20.1,39.2,20.4L39.2,20.4z"/>
		<path class="st1" d="M46.3,8.6c0,0,0.1,0,0.1,0"/>
		<path class="st1" d="M46.5,11.1c-0.2,0-0.4,0.2-0.6,0.2"/>
		<path class="st1" d="M44.3,12.2c0.2-0.1,0.4-0.2,0.6-0.4"/>
		<path class="st1" d="M45.6,19.6c-0.1,0.2-0.3,0.4-0.5,0.5"/>
		<path class="st1" d="M45.2,19.9c0,0,0-0.1,0-0.1"/>
		<path class="st1" d="M49.4,9c-0.5-0.5-1.2-0.8-1.9-0.8c-0.1,0.2-0.6,0.3-0.8,0.1c0,0.1,0.1,0.1,0.1,0.2c-0.1,0.1-0.2-0.1-0.4,0
			l0,0.1l-0.1,0.1c0,0.2,0.3,0,0.2,0.2c-0.4,0.4-0.9,0.9-1.5,1.3c-0.1,0.1-0.2,0-0.3,0.1c-0.2,0.1-0.5,0.6-0.6,0.4
			c-0.1,0.1-0.2,0.2-0.3,0.3c-1.7,0.9-3.1,2.1-4.9,3c-0.2,0.2-0.2,0.4-0.5,0.5c-0.2-0.1-0.2,0.1-0.3,0.1c-0.5,0.8,0.1,2.4,1.2,2
			c-0.2,0.3-0.5,0.9-0.7,1c0,0-0.1-0.1,0,0.1c-0.1-0.1-0.1,0.1-0.2,0.1c-0.2,0.2-0.5,0.5-0.6,0.8c-0.1,0.1-0.3,0.2-0.4,0.3
			c0.2,0-0.2,0.1-0.1,0.3c-0.3,0.1-0.4,0.4-0.7,0.8c-0.1,0.1-0.1,0-0.2,0.1c-0.1,0.1-0.2,0.2-0.3,0.3c-0.5,0.3-1,0.4-1.2,0.8
			c0,0.6-0.2,1.3-0.7,1.4c-0.3,0.5-0.2,0.9,0.1,1.3c0.7-0.1,1.5-0.2,2.1-0.1c0,0-0.1,0.1-0.1,0.1c0.3,0,0.4-0.3,0.5-0.5
			c0,0,0.2,0,0.2-0.1c0.3-0.4,0.2-0.6,0.3-0.8c0,0,0.2-0.1,0.2-0.1c0,0-0.1,0-0.1-0.1c0-0.1,0.3-0.2,0.2-0.3
			c-0.2-0.1-0.2,0.3-0.3,0.1c0-0.1,0.1-0.1,0-0.2c0.2,0,0.6-0.2,0.8,0.1l0.1,0l0,0.1c0,0.1-0.1,0.1-0.1,0.3l0.1,0l0,0.1
			c-0.1,0.3-0.3,0.4-0.4,0.6l0,0.1l-0.1,0c0,0.4-0.4,0.8-0.7,1.1h-0.1v-0.1c-0.9,1.3-2.1,2.2-2.7,3.7l0.1,0l0.1,0.1
			c0.4,0,0.6-0.3,1-0.5c0.2,0,0.2,0.2,0.3,0.3c0-0.1,0.1-0.2,0.1-0.3l-0.1,0l0-0.1c-0.1,0,0-0.1,0-0.2c0,0,0.1,0,0.1,0.1h0.1v0.1
			c0.3,0,0.2-0.4,0.5-0.4c0,0.2,0,0.3,0.1,0.4l0.1-0.1l0.1,0c0-0.4-0.1-0.7,0.1-0.9l0.1,0l0,0.1c0.1,0,0.1-0.2,0.1-0.3l0-0.1l0.1,0
			c0-0.1,0.4-0.5,0.3-0.2c0-0.2,0.3-0.3,0.3-0.3c0.2-0.1,0.4-0.3,0.5-0.4c0.6-0.5,0.9-1.2,1.6-1.5c0.4,0.2,0.5-0.1,0.8-0.1
			c0,0.1,0,0.2,0.1,0.2c-0.2,0.1-0.1,0.3-0.1,0.4c-0.2,0.4-0.8,1-1.2,1.4c-0.4,0.4-0.8,1-1,1.4c0,0-0.2,0-0.2,0.1
			c-0.1,0.2-0.1,0.4-0.3,0.4c-0.1,0.2-0.2,0.5-0.5,0.5l-0.1,0l-0.1,0c0,0.1,0.1,0.1,0.1,0.3c-0.4,0-0.3-0.6-0.5-0.8l-0.1,0.1l-0.1,0
			c-0.2,0.5,0.2,0.9,0.1,1.3c0,0.3-0.3,0.6-0.4,1c0,0.2,0,0.4,0,0.7c0.3,0,0.8-0.1,1.1-0.3c0.9,0.7,3.3,2.4,4.6,1.4
			c0.5-0.3,1-0.7,1.2-1c0.2-0.3,0.5-0.8,0.6-1c0-0.1,0.1-0.1,0.1-0.1c0.3-0.5,0.1-1,0.1-1.5c0-0.3,0.1-0.6,0.1-0.9
			c0-0.7-0.4-1.3-0.3-2c-0.5-0.5-0.3-1.5-0.3-2.3c0,0.1,0,0.2-0.1,0.2c-0.1-0.5,0.2-0.7,0.3-1c0.1-0.1,0.1-0.2,0.2-0.3
			c0.2-0.1,0.3-0.2,0.3-0.4c0,0.1,0.6-0.8,1.1-1.1l0-0.1l0,0.1c0.2-0.1,0.2-0.3,0.4-0.3l0,0l0,0c0.2-0.3,1-1,1.1-1
			c0.3-0.6,1-0.8,1.3-1.3c-0.2-0.4-1.2-1-1.7-1.1c-0.8,1.1-1.3,2.6-2.1,3.3c0.1,0,0.1,0.1,0.1,0.1c-0.4,0-0.5,0.8-0.9,1
			c0.1,0,0.1,0,0.1,0.1c-0.3,0-0.2,0.3-0.3,0.5c-0.1,0.2-0.4,0.4-0.5,0.8c-0.5-0.3-0.9-0.4-1.4-0.5c0-0.1,0-0.2-0.1-0.3
			c-0.3,0-0.6-0.1-0.8-0.4c-0.3-0.1-1-0.3-1.4-0.6c0.2-0.3,0.3-0.2,0.4-0.5c0.1,0,0.1,0.1,0.1,0.1c0-0.1,0.1-0.1,0.1-0.1h-0.1v-0.1
			c0,0-0.1-0.1-0.1-0.1c0-0.1,0.2-0.1,0.3-0.1l0,0l0,0c0.2-0.2,0.4-0.4,0.5-0.7c-0.2-0.1-0.2,0.3-0.3,0.1c0.1-0.2,0.2-0.3,0.3-0.4
			c-0.1,0.1-0.1,0.2,0.1,0.2c0.1-0.7,0.4-0.9,0.8-0.9c0.1-0.2,0-0.3,0.3-0.3c0.1-0.1-0.2-0.2,0-0.3c0,0,0,0.1,0.1,0.1
			c0.2-0.3,0.1-0.3,0.3-0.5c-0.1,0-0.1-0.1-0.1-0.1c0.1,0,0.1,0.1,0.2,0.1c0.2-0.5,0.6-0.9,1-1.4c0.2-0.5,0.2-1.2,1-1
			c0.6-0.3,1.5-0.6,1.4-1.3c-0.1-0.4-0.5-0.4-0.7-0.8c-0.2,0.1-0.4,0-0.6-0.1l-0.1,0l0-0.1c0-0.1,0.1-0.1,0.1-0.1H44v-0.1
			c-0.1-0.3,0.4-0.3,0.7-0.5c0.1-0.1,0.1-0.2,0.3-0.3c0,0,0.2,0,0.2,0c0,0,0.1-0.2,0.1-0.2c0.2-0.1,0.3-0.1,0.5-0.2
			c0.2-0.1,0.6-0.1,0.8-0.1c-0.1,0-0.1,0.1-0.1,0.1h0.1v0.1c0.4-0.3,1,0.1,1.3,0.3c1.2,0,1.7-0.2,2.2-0.9C50.1,9.7,49.8,9.4,49.4,9z
			 M42,25.2c0.2,0.9,0.6,2.1,0.5,3.2c-0.1,1.2-0.7,2-2.2,1.8c-0.5,0-0.9-0.3-1.4-0.5c-0.2-0.1-0.6-0.2-0.9-0.6c0-0.6,0.7-1,1.2-1.6
			c0.4-0.5,0.9-0.9,1.4-1.5C41.1,25.5,41.3,25.2,42,25.2z"/>
		<path class="st1" d="M34.2,28.1c0-0.1,0.1-0.1,0.1-0.2"/>
		<path class="st1" d="M36.9,24.3c0-0.2,0.1-0.3,0.2-0.4"/>
		<path class="st1" d="M37.8,23.2c-0.1-0.1-0.2-0.1-0.2-0.1c0.1-0.4,0.3-0.8,0.6-1"/>
		<path class="st1" d="M44,12.5c0.1-0.1,0.3-0.2,0.4-0.3"/>
		<path class="st1" d="M44.3,12.2C44.3,12.2,44.3,12.2,44.3,12.2c-0.1,0-0.3,0-0.3,0.1"/>
		<path class="st1" d="M39.6,19.8c0.1,0,0.1-0.1,0.2-0.2"/>
		<path class="st1" d="M37.8,22.8c0.1-0.2,0.2-0.3,0.4-0.5"/>
		<path class="st1" d="M37,26.3c0-0.1-0.1-0.1-0.1-0.2"/>
		<path class="st1" d="M36.8,26.5c0,0,0-0.1,0-0.1"/>
		<path class="st1" d="M36.5,27.3c0,0,0,0.1,0,0.1"/>
		<path class="st1" d="M37.2,27.9c0,0,0-0.1,0-0.1"/>
		<path class="st1" d="M36.9,27c0,0,0-0.1,0-0.1"/>
		<path class="st1" d="M36.9,27C37,27,37,27,36.9,27c0.1-0.1,0.1-0.2,0.1-0.3"/>
		<path class="st1" d="M36.9,27c-0.1,0.2,0.1,0.4,0.2,0.6"/>
		<path class="st1" d="M35.7,27.5c0-0.1,0.1-0.2,0.2-0.2"/>
		<path class="st1" d="M45.4,11.6C45.4,11.6,45.4,11.6,45.4,11.6c0.1-0.1,0.1-0.1,0.2-0.1"/>
	</g>
	<g>
		<path class="st1" d="M6.6,22.9c1.3-1.2,2.9-1.8,3.8-3.4c-0.6-0.3-0.7-1.1-0.5-1.6c0.2-0.4,0.6-0.5,1-0.8c0.4-0.3,0.7-0.8,1.2-1.4
			c0.8-0.8,1.6-1.3,2-2.3c-0.3,0-0.5,0.4-0.8,0.6c-0.1,0.1-0.2,0.1-0.3,0.1c-0.3,0.4-0.3,0.9-0.5,1.2c-0.5,0.8-2.1,1.1-3,0.5
			c-0.2-0.1-0.2-0.5-0.7-0.5c0.3-0.2-0.2-1,0.2-1.2c-0.4,0.2-1.2,0.5-1.9,0.3c-0.2-0.3-0.6-0.6-0.7-1.1c0-0.5,0.3-0.8,0.5-1.2
			c0.6,0.1,0.9-0.2,1.6-0.3c1.8-0.9,3.7-1.7,5.9-2c-0.2-0.2-0.5-0.2-0.7-0.5c-0.2,0.1-0.6,0.2-0.8,0c-0.1-0.3,0.2-0.9-0.4-0.9
			c0-0.1,0-0.2,0.1-0.3c-0.5-0.4-1-1.3-0.3-1.8c-0.1-0.5,0.2-0.5,0.3-1c0.4-0.1,0.8-0.3,1-0.5c0.2,0.2,0.5,0,0.6-0.1
			c0.6,0.2,1.2,0.4,1.6,0.7c0.1,0.2,0,0.3,0.3,0.3c0.1,0.2,0,0.1,0,0.4c0.1,0.1,0.3,0.2,0.4,0.4c-0.2,0.4,0.1,0.8-0.1,1.4
			c0,0.2-0.2,0.2-0.3,0.3c0,0.1,0,0.2,0,0.3c0,0-0.1,0-0.1,0.1c-0.1,0.3-0.5,0.5-0.7,0.8c0.1,0.2,0.6,0.1,0.8,0.3
			c0.3,0.4,0.3,1.1-0.1,1.4c-0.6,0.3-1.3,0-2,0.3c-0.5,0.3-0.9,0.6-1.5,0.9c-0.5,0.3-1,0.6-1.4,1c0.5,0.2,1.1-0.2,1.6-0.3
			c0.5-0.2,1.1-0.2,1.5-0.5c0.2-0.1,0.4-0.3,0.5-0.4c0.4-0.1,1.1,0.1,1.5,0.3c0.3,0.2,0.5,0.6,0.8,0.8c0,0.3-0.1,1-0.5,1.4
			c-0.1,0.1-0.7,0.5-0.8,0.5c-0.1,0-0.3-0.1-0.5,0c-0.6,0.2-0.9,0.9-1.4,1.2c0.6,0.1,1.3,0.2,1.7,0.6c0.4,0.7,0.2,1.3-0.3,1.8
			c-0.3-0.2-0.8,0.1-1,0.3c0.2,0.3,0.6,0.5,0.6,0.9c0.2,0.3,0.6,0.4,0.8,0.6c0.1,0.7-0.5,1.1-1.2,1.1c-0.1,0.3-0.2,0.8-0.1,1.1
			c0.8,0.2,1.5,0.5,2,0.7c0.2-1,0.2-1.9,0.3-3.1c0.1-0.9,0.3-1.9,0.4-2.8c0.1-0.7,0.1-1.4,0.3-2.1c0.2-0.9,0.4-1.6,0.5-2.7
			c0-0.6,0.1-1.1,0.3-1.6c-0.2-0.2-0.8-0.5-0.5-0.9c0.2-0.4,2.2-1.4,3.3-1.3c0.2,0,0.4,0.1,0.5,0.1c0.4,0,0.7,0,1.1,0.2
			c0.1,0.1,0.1,0.2,0.3,0.3c0,0.1,0.2,0,0.3,0.1c0.1,0.1,0.4,0.7,0.5,0.8c0,0.4-0.4,0.7-0.5,1.2c-0.1,0.6,0.1,1.2,0,1.6
			c-0.1,0.3-0.3,0.5-0.3,0.8c-0.1,0.4,0,1.2,0.3,1.4c-0.2,0.2-0.2,0.4-0.1,0.7c-0.2,0.4-0.3,0.9-0.3,1.4c0,0.1,0.1,0.1,0.1,0.3
			c0,0.2-0.1,0.4-0.1,0.7c0,0.5,0.2,1,0.2,1.5c0,0.4-0.2,0.7-0.1,1c0,0.3,0.1,0.6,0.2,0.8c-0.4,0.8,0.1,1.3-0.1,2.1
			c-0.2,0.1-0.3,0.3-0.5,0.5c-0.4,0-0.6-0.1-0.9,0c-0.5-0.6-0.7-1.9-1.4-1.9c0-0.1,0-0.1,0.1-0.1c-0.6,0.3-0.4,3.1-1.2,3.8
			c0,0.1,0.1,0.2,0,0.2c0,0.2,0,0.5,0.1,0.5C18.9,28,18.7,29,18,29.2c-0.2,0-0.1-0.2-0.3-0.1c-0.2-0.1-0.3,0.4-0.5,0.2
			c-0.4-0.2-0.2-0.7-0.2-1c0.2-1,0.6-2,0.9-2.7c-0.2,0-0.6-0.1-0.8-0.2c-0.2,0.2-0.4,0.4-0.6,0.6c-0.4,0-0.7,0.3-0.8,0.3
			c-0.3-0.1-0.7-0.2-0.9-0.3c0,0.5,0,1.3-0.6,1.4c0.2,0.6,1.1,0.8,1.2,1.6c0,0.4,0,0.9-0.3,1.2c-0.7,0.2-1.2,0.1-1.8-0.2
			c0-0.2-0.3-0.2-0.4-0.4c-1.6-0.1-2.3-0.9-3.2-1.6c-1.4-0.1-1.7-1.7-2.5-2.7c-0.6,0.1-0.8,0.7-1.4,0.8c-0.5,0.1-1-0.4-1.5-0.7
			c-0.2-0.5-0.1-1.1,0.1-1.6c0.6-0.3,1.2-0.6,1.8-0.9l0.1,0.1l0.1,0c0,0.2,0.4-0.1,0.2-0.1L6.6,22.9L6.6,22.9z M19.7,20.4
			c0.4-0.1,0.8-0.2,1.3-0.3c0.4,0.6-0.1,1.7-0.3,2.2c0.2,0.4,0.3,0.9,0.8,0.9c0.1-1.9-0.1-3.8-0.1-5.7c0-0.4,0.2-0.9,0.2-1.3
			c0.1-0.8-0.1-1.6,0-2.3c0.1-0.5,0.2-1.6,0.1-2.3c0-0.3-0.3-0.5-0.2-0.8c-0.7-1-1.6,0.1-2.3,0.5c-0.2,0.6-0.5,1.1-0.8,1.6
			c0,0.4,0,0.9,0,1.3c0.3-0.2,0.7-0.7,1.3-0.8c0.7-0.1,1.5,0.1,1.6,0.8c-0.2,0-0.1-0.1-0.3,0c-0.2,0.8-1,0.7-1.4,1.2
			c0,0.5-0.1,0.8-0.2,1.4c0.4,0.6,1.4,0.5,1.4,1.3c0,0.4-0.4,0.5-0.3,0.9c-0.3,0-0.2,0.3-0.3,0.6c-0.3,0-0.4,0-0.4,0.3
			c0.1-0.2-0.2-0.1-0.3-0.2c-0.1,0.2,0,0.3-0.1,0.5c0-0.1-0.1-0.2-0.1-0.1l-0.1,0l0,0.1c-0.3,0-0.3,0.7-0.3,0.8c0-0.1,0-0.2,0.1-0.2
			l0,0.1l0.1,0c0.1,0.2-0.1,0.5,0,0.5c0.2-0.3,0.1-0.4,0.2-0.8l0.1,0l0-0.1c0.2-0.2-0.2-0.1,0-0.3H19.7L19.7,20.4z M9.7,13.6
			c0.7-0.2,1.1-0.4,1.7-0.8c0.2-0.1,0.5-0.3,0.7-0.4c0.2-0.1,0.6-0.3,0.4-0.4C11.6,12.8,9.9,12.6,9.7,13.6z M17.1,23.2
			c0.3-0.3,0.6-0.5,0.8-0.8c0.1-0.9,0.1-1.8,0-2.5c0-0.2,0.4-0.3,0.5-0.6c0.3-0.7-0.3-1.7-0.3-2.5c0.3-0.4,0.5-0.9,0.5-1.4
			c0-0.2-0.2-0.7-0.3-0.7C17.5,17.4,17.6,20.4,17.1,23.2z M12.1,20.6c0,0.1-0.2,0.1-0.3,0.3c-0.1,0.2-0.3,0.3-0.6,0.8
			c0.4-0.2,1.4-0.3,2-0.5c0-0.4,0.1-0.5,0-0.8C12.6,20.2,12.4,20.6,12.1,20.6z M10.2,24c0.8-0.3,1.9-0.2,2.7-0.2c0,0-0.1,0-0.1-0.1
			c0.2-0.4,0.6-0.9,0.4-1.4c-0.4,0.3-1.1,0.2-1.4,0.5c-0.2,0.2-0.2,0.6-0.4,0.3c0,0.1,0,0.2,0,0.3c-0.6,0.4-1.8,0.2-2.3,0.8
			C9.6,24.4,10,24.1,10.2,24z M13.3,24.7c-0.2,0-0.2-0.3-0.3-0.5c-0.6,0-1.4,0.2-1.7,0.6c-0.1,0.4,0.1,0.9,0.1,1.3
			c0,0.6-0.3,1-0.6,1.4c0.8,0.3,1.7,0.1,2.4-0.2C13.5,26.4,13.3,25.7,13.3,24.7z"/>
		<g>
			<path class="st1" d="M26.3,23.9c0,0,0.2-0.4,0.3-0.4c0.3-0.4,0.2-0.9,0.6-1.2c1-0.6,1.6,1.2,1.7,1.8c0.2,1.2,0.2,1.9,0.1,3.1
				c-0.1,0.8,0,2-0.5,2.7c-0.3,0.5-0.9,0.5-1.2,1c-0.5,0-0.9,0-1.4-0.1c-0.2,0-0.4-0.2-0.6-0.3c-0.6-0.1-1.2,0.1-1.9,0
				c-0.7-0.1-1.4-0.3-2.1-0.7c-0.1-0.1-0.3-0.2-0.4-0.2c0,0,0-0.2,0-0.2c-0.6-0.4-0.8-1-1.1-1.6c-0.1-0.2-0.3-0.3-0.3-0.4
				c-0.1-0.4,0-0.8-0.1-1.2c0.2-0.1,0.4-0.1,0.4-0.3c0.1,0.4,1,0.9,1.3,1c0.7,0.3,1.4,0.2,1.9,0.2c0.7,0,1.8-0.1,2.3-0.6
				c0.2-0.2,0-0.5,0.1-0.8C25.5,24.7,25.8,24.7,26.3,23.9z"/>
		</g>
		<path class="st1" d="M6.3,23.3c0-0.2,0.2-0.2,0.3-0.3"/>
		<path class="st1" d="M19.4,20.1c0.2,0,0.2,0.2,0.2,0.3"/>
		<path class="st1" d="M19.3,20.7c0-0.2,0.1-0.4,0.1-0.6"/>
		<path class="st1" d="M19.3,20.7c0.1,0,0.2,0,0.3,0.1"/>
		<path class="st1" d="M19.3,20.7c0,0.1,0,0.2-0.1,0.3"/>
		<path class="st1" d="M27.9,27.8c0,0,0.1,0,0.1,0"/>
	</g>
	<g>
		<path class="st0" d="M84,28c-0.5-0.1-0.7,0.2-1.1,0.1c-0.1,0.1-0.4-0.1-0.6,0.1c-0.2-0.2-0.5-0.4-0.7-0.7
			c-0.3-0.6-0.3-1.2-0.3-1.9c0-0.3,0.3-0.6,0.3-0.8c0.1-0.5,0-1,0.1-1.4c0.3-2.9-0.2-5.3,0.1-8.2c-0.3-0.4-0.3-0.1-0.3-0.6
			c-0.3-0.3-0.8-1.3-0.5-1.8c0,0,0.1-0.6,0.2-0.6c0.1-0.1,0.3-0.1,0.4-0.1c0.6,0.2,1.2,0.3,1.9,0.6c0.5,0.2,0.5,0.8,0.9,1.1
			c0.6,0.3,0.2,0.8-0.3,1.2c-0.1,0.1-0.2,0.2-0.2,0.3c-0.4,1.4-0.4,2.5-0.3,4c0,0.4-0.1,0.9-0.2,1.3c0,0.7,0,1.4,0,2
			c0,1.2,0,2.4,0,3.6C83.5,26.6,84.1,27.3,84,28z"/>
		<path class="st1" d="M85.2,29.4c0,0-0.1,0-0.1,0"/>
		<path class="st1" d="M84.7,13.6C84.7,13.6,84.7,13.6,84.7,13.6c0-0.1-0.2-0.1-0.2-0.2"/>
		<path class="st1" d="M91.1,22.6c0.2,0.1,0.4-0.1,0.6-0.1"/>
		<path class="st0" d="M100.8,27.3c-0.2-0.7-0.4-2-0.6-2.7c-0.2-0.5-0.3-1.1-0.3-1.7c0-0.8-0.1-1.6-0.1-2.4c0-1.6,0-3.2,0-4.8
			c0-2.2,0.2-4.5,0.5-6.8c0-0.1,0.3-0.8,0.3-0.8c-0.5-0.3-0.5-0.5-1-0.7c-0.8-0.3-1.6-0.6-2.4-0.8c-0.2-0.1-0.4-0.1-0.5,0
			c-0.5,0.1-0.9,0.4-1.4,0.5c-1.4,0.3-2.2,0.5-4.1,1c-0.2,0.1-0.9,0-1,0c-0.3,0.1-0.5-0.1-0.7-0.1c-0.1,0-0.2-0.2-0.3-0.2
			c-0.2,0.1-0.5-0.4-0.8-0.4c-0.3,0-0.5-0.3-0.9-0.5c-0.6-0.4-0.7-0.8-1.2-0.8c-0.1,0-0.3-0.1-0.4-0.1c-0.1,0-0.3,0-0.4,0
			c-0.2,0-0.4,0-0.6,0c-0.2,0-0.5,0-0.7,0c0,0,0,0.1,0,0.1c0,0-0.1,0.1-0.1,0.1c-0.4,0.2-1.3,1-1.6,1.4c-0.2,0.3-0.5,0.6-0.4,1
			c0.1-0.1,0.1-0.2,0-0.2c0,0.3-0.1,0.5-0.2,0.8c-0.1,0.2-0.2,0.4-0.1,0.6c0.1,0.1,0.1,0.2,0.1,0.3c0,0.1,0,0.1,0,0.2
			c0,0.1,0,0.1,0.1,0.2c0.2,0.2,0.4,0.4,0.7,0.5c0,0,0.1,0.1,0.1,0.1c0.1,0,0.1,0,0.2,0.1c0,0,0.1,0,0.1,0.1c0,0,0.1,0,0.1,0
			c0.1,0.1,0,0,0.1,0c0.2,0.1,0.2-0.1,0.4,0c0.2,0.1,0.4,0.1,0.5,0.2c0.1,0,0.2,0.1,0.2,0.1c0.1,0,0.1,0,0.2,0.1
			c0.2,0,0.6,0.2,0.7,0.1c0.2-0.1,0.3-0.1,0.5-0.1c0.3,0,0.4-0.1,0.7-0.2c0.3-0.1,0.7-0.2,1-0.4c1.3-0.5,2.4-1,3.8-1.5
			c0.8-0.3,1.8-0.6,2.7-0.8c0.8-0.2,1.6-0.3,2.4-0.5c0.1,0.5,0.2,0.9,0.3,1.4c0.1,1.2,0.1,2.4,0.1,3.6c0.1,2.4,0.2,4.7,0.2,7.1
			c0,1,0,2.1,0,3.1c0,0.9,0.1,1.9-0.3,2.8c0,0.1-0.1,0.2-0.1,0.3c0,0.1-0.1,0.3-0.1,0.4c0,0.6-0.1,0.7-0.6,0.9c-0.1,0-0.1,0-0.2,0.1
			c-0.8-0.1-1.7-0.2-2.5-0.3c-0.1,0-0.8,0-0.9,0c-0.2-0.1,0.3-0.2,0.4-0.4c0.4-0.6,0.3-1.2,0.1-1.8c-0.2-0.7,0-1.6,0.1-2.4
			c0-0.1,0.1-0.3,0.2-0.4c0.5-0.3,1.1-0.6,1.6-0.9c0.1-0.1,0.2-0.1,0.4-0.2c-0.2-0.1-0.3-0.2-0.4-0.2c0-0.2,0-0.3-0.1-0.5
			c0,0-0.1,0-0.1,0c0-0.1,0-0.2,0-0.3c0-0.1-0.1-0.3-0.2-0.4c0,0,0,0-0.1,0c-0.3-0.2-0.3-0.6-0.4-0.9c0,0,0,0,0,0
			c-0.1-0.1-0.1-0.2-0.2-0.2c-0.4-0.5-0.7-1-0.4-1.6c0.2-0.4,0.4-0.7,0.5-1.1c0.4-1,0.7-2.1,1.9-2.7c-0.5-0.3-0.9-0.6-1.2-0.8
			c-0.4-0.3-0.7-0.1-1.1,0c-0.8,0.3-1.7,0.6-2.6,0.9c-0.1-0.9-0.1-0.9,0.8-1.1c0.4-0.1,0.9-0.2,1.3-0.4c0.1,0,0.2-0.1,0.2-0.1
			c-0.1-0.1-0.1-0.2-0.2-0.3c-0.7-0.4-1.4-0.6-2.1-0.2c-0.2-1.4-0.2-1.4-0.9-1c0,0.3,0,0.7,0,1c0,0.1-0.1,0.4-0.1,0.4
			c-0.9,0.3-1.7,1.1-2.8,1c-0.1,0-0.2,0.1-0.4,0.2c0.1,0.2,0.2,0.3,0.3,0.4c0.3,0.5,0.5,0.6,1,0.4c0.3-0.1,0.5-0.2,0.9-0.4
			c-0.2,0.2-0.4,0.4-0.5,0.5l0.1,0.1c0.4-0.3,0.9-0.5,1.3-0.8c0.1,0,0.1,0.1,0.2,0.1c-0.1,0.3-0.2,0.7-0.5,0.9
			c-0.6,0.4-1.2,0.8-1.8,1.1c0-0.1,0-0.3-0.1-0.4c-0.3-0.2-0.5-0.5-0.8-0.7c-0.6-0.3-0.7-0.2-0.6,0.4c0,0.2,0,0.4,0,0.6
			c0,0.8,0.1,1.6,0,2.3c0,0.6-0.1,1.1,0.3,1.5c0.1,0.1,0.1,0.3,0.1,0.4c-0.2,0.5,0,0.8,0.2,1.3c0.5-0.4,1-0.7,1.5-1.1
			c0.1,0.1,0.2,0.3,0.3,0.3c0.3,0.1,0.3,0.2,0.1,0.3c-0.9,0.4-1.7,0.8-2.6,1.2c-0.2,0.1-0.5,0.2-0.7,0.2c0,0.3,0.1,0.4,0.1,0.6
			c0.1,0.2,0.1,0.6,0.3,0.7c0.2,0.1,0.6,0,0.8-0.1c0.6-0.2,0.8-1.1,1.6-1c0,0,0.1,0,0.1-0.1c0.3-0.5,0.9-0.5,1.4-0.6
			c0.1-0.1,0.3,0,0.5,0c0,0,0,0-0.1-0.1c0.5-0.3,1-0.5,1.5-0.8c0.1,0.1,0.1,0.1,0.1,0.2c-0.2,0.2-0.4,0.4-0.6,0.6c0.2,0,0.4,0,0.5,0
			c0,0.1,0,0.1,0,0.1c-0.2,0.1-0.3,0.2-0.5,0.3c-1.5,0.7-2.9,1.4-4.4,2.1c-0.3,0.1-0.7,0.2-1.1,0.2c-0.4,0-0.7,0.3-0.6,0.5
			c0.1,0.2,0.2,0.4,0.3,0.6c0.1,0.3,0.3,0.5,0.6,0.3c0.4-0.2,0.8-0.4,1-0.7c0.3-0.4,0.4-0.2,0.6,0c0.4,0.4,0.8,0.7,1.4,0.8
			c0.4,0.1,0.8,0.4,1.1,0.8c0.3,0.3,0.7,0.7,1,1.2c-0.4,0.1-1.1,0.1-1.5,0.2c-1.2,0.1-2.4,0.6-3.6,0.7c-0.3,0-0.9,0-1.2,0.2
			c0,0-0.1,0-0.1,0c-0.1,0,0-0.1,0,0c0,0,0,0,0,0c0,0,0,0,0,0.1c-0.1,0.1-0.2,0.3-0.2,0.5c-0.1,0.2-0.2,1.1,0,1.1
			c0.3,0.1,1.1,0.1,1.4,0c0.7-0.1,2.4-0.4,3.1-0.5c1.8-0.1,3.6-0.1,5.3,0.1c0.7,0.1,1.4,0.3,2.1,0.5c0.6,0.1,1,0.3,1.6,0.3
			c0.5,0,1.2,0,1.5-0.5c0.1-0.1,0.4-0.1,0.5-0.3c0.4-0.5,0.1-0.2,0.3-0.9C100.4,28.2,101,28,100.8,27.3z M88.5,18.6
			c-0.3-1.3-0.3-1.1,0.7-1.6C89.4,17.9,89.2,18.3,88.5,18.6z M88.3,16.5c0.4-0.3,0.7-0.6,1.1-0.9C89.5,16,89.5,16,88.3,16.5z
			 M91.2,25.8c-0.4-0.1-0.6-0.2-1-0.2c0.2-0.2,0.4-0.4,0.6-0.5c0.1-0.1,0.3-0.3,0.3-0.3c-0.1-0.2-0.3-0.4-0.5-0.5
			c-0.4-0.1-0.9-0.1-1.4-0.1c-0.3,0-0.7,0-1.1-0.1c1.1-0.5,2.2-1,3.4-1.5C91.4,23.6,91.3,24.7,91.2,25.8z M91.1,14.6
			c0.8-0.3,1.6-0.7,2.6-1.1c-0.2,1.1-0.7,1.9-1.2,2.7c-0.1,0.1-0.5,0.1-0.7,0.1l-0.1-0.2c0.3-0.2,0.7-0.5,1-0.7
			c-0.6-0.5-1.3-0.1-1.9,0C90.7,15,90.7,14.7,91.1,14.6z M90.5,19.6c-0.2-1.1,0.2-1.5,1.4-2c0.2,0.4,0.5,0.8,0.7,1.2
			C91.9,19.1,91.2,19.3,90.5,19.6z"/>
	</g>
</g>
</svg>
