<?xml version="1.0" encoding="utf-8"?>
<!-- Generator: Adobe Illustrator 25.2.0, SVG Export Plug-In . SVG Version: 6.00 Build 0)  -->
<svg version="1.1" id="圖層_1" xmlns="http://www.w3.org/2000/svg" xmlns:xlink="http://www.w3.org/1999/xlink" x="0px" y="0px"
	 viewBox="0 0 86.9 34" style="enable-background:new 0 0 86.9 34;" xml:space="preserve">
<style type="text/css">
	.st0{fill:#231815;}
	.st1{fill:#E62310;}
	.st2{fill:#FFFFFF;}
</style>
<desc>Created with Sketch.</desc>
<g>
	<g>
		<path class="st0" d="M31.8,26.4c0,0.6-0.2,1.1-0.6,1.5c-0.4,0.3-0.9,0.5-1.6,0.5h-2.2v-6.2h2.2c0.6,0,1.1,0.1,1.3,0.3
			c0.3,0.2,0.4,0.5,0.4,0.9c0,0.3-0.1,0.6-0.2,0.8c-0.2,0.2-0.4,0.3-0.8,0.4c0.4,0.1,0.8,0.2,1,0.5C31.6,25.5,31.8,25.9,31.8,26.4z
			 M30,23.7c0-0.2-0.1-0.4-0.2-0.5c-0.1-0.1-0.3-0.2-0.6-0.2h-0.5v1.4h0.5c0.3,0,0.5-0.1,0.6-0.2C30,24.1,30,23.9,30,23.7z
			 M30.4,26.3c0-0.3-0.1-0.6-0.3-0.8c-0.2-0.2-0.5-0.3-0.9-0.3h-0.5v2.2h0.5c0.4,0,0.7-0.1,0.8-0.3C30.3,27,30.4,26.7,30.4,26.3z"/>
		<path class="st0" d="M36.7,28.4h-1.2l0-0.6c-0.1,0.2-0.3,0.4-0.5,0.5c-0.2,0.1-0.5,0.2-0.8,0.2c-0.5,0-0.9-0.1-1.2-0.4
			c-0.3-0.3-0.4-0.7-0.4-1.2v-0.1c0-0.5,0.2-0.9,0.5-1.2c0.4-0.3,0.8-0.4,1.4-0.4c0.2,0,0.4,0,0.5,0.1c0.2,0.1,0.3,0.1,0.4,0.2v-0.5
			c0-0.2-0.1-0.3-0.2-0.4c-0.1-0.1-0.4-0.2-0.6-0.2c-0.3,0-0.6,0-0.8,0.1c-0.2,0.1-0.4,0.1-0.6,0.2v-0.8c0.2-0.1,0.5-0.2,0.7-0.2
			c0.3-0.1,0.6-0.1,1-0.1c0.6,0,1.1,0.1,1.4,0.4c0.3,0.3,0.4,0.7,0.4,1.3V28.4z M35.4,26.8v-0.1c0-0.3-0.1-0.5-0.2-0.7
			c-0.1-0.1-0.3-0.2-0.6-0.2c-0.2,0-0.4,0.1-0.6,0.2c-0.1,0.1-0.2,0.4-0.2,0.7v0.1c0,0.3,0.1,0.5,0.2,0.6c0.2,0.1,0.3,0.2,0.6,0.2
			c0.2,0,0.4-0.1,0.5-0.2C35.3,27.2,35.4,27,35.4,26.8z"/>
		<path class="st0" d="M42,28.4h-1.3V25c0-0.1-0.1-0.2-0.2-0.3c-0.1-0.1-0.3-0.2-0.5-0.2c-0.2,0-0.4,0-0.5,0.1
			c-0.1,0.1-0.3,0.2-0.4,0.3v3.4h-1.3v-4.7h1.3l0,0.8c0.1-0.2,0.3-0.4,0.6-0.6c0.3-0.2,0.6-0.3,1-0.3c0.4,0,0.7,0.1,0.9,0.4
			c0.2,0.2,0.3,0.6,0.3,1.1V28.4z"/>
		<path class="st0" d="M47.6,28.4H46l-1.5-1.9v1.9h-1.3v-6.2h1.3v3.4l1.6-1.9h1.2l-1.8,2.1L47.6,28.4z"/>
		<path class="st0" d="M54.1,26.5c0,0.7-0.2,1.1-0.7,1.5c-0.4,0.3-1.1,0.5-1.8,0.5c-0.4,0-0.8,0-1.1-0.1c-0.3-0.1-0.6-0.1-0.8-0.2
			v-1.1c0.2,0.1,0.4,0.2,0.7,0.3c0.3,0.1,0.7,0.1,1,0.1c0.5,0,0.8-0.1,0.9-0.2c0.2-0.1,0.3-0.3,0.3-0.6c0-0.2-0.1-0.3-0.2-0.5
			c-0.1-0.1-0.5-0.3-1.1-0.6c-0.5-0.2-0.8-0.4-1.1-0.7c-0.3-0.3-0.4-0.7-0.4-1.2c0-0.5,0.2-0.9,0.6-1.2c0.4-0.3,1-0.5,1.7-0.5
			c0.3,0,0.7,0,0.9,0.1c0.3,0.1,0.5,0.1,0.6,0.1v0.9c-0.2-0.1-0.5-0.1-0.7-0.2c-0.2,0-0.5-0.1-0.7-0.1c-0.4,0-0.6,0.1-0.8,0.2
			c-0.2,0.1-0.2,0.3-0.2,0.4c0,0.2,0.1,0.4,0.2,0.5c0.1,0.1,0.5,0.3,1.1,0.5c0.6,0.2,1,0.5,1.2,0.8C54,25.7,54.1,26.1,54.1,26.5z"/>
		<path class="st0" d="M56.3,22.6c0,0.2-0.1,0.4-0.2,0.5c-0.1,0.1-0.3,0.2-0.5,0.2c-0.2,0-0.4-0.1-0.5-0.2c-0.1-0.1-0.2-0.3-0.2-0.5
			c0-0.2,0.1-0.4,0.2-0.5c0.1-0.1,0.3-0.2,0.5-0.2c0.2,0,0.4,0.1,0.5,0.2C56.2,22.2,56.3,22.4,56.3,22.6z M56.3,28.4H55v-4.7h1.3
			V28.4z"/>
		<path class="st0" d="M61.6,28.4h-1.3V25c0-0.1-0.1-0.2-0.2-0.3c-0.1-0.1-0.3-0.2-0.5-0.2c-0.2,0-0.4,0-0.5,0.1
			c-0.1,0.1-0.3,0.2-0.4,0.3v3.4h-1.3v-4.7h1.3l0,0.8c0.1-0.2,0.3-0.4,0.6-0.6c0.3-0.2,0.6-0.3,1-0.3c0.4,0,0.7,0.1,0.9,0.4
			c0.2,0.2,0.3,0.6,0.3,1.1V28.4z"/>
		<path class="st0" d="M67.4,26.1c0,0.7-0.2,1.3-0.6,1.7c-0.4,0.4-1,0.6-1.7,0.6c-0.7,0-1.3-0.2-1.7-0.6c-0.4-0.4-0.6-1-0.6-1.7
			v-0.3c0-0.7,0.2-1.3,0.6-1.7c0.4-0.4,1-0.6,1.7-0.6c0.7,0,1.3,0.2,1.7,0.6c0.4,0.4,0.6,1,0.6,1.7V26.1z M66,26L66,26
			c0-0.7-0.1-1.1-0.3-1.4c-0.2-0.2-0.4-0.4-0.7-0.4c-0.3,0-0.5,0.1-0.7,0.4c-0.2,0.3-0.3,0.7-0.3,1.3V26c0,0.7,0.1,1.1,0.3,1.3
			c0.2,0.2,0.4,0.3,0.7,0.3c0.3,0,0.5-0.1,0.7-0.3C65.9,27.1,66,26.7,66,26z"/>
		<path class="st0" d="M72.6,24.2c0,0.5-0.2,0.9-0.5,1.2c-0.3,0.3-0.8,0.4-1.4,0.4h-0.8v2.5h-1.4v-6.2h2.3c0.7,0,1.1,0.2,1.4,0.5
			c0.3,0.3,0.4,0.7,0.4,1.1V24.2z M71.1,24.3v-0.6c0-0.2-0.1-0.4-0.2-0.5c-0.1-0.1-0.4-0.2-0.7-0.2h-0.4V25h0.5
			c0.2,0,0.4-0.1,0.6-0.2C71,24.7,71.1,24.5,71.1,24.3z"/>
		<path class="st0" d="M77.3,28.4H76l0-0.6c-0.1,0.2-0.3,0.4-0.5,0.5c-0.2,0.1-0.5,0.2-0.8,0.2c-0.5,0-0.9-0.1-1.2-0.4
			c-0.3-0.3-0.4-0.7-0.4-1.2v-0.1c0-0.5,0.2-0.9,0.5-1.2c0.4-0.3,0.8-0.4,1.4-0.4c0.2,0,0.4,0,0.5,0.1c0.2,0.1,0.3,0.1,0.4,0.2v-0.5
			c0-0.2-0.1-0.3-0.2-0.4c-0.1-0.1-0.4-0.2-0.6-0.2c-0.3,0-0.6,0-0.8,0.1c-0.2,0.1-0.4,0.1-0.6,0.2v-0.8c0.2-0.1,0.5-0.2,0.7-0.2
			c0.3-0.1,0.6-0.1,1-0.1c0.6,0,1.1,0.1,1.4,0.4c0.3,0.3,0.4,0.7,0.4,1.3V28.4z M76,26.8v-0.1c0-0.3-0.1-0.5-0.2-0.7
			c-0.1-0.1-0.3-0.2-0.6-0.2c-0.2,0-0.4,0.1-0.6,0.2c-0.1,0.1-0.2,0.4-0.2,0.7v0.1c0,0.3,0.1,0.5,0.2,0.6c0.2,0.1,0.3,0.2,0.6,0.2
			c0.2,0,0.4-0.1,0.5-0.2C75.9,27.2,76,27,76,26.8z"/>
		<path class="st0" d="M82,28.1c-0.1,0-0.2,0.1-0.5,0.2c-0.3,0.1-0.5,0.1-0.8,0.1c-0.8,0-1.4-0.2-1.8-0.6c-0.5-0.4-0.7-1-0.7-1.8
			v-0.2c0-0.7,0.2-1.3,0.7-1.7c0.4-0.4,1-0.7,1.8-0.7c0.3,0,0.6,0,0.8,0.1c0.2,0.1,0.4,0.2,0.5,0.2v0.8c-0.1-0.1-0.3-0.2-0.5-0.3
			c-0.2-0.1-0.4-0.1-0.6-0.1c-0.4,0-0.7,0.1-0.9,0.4c-0.2,0.3-0.3,0.7-0.3,1.2V26c0,0.6,0.1,1,0.3,1.2c0.2,0.2,0.5,0.4,0.8,0.4
			c0.3,0,0.5,0,0.8-0.1c0.2-0.1,0.4-0.2,0.5-0.2V28.1z"/>
	</g>
	<g>
		<path class="st0" d="M27.9,12.2h4.3l0.3,0.4c-0.3,2-1.7,3.8-4.2,5.4l-0.8-0.9c1-0.5,1.7-1,2.2-1.4c0.4-0.4,0.8-0.8,1.2-1.4
			c0.3-0.4,0.4-0.7,0.5-0.8c0-0.1,0-0.1,0-0.1c-0.1,0-0.1-0.1-0.3-0.1h-3.2V12.2z M34.3,13.5v4.1c0,0.5-0.2,0.9-0.5,1.2
			c-0.3,0.2-0.7,0.3-1.3,0.3c-0.7,0-1.3-0.1-2-0.2l-0.1-1.2c1.3,0.4,2.1,0.4,2.4,0.3c0.2-0.2,0.3-0.4,0.3-0.7v-6.1
			c0-0.1-0.1-0.2-0.2-0.2h-4.8V9.9h5.7c0.2,0,0.4,0.1,0.3,0.4v0.4c0.5,1.6,1.1,2.8,1.7,3.7c0.7,1.1,1.8,2.1,3.2,3.2l-1,0.7
			C36.5,16.9,35.2,15.3,34.3,13.5z M29.6,8.7l0.2-1.1c0.6,0,1.6,0.2,3.1,0.3c1.4,0.2,2.7,0.4,3.9,0.6l-0.2,1.1
			C34.4,9.1,32.1,8.8,29.6,8.7z M38.3,9.8l0.8,0.7c-0.6,0.8-1.5,1.6-2.6,2.5l-0.7-0.8C36.9,11.2,37.8,10.4,38.3,9.8z"/>
		<path class="st0" d="M45.1,18.1c0-0.1-0.1-0.2-0.1-0.3c-0.1-0.2-0.2-0.4-0.2-0.5h-1.6c-0.1,0-0.1,0-0.1-0.1v-2
			c0-0.1,0-0.1,0.1-0.1h9c0.1,0,0.1,0,0.1,0.1v2c0,0.1,0,0.1-0.1,0.1h-1.6c-0.1,0.2-0.1,0.3-0.2,0.6c0,0.1-0.1,0.2-0.1,0.2h3.3V19
			H41.7v-0.9H45.1z M42,13.7h11.2v0.8H42V13.7z M49.7,11.7h-1.2V11h1.2v-0.6h-1.2V9.6h1.2V9h-1.2V8.2h1.2V7.5h0.9v0.7h1V9h-1v0.6h1
			v0.8h-1V11h1v0.8h-1v0.6h1.3c0.1,0,0.2-0.1,0.2-0.2V7.7h1v5.1c0,0.3-0.1,0.4-0.4,0.4h-10c-0.3,0-0.4-0.1-0.4-0.4V7.7h1v4.5
			c0,0.1,0,0.2,0.1,0.2h1.3v-0.6h-1.1V11h1.1v-0.6h-1.1V9.6h1.1V9h-1.1V8.2h1.1V7.5h0.9v0.7h1V9h-1v0.6h1v0.8h-1V11h1v0.8h-1v0.6
			h1.5V7.5h1v4.8h1.7V11.7z M51.3,15.9h-7.4c0,0,0,0,0,0v0.5c0,0,0,0,0,0h7.4c0,0,0,0,0,0L51.3,15.9C51.4,15.9,51.4,15.9,51.3,15.9z
			 M46.1,18.1h3c0.1-0.3,0.3-0.6,0.4-0.8h-3.7C45.8,17.5,45.9,17.7,46.1,18.1z"/>
		<path class="st0" d="M59.1,8.4c-0.5,0.6-1.2,1.3-2.2,2L56,9.8c1.4-0.8,2.3-1.6,2.7-2.4h1c0,0.1-0.1,0.1-0.1,0.2l0,0
			c0.6,0.5,1.1,1,1.7,1.5l-0.8,0.7C60,9.3,59.5,8.9,59.1,8.4z M56.1,14.7l0.9-0.3c0.3,0.6,0.5,1.4,0.6,2.4l-1,0.2
			C56.5,16,56.3,15.2,56.1,14.7z M58.1,17.5v-3.7h-1.9v-1h1.9v-1.3h-1.3v-1h3.7v1h-1.3v1.3h1.7v1h-1.7v3.5c0.8-0.2,1.3-0.4,1.6-0.4
			l0.2,1c-1.8,0.5-3.3,0.8-4.5,1l-0.1-1C56.9,17.8,57.5,17.7,58.1,17.5z M60,14.4l0.9,0.3c-0.2,0.6-0.3,1.2-0.6,1.8l-0.8-0.4
			C59.8,15.5,59.9,14.9,60,14.4z M65.1,15.5c0.8-0.6,1.4-1.1,1.8-1.6l0.7,0.7c-0.5,0.5-1.2,1.1-2,1.7c0.6,0.8,1.3,1.4,2.2,2
			l-0.9,0.7c-0.9-0.7-1.5-1.2-1.7-1.6c-0.9-1.1-1.4-2.4-1.5-4h-1.1v4.1c0.7-0.2,1.3-0.4,1.8-0.6l0.3,1c-1,0.4-2.2,0.8-3.7,1.1
			l-0.3-1c0.3-0.1,0.6-0.1,0.8-0.2V8.1c0-0.2,0.1-0.3,0.3-0.3h4.9c0.2,0,0.3,0.1,0.3,0.3v5.2c0,0.2-0.1,0.3-0.3,0.3h-2
			C64.7,14.3,64.9,15,65.1,15.5z M62.5,10.2H66V9c0-0.2-0.1-0.2-0.2-0.2h-3c-0.2,0-0.3,0.1-0.2,0.2V10.2z M66,11.1h-3.4v1.4h3.2
			c0.2,0,0.3-0.1,0.3-0.3V11.1z"/>
		<path class="st0" d="M72,14.2c-0.3,0.3-0.6,0.6-0.8,0.8l-0.9-0.7c1.2-1,2.1-2.2,2.7-3.6l1,0.4c-0.3,0.7-0.6,1.2-0.9,1.7v6.3H72
			V14.2z M72.6,7.5l1,0.4c-0.7,1.6-1.4,2.7-2.3,3.5l-0.9-0.6C71.4,9.9,72.1,8.8,72.6,7.5z M79,12.1h-4.5V11H82v1.1h-2v5.6
			c0,0.5-0.2,0.8-0.6,1.1c-0.7,0.4-1.9,0.4-3.7-0.1l0-1.1c0.6,0.2,1.3,0.3,1.9,0.4c0.5,0.1,0.9,0,1.2-0.2c0.1-0.1,0.1-0.2,0.1-0.4
			V12.1z M74.9,8.1h6.6v1.1h-6.6V8.1z"/>
	</g>
	<g>
		<path class="st1" d="M21.5,14.2c0,4.9-3.9,8.8-8.8,8.8c-4.9,0-8.8-3.9-8.8-8.8c0-4.9,3.9-8.8,8.8-8.8C17.6,5.5,21.5,9.4,21.5,14.2
			z"/>
		<g>
			<rect x="13.7" y="8.6" class="st2" width="2.2" height="2.2"/>
			<polygon class="st2" points="5.9,14.7 5.9,16.7 7.9,16.7 7.9,18.6 9.8,18.6 9.8,14.7 			"/>
			<polygon class="st2" points="6.4,10.8 6.4,12.8 11.8,12.8 11.8,18.6 13.7,18.6 13.7,10.8 			"/>
			<polygon class="st2" points="15.7,12.8 15.7,18.6 17.6,18.6 17.6,14.7 20.1,14.7 20.1,12.8 			"/>
		</g>
	</g>
</g>
</svg>
