<?xml version="1.0" encoding="utf-8"?>
<!-- Generator: Adobe Illustrator 25.0.1, SVG Export Plug-In . SVG Version: 6.00 Build 0)  -->
<svg version="1.1" id="圖層_1" xmlns="http://www.w3.org/2000/svg" xmlns:xlink="http://www.w3.org/1999/xlink" x="0px" y="0px"
	 viewBox="0 0 158.4 36.9" style="enable-background:new 0 0 158.4 36.9;" xml:space="preserve">
<style type="text/css">
	.st0{fill:url(#SVGID_1_);}
	.st1{fill:#009043;}
	.st2{fill:url(#SVGID_2_);}
</style>
<g>
	<g>
		<path d="M56.4,29.5c0-1.4,0.5-2.7,2.5-2.7c0.4,0,0.9,0.1,1.2,0.2l-0.1,0.7c-0.3-0.1-0.7-0.2-1.1-0.2c-1.2,0-1.6,0.8-1.6,2
			c0,1.1,0.5,1.8,1.7,1.8c0.4,0,0.8-0.1,1.1-0.2l0.1,0.7c-0.3,0.1-0.8,0.2-1.2,0.2C56.9,32.1,56.4,30.9,56.4,29.5L56.4,29.5z"/>
		<path d="M64.1,32l-0.7,0.1c-0.1-0.2-0.2-0.4-0.2-0.6c-0.2,0.4-0.7,0.7-1.2,0.7c-0.6,0-1.3-0.3-1.3-1.2c0-0.9,0.5-1.2,2.3-1.3v-0.3
			c0-0.4-0.1-0.7-0.7-0.7c-0.4,0-0.8,0.1-1.2,0.3L61,28.3c0.4-0.2,0.9-0.3,1.4-0.3c1,0,1.4,0.4,1.4,1.3v1.5
			C63.8,31.4,63.9,31.8,64.1,32z M61.5,30.9c0,0.5,0.4,0.6,0.7,0.6c0.5,0,0.8-0.3,0.9-0.7v-0.5C61.9,30.3,61.5,30.4,61.5,30.9z"/>
		<path d="M66.7,31.4V32l-0.4,0c-0.7,0-1.1-0.2-1.1-0.9v-2.3h-0.6v-0.6h0.6v-0.9l0.8-0.2v1.1h0.8v0.6H66v2c0,0.5,0.1,0.6,0.4,0.6
			H66.7z"/>
		<path d="M69.6,28.1c1,0,1.3,0.6,1.3,1.3V32h-0.8v-2.4c0-0.5-0.2-0.9-0.7-0.9c-0.4,0-0.8,0.2-1,0.4V32h-0.8v-5.3l0.8-0.1v2
			C68.7,28.3,69.2,28.1,69.6,28.1z"/>
		<path d="M75.2,32l-0.7,0.1c-0.1-0.2-0.2-0.4-0.2-0.6c-0.2,0.4-0.7,0.7-1.2,0.7c-0.6,0-1.3-0.3-1.3-1.2c0-0.9,0.5-1.2,2.3-1.3v-0.3
			c0-0.4-0.1-0.7-0.7-0.7c-0.4,0-0.8,0.1-1.2,0.3l-0.2-0.7c0.4-0.2,0.9-0.3,1.4-0.3c1,0,1.4,0.4,1.4,1.3v1.5
			C74.9,31.4,75,31.8,75.2,32z M72.6,30.9c0,0.5,0.4,0.6,0.7,0.6c0.5,0,0.8-0.3,0.9-0.7v-0.5C73,30.3,72.6,30.4,72.6,30.9z"/>
		<path d="M78.4,28.1h0.9c-0.3,1-0.9,2.8-1.3,3.7c-0.3,0.8-0.7,1.4-0.9,1.7l-0.8-0.3c0.3-0.3,0.7-0.8,0.9-1.5l-1.5-3.6h0.9l1,2.8
			C77.9,30.1,78.2,28.9,78.4,28.1z"/>
		<path d="M83.9,32.1c-1.1,0-2-0.6-2-1.8v-3.5h0.8v3.2c0,0.8,0.3,1.3,1.2,1.3c0.9,0,1.2-0.6,1.2-1.3v-3.2H86v3.5
			C86,31.5,85.1,32.1,83.9,32.1L83.9,32.1z"/>
		<path d="M87.9,28.1c0.1,0.1,0.1,0.4,0.1,0.5c0.3-0.3,0.8-0.5,1.2-0.5c1,0,1.3,0.6,1.3,1.3V32h-0.8v-2.4c0-0.5-0.2-0.9-0.7-0.9
			c-0.4,0-0.8,0.2-1,0.4V32h-0.8v-3c0-0.3,0-0.6-0.1-0.8L87.9,28.1z"/>
		<path d="M92.6,27.6h-0.8v-0.7h0.8V27.6z M92.6,32h-0.8v-3.9h0.8V32z"/>
		<path d="M95.4,31.4V32l-0.4,0c-0.7,0-1.1-0.2-1.1-0.9v-2.3h-0.6v-0.6h0.6v-0.9l0.8-0.2v1.1h0.8v0.6h-0.8v2c0,0.5,0.1,0.6,0.4,0.6
			H95.4z"/>
		<path d="M98.2,31.5c0.4,0,0.8-0.1,1.1-0.2l0.1,0.6c-0.2,0.1-0.8,0.3-1.3,0.3c-1.4,0-2-0.9-2-2c0-1.2,0.6-2.1,1.8-2.1
			c1.1,0,1.5,0.7,1.5,1.8v0.5H97C97,31.1,97.4,31.5,98.2,31.5L98.2,31.5z M97.9,28.6c-0.6,0-0.9,0.5-0.9,1h1.8
			C98.8,29,98.6,28.6,97.9,28.6L97.9,28.6z"/>
		<path d="M101.9,32.1c-1,0-1.5-0.7-1.5-2c0-1.1,0.4-2.1,1.6-2.1c0.4,0,0.8,0.2,1.1,0.4v-1.7l0.8-0.1v4.1c0,0.5,0,0.9,0.2,1.2
			l-0.7,0.1c-0.1-0.2-0.2-0.4-0.2-0.6C103,31.8,102.6,32.1,101.9,32.1L101.9,32.1z M103.1,29.8c0-0.2,0-0.4,0-0.6
			c-0.2-0.2-0.5-0.5-0.9-0.5c-0.7,0-1,0.6-1,1.4c0,0.7,0.2,1.3,0.9,1.3c0.6,0,0.9-0.4,1-0.6c0-0.1,0-0.3,0-0.5V29.8z"/>
		<path d="M110.4,30.6c0,1.1-0.8,1.4-1.8,1.4H107v-5.1h1.5c0.9,0,1.7,0.2,1.7,1.3c0,0.6-0.3,1-0.8,1.1
			C109.8,29.4,110.4,29.7,110.4,30.6L110.4,30.6z M109.4,28.3c0-0.5-0.4-0.7-1-0.7h-0.6v1.5h0.9C109.1,29,109.4,28.8,109.4,28.3
			L109.4,28.3z M107.8,31.3h0.7c0.5,0,1-0.1,1-0.8c0-0.6-0.4-0.8-1.1-0.8h-0.7V31.3z"/>
		<path d="M114.5,32l-0.7,0.1c-0.1-0.2-0.2-0.4-0.3-0.6c-0.2,0.4-0.7,0.7-1.2,0.7c-0.6,0-1.3-0.3-1.3-1.2c0-0.9,0.5-1.2,2.3-1.3
			v-0.3c0-0.4-0.1-0.7-0.7-0.7c-0.4,0-0.8,0.1-1.2,0.3l-0.2-0.7c0.4-0.2,0.9-0.3,1.4-0.3c1,0,1.4,0.4,1.4,1.3v1.5
			C114.3,31.4,114.4,31.8,114.5,32z M111.9,30.9c0,0.5,0.4,0.6,0.7,0.6c0.5,0,0.8-0.3,0.9-0.7v-0.5
			C112.3,30.3,111.9,30.4,111.9,30.9z"/>
		<path d="M116.2,28.1c0.1,0.1,0.1,0.4,0.1,0.5c0.3-0.3,0.7-0.5,1.2-0.5c1,0,1.3,0.6,1.3,1.3V32H118v-2.4c0-0.5-0.2-0.9-0.7-0.9
			c-0.4,0-0.8,0.2-1,0.4V32h-0.8v-3c0-0.3,0-0.6-0.1-0.8L116.2,28.1z"/>
		<path d="M123.3,32h-1l-1.5-1.9V32H120v-5.3l0.8-0.1V30l1.5-1.9h0.9l-1.6,1.9L123.3,32z"/>
	</g>
	<g>
		<g>
			<path d="M144.3,12.8h-1.4c-0.5,0.6-1.4,2-3.1,2.6v0c0,0-0.1,0-0.1,0.1v0v0.7c0,0,0,0.3,0.3,0.2c0.5-0.2,0.9-0.3,1.3-0.5v5.7
				c0,0.4,0.3,0.8,0.8,0.8h0.8c0.1,0,0.2-0.1,0.2-0.2l0-7.4c0.7-0.6,1.1-1.2,1.4-1.7C144.5,12.8,144.3,12.8,144.3,12.8z M144.3,9.8
				h-1.4c-0.5,0.6-1.4,2-3.1,2.5l0,0l-0.1,0v0v0.7c0,0,0,0.3,0.3,0.2c2.9-1,3.9-2.4,4.5-3.3C144.5,9.8,144.3,9.8,144.3,9.8z
				 M124.1,19.8h0.9c0,0,0,0,0,0l-0.1-2.4c0-0.1-0.1-0.2-0.2-0.2h-1c-0.1,0-0.1,0-0.1,0.1l0,0l0.4,2.4C124,19.8,124,19.8,124.1,19.8
				z M128.6,17.2h-1c-0.1,0-0.2,0.1-0.2,0.2l-0.1,2.4c0,0,0,0,0,0h0.9c0.1,0,0.1,0,0.1-0.1l0.4-2.4l0,0
				C128.7,17.2,128.7,17.2,128.6,17.2z M127.3,9.8h-2.2c-0.2,0-0.4,0.1-0.4,0.3c0,0.1,0,0.1-0.1,0.2c-0.4,1.2-1.1,2-1.6,2.6v0.7
				c0,0.1,0.1,0.1,0.1,0.1c0,0,0,0,0,0c0,0,0,0,0.1,0c1.4-0.8,2.4-1.8,3-3c0.5,1,1.4,1.9,2.6,2.7c0,0,0,0,0,0c0,0,0,0,0.1,0
				c0.1,0,0.1,0,0.1-0.1v-0.8c-0.4-0.5-0.9-1.3-1.2-2.2C127.7,10.1,127.6,9.8,127.3,9.8z M128.9,20.1L128.9,20.1
				c-0.7,0.2-1.4,0.4-2.1,0.5v-4.1h1.9c0.1,0,0.2-0.1,0.2-0.2l0-0.6c0-0.1-0.1-0.2-0.2-0.2h-1.9v-1.2h1.4c0.1,0,0.2-0.1,0.2-0.2
				v-0.6c0-0.1-0.1-0.2-0.2-0.2h-4.2c-0.1,0-0.2,0.1-0.2,0.2v0.6c0,0.1,0.1,0.2,0.2,0.2h1.4v1.2h-1.9c-0.1,0-0.2,0.1-0.2,0.2v0.6
				c0,0.1,0.1,0.2,0.2,0.2l1.9,0v4.3c-1,0.1-1.8,0.2-2.4,0.2h0c-0.1,0-0.2,0.1-0.2,0.2v0.9c0,0.1,0.1,0.2,0.2,0.2h0h0
				c1.3-0.1,4-0.6,5.7-1.3c0,0,0.1,0,0.1-0.2L128.9,20.1C128.9,20.1,128.9,20.1,128.9,20.1z M136.7,21.1c-0.6-0.4-1.3-1-1.8-1.7
				c0.4-0.8,0.7-1.7,0.9-2.6c0-0.3-0.2-0.2-0.2-0.2h-1c-0.1,0.6-0.2,1.3-0.4,1.8c-0.4-0.7-0.8-1.6-0.9-2.4h1.7c0,0,0,0,0,0h0.7
				c0.1,0,0.2-0.1,0.2-0.2v-0.4v-5c0-0.4-0.4-0.6-0.7-0.6h-5.5c-0.1,0-0.2,0.1-0.2,0.2v12.1c0,0.1,0.1,0.2,0.2,0.2h0
				c0.8,0,2.2-0.3,3.4-0.8c0,0,0,0,0,0c0.1,0,0.1-0.1,0.1-0.2v-0.8c0,0,0,0-0.1,0c-0.8,0.2-1.7,0.3-2.3,0.4V16h0.9
				c0.8,2.8,2.5,5,4.7,6.3l0,0c0,0,0,0,0.1,0c0.1,0,0.2-0.1,0.2-0.2h0l0,0V21.1z M130.9,11.2L130.9,11.2v-0.3h3.7v1.6h-3.7V11.2z
				 M130.9,15v-1.5h3.7l0,1.5H130.9z M119.9,10.6h-3.1c0-0.4-0.3-0.7-0.7-0.7h-0.7c-0.1,0-0.2,0.1-0.2,0.2v0.5h-4.1v-0.5
				c0-0.1-0.1-0.2-0.2-0.2h-0.7c-0.4,0-0.7,0.3-0.7,0.7h-3.1c-0.1,0-0.1,0.1-0.1,0.1v0.7c0,0.1,0.1,0.1,0.1,0.1h3.1v0.6
				c0,0.1,0.1,0.2,0.2,0.2h1.3c0.1,0,0.2-0.1,0.2-0.2v-0.6h4.1v0.6c0,0.1,0.1,0.2,0.2,0.2h1.3c0.1,0,0.2-0.1,0.2-0.2v-0.6h3.1
				c0.1,0,0.1-0.1,0.1-0.1v-0.7C120,10.7,119.9,10.6,119.9,10.6z M103.2,13.3h-1.8v-2.6c0-0.4-0.3-0.7-0.7-0.7l-0.8,0
				c-0.1,0-0.2,0.1-0.2,0.2c0,0,0,0,0,0v3.2h-2.8v-3.2c0-0.1-0.1-0.2-0.2-0.2h-0.8c-0.4,0-0.8,0.3-0.8,0.8v2.6h-2.4v-2.8
				c0-0.1-0.1-0.2-0.2-0.2h-0.8c-0.4,0-0.7,0.3-0.7,0.7v2.3h-1.3c-0.1,0-0.1,0.1-0.1,0.1v0.7c0,0.1,0.1,0.1,0.1,0.1H91v7.2
				c0,0.4,0.3,0.8,0.8,0.8h10.8c0.1,0,0.2-0.1,0.2-0.2v-0.7c0-0.1-0.1-0.2-0.2-0.2h-9.9l0-7h2.4v3.8c0,0.4,0.3,0.8,0.7,0.8h4.7
				c0.4,0,0.8-0.3,0.8-0.7v-3.8h1.8c0.1,0,0.1-0.1,0.1-0.1v-0.7C103.3,13.3,103.3,13.3,103.2,13.3z M96.8,17.8v-3.5h2.8v3.5H96.8z
				 M145.8,11.3h6.8c0.1,0,0.1-0.1,0.1-0.1v-0.7c0-0.1-0.1-0.1-0.1-0.1h-6.8c-0.1,0-0.1,0.1-0.1,0.1v0.7
				C145.7,11.2,145.7,11.3,145.8,11.3z M153.2,13.7H145c-0.1,0-0.1,0.1-0.1,0.1v0.8c0,0.1,0.1,0.1,0.1,0.1h4.7v6.1
				c0,0.4-0.1,0.6-0.7,0.6h-0.6c0,0-0.1,0-0.1,0v0.7c0,0.1,0.1,0.1,0.1,0.1h0.1h0h0.9c0.1,0,0.2,0,0.3,0c1.2,0,1.6-0.3,1.6-1.5v-6.1
				h1.8c0.1,0,0.1-0.1,0.1-0.1v-0.8C153.3,13.8,153.3,13.7,153.2,13.7z M63.6,18.8v-0.6c0-0.1-0.1-0.1-0.1-0.1
				c-1.7,0.5-3.7,0.7-4.6,0.7h0c-0.1,0-0.1,0.1-0.1,0.1v1c0,0.1,0.1,0.1,0.1,0.1l0,0h0h0c1,0,3.3-0.5,4.6-1.1
				C63.5,18.9,63.6,18.9,63.6,18.8z M59.4,17.4l3.4,0c0.4,0,0.7-0.3,0.7-0.7v-2.1c0-0.4-0.3-0.7-0.7-0.7h-3.4
				c-0.4,0-0.7,0.3-0.7,0.7v2.1C58.7,17.1,59,17.4,59.4,17.4z M60.3,14.6h1.6v2h-1.6V14.6z M69.1,10.1h-12c-0.4,0-0.7,0.3-0.7,0.7
				v10.7c0,0.4,0.3,0.7,0.7,0.7h12c0.4,0,0.7-0.3,0.7-0.7l0-10.7C69.8,10.4,69.5,10.1,69.1,10.1z M65.1,11h1
				c0.1,0.3,0.1,0.7,0.2,1.2h-1.2C65.1,11.6,65.1,11.2,65.1,11z M58,11h5.8c0,0.2,0,0.7,0.1,1.2H58V11z M68.2,21.4H58l0-8.3H64
				c0.2,1.3,0.5,3.1,1.3,4.7c-0.6,0.9-1.3,1.7-2.2,2.3c-0.1,0,0,0.1,0,0.1l0.3,0.5c0,0,0,0.1,0.1,0c0.9-0.5,1.6-1.2,2.3-2
				c0.4,0.8,1,1.5,1.6,2.1c0.1,0.1,0.1,0,0.1,0l0.4-0.5c0,0,0.1,0,0-0.1c-0.6-0.7-1.1-1.6-1.5-2.4c0.5-0.7,0.9-1.4,1.2-2.1
				c0.1-0.1,0-0.1,0-0.1l-0.9-0.4c0,0-0.1,0-0.1,0.1c-0.2,0.4-0.4,0.9-0.6,1.3c-0.4-1.3-0.6-2.6-0.7-3.6h2.2c0,0,0.3,0,0.3-0.4
				c-0.1-0.7-0.3-1.4-0.3-1.8h0.8V21.4z M80,16.6h-0.8c-0.1,0-0.2,0.1-0.2,0.2v4c0,0.4-0.1,0.6-0.7,0.6H78c-0.1,0,0,0,0,0v0.6
				c0,0.1,0.1,0.2,0.2,0.2h0.6c1.4,0,1.9-0.2,1.9-1.4l0-3.4C80.7,17,80.4,16.6,80,16.6z M86.5,15H78c0.3-0.4,0.6-0.8,0.8-1.2h6.1
				c0.1,0,0.1-0.1,0.1-0.1v-0.7c0-0.1-0.1-0.1-0.1-0.1h-5.5c0.2-0.4,0.4-0.8,0.6-1.2h6c0.1,0,0.1-0.1,0.1-0.1v-0.7
				c0-0.1-0.1-0.1-0.1-0.1h-5.5c0.1-0.1,0.1-0.3,0.1-0.4c0-0.1,0-0.2-0.1-0.3c-0.3-0.1-1-0.2-1.2-0.3C79.1,9.6,79,9.9,79,9.9
				l-0.1,0.3c0,0.1-0.1,0.2-0.1,0.4h-4.9c-0.1,0-0.1,0.1-0.1,0.1v0.7c0,0.1,0.1,0.1,0.1,0.1h4.5c-0.2,0.4-0.4,0.8-0.6,1.2h-2.9
				c-0.1,0-0.1,0.1-0.1,0.1v0.7c0,0.1,0.1,0.1,0.1,0.1h2.3c-0.2,0.4-0.5,0.8-0.8,1.2h-3.1c-0.1,0-0.1,0.1-0.1,0.1v0.7
				c0,0.1,0.1,0.1,0.1,0.1h2.2c-0.7,0.7-1.4,1.3-2.2,1.7c-0.2,0.1-0.1,0.3-0.1,0.3l0.2,0.4c0,0,0.1,0.2,0.2,0.1
				c0.5-0.2,1-0.4,1.5-0.7c1.1,0.3,2.4,0.9,2.7,1c0.1,0.1,0.1,0,0.1,0l0.4-0.8c0,0,0.1-0.1,0-0.1c-0.5-0.2-1.5-0.5-2.3-0.7
				c0.4-0.3,0.7-0.7,1.1-1h5.3c0.3,0.3,0.7,0.7,1.1,1c-0.6,0.3-1.7,0.5-2.2,0.6c-0.1,0-0.1,0.1-0.1,0.1c0.1,0.3,0.1,0.6,0.3,0.9
				c0,0.1,0.1,0.1,0.2,0.1c0.4-0.1,2-0.7,2.7-1.2c0.6,0.4,1.2,0.7,1.8,0.9c0.2,0.1,0.3-0.1,0.3-0.1l0.2-0.4c0,0,0.1-0.2-0.1-0.3
				c-0.8-0.4-1.8-1-2.5-1.7h2.5c0.1,0,0.1-0.1,0.1-0.1v-0.7C86.6,15,86.6,15,86.5,15z M78.5,19.9c0-0.3-0.1-0.3-0.1-0.5
				c0,0-0.1-0.1-0.1-0.1c-1.4,0.7-2.7,1.1-4.2,1.5c-0.1,0-0.1,0.1-0.1,0.2c0.1,0.3,0.3,0.7,0.4,0.9c0,0.1,0.1,0.1,0.2,0.1
				c1.2-0.4,2.7-1.2,3.8-1.8C78.5,20,78.5,20,78.5,19.9z M85.5,20.8c-1.2-0.6-2.7-1.1-3.9-1.4c-0.1,0-0.1,0.1-0.1,0.1L81.2,20
				c0,0-0.1,0.1,0,0.2c1.2,0.5,2.3,1,3.5,1.7c0.1,0.1,0.3,0,0.3-0.1c0.2-0.3,0.3-0.5,0.5-0.8C85.6,20.9,85.6,20.8,85.5,20.8z
				 M119.9,15.1h-2.2v-1.3h1.2c0.1,0,0.1-0.1,0.1-0.1V13c0-0.1-0.1-0.1-0.1-0.1h-11.4c-0.1,0-0.1,0.1-0.1,0.1v0.7
				c0,0.1,0.1,0.1,0.1,0.1h1.2v1.3h-2.2c-0.1,0-0.1,0.1-0.1,0.1V16c0,0.1,0.1,0.1,0.1,0.1h2.2v1.3h-1.2c-0.1,0-0.1,0.1-0.1,0.1v0.7
				c0,0.1,0.1,0.1,0.1,0.1h4.9v1.3h-5.9c-0.1,0-0.1,0.1-0.1,0.1v0.7c0,0.1,0.1,0.1,0.1,0.1h5.9v0.9c0,0.4,0.3,0.8,0.8,0.8h0.7
				c0.1,0,0.2-0.1,0.2-0.2v-1.5h5.9c0.1,0,0.1-0.1,0.1-0.1v-0.7c0-0.1-0.1-0.1-0.1-0.1h-5.9v-1.3h4.9c0.1,0,0.1-0.1,0.1-0.1v-0.7
				c0-0.1-0.1-0.1-0.1-0.1h-1.2v-1.3h2.2c0.1,0,0.1-0.1,0.1-0.1v-0.7C120,15.2,119.9,15.1,119.9,15.1z M112.3,17.4h-2.1v-1.3h2.1
				V17.4z M112.3,15.1h-2.1v-1.3h2.1V15.1z M116,17.4h-2.1v-1.3h2.1V17.4z M116,15.1h-2.1v-1.3h2.1V15.1z"/>
		</g>
	</g>
	<g>
		<linearGradient id="SVGID_1_" gradientUnits="userSpaceOnUse" x1="29.6922" y1="1.6982" x2="10.6595" y2="25.2016">
			<stop  offset="0" style="stop-color:#6FBA2C"/>
			<stop  offset="0.3125" style="stop-color:#30A938"/>
			<stop  offset="0.7712" style="stop-color:#009641"/>
			<stop  offset="1" style="stop-color:#009043"/>
		</linearGradient>
		<path class="st0" d="M16.9,11.9c7.4-3.3,14.9-4.3,20.7-3.1C37,8.5,36.3,8,35.9,7.3c-1.1-1.9-3.1-3.1-5.5-2.8c-1,0.1-2-0.1-2.6-0.6
			c-0.9-0.6-1.9-1-3.1-1c-1.2,0-2.2,0.4-3.1,1c-0.6,0.4-1.6,0.7-2.6,0.6c-2.4-0.3-4.5,0.9-5.5,2.8c-0.5,0.9-1.3,1.4-2.1,1.7l0,0
			c-1.9,0.7-3.5,2.4-3.7,4.6c-0.1,1.1-0.7,1.9-1.2,2.4c-1.3,1.3-1.8,2.8-1.8,4.3c0,0,0,0.1,0,0.1C7.7,17.1,11.9,14.1,16.9,11.9z"/>
		<path class="st1" d="M9.8,26.2c3.2-3.8,7.9-7.4,13.6-10c6.3-2.8,12.7-4,18.1-3.5c-0.5-1.8-1.8-3.2-3.5-3.8l0,0
			c-0.1,0-0.2-0.1-0.4-0.1c-5.8-1.2-13.3-0.2-20.7,3.1c-5,2.2-9.2,5.2-12.3,8.4C4.7,23.3,6.9,25.8,9.8,26.2z"/>
		<linearGradient id="SVGID_2_" gradientUnits="userSpaceOnUse" x1="35.6573" y1="0.9761" x2="12.9631" y2="29.0011">
			<stop  offset="0" style="stop-color:#45B035"/>
			<stop  offset="0.27" style="stop-color:#00A13D"/>
			<stop  offset="0.5437" style="stop-color:#009741"/>
			<stop  offset="0.7948" style="stop-color:#009243"/>
			<stop  offset="1" style="stop-color:#009043"/>
		</linearGradient>
		<path class="st2" d="M9.8,26.2c3.2-3.8,7.9-7.4,13.6-10c6.3-2.8,12.7-4,18.1-3.5c-0.5-1.8-1.8-3.2-3.5-3.8l0,0
			c-0.1,0-0.2-0.1-0.4-0.1c-5.8-1.2-13.3-0.2-20.7,3.1c-5,2.2-9.2,5.2-12.3,8.4C4.7,23.3,6.9,25.8,9.8,26.2z"/>
		<path class="st1" d="M23.4,16.2c-5.7,2.6-10.4,6.1-13.6,10c0.3,0,0.5,0.1,0.8,0.1h8.6c0.8,0,1.5,0.7,1.5,1.5v0.3
			c0,1.4-1.4,1.6-1.4,1.6l-7,1.2c-0.2,0-0.5,0.2-0.5,0.5v0.9h25.5v-0.9c0-0.2-0.2-0.5-0.5-0.5l-7-1.2c0,0-1.4-0.2-1.4-1.6v-0.3
			c0-0.8,0.7-1.5,1.5-1.5h8.6c3.3,0,6-2.7,6-6c0-1.5-0.5-3-1.8-4.3c-0.5-0.5-1.1-1.3-1.2-2.4c0-0.3-0.1-0.6-0.1-0.8
			C36.2,12.3,29.8,13.4,23.4,16.2z"/>
	</g>
</g>
</svg>
