<svg width="172" height="30" viewBox="0 0 172 30" fill="none" xmlns="http://www.w3.org/2000/svg">
<g clip-path="url(#clip0_1119_1125)">
<path d="M4.97848 6.88751L4.13237 8.801C3.44774 8.34236 2.7478 7.95047 2.03318 7.62476C1.37835 7.2846 0.708234 7.01099 0.0238037 6.80415L1.04804 4.8457C1.74758 5.11198 2.42505 5.41509 3.07988 5.75527C3.73507 6.09564 4.36781 6.47304 4.97848 6.88751Z" fill="black"/>
<path d="M4.97848 11.6275L4.13237 13.5411C3.44774 13.0827 2.7478 12.6907 2.03318 12.365C1.37835 12.0248 0.708234 11.751 0.0238037 11.5444L1.04804 9.58594C1.74758 9.85222 2.42505 10.1553 3.07988 10.4955C3.73507 10.8361 4.36781 11.2131 4.97848 11.6275Z" fill="black"/>
<path d="M20.6601 23.9873C19.5558 23.865 18.4516 23.6817 17.3473 23.4374C18.022 23.07 19.0956 22.4283 20.5681 21.5114C22.0404 20.5941 22.8685 19.83 23.0526 19.2187C22.9912 19.0964 22.7767 18.9131 22.4084 18.6685C22.1015 18.3628 21.8868 18.1795 21.7645 18.1182H8.14536V19.9523H10.1698L9.24956 21.4195C9.80156 21.6642 10.3538 21.9698 10.906 22.3364C11.458 22.6421 12.0102 23.0091 12.5622 23.4374C11.335 23.6817 10.1389 23.865 8.97345 23.9873C7.74631 24.1097 7.82375 24.171 6.65857 24.171L7.02643 26.1885C8.55989 26.0658 8.81992 25.8825 10.3538 25.6382C11.8872 25.3322 13.4211 24.9656 14.9549 24.5376C16.3042 24.9656 17.6845 25.3322 19.0956 25.6382C20.5067 25.8825 21.9484 26.0658 23.4207 26.1885L23.9729 24.171C22.8685 24.171 21.7645 24.1097 20.6601 23.9873ZM14.9549 22.5201C14.0956 22.0922 13.2983 21.6642 12.5622 21.2363C11.826 20.8083 11.1511 20.3803 10.5377 19.9523H19.3717L19.5558 20.1356C18.8807 20.625 18.114 21.0526 17.2553 21.4195C16.4578 21.7862 15.691 22.1531 14.9549 22.5201Z" fill="black"/>
<path d="M23.2367 11.6991C23.1751 11.6381 23.1135 11.6381 23.0525 11.6991H7.40915L7.04089 11.8823V16.8341C7.04089 16.8955 7.07149 16.926 7.13305 16.926C7.19403 16.9873 7.28601 17.0174 7.40915 17.0174H23.0525L23.4206 16.8341V11.8823C23.359 11.76 23.2976 11.6991 23.2367 11.6991ZM12.0101 15.3669H9.06536V13.1661H12.0101V15.3669ZM16.7952 15.3669H13.8504V13.1661H16.7952V15.3669ZM21.5803 15.3669H18.6355V13.1661H21.3961L21.5803 13.3494V15.3669Z" fill="black"/>
<path d="M37.2974 23.8042C36.3157 23.8042 34.8007 23.6819 33.942 23.4376C33.0829 23.2539 32.3468 22.7646 31.7334 21.97C31.4879 21.7257 31.3039 21.4811 31.1814 21.2364C31.0584 20.9921 30.9972 20.7475 30.9972 20.5028V16.0024C30.9359 15.8191 30.8439 15.6667 30.7211 15.544C30.5984 15.483 30.5062 15.4521 30.445 15.4521H27.1894V17.4696C27.4345 17.4091 27.3572 17.4384 27.9708 17.4384C28.584 17.4384 28.7639 17.4797 28.7888 17.8366V21.0527C28.7273 21.8477 28.3594 22.5203 27.6844 23.0702C27.0095 23.6209 26.9297 24.0485 26.2548 24.3545L27.1752 26.1887C27.8498 25.8827 27.9296 25.4242 28.6049 24.8129C29.341 24.1403 29.8317 23.4982 30.0772 22.8869C30.3223 23.2539 30.5984 23.59 30.9053 23.896C31.2118 24.2017 31.6106 24.4764 32.1016 24.7211C32.6536 25.0881 33.2668 25.3632 33.942 25.5465C34.6167 25.7298 35.9477 25.8217 36.7452 25.8217H47.7876L48.3398 23.4376C46.4993 23.4982 44.6591 23.5595 42.8186 23.6209C40.9781 23.6819 39.1379 23.7428 37.2974 23.8042Z" fill="black"/>
<path d="M45.3031 14.2669C45.1192 13.9617 45.027 13.778 45.027 13.717C45.0882 13.4114 45.5483 12.7998 46.4075 11.8829C47.266 11.027 47.9104 10.4157 48.3398 10.0487L47.2355 9.13184H41.8986V10.966H45.027C44.7204 11.2717 44.2599 11.7301 43.6469 12.3414C43.0332 13.0139 42.6959 13.4727 42.6347 13.717C42.6959 13.9617 42.8492 14.1755 43.0947 14.3588C43.2787 14.4815 43.4932 14.6953 43.7387 15.0005H40.6102V16.8347H44.6592C44.8431 17.2627 44.9659 17.7215 45.027 18.2105C45.1498 18.6384 45.2114 19.0969 45.2114 19.5858C45.1498 19.8305 44.9659 20.1361 44.6592 20.5031C44.2909 20.8087 43.9838 20.9924 43.7387 21.053C43.3093 20.9924 42.8492 20.8697 42.3586 20.6864C41.8064 20.4421 41.4076 20.1974 41.1624 19.9528L40.7942 21.9703C41.1624 22.1536 41.6531 22.3369 42.2664 22.5206C42.8186 22.7039 43.3093 22.8258 43.7387 22.8872C44.7204 22.8258 45.5177 22.4897 46.1315 21.8784C46.6836 21.2062 46.9899 20.3807 47.0515 19.4025C46.9899 18.9135 46.9288 18.4856 46.8676 18.1186C46.806 17.691 46.7444 17.2627 46.6836 16.8347H48.7081V15.0005H45.7632C45.6404 14.7562 45.4871 14.5116 45.3031 14.2669Z" fill="black"/>
<path d="M33.6165 15.5503C33.2484 17.4459 32.6348 19.2187 31.7761 20.8692L33.8004 21.4195C34.4753 20.0746 34.9968 18.5156 35.3648 16.7428C35.6715 14.9699 35.886 13.3495 36.009 11.8824H38.0335L38.2174 12.0658C38.2174 12.7994 38.1562 14.3278 38.0335 16.6509C37.9107 19.035 37.5424 20.3803 36.9291 20.6859C36.6224 20.6249 36.2851 20.5636 35.917 20.5026C35.61 20.4416 35.2729 20.3803 34.9048 20.3189L34.7209 22.1531C35.1499 22.2145 35.549 22.3059 35.917 22.4283C36.3463 22.5502 36.7451 22.642 37.1134 22.7034L38.2174 22.5201C39.1379 21.7255 39.6897 19.83 39.874 16.8342C39.9964 13.8389 40.0579 11.7601 40.0579 10.5986C40.0579 10.4153 39.9964 10.2624 39.874 10.1401C39.8124 10.0791 39.6897 10.0483 39.5057 10.0483H36.1929V8.03078H39.874V6.0133H37.4813V3.8125H35.457V6.0133H32.5122V8.03078H34.1686V9.86496C34.1686 11.6991 33.9847 13.5942 33.6165 15.5503Z" fill="black"/>
<path d="M63.2136 19.0539H70.9225C71.0469 19.0539 71.1639 19.0465 71.2727 19.0319C72.0354 18.9285 72.4166 18.4635 72.4166 17.6361V7.38705C72.4166 5.56946 70.5625 4.0957 68.7385 4.0957H60.6787V24.0251C60.6787 25.1434 61.2396 26.0491 62.3624 26.0491H72.4166V23.5288H63.6192C63.2871 23.5288 63.121 23.332 63.121 23.095V19.0539H63.2136ZM67.8875 6.35939H67.8968C69.2196 6.37869 70.14 7.10534 70.14 8.42783V16.4309C70.14 16.7308 69.9896 16.8801 69.6895 16.8801H67.8875V6.35939ZM63.2136 6.35939H65.5161V16.8801H63.2136V6.35939Z" fill="black"/>
<path d="M52.2666 5.23338H43.0947L43.3708 3.9958L41.5303 3.8125C41.3464 4.91309 41.1008 5.86086 40.7941 6.65544C40.4871 7.38903 39.9353 8.21447 39.1379 9.13136L40.7941 10.2316C41.1624 9.86496 41.4687 9.43738 41.7142 8.94807C42.0209 8.52011 42.2664 8.03078 42.4507 7.48049H42.4525V7.49861H57.0188V20.4092C57.0188 20.8499 56.8209 21.0707 56.4257 21.0707H54.1495V8.97933H51.897V23.52H57.5642C58.7023 23.52 59.2715 22.654 59.2715 21.4724V5.23532L52.2666 5.23338Z" fill="black"/>
<path d="M32.3483 7.64133L32.6972 7.99751L32.7073 7.98709L33.97 6.52954L33.7435 6.28564C32.3518 4.78758 30.6812 3.99609 28.9123 3.99609C27.1388 3.99609 25.4416 4.81459 24.1331 6.30147L23.9282 6.53416L25.1794 7.9782L25.5202 7.63823C27.7472 5.41854 30.1798 5.42316 32.3483 7.64133Z" fill="#FF8000"/>
<path d="M28.962 7.96387C27.9707 7.96387 27.0351 8.37561 26.3938 9.09263L26.213 9.29444L27.4855 10.7628L27.798 10.4479C28.416 9.82583 29.4805 9.82313 30.1113 10.4483L30.4211 10.7551L31.6856 9.29483L31.5139 9.09802C30.8866 8.37754 29.956 7.96387 28.962 7.96387Z" fill="#FF8000"/>
<path d="M21.7184 3.99609H8.46733C8.40595 3.99609 8.37536 4.02698 8.37536 4.08795C8.3138 4.08795 8.2832 4.11881 8.2832 4.17978V10.4156C8.2832 10.4765 8.3138 10.507 8.37536 10.507C8.37536 10.5684 8.40595 10.5989 8.46733 10.5989H21.7184C21.7796 10.5989 21.8409 10.5684 21.9023 10.507C21.9635 10.507 22.025 10.4765 22.0864 10.4156V4.17978L21.7184 3.99609ZM10.2157 6.1556H14.7186L12.703 8.43975H10.2157V6.1556ZM20.1539 8.43975H15.375L17.3906 6.1556H20.1539V8.43975Z" fill="black"/>
<path d="M4.61667 15.014L2.39471 14.7246C2.39471 14.7246 2.31727 20.4128 0.278076 25.2242L2.46365 26.1878C2.46365 26.1878 4.75724 20.4564 4.61667 15.014Z" fill="black"/>
<path d="M30.2031 12.9576C30.2031 13.6476 29.6418 14.2072 28.9492 14.2072C28.2568 14.2072 27.6953 13.6476 27.6953 12.9576C27.6953 12.2674 28.2568 11.708 28.9492 11.708C29.6418 11.708 30.2031 12.2674 30.2031 12.9576Z" fill="#FF8000"/>
</g>
<path d="M82.8865 23L87.2265 15.46L83.1665 8.42H84.4865L86.7865 12.58C87.1865 13.24 87.4865 13.8 87.9665 14.6H88.0465C88.4865 13.8 88.7465 13.24 89.1265 12.58L91.4265 8.42H92.6665L88.6065 15.52L92.9665 23H91.6665L89.2065 18.64C88.8065 17.94 88.3865 17.2 87.8665 16.32H87.7865C87.3265 17.2 86.9465 17.94 86.5665 18.64L84.1265 23H82.8865Z" fill="#2D2D2D"/>
<g clip-path="url(#clip1_1119_1125)">
<path d="M135.698 4H138.254V5.1392H158.739V5.3751C158.739 10.7169 158.74 16.0588 158.738 21.4006C158.738 21.5886 158.725 21.7784 158.697 21.9642C158.554 22.9299 157.951 23.4604 157.007 23.4604C155.285 23.4604 153.562 23.4604 151.84 23.4604H151.635V8.89489H153.81V20.9903C153.885 20.9939 153.944 20.9993 154.004 20.9993C154.63 20.9999 155.257 21.0006 155.884 20.9994C156.375 20.9985 156.554 20.8124 156.554 20.302C156.554 16.0752 156.554 11.8483 156.554 7.62145C156.554 7.55527 156.547 7.4891 156.544 7.42088H138.267V8.84872H146.13V9.0849C146.13 10.1999 146.13 11.3149 146.13 12.4298C146.13 14.2378 146.132 16.0457 146.129 17.8536C146.128 18.7007 145.769 19.2191 145.04 19.4004C144.8 19.4601 144.547 19.4871 144.299 19.488C142.358 19.4949 140.416 19.4918 138.475 19.4918H138.265V21.0045H147.949C147.907 21.0805 147.883 21.129 147.854 21.1744C147.404 21.8846 146.95 22.5923 146.506 23.3065C146.43 23.4288 146.349 23.4671 146.212 23.4668C143.631 23.4625 141.051 23.4637 138.47 23.4637H138.245V25.9801H135.701V23.4773H121.911V25.9778H119.332V23.4637H119.1C117.287 23.4637 115.473 23.4651 113.659 23.4629C112.956 23.462 112.538 23.111 112.416 22.4198C112.393 22.2908 112.393 22.1564 112.393 22.0246C112.392 16.7835 112.392 11.5425 112.392 6.30143C112.392 6.23402 112.392 6.16661 112.392 6.08978H114.762V6.33725C114.762 11.024 114.762 15.7107 114.762 20.3974C114.762 20.4729 114.76 20.5489 114.766 20.6239C114.783 20.8179 114.885 20.9378 115.068 20.9727C115.157 20.9897 115.249 20.9985 115.339 20.9986C116.605 21.0002 117.871 20.9997 119.137 20.9997H119.332C119.335 20.9256 119.339 20.8819 119.339 20.8381C119.339 15.2254 119.339 9.6127 119.338 4C120.203 4 121.067 4 121.931 4C121.927 4.06254 121.92 4.12508 121.92 4.18763C121.919 9.71799 121.919 15.2483 121.919 20.7787C121.919 20.8456 121.919 20.9125 121.919 20.9886H135.688V19.4864H127.95V8.83722H135.693V7.41015H135.453C133.019 7.41015 130.584 7.4088 128.15 7.41333C127.996 7.41362 127.899 7.37417 127.806 7.2356C127.371 6.58301 126.922 5.94045 126.478 5.29393C126.448 5.25045 126.423 5.20383 126.378 5.13078H135.698V4ZM138.263 17.271H138.475C139.879 17.271 141.284 17.271 142.688 17.2709C142.81 17.2709 142.932 17.2751 143.053 17.268C143.389 17.2484 143.565 17.0667 143.576 16.7196C143.584 16.4492 143.578 16.1784 143.578 15.9078C143.578 15.683 143.578 15.4582 143.578 15.2235H138.263V17.271ZM135.687 15.2332H130.506V17.2506H135.687V15.2332ZM138.27 12.987H143.561C143.565 12.9116 143.57 12.844 143.57 12.7763C143.571 12.2724 143.564 11.7683 143.574 11.2646C143.578 11.0915 143.53 11.0412 143.361 11.0419C141.73 11.0483 140.099 11.0456 138.468 11.0461C138.403 11.0461 138.337 11.0522 138.27 11.0556V12.987ZM130.496 12.9935H135.692V11.0505H130.496V12.9935Z" fill="#2F2F2F"/>
<path d="M168.308 4C168.541 4.06415 168.779 4.11052 169.005 4.19544C170.113 4.6135 170.943 5.33619 171.306 6.53571C171.376 6.76555 171.406 7.01735 171.407 7.25912C171.413 10.6668 171.401 14.0746 171.417 17.4822C171.422 18.6255 170.831 18.9896 169.954 18.9914C167.879 18.9955 165.804 18.9927 163.728 18.9927C163.315 18.9927 162.902 18.9927 162.461 18.9927V19.2229C162.461 20.4574 162.461 21.692 162.461 22.9266C162.461 23.3092 162.604 23.4558 162.983 23.4561C164.188 23.4571 165.392 23.4565 166.597 23.4565C168.131 23.4565 169.665 23.4565 171.198 23.4565C171.264 23.4565 171.329 23.4565 171.402 23.4565V25.9927H171.171C168.049 25.9927 164.927 25.9841 161.805 25.9979C160.842 26.0022 160.293 25.3981 160.135 24.5181C160.104 24.3462 160.095 24.168 160.095 23.9927C160.092 17.3285 160.092 10.6642 160.092 4C162.831 4 165.569 4 168.308 4ZM164.731 6.27946H162.548V16.7924H164.731V6.27946ZM167.063 16.8044C167.277 16.8044 167.471 16.8062 167.664 16.804C168.065 16.7994 168.467 16.8023 168.867 16.7827C169.078 16.7724 169.162 16.6695 169.198 16.4501C169.209 16.3824 169.212 16.3126 169.212 16.2438C169.213 13.6189 169.214 10.994 169.21 8.36911C169.21 8.17583 169.186 7.97933 169.148 7.78993C168.935 6.74154 167.947 6.23971 167.063 6.29969V16.8044Z" fill="#2F2F2F"/>
<path d="M109.698 4C109.778 4.02336 109.858 4.04833 109.939 4.06981C110.6 4.24513 110.972 4.71366 111.008 5.41918C111.012 5.50086 111.011 5.58286 111.011 5.66472C111.011 12.353 111.011 19.0413 111.011 25.7295C111.011 25.81 111.011 25.8904 111.011 25.9818C110.942 25.9861 110.889 25.9923 110.837 25.9923C109.735 25.9929 108.633 26.0116 107.533 25.9885C105.736 25.9507 103.951 24.6235 103.512 22.8806C103.479 22.7482 103.448 22.6151 103.417 22.4823C103.417 16.3262 103.417 10.1701 103.417 4C105.51 4 107.604 4 109.698 4ZM108.603 23.4775V23.2141C108.603 17.7992 108.603 12.3844 108.603 6.96946C108.603 6.90651 108.607 6.84312 108.601 6.7807C108.579 6.54294 108.466 6.39866 108.242 6.33892C108.149 6.31409 108.051 6.30313 107.955 6.30266C107.316 6.29957 106.677 6.3007 106.038 6.30164C105.987 6.30172 105.935 6.31063 105.872 6.31651C105.872 6.38861 105.872 6.44451 105.872 6.50042C105.872 11.3612 105.869 16.2221 105.874 21.0829C105.875 21.7798 106.13 22.3732 106.657 22.8181C107.212 23.287 107.868 23.4625 108.603 23.4775Z" fill="#2F2F2F"/>
<path d="M135.687 15.2334V17.2508H130.506V15.2334H135.687Z" fill="#2D80B4"/>
<path d="M138.27 12.9871V11.0557C138.337 11.0523 138.403 11.0463 138.468 11.0462C140.099 11.0457 141.73 11.0484 143.361 11.042C143.53 11.0413 143.578 11.0916 143.574 11.2648C143.564 11.7685 143.571 12.2725 143.57 12.7765C143.57 12.8441 143.565 12.9117 143.561 12.9871H138.27Z" fill="#2D80B4"/>
</g>
<defs>
<clipPath id="clip0_1119_1125">
<rect width="72.3928" height="22.376" fill="white" transform="translate(0.0238037 3.8125)"/>
</clipPath>
<clipPath id="clip1_1119_1125">
<rect width="68" height="22" fill="white" transform="translate(103.417 4)"/>
</clipPath>
</defs>
</svg>
