<svg width="186" height="20" viewBox="0 0 186 20" fill="none" xmlns="http://www.w3.org/2000/svg">
<path d="M23.0373 6.38857C16.6702 0.536071 6.76764 0.538214 0.403106 6.38857C0.163762 6.60857 0.15909 6.98107 0.390528 7.20929L1.62103 8.4225C1.84169 8.64036 2.19675 8.645 2.42603 8.43607C7.67003 3.66179 15.7696 3.66071 21.0147 8.43607C21.244 8.645 21.5991 8.64 21.8197 8.4225L23.0502 7.20929C23.2813 6.98107 23.2766 6.60857 23.0373 6.38857ZM11.7202 13.4286C10.4498 13.4286 9.42019 14.4518 9.42019 15.7143C9.42019 16.9768 10.4498 18 11.7202 18C12.9906 18 14.0202 16.9768 14.0202 15.7143C14.0202 14.4518 12.9906 13.4286 11.7202 13.4286ZM19.0036 10.4432C14.8615 6.80286 8.57422 6.80679 4.43673 10.4432C4.18876 10.6611 4.18086 11.0393 4.41625 11.27L5.65394 12.4839C5.86956 12.6954 6.21672 12.7096 6.44636 12.5125C9.46332 9.92071 13.9839 9.92643 16.9937 12.5125C17.2233 12.7096 17.5705 12.6957 17.7861 12.4839L19.0238 11.27C19.2595 11.0393 19.2513 10.6607 19.0036 10.4432Z" fill="#FF8000"/>
<path d="M44.6002 13.06V17.06H51.7602V19.2H34.7602V17.06H36.9202V10.08H39.2802V17.06H42.0802V6.8H44.6002V10.92H49.9402V13.06H44.6002ZM42.8802 0.879999L45.0202 1.94C44.8802 2.12 44.7402 2.32 44.6002 2.5C47.2202 5.26 50.0002 6.62 52.8402 7.62C52.2602 8.12 51.6202 8.96 51.3402 9.68C48.5802 8.48 45.9402 7.02 43.2202 4.12C41.0002 6.48 38.1602 8.36 35.2602 9.68C34.9202 9.06 34.2402 8.2 33.6402 7.66C37.2202 6.26 40.8802 3.88 42.8802 0.879999ZM61.8602 15.86L63.5402 16.62C62.1802 17.76 59.7802 18.8 57.7202 19.28C57.4202 18.78 56.8002 18 56.3202 17.56C58.3202 17.28 60.6402 16.6 61.8602 15.86ZM67.2402 16.86L68.8402 15.74C70.4602 16.34 72.8202 17.34 74.1002 17.98L72.4202 19.28C71.2602 18.62 68.9202 17.56 67.2402 16.86ZM68.0802 6.18H62.6002C62.9202 6.68 63.2402 7.26 63.4002 7.68L62.3202 7.94H67.7802L67.0602 7.72C67.3802 7.26 67.8002 6.66 68.0802 6.18ZM66.3802 13.24H74.1402V15.2H66.3802V19.76H64.0202V15.2H56.4002V13.24H64.0202V12.36H58.2602V10.64H64.0202V9.74H57.2602V7.94H60.9402C60.7602 7.48 60.4602 6.92 60.2002 6.48L61.5402 6.18H56.4402V4.32H59.1602C58.8602 3.56 58.3402 2.6 57.8802 1.84L59.9202 1.16C60.5202 2 61.1802 3.2 61.4402 3.96L60.4802 4.32H62.3202V1.06H64.5202V4.32H66.0202V1.06H68.2602V4.32H70.0402L69.3202 4.1C69.7802 3.3 70.3202 2.08 70.6002 1.22L73.1002 1.8C72.5402 2.72 72.0002 3.62 71.5002 4.32H74.0802V6.18H68.8002L70.6802 6.66C70.2402 7.14 69.8202 7.58 69.4602 7.94H73.3202V9.74H66.3802V10.64H72.3802V12.36H66.3802V13.24ZM81.4402 1.08L83.6202 1.74C83.2402 2.94 82.8002 4.18 82.2602 5.38V19.72H80.0002V9.66C79.5802 10.28 79.1602 10.86 78.7402 11.36C78.5602 10.8 77.9602 9.44 77.6002 8.8C79.1602 6.92 80.6002 4.02 81.4402 1.08ZM92.2802 11.56L93.5002 10.84C93.8002 11.12 94.1202 11.4 94.4202 11.74V10.56H90.5802C91.0002 10.9 91.4202 11.26 91.6602 11.54L90.3402 12.32C90.0002 11.92 89.3602 11.28 88.8202 10.88L89.4202 10.56H85.1802V11.92C85.5002 11.58 85.7802 11.24 86.0002 10.9L86.9402 11.38V10.98H88.8002V11.88C88.8002 12.28 88.9202 12.34 89.4602 12.34H91.2202C91.6202 12.34 91.7202 12.24 91.7802 11.66C92.0002 11.78 92.3602 11.9 92.7202 12C92.5802 11.84 92.4202 11.7 92.2802 11.56ZM87.6002 15.64C88.2002 16.04 88.9202 16.38 89.7002 16.64C90.5002 16.36 91.1802 16 91.7202 15.62L87.6002 15.64ZM87.1002 8.58V9.22H92.6402V8.58H87.1002ZM92.6402 5.42H87.1002V6.02H92.6402V5.42ZM92.6402 7.62V6.98H87.1002V7.62H92.6402ZM96.5402 9.22V12.06H94.7202C95.0802 12.44 95.3802 12.82 95.5802 13.1L94.3002 13.9C94.0602 13.52 93.6402 12.98 93.2002 12.5C93.0002 13.34 92.5202 13.6 91.4602 13.6H89.7202C89.5402 13.8 89.3802 14 89.2002 14.2H93.2602L93.6602 14.12L95.0802 14.92C94.4402 15.88 93.5002 16.72 92.2602 17.4C93.5802 17.68 95.0002 17.86 96.5202 17.98C96.1002 18.42 95.6402 19.2 95.3802 19.72C93.2802 19.5 91.3802 19.12 89.7002 18.54C88.0202 19.1 86.0802 19.52 83.8802 19.82C83.6602 19.3 83.1602 18.58 82.7402 18.1C84.3802 17.94 85.9002 17.7 87.2002 17.4C86.8002 17.16 86.4202 16.92 86.0602 16.66C85.5402 16.96 84.9802 17.26 84.3602 17.54C84.1002 17.1 83.5002 16.48 83.0802 16.2C83.6802 15.98 84.2002 15.72 84.7202 15.46C84.4602 15.18 84.2202 14.92 84.0202 14.62L85.7402 14.02C85.8802 14.2 86.0402 14.38 86.2002 14.56C86.7402 14.16 87.2002 13.76 87.5602 13.36C87.1802 13.16 87.0002 12.82 86.9602 12.26C86.5202 12.86 86.0002 13.44 85.4002 13.86L84.1002 12.84C84.4202 12.64 84.7402 12.36 85.0402 12.06H83.1602V9.22H84.9802V4.26H88.2802C88.3402 4.04 88.3802 3.8 88.4202 3.56H83.7602V1.86H96.1402V3.56H90.8802L90.5802 4.26H94.8602V9.22H96.5402ZM114.02 6.14H110.28V7.06H114.02V6.14ZM110.28 11.8L112.78 11.78C112.46 11.6 112.16 11.44 111.86 11.28L112.76 10.68H110.28V11.8ZM110.28 8.36V9.28H114.02V8.36H110.28ZM104 9.28H107.82V8.36H104V9.28ZM104 6.14V7.06H107.82V6.14H104ZM107.82 4.76V3.88H100.56V2.02H107.82V1.06H110.28V2.02H117.74V3.88H110.28V4.76H116.38V10.68H114.4C115.74 11.42 117.12 12.42 117.9 13.16L116.24 14.44C115.98 14.16 115.66 13.88 115.3 13.56C113.4 13.6 111.44 13.64 109.56 13.68C110.48 14.28 111.44 15.02 111.96 15.62L110.34 16.98C109.74 16.26 108.44 15.22 107.36 14.52L108.4 13.7C105.5 13.74 102.82 13.78 100.74 13.8L100.64 11.8C102.56 11.82 105.08 11.82 107.82 11.8V10.68H101.76V4.76H107.82ZM102.02 19.16L99.9602 18C100.74 17.08 101.42 15.66 101.8 14.44L103.86 15.28C103.42 16.56 102.8 18.12 102.02 19.16ZM108.06 17.5H111.54C112.42 17.5 112.6 17.26 112.7 15.78C113.2 16.08 114.12 16.4 114.76 16.52C114.48 18.84 113.82 19.42 111.74 19.42H107.84C105.06 19.42 104.34 18.84 104.34 16.9V14.62H106.7V16.88C106.7 17.42 106.9 17.5 108.06 17.5ZM114.06 15.2L116.12 14.54C117.04 15.74 117.92 17.3 118.2 18.44L116 19.14C115.76 18.1 114.94 16.44 114.06 15.2ZM126.98 15.26V10.18H125.4V15.26H126.98ZM129.04 17.32H125.4V18.88H123.34V13.72C123.18 14 123 14.26 122.82 14.5C122.62 13.94 121.96 12.76 121.54 12.22C122.94 10.24 123.68 7.2 124.1 3.94H122.06V1.8H129.62V3.94H126.32C126.12 5.38 125.86 6.8 125.52 8.14H129.04V17.32ZM130.3 18.84L128.66 17.94C129.44 16.92 129.82 15.24 130 13.62L131.72 14.04C131.54 15.82 131.2 17.68 130.3 18.84ZM131.94 14.46L133.48 14.24C133.72 15.38 133.86 16.88 133.84 17.86L132.2 18.12C132.24 17.12 132.16 15.6 131.94 14.46ZM134.04 14.34L135.46 13.94C135.84 14.9 136.18 16.12 136.26 16.92L134.74 17.36C134.66 16.56 134.34 15.28 134.04 14.34ZM132.42 9.78V11H134.38V9.78H132.42ZM134.38 3.82H132.42V4.92H134.38V3.82ZM134.38 7.94V6.78H132.42V7.94H134.38ZM136.48 11H140.32C140.32 11 140.3 11.58 140.28 11.86C140.1 16.48 139.88 18.32 139.36 18.96C138.96 19.46 138.54 19.62 137.98 19.7C137.5 19.78 136.66 19.78 135.8 19.76C135.76 19.14 135.54 18.28 135.2 17.72C135.92 17.8 136.56 17.8 136.88 17.8C137.16 17.8 137.32 17.76 137.5 17.56C137.66 17.38 137.78 16.9 137.9 15.94L137.06 16.3C136.88 15.66 136.44 14.68 136.02 13.96L137.18 13.48C137.48 13.9 137.76 14.42 137.98 14.9C138.02 14.36 138.06 13.76 138.1 13.04H130.26V1.78H139.94V3.82H136.48V4.92H139.34V6.78H136.48V7.94H139.34V9.78H136.48V11ZM150.18 8.06V10.82H156.3V8.06H150.18ZM157.08 17.3H159.38C160.08 17.3 160.2 17.02 160.3 15.14C160.78 15.5 161.78 15.86 162.42 16C162.16 18.72 161.5 19.44 159.58 19.44H156.78C154.34 19.44 153.76 18.76 153.76 16.6V12.96H152.58C152.12 16.38 150.86 18.7 145.42 19.92C145.2 19.32 144.64 18.38 144.16 17.9C148.82 17 149.74 15.4 150.12 12.96H147.62V6.86C146.94 7.34 146.28 7.76 145.6 8.14C145.16 7.62 144.18 6.72 143.58 6.28C146.06 5.18 148.46 3.3 149.74 1.2L152.26 2.08C151.36 3.48 150.14 4.82 148.82 5.92H158.26C157 4.7 155.5 3.4 154.18 2.4L156.18 1.16C158.36 2.8 161.26 5.18 162.66 6.88L160.46 8.32C160.08 7.82 159.58 7.24 158.98 6.64V12.96H156.12V16.58C156.12 17.22 156.26 17.3 157.08 17.3ZM177.14 11.74H179.42C179.38 12.3 179.32 12.84 179.26 13.34H181.36V10.92L180.68 11.74C180.16 11.24 179.16 10.54 178.24 9.96C177.68 10.7 177.04 11.36 176.42 11.86C176.16 11.6 175.64 11.22 175.22 10.96V13.34H176.96C177.04 12.84 177.1 12.3 177.14 11.74ZM178.7 4.48H176.3C176 4.98 175.64 5.44 175.26 5.92H177.82C178.12 5.48 178.42 5 178.7 4.48ZM175.22 7.82V10.56C176.18 9.84 177 8.86 177.58 7.82H175.22ZM181.36 10.16V7.82H179.54C179.4 8.12 179.24 8.42 179.08 8.72C179.88 9.16 180.74 9.68 181.36 10.16ZM184.56 15.24H180.72C182.06 16.24 183.84 17.52 184.76 18.36L183.24 19.84C182.32 18.9 180.34 17.34 178.92 16.26L180.06 15.24H178.82C178.08 17.44 176.38 18.88 172.4 19.74C172.22 19.18 171.68 18.34 171.24 17.9C174.22 17.36 175.64 16.52 176.36 15.24H171.92V13.34H173.3V7.92L173.2 8C172.96 7.58 172.48 6.96 172.06 6.58V7.04H170.34V9.9C170.9 9.74 171.44 9.56 172 9.4L172.34 11.54C171.68 11.76 171.02 11.98 170.34 12.18V16.92C170.34 18.06 170.16 18.68 169.54 19.08C168.94 19.48 168.08 19.58 166.84 19.58C166.76 18.94 166.5 17.92 166.22 17.24C166.88 17.26 167.52 17.26 167.76 17.26C167.98 17.26 168.08 17.18 168.08 16.92V12.88L166.26 13.44L165.72 11.16C166.4 11 167.2 10.78 168.08 10.54V7.04H166.02V4.84H168.08V1.06H170.34V4.84H172.06V6.2C173.88 4.72 175.04 2.76 175.68 1.08L177.86 1.44C177.7 1.82 177.52 2.24 177.32 2.64H179.86L180.18 2.56L181.58 3.48C181.2 4.24 180.64 5.14 180.08 5.92H183.36V13.34H184.56V15.24Z" fill="#2D2D2D"/>
</svg>
