<svg width="81" height="25" viewBox="0 0 81 25" fill="none" xmlns="http://www.w3.org/2000/svg">
<path d="M35.2389 24.6391H28.7449L32.8067 0.438477H39.3004L35.2389 24.6391Z" fill="#1E39C8"/>
<path d="M58.7802 1.03032C57.4993 0.540652 55.4677 0 52.9555 0C46.5425 0 42.0264 3.29524 41.9987 8.00643C41.9454 11.4823 45.2321 13.4129 47.6902 14.5719C50.2027 15.7562 51.0567 16.5292 51.0567 17.5849C51.0312 19.2061 49.0265 19.9535 47.1568 19.9535C44.5641 19.9535 43.1749 19.5682 41.0637 18.6662L40.2086 18.2795L39.2998 23.712C40.8229 24.3806 43.6291 24.974 46.5425 25C53.3565 25 57.7926 21.7557 57.8452 16.7352C57.8711 13.9803 56.1356 11.8694 52.3941 10.1444C50.1228 9.03709 48.7318 8.29045 48.7318 7.15747C48.7584 6.1275 49.9083 5.07254 52.4722 5.07254C54.5834 5.02087 56.1346 5.50985 57.3097 5.99918L57.897 6.25616L58.7802 1.03032Z" fill="#1E39C8"/>
<path d="M67.4115 16.0657C67.9463 14.6754 70.0042 9.29455 70.0042 9.29455C69.9772 9.34622 70.538 7.87859 70.8586 6.97762L71.3125 9.06289C71.3125 9.06289 72.5423 14.8557 72.8093 16.0657C71.7944 16.0657 68.6942 16.0657 67.4115 16.0657ZM75.4276 0.438477H70.4045C68.8554 0.438477 67.6786 0.875788 67.0102 2.44641L57.3641 24.6388H64.1782C64.1782 24.6388 65.3 21.6519 65.5411 21.0086C66.2886 21.0086 72.9173 21.0086 73.8789 21.0086C74.0654 21.8582 74.6538 24.6388 74.6538 24.6388H80.6667L75.4276 0.438477Z" fill="#1E39C8"/>
<path d="M23.3209 0.438477L16.961 16.941L16.2661 13.5941C15.0903 9.73221 11.4027 5.53634 7.2876 3.45004L13.113 24.6135H19.9802L30.1878 0.438477H23.3209Z" fill="#1E39C8"/>
<path d="M11.0552 0.438477H0.60689L0.5 0.927458C8.65033 2.93574 14.0481 7.77662 16.2658 13.5951L13.9945 2.47276C13.6206 0.927116 12.4714 0.489462 11.0552 0.438477Z" fill="#1E39C8"/>
</svg>
