<?xml version="1.0" encoding="utf-8"?>
<!-- Generator: Adobe Illustrator 27.3.1, SVG Export Plug-In . SVG Version: 6.00 Build 0)  -->
<svg version="1.1" id="圖層_1" xmlns="http://www.w3.org/2000/svg" xmlns:xlink="http://www.w3.org/1999/xlink" x="0px" y="0px"
	 viewBox="0 0 96.2 31.9" style="enable-background:new 0 0 96.2 31.9;" xml:space="preserve">
<style type="text/css">
	.st0{clip-path:url(#SVGID_00000059993573379740772570000014828638427251990674_);}
	.st1{clip-path:url(#SVGID_00000080172404660563693290000008913124629120601790_);}
	.st2{filter:url(#Adobe_OpacityMaskFilter);}
	.st3{clip-path:url(#SVGID_00000160191399109951993440000003960007674169544882_);}
	
		.st4{clip-path:url(#SVGID_00000011028925041369919750000007659909783987140225_);fill:url(#SVGID_00000035504486572729352090000008520091763819302321_);}
	
		.st5{clip-path:url(#SVGID_00000160191399109951993440000003960007674169544882_);mask:url(#SVGID_00000096046851826960907230000008456572811038383506_);fill:url(#SVGID_00000127750768829104799130000007926184663229161089_);}
	.st6{clip-path:url(#SVGID_00000020386709578512502340000017687117548012712345_);}
	.st7{clip-path:url(#SVGID_00000024699275071852364940000003408679882592581034_);}
	.st8{filter:url(#Adobe_OpacityMaskFilter_00000052078516675347735460000006736112442528911537_);}
	.st9{clip-path:url(#SVGID_00000137814575708345639200000015569892063514633615_);}
	
		.st10{clip-path:url(#SVGID_00000061444669759735361180000006219977035792184473_);fill:url(#SVGID_00000178196558987722555000000014369582703081785533_);}
	
		.st11{clip-path:url(#SVGID_00000137814575708345639200000015569892063514633615_);mask:url(#SVGID_00000178194934515265859430000016806468274747929019_);fill:url(#SVGID_00000146466738417215566950000010337326504830141857_);}
	.st12{clip-path:url(#SVGID_00000026164072818896636620000014644745772840080830_);}
	.st13{clip-path:url(#SVGID_00000139979479349118863280000007256057547981898639_);fill:#FFFFFF;}
	.st14{fill:#FFFFFF;}
	.st15{fill:none;}
	.st16{fill:url(#SVGID_00000018202929751859244860000011233022907305964219_);}
	
		.st17{clip-path:url(#SVGID_00000067208700557487737730000018222035399333196183_);fill:url(#SVGID_00000155128305671024905460000015119453581859105158_);}
	
		.st18{clip-path:url(#SVGID_00000177460771917037054760000010782643832589172667_);fill:url(#SVGID_00000103946140788709493170000007357665063538598840_);}
	
		.st19{clip-path:url(#SVGID_00000080921505605666974420000014146451766111599017_);fill:url(#SVGID_00000026133703396483922570000012973340894179761814_);}
	
		.st20{clip-path:url(#SVGID_00000173132572280864834560000016946392171658336669_);fill:url(#SVGID_00000166676045753330266310000000208572695742450340_);}
	.st21{fill:#231815;}
</style>
<g>
	<g>
		<g>
			<g>
				<defs>
					<rect id="SVGID_1_" x="1.3" y="1.1" width="29.4" height="29.4"/>
				</defs>
				<clipPath id="SVGID_00000162347443193254279560000001230385258765876121_">
					<use xlink:href="#SVGID_1_"  style="overflow:visible;"/>
				</clipPath>
				<g style="clip-path:url(#SVGID_00000162347443193254279560000001230385258765876121_);">
					<g>
						<g>
							<defs>
								<rect id="SVGID_00000036938691133580800590000007667759400234665364_" x="1.3" y="1.1" width="29.4" height="29.4"/>
							</defs>
							<clipPath id="SVGID_00000030461067652878214250000017880941265257542048_">
								<use xlink:href="#SVGID_00000036938691133580800590000007667759400234665364_"  style="overflow:visible;"/>
							</clipPath>
							<g style="clip-path:url(#SVGID_00000030461067652878214250000017880941265257542048_);">
								<g>
									<defs>
										<path id="SVGID_00000162324086525465698630000013485434424087849133_" d="M1.3,15.8C1.3,7.7,8,1.1,16.1,1.1
											c8.2,0,14.7,6.7,14.7,14.7s-6.7,14.7-14.7,14.7C7.9,30.6,1.3,24,1.3,15.8"/>
									</defs>
									<clipPath id="SVGID_00000039111363196191001410000005917274757926176947_">
										<use xlink:href="#SVGID_00000162324086525465698630000013485434424087849133_"  style="overflow:visible;"/>
									</clipPath>
									<defs>
										<filter id="Adobe_OpacityMaskFilter" filterUnits="userSpaceOnUse" x="1.3" y="1.1" width="29.4" height="29.4">
											<feColorMatrix  type="matrix" values="1 0 0 0 0  0 1 0 0 0  0 0 1 0 0  0 0 0 1 0"/>
										</filter>
									</defs>
									
										<mask maskUnits="userSpaceOnUse" x="1.3" y="1.1" width="29.4" height="29.4" id="SVGID_00000096046851826960907230000008456572811038383506_">
										<g class="st2">
											<g>
												<defs>
													<path id="SVGID_00000176029776818701479760000017836279690286973860_" d="M1.3,15.8C1.3,7.7,8,1.1,16.1,1.1
														c8.2,0,14.7,6.7,14.7,14.7s-6.7,14.7-14.7,14.7C7.9,30.6,1.3,24,1.3,15.8"/>
												</defs>
												
													<clipPath id="SVGID_00000127031103904717908430000016737649960444389256_" style="clip-path:url(#SVGID_00000039111363196191001410000005917274757926176947_);">
													<use xlink:href="#SVGID_00000176029776818701479760000017836279690286973860_"  style="overflow:visible;"/>
												</clipPath>
												
													<radialGradient id="SVGID_00000057109524833881377720000005786440023604694692_" cx="-801.6904" cy="96.1649" r="0.5086" gradientTransform="matrix(28.9581 0 0 28.9581 23231.4492 -2768.9126)" gradientUnits="userSpaceOnUse">
													<stop  offset="0" style="stop-color:#FFFFFF"/>
													<stop  offset="0.8529" style="stop-color:#FFFFFF"/>
													<stop  offset="1" style="stop-color:#000000"/>
												</radialGradient>
												
													<rect x="1.3" y="1.1" style="clip-path:url(#SVGID_00000127031103904717908430000016737649960444389256_);fill:url(#SVGID_00000057109524833881377720000005786440023604694692_);" width="29.4" height="29.4"/>
											</g>
										</g>
									</mask>
									
										<radialGradient id="SVGID_00000085931911816525788600000010135708575166489776_" cx="-801.6904" cy="96.1649" r="0.5086" gradientTransform="matrix(28.9581 0 0 28.9581 23231.4492 -2768.9126)" gradientUnits="userSpaceOnUse">
										<stop  offset="0" style="stop-color:#FFFFFF"/>
										<stop  offset="0.8529" style="stop-color:#FFFFFF"/>
										<stop  offset="1" style="stop-color:#FFFFFF"/>
									</radialGradient>
									
										<rect x="1.3" y="1.1" style="clip-path:url(#SVGID_00000039111363196191001410000005917274757926176947_);mask:url(#SVGID_00000096046851826960907230000008456572811038383506_);fill:url(#SVGID_00000085931911816525788600000010135708575166489776_);" width="29.4" height="29.4"/>
								</g>
							</g>
						</g>
					</g>
				</g>
			</g>
			<g>
				<defs>
					<rect id="SVGID_00000178177600860610843720000006650823815153124512_" x="1.3" y="1.1" width="29.4" height="29.4"/>
				</defs>
				<clipPath id="SVGID_00000134960014493443216160000014863573926662092220_">
					<use xlink:href="#SVGID_00000178177600860610843720000006650823815153124512_"  style="overflow:visible;"/>
				</clipPath>
				<g style="clip-path:url(#SVGID_00000134960014493443216160000014863573926662092220_);">
					<g>
						<g>
							<defs>
								<rect id="SVGID_00000057852703599902034280000010278131431658590856_" x="2.1" y="2" width="27.8" height="27.8"/>
							</defs>
							<clipPath id="SVGID_00000155853883250656299450000015591664418120509848_">
								<use xlink:href="#SVGID_00000057852703599902034280000010278131431658590856_"  style="overflow:visible;"/>
							</clipPath>
							<g style="clip-path:url(#SVGID_00000155853883250656299450000015591664418120509848_);">
								<g>
									<defs>
										<path id="SVGID_00000119839971699673504490000013603348823731106697_" d="M29.9,15.5c0.3,7.9-6.3,14.3-14.2,14.2
											C8.3,29.5,2.4,23.5,2.1,16.2C2,8.3,8.4,1.8,16.3,2C23.7,2.2,29.7,8.2,29.9,15.5"/>
									</defs>
									<clipPath id="SVGID_00000027602248075228734530000004627267999519400611_">
										<use xlink:href="#SVGID_00000119839971699673504490000013603348823731106697_"  style="overflow:visible;"/>
									</clipPath>
									<defs>
										
											<filter id="Adobe_OpacityMaskFilter_00000110466354428860113160000011794019808769394074_" filterUnits="userSpaceOnUse" x="2" y="1.8" width="28.1" height="28.1">
											<feColorMatrix  type="matrix" values="1 0 0 0 0  0 1 0 0 0  0 0 1 0 0  0 0 0 1 0"/>
										</filter>
									</defs>
									
										<mask maskUnits="userSpaceOnUse" x="2" y="1.8" width="28.1" height="28.1" id="SVGID_00000178194934515265859430000016806468274747929019_">
										<g style="filter:url(#Adobe_OpacityMaskFilter_00000110466354428860113160000011794019808769394074_);">
											<g>
												<defs>
													<path id="SVGID_00000016774922592090503150000014487798466529224320_" d="M29.9,15.5c0.3,7.9-6.3,14.3-14.2,14.2
														C8.3,29.5,2.4,23.5,2.1,16.2C2,8.3,8.4,1.8,16.3,2C23.7,2.2,29.7,8.2,29.9,15.5"/>
												</defs>
												
													<clipPath id="SVGID_00000154403258404820002360000011010871495360753038_" style="clip-path:url(#SVGID_00000027602248075228734530000004627267999519400611_);">
													<use xlink:href="#SVGID_00000016774922592090503150000014487798466529224320_"  style="overflow:visible;"/>
												</clipPath>
												
													<radialGradient id="SVGID_00000168815555140501870700000011273534667780627098_" cx="-800.0496" cy="96.727" r="0.5087" gradientTransform="matrix(27.2414 0 0 27.2414 21810.4883 -2619.1392)" gradientUnits="userSpaceOnUse">
													<stop  offset="0" style="stop-color:#FFFFFF"/>
													<stop  offset="0.8529" style="stop-color:#FFFFFF"/>
													<stop  offset="1" style="stop-color:#808080"/>
												</radialGradient>
												
													<rect x="2" y="1.8" style="clip-path:url(#SVGID_00000154403258404820002360000011010871495360753038_);fill:url(#SVGID_00000168815555140501870700000011273534667780627098_);" width="28.1" height="28.1"/>
											</g>
										</g>
									</mask>
									
										<radialGradient id="SVGID_00000072246797791234751700000006791238457285369745_" cx="-800.0491" cy="96.7269" r="0.509" gradientTransform="matrix(27.2414 0 0 27.2414 21810.4727 -2619.1343)" gradientUnits="userSpaceOnUse">
										<stop  offset="0" style="stop-color:#FFFFFF"/>
										<stop  offset="0.8529" style="stop-color:#FFFFFF"/>
										<stop  offset="1" style="stop-color:#FFFFFF"/>
									</radialGradient>
									
										<rect x="2" y="1.8" style="clip-path:url(#SVGID_00000027602248075228734530000004627267999519400611_);mask:url(#SVGID_00000178194934515265859430000016806468274747929019_);fill:url(#SVGID_00000072246797791234751700000006791238457285369745_);" width="28.1" height="28.1"/>
								</g>
							</g>
						</g>
					</g>
				</g>
			</g>
			<g>
				<defs>
					<rect id="SVGID_00000103974810849074800980000012482667848673156230_" x="1.3" y="1.1" width="29.4" height="29.4"/>
				</defs>
				<clipPath id="SVGID_00000048474080511491233430000001975754665075723430_">
					<use xlink:href="#SVGID_00000103974810849074800980000012482667848673156230_"  style="overflow:visible;"/>
				</clipPath>
				<g style="clip-path:url(#SVGID_00000048474080511491233430000001975754665075723430_);">
					<g>
						<g>
							<defs>
								<rect id="SVGID_00000100349251006850225050000001712850557817052340_" x="3" y="2.9" width="26" height="26"/>
							</defs>
							<clipPath id="SVGID_00000017512423728119795950000011627238467582692272_">
								<use xlink:href="#SVGID_00000100349251006850225050000001712850557817052340_"  style="overflow:visible;"/>
							</clipPath>
							<path style="clip-path:url(#SVGID_00000017512423728119795950000011627238467582692272_);fill:#FFFFFF;" d="M3,16.5
								C2.6,8.8,9,2.5,16.7,2.9c6.7,0.4,12,5.8,12.3,12.3c0.4,7.7-5.9,14.1-13.7,13.7C8.8,28.5,3.4,23.1,3,16.5"/>
						</g>
					</g>
				</g>
			</g>
		</g>
	</g>
	<path class="st14" d="M3.3,15.8C3.3,8.8,9,3,16.1,3s12.8,5.8,12.8,12.8s-5.8,12.8-12.8,12.8C8.9,28.6,3.3,22.9,3.3,15.8"/>
	<g>
		<g>
			<path class="st15" d="M16.1,15.8"/>
			
				<linearGradient id="SVGID_00000080928545298168146950000014102967310200152743_" gradientUnits="userSpaceOnUse" x1="16.0568" y1="18.1594" x2="16.0568" y2="18.1594" gradientTransform="matrix(1 0 0 -1 0 34)">
				<stop  offset="0" style="stop-color:#FFFFFF"/>
				<stop  offset="1" style="stop-color:#AC2025"/>
			</linearGradient>
			<path style="fill:url(#SVGID_00000080928545298168146950000014102967310200152743_);" d="M16.1,15.8"/>
		</g>
	</g>
	<g>
		<g>
			<defs>
				<path id="SVGID_00000173863143170496937710000013716837390417028789_" d="M15.7,3L15.7,3c-2.2,0-4.2,0.6-6,1.7
					C7.7,5.9,6.6,7.5,6.6,9.4c0,0.3,0,0.4,0,0.5c2.3-1.7,5.6-2.7,9.3-2.7s7,1,9.3,2.7c2.2,1.5,3.5,3.6,3.5,5.9c0-4.7-2.6-9-6.5-11.1
					c-1.8-1-3.8-1.7-6-1.7l0,0c-0.1,0-0.3,0-0.3,0C15.9,3,15.8,3,15.7,3"/>
			</defs>
			<clipPath id="SVGID_00000128486358335136773420000015390921503397904561_">
				<use xlink:href="#SVGID_00000173863143170496937710000013716837390417028789_"  style="overflow:visible;"/>
			</clipPath>
			
				<linearGradient id="SVGID_00000098938699732883783230000000339345151845270175_" gradientUnits="userSpaceOnUse" x1="-808.3807" y1="93.85" x2="-807.872" y2="93.85" gradientTransform="matrix(39.5984 0 0 39.5984 32016.9355 -3706.8638)">
				<stop  offset="0" style="stop-color:#FFFFFF"/>
				<stop  offset="0.1488" style="stop-color:#E5D9BB"/>
				<stop  offset="0.3996" style="stop-color:#BB9C4C"/>
				<stop  offset="0.5112" style="stop-color:#AA8320"/>
				<stop  offset="0.6407" style="stop-color:#A67F21"/>
				<stop  offset="0.7811" style="stop-color:#997325"/>
				<stop  offset="0.9261" style="stop-color:#835F2C"/>
				<stop  offset="1" style="stop-color:#755230"/>
			</linearGradient>
			
				<rect x="6.6" y="3" style="clip-path:url(#SVGID_00000128486358335136773420000015390921503397904561_);fill:url(#SVGID_00000098938699732883783230000000339345151845270175_);" width="22.3" height="12.8"/>
		</g>
	</g>
	<g>
		<g>
			<defs>
				<path id="SVGID_00000128478790008730471080000014596431392671166113_" d="M16.1,15.8c4.9,0,9,2.6,9.3,5.9c0,0.1,0,0.4,0,0.5
					c0,1.9-1.2,3.6-3.1,4.7c3.8-2.2,6.5-6.4,6.5-11.1c0-2.3-1.3-4.3-3.5-5.9c-2.3-1.7-5.6-2.7-9.3-2.7V15.8z"/>
			</defs>
			<clipPath id="SVGID_00000127722536819389562890000011868865691072778421_">
				<use xlink:href="#SVGID_00000128478790008730471080000014596431392671166113_"  style="overflow:visible;"/>
			</clipPath>
			
				<linearGradient id="SVGID_00000004547937301965396110000002426912461004010632_" gradientUnits="userSpaceOnUse" x1="-814.2341" y1="72.9233" x2="-813.7253" y2="72.9233" gradientTransform="matrix(16.0494 37.81 -37.81 16.0494 15842.6592 29621.3945)">
				<stop  offset="0" style="stop-color:#FFFFFF"/>
				<stop  offset="2.931193e-02" style="stop-color:#F9F6EE"/>
				<stop  offset="0.1641" style="stop-color:#DDCDA6"/>
				<stop  offset="0.285" style="stop-color:#C7AD6C"/>
				<stop  offset="0.3878" style="stop-color:#B79643"/>
				<stop  offset="0.4684" style="stop-color:#AE8829"/>
				<stop  offset="0.5169" style="stop-color:#AA8320"/>
				<stop  offset="0.7465" style="stop-color:#8F6A28"/>
				<stop  offset="1" style="stop-color:#755230"/>
			</linearGradient>
			
				<polygon style="clip-path:url(#SVGID_00000127722536819389562890000011868865691072778421_);fill:url(#SVGID_00000004547937301965396110000002426912461004010632_);" points="
				26.8,2.7 35.9,24 18,31.6 8.9,10.3 			"/>
		</g>
	</g>
	<g>
		<g>
			<defs>
				<path id="SVGID_00000020390064443101597670000017133895736648326037_" d="M9.7,27c1.8,1,3.8,1.7,6,1.7l0,0c0.1,0,0.3,0,0.3,0
					c0.1,0,0.3,0,0.3,0l0,0c2.2,0,4.2-0.6,6-1.7c1.9-1.2,3.1-2.8,3.1-4.7c0-0.1,0-0.4,0-0.5c-2.3,1.7-5.6,2.7-9.3,2.7s-7-1-9.3-2.7
					c-2.2-1.5-3.5-3.6-3.5-5.9C3.1,20.7,5.8,24.8,9.7,27"/>
			</defs>
			<clipPath id="SVGID_00000075858201834438814180000007180789616869540020_">
				<use xlink:href="#SVGID_00000020390064443101597670000017133895736648326037_"  style="overflow:visible;"/>
			</clipPath>
			
				<linearGradient id="SVGID_00000065050447246285147610000006597298912218145437_" gradientUnits="userSpaceOnUse" x1="-846.157" y1="80.4598" x2="-845.6483" y2="80.4598" gradientTransform="matrix(-39.5997 0 0 -39.5997 -33481.918 3208.4194)">
				<stop  offset="0" style="stop-color:#FFFFFF"/>
				<stop  offset="0.1488" style="stop-color:#E5D9BB"/>
				<stop  offset="0.3996" style="stop-color:#BB9C4C"/>
				<stop  offset="0.5112" style="stop-color:#AA8320"/>
				<stop  offset="0.6407" style="stop-color:#A67F21"/>
				<stop  offset="0.7811" style="stop-color:#997325"/>
				<stop  offset="0.9261" style="stop-color:#835F2C"/>
				<stop  offset="1" style="stop-color:#755230"/>
			</linearGradient>
			
				<rect x="3.1" y="15.8" style="clip-path:url(#SVGID_00000075858201834438814180000007180789616869540020_);fill:url(#SVGID_00000065050447246285147610000006597298912218145437_);" width="22.3" height="12.8"/>
		</g>
	</g>
	<g>
		<g>
			<defs>
				<path id="SVGID_00000174594194598158241350000012617221339971606972_" d="M3.1,15.8c0,2.3,1.3,4.3,3.5,5.9
					c2.3,1.7,5.6,2.7,9.3,2.7v-8.6c-4.9,0-9-2.6-9.3-5.9c0-0.1,0-0.4,0-0.5c0-1.9,1.2-3.6,3.1-4.7C5.8,6.9,3.1,11.1,3.1,15.8"/>
			</defs>
			<clipPath id="SVGID_00000096773726998998994170000018309935743766328477_">
				<use xlink:href="#SVGID_00000174594194598158241350000012617221339971606972_"  style="overflow:visible;"/>
			</clipPath>
			
				<linearGradient id="SVGID_00000098196121101472288820000015922416471820134801_" gradientUnits="userSpaceOnUse" x1="-840.3642" y1="101.4145" x2="-839.8556" y2="101.4145" gradientTransform="matrix(-16.0478 -37.8062 37.8062 -16.0478 -17305.5527 -30117.3574)">
				<stop  offset="0" style="stop-color:#FFFFFF"/>
				<stop  offset="2.931193e-02" style="stop-color:#F9F6EE"/>
				<stop  offset="0.1641" style="stop-color:#DDCDA6"/>
				<stop  offset="0.285" style="stop-color:#C7AD6C"/>
				<stop  offset="0.3878" style="stop-color:#B79643"/>
				<stop  offset="0.4684" style="stop-color:#AE8829"/>
				<stop  offset="0.5169" style="stop-color:#AA8320"/>
				<stop  offset="0.7465" style="stop-color:#8F6A28"/>
				<stop  offset="1" style="stop-color:#755230"/>
			</linearGradient>
			
				<polygon style="clip-path:url(#SVGID_00000096773726998998994170000018309935743766328477_);fill:url(#SVGID_00000098196121101472288820000015922416471820134801_);" points="
				5.2,29 -3.9,7.7 14,0.1 23.1,21.3 			"/>
		</g>
	</g>
	<polygon class="st21" points="37.5,19.2 38.8,19.2 40.6,24.3 40.6,24.3 42.4,19.2 43.6,19.2 43.6,25.4 42.8,25.4 42.8,20.3 
		42.8,20.3 41,25.4 40.1,25.4 38.3,20.3 38.3,20.3 38.3,25.4 37.5,25.4 	"/>
	<path class="st21" d="M47.8,25.4c-0.4,0.1-0.6,0.1-1,0.1c-1.3,0-2.2-0.8-2.2-2.4c0-1.8,1.2-2,1.8-2c1,0,1.5,0.8,1.5,1.7V23h-2.4
		c0,0.8,0.4,1.9,1.5,1.9c0.4,0,0.6-0.1,0.8-0.1V25.4z M47.1,22.5c0-0.3-0.1-0.8-0.8-0.8c-0.6,0-0.9,0.5-0.9,0.8H47.1z"/>
	<path class="st21" d="M52.1,25.6c0,1.3-0.6,1.8-1.9,1.8c-0.6,0-1.2-0.1-1.3-0.1v-0.8c0.3,0.1,0.8,0.4,1.3,0.4
		c1.3,0,1.3-0.9,1.3-1.4v-0.6l0,0c-0.1,0.3-0.4,0.8-1.2,0.8c-1.2,0-1.5-1-1.5-2.2c0-1.2,0.4-2.3,1.5-2.3c0.6,0,1,0.5,1.2,0.6l0,0
		v-0.6h0.8v4.5H52.1z M50.3,24.8c0.6,0,0.9-0.9,0.9-1.7c0-0.6-0.3-1.5-0.9-1.5c-0.8,0-0.9,0.9-0.9,1.5
		C49.4,23.9,49.6,24.8,50.3,24.8"/>
	<path class="st21" d="M55.5,24.9L55.5,24.9c-0.1,0.3-0.5,0.6-1.2,0.6c-0.8,0-1.3-0.5-1.3-1.2c0-1.2,1.3-1.4,2.3-1.4v-0.8
		c0-0.4-0.3-0.5-0.5-0.5c-0.5,0-0.6,0.3-0.6,0.6h-0.9c0-0.6,0.4-1.3,1.7-1.3c1.4,0,1.4,1,1.4,1.4v2.9h-0.8v-0.5H55.5z M55.2,23.5
		c-0.6,0-1.3,0.3-1.3,0.9c0,0.4,0.3,0.5,0.5,0.5c0.5,0,1-0.6,1-1.2v-0.3H55.2z"/>
	<path class="st21" d="M60.2,19.2H62c0.6,0,1.7,0.3,1.7,1.5c0,1-0.6,1.3-1,1.4l0,0c0.5,0.1,1.3,0.4,1.3,1.5c0,1.5-1.2,1.7-2,1.7
		h-1.7C60.2,25.3,60.2,19.2,60.2,19.2z M61.1,21.9h0.5c0.4,0,1-0.1,1-0.9c0-0.9-0.6-0.9-1.2-0.9H61v1.8H61.1z M61.1,24.7h0.6
		c0.8,0,1.3-0.5,1.3-1c0-1-0.9-1.2-1.3-1.2h-0.6V24.7z"/>
	<path class="st21" d="M67,24.9L67,24.9c-0.1,0.3-0.5,0.6-1.2,0.6c-0.8,0-1.3-0.5-1.3-1.2c0-1.2,1.3-1.4,2.3-1.4v-0.8
		c0-0.4-0.3-0.5-0.5-0.5c-0.5,0-0.6,0.3-0.6,0.6h-0.9c0-0.6,0.4-1.3,1.7-1.3c1.4,0,1.4,1,1.4,1.4v2.9h-0.8v-0.5H67z M66.8,23.5
		c-0.6,0-1.3,0.3-1.3,0.9c0,0.4,0.3,0.5,0.5,0.5c0.5,0,1-0.6,1-1.2v-0.3H66.8z"/>
	<path class="st21" d="M69,21.2h0.8v0.9l0,0c0.1-0.4,0.5-1,1.4-1c1,0,1.2,0.9,1.2,1.4v2.9h-0.8v-2.3c0-0.8,0-1.3-0.6-1.3
		s-1.2,0.9-1.2,1.8v1.8H69V21.2z"/>
	<polygon class="st21" points="73.6,19.2 74.4,19.2 74.4,22.9 75.9,21.2 76.9,21.2 75.4,23 77.1,25.4 76,25.4 74.5,23.3 74.4,23.3 
		74.4,25.4 73.6,25.4 	"/>
	<path class="st21" d="M40.6,4.5h1V10c0,1.5-0.3,2.7-0.8,3.6c-0.3,0.5-0.6,0.9-1.2,1.2c-0.5,0.3-1.2,0.5-2,0.8l-0.8-0.9
		c0.6-0.1,1.3-0.3,1.9-0.5c1.2-0.6,1.7-1.8,1.8-3.6c-0.9,0.6-1.8,1.3-3.1,2l-0.5-1c1.5-0.8,2.7-1.5,3.6-2.3V4.5z M38.1,5.4
		C38.7,6,39.3,7,40,8.2l-0.9,0.5c-0.8-1.2-1.4-2-1.9-2.7L38.1,5.4z M44.2,4.5v9.3c0,0.1,0,0.3,0.1,0.4c0.1,0.1,0.3,0.1,0.4,0.1h1.8
		c0.1,0,0.3,0,0.3-0.1c0.1,0,0.1-0.5,0.1-1.5l1,0.1c-0.1,1.3-0.3,2-0.4,2c-0.3,0.3-0.5,0.4-0.8,0.4h-2.8c-0.3,0-0.5-0.1-0.8-0.4
		c-0.3-0.3-0.3-0.4-0.3-0.6V4.5H44.2z M47.8,5.7c-0.5,0.9-1.4,1.8-2.4,2.8l-0.8-0.8c1-1,1.9-2,2.4-2.8L47.8,5.7z M45.2,9.2
		c0.9,0.5,1.8,1.3,2.8,2.3l-0.6,0.8c-1.2-1-2-1.8-2.8-2.2L45.2,9.2z"/>
	<path class="st21" d="M54,13.8h-1.7c-0.1,0-0.1,0-0.1-0.1v-1.9c0-0.1,0-0.1,0.1-0.1h8.8c0.1,0,0.1,0,0.1,0.1v1.9
		c0,0.1,0,0.1-0.1,0.1h-1.5l-0.4,0.8h3.1v0.9H51.2v-0.9h3.2L54,13.8z M62.2,11.2H51.5v-0.9h10.7C62.2,10.3,62.2,11.2,62.2,11.2z
		 M57.8,8.4V7.8h1V7.1h-1V6.4h1V5.7h-1.2V5h1.2V4.3h0.9V5h1v0.8h-1v0.6h1v0.8h-1v0.6h1v0.8h-1v0.6H61c0.1,0,0.1,0,0.1-0.1V4.6H62v5
		c0,0.3-0.1,0.4-0.4,0.4h-9.7c-0.3,0-0.4-0.1-0.4-0.4v-5h0.9v4.3c0,0.1,0,0.1,0.1,0.1h1.3V8.4h-1V7.8h1V7.1h-1V6.4h1V5.7h-1V5h1V4.3
		h1V5h0.9v0.8h-0.9v0.6h0.9v0.8h-0.9v0.6h1v0.8h-1v0.6h1.5V4.3h0.9v4.7h1.5V8.4H57.8z M53.3,12.4L53.3,12.4v0.5l0,0h7.2l0,0v-0.5
		l0,0H53.3z M58.3,14.6l0.3-0.6v-0.1h-3.6l0.4,0.8H58.3z"/>
	<path class="st21" d="M66.7,7.1l-0.9-0.6c1.3-0.6,2.2-1.4,2.6-2h0.9l-0.1,0.1c0.5,0.4,1.2,0.8,1.7,1.2l-0.6,0.9
		c-0.5-0.4-1-0.8-1.4-1.2C68.2,6,67.6,6.6,66.7,7.1 M67.9,10.5h-1.7V9.6h1.7V8.3h-1.3V7.4h3.7v0.9h-1.4v1.3h1.8v0.9h-1.8v3.5
		l1.7-0.4l0.1,1c-2.2,0.5-3.7,0.8-4.6,0.9l-0.1-1l1.9-0.3C67.9,14.2,67.9,10.5,67.9,10.5z M67,11.1c0.3,1.2,0.4,1.9,0.4,2.6h-0.9
		c0-0.8-0.1-1.5-0.4-2.4L67,11.1z M70.4,11.2c-0.1,0.8-0.3,1.4-0.4,1.9l-0.9-0.3c0.3-0.8,0.4-1.4,0.4-1.9L70.4,11.2z M76.3,10.9
		l0.5,0.8c-0.5,0.4-1.2,0.8-1.9,1.3c0.5,0.8,1.3,1.5,2.2,2.2l-0.9,0.6c-0.9-0.8-1.4-1.2-1.5-1.4c-0.9-1-1.4-2.4-1.5-4.1h-1v4.1
		c0.6-0.1,1.3-0.4,1.8-0.5l0.3,0.9c-1,0.4-2.2,0.8-3.7,1l-0.3-1l0.9-0.1V5c0-0.1,0.1-0.3,0.3-0.3h4.6c0.3,0,0.3,0.1,0.3,0.3v5
		c0,0.3-0.1,0.3-0.3,0.3H74c0,0.6,0.1,1.3,0.3,1.8C75.3,11.5,75.9,11.1,76.3,10.9 M75.4,7V5.9c0-0.1-0.1-0.3-0.3-0.3h-2.8
		c-0.1,0-0.3,0.1-0.3,0.3V7H75.4z M72.2,7.9v1.4h3.1c0.1,0,0.1,0,0.1-0.1V7.9H72.2z"/>
	<path class="st21" d="M81.3,11.6L80.5,11c1.2-1,2-2.2,2.6-3.5L84,7.9c-0.3,0.6-0.6,1.2-0.9,1.7v6h-1V11L81.3,11.6z M83.6,5
		c-0.6,1.5-1.3,2.6-2.2,3.3l-0.8-0.6c0.9-0.9,1.7-1.9,2-3.1L83.6,5z M84.5,8.9v-1h7.2v1h-1.9v5.4c0,0.5-0.1,0.8-0.5,1
		c-0.6,0.4-1.8,0.4-3.6-0.1v-1c0.6,0.1,1.2,0.3,1.8,0.4c0.5,0,0.9,0,1.2-0.3c0.1,0,0.1-0.1,0.1-0.4V8.8h-4.2V8.9z M91.1,6.1h-6.3v-1
		h6.3V6.1z"/>
</g>
</svg>
