<?xml version="1.0" encoding="utf-8"?>
<!-- Generator: Adobe Illustrator 28.0.0, SVG Export Plug-In . SVG Version: 6.00 Build 0)  -->
<svg version="1.1" id="圖層_1" xmlns="http://www.w3.org/2000/svg" xmlns:xlink="http://www.w3.org/1999/xlink" x="0px" y="0px"
	 viewBox="0 0 184 37" style="enable-background:new 0 0 184 37;" xml:space="preserve">
<style type="text/css">
	.st0{fill:none;}
	.st1{fill:#231815;}
	.st2{fill:#004DA0;}
	.st3{fill:#00859B;}
	.st4{fill:#E50038;}
</style>
<g>
	<g>
		<g>
			<path d="M55.4,6.4h-9.5V9H47v15.4h-1.2v2.6H52v3.9h2.6V9h0.9V6.4z M52,24.4h-2.3v-3.5H52V24.4z M52,18h-2.3v-2.9H52V18z M52,12.5
				h-2.3V9H52V12.5z"/>
			<rect x="49.6" y="9" class="st0" width="2.3" height="3.5"/>
			<rect x="49.6" y="15.1" class="st0" width="2.3" height="2.9"/>
			<rect x="49.6" y="20.9" class="st0" width="2.3" height="3.5"/>
			<path d="M57.6,13.1l-2.1,2.2v3h7.8v-3.8h-2.5v1.2H58l4.5-4.5l-1.7-1.7l-1.7,1.7L58,10.1l3.7-3.7l-3.4-0.1l-2.6,2.6
				c0,0-1.1,1.1,0.2,2.5L57.6,13.1z"/>
			<path d="M69.8,14.5v1.2h-2.8l4.5-4.5l-1.7-1.7l-1.7,1.7l-1.1-1.2l3.7-3.7l-3.4-0.1l-2.6,2.6c0,0-1.1,1.1,0.2,2.5l1.6,1.6
				l-2.1,2.2v3h7.8v-3.8H69.8z"/>
			<path d="M63.2,19.1h-2.5v5.2H58v-5.2h-2.6v5.9c0,1.9,1.9,1.9,1.9,1.9h2.4l-3.5,3.9h3l3.3-3.9c0.9-1,0.7-1.9,0.7-1.9V19.1z"/>
			<path d="M69.8,24.4h-2.6v-5.2h-2.7v11.7h2.7v-3.9h3.3c1.7,0,1.8-1.8,1.8-1.8v-6h-2.5V24.4z"/>
		</g>
		<g>
			<path d="M82.8,8.1h4.9V6.4h2.7v1.8h5.1v2.6h-5.1v3.1h5.1v2.7h-5.1v2.9h5.1V22h-5.1v1.9c0,0,0.1,0.8-0.7,1.9l-3.8,5h-3.1l4.9-6.4
				V22h-4.9v-2.7h4.9v-2.9h-4.9v-2.7h4.9v-3.1h-4.9V8.1z"/>
			<path d="M97.2,6.4v24.4h2.8V9.2h5.1l-3.4,7.2l3.8,3.4v5h-4.6v2.7h5c0,0,2.4,0.2,2.4-2.2v-5.7c0,0,0.1-1-0.8-1.7l-2.4-2.1l2.9-6.3
				c0,0,0.9-3.1-1.9-3H97.2z"/>
		</g>
		<polygon points="119.8,9.7 123.2,6.2 127.4,6.2 130.7,9.6 130.7,13.7 125.4,8.3 119.9,13.7 		"/>
		<path d="M121.5,14.8v-2.7h7.6v2.7h-2.4v2.9h3.5v2.6h-3.5v7.8c0,0,1.8,0,3-0.7l1.1,2.5c0,0-1.2,0.9-4.1,0.9h-6.4v-2.7h3.5v-7.8
			h-3.5v-2.6h3.5v-2.9H121.5z"/>
		<rect x="120.3" y="21.8" width="2.4" height="5.2"/>
		<rect x="127.9" y="21.7" width="2.4" height="4.7"/>
		<g>
			<path d="M140.7,25.5c1-0.5,2.6-1.5,4.4-3.2l-1.7-1.8c0,0-1.1,1.4-3.6,2.8c-0.6-2.3-0.4-4.5-0.4-4.5h5.2V8.7
				c0-2.2-2.3-2.3-2.3-2.3h-10.1v21.8h-0.9v2.7h3.8c2.9,0,3.8-1.2,3.8-1.2l-1.1-2.2c-1.3,0.8-2.7,0.7-2.7,0.7v-9.3h1.8
				c-0.1,13.2,7.7,12,7.7,12v-2.7C142.7,27.8,141.5,26.8,140.7,25.5z M135.1,8.8h6.7V11h-6.7V8.8z M135.1,15.9v-2.2h6.7v2.2H135.1z"
				/>
			<rect x="135.1" y="8.8" class="st0" width="6.7" height="2.3"/>
			<rect x="135.1" y="13.8" class="st0" width="6.7" height="2.2"/>
		</g>
		<g>
			<rect x="166.1" y="6.4" class="st1" width="14.5" height="2.8"/>
			<path d="M166.1,14.5h14.5v2.8h-2.3v10.8c0,0-0.3,2.7-2.9,2.7h-5.2v-2.7h5.2V17.3h-9.2V14.5z"/>
			<path d="M161.8,5.7c0,0-3.1,3.9-6.4,6l1.4,2.1c0,0,4-2.6,7-6.1L161.8,5.7z"/>
			<path d="M163.8,14.4l-2.1-1.8c0,0-3.9,5.3-6.6,7.2l1.8,2c0,0,0.4-0.4,1.1-1v10h2.9V18C161.8,16.9,162.9,15.7,163.8,14.4z"/>
		</g>
	</g>
	<g>
		<path class="st2" d="M3.5,5.8H9v19.8h5.5V5.8H20v25.3H9c0,0-5.5-0.1-5.5-5.5V5.8z"/>
		<polygon class="st3" points="20,18.5 26.4,12.1 20,5.8 27.8,5.8 34.2,12.2 27.8,18.5 		"/>
		<polygon class="st4" points="20,31.1 26.4,24.7 20.1,18.5 27.8,18.5 34.2,24.8 27.9,31.1 		"/>
	</g>
</g>
</svg>
