<svg width="557" height="315" viewBox="0 0 557 315" fill="none" xmlns="http://www.w3.org/2000/svg">
<g clip-path="url(#clip0_87_696)">
<path d="M-8.39898 327.172C37.9258 274.509 103.158 296.965 149.432 282.5C213.187 262.571 242.386 213.536 253.873 188.359C265.392 163.11 298.421 112.681 346 94.9999C392.782 77.6147 426.127 78.273 471.689 107.556C517.531 137.018 561.671 116.634 549.501 125C513.656 149.642 499.661 144.952 481.925 161.735C433.827 207.248 439.315 262.958 507.214 352.584L114.938 560.204L-8.39898 327.172Z" fill="white" stroke="#DADADA" stroke-width="2"/>
<path fill-rule="evenodd" clip-rule="evenodd" d="M553.201 73.2331C553.676 64.5318 549.999 55.4583 543.966 50.9923C540.839 48.6772 536.939 47.533 532.791 48.6593C528.742 49.7585 525.042 52.863 521.83 57.7889C516.397 66.1193 516.735 75.2374 519.092 82.9058C521.292 90.0602 525.326 96.2678 528.638 100.123C527.164 113.734 522.48 127.285 516.846 139.152C510.257 153.03 502.481 164.374 497.404 170.502L502.485 174.711C507.911 168.161 515.983 156.354 522.806 141.981C528.69 129.587 533.729 115.112 535.249 100.339C538.243 98.3601 541.968 95.3157 545.243 91.4457C549.243 86.7199 552.805 80.4842 553.201 73.2331Z" fill="#6BB554"/>
<path d="M485.166 127.759C478.654 125.077 466.087 118.201 467.912 112.157C470.194 104.601 494.438 90.8135 504.288 109.28C531.442 98.4417 564.679 113.601 552.477 123.737C541.814 132.594 485.254 146.708 481.828 141.157C476.596 132.681 486.88 134.217 485.166 127.759Z" fill="#F67146"/>
<path fill-rule="evenodd" clip-rule="evenodd" d="M399.501 110.5C393.351 107.057 381.425 108.055 373.621 112.645C362.356 119.272 359.349 137.216 366.277 142.413C372.088 146.773 377.812 144.141 384.653 140.994C386.775 140.018 389.005 138.993 391.378 138.112C397.822 135.718 401.198 136.062 404.018 136.349C406.273 136.578 408.172 136.772 411.001 135.5C415.468 133.492 411.422 124.605 410.312 122.166L410.288 122.114C409.05 119.393 405.656 113.946 399.501 110.5ZM376.879 125.452C378.725 124.476 379.429 122.188 378.452 120.342C377.476 118.496 375.188 117.792 373.342 118.769C371.497 119.746 370.792 122.034 371.769 123.879C372.746 125.725 375.034 126.429 376.879 125.452Z" fill="#424240"/>
</g>
<defs>
<clipPath id="clip0_87_696">
<rect width="557" height="315" fill="white"/>
</clipPath>
</defs>
</svg>
