<svg width="150" height="47" viewBox="0 0 150 47" fill="none" xmlns="http://www.w3.org/2000/svg">
<path d="M71.2073 0C73.0869 0 74.9664 0 76.8459 0C76.8459 0.7988 76.8459 1.5976 76.8459 2.42661C91.9325 2.42661 106.962 2.42661 122.032 2.42661C122.032 2.61456 122.032 2.77231 122.032 2.93006C122.032 14.3146 122.032 25.6992 122.029 37.0838C122.029 37.4832 121.998 37.8893 121.938 38.2854C121.622 40.3428 120.293 41.4739 118.209 41.4739C114.41 41.4739 110.61 41.4739 106.811 41.4739C106.657 41.4739 106.502 41.4739 106.361 41.4739C106.361 31.0827 106.361 20.752 106.361 10.4314C107.969 10.4314 109.546 10.4314 111.157 10.4314C111.157 19.037 111.157 27.609 111.157 36.2078C111.322 36.2145 111.453 36.2279 111.584 36.2279C112.966 36.2279 114.349 36.2313 115.732 36.2279C116.816 36.2246 117.209 35.8285 117.209 34.7411C117.209 25.7328 117.209 16.7245 117.209 7.71614C117.209 7.57517 117.195 7.43421 117.189 7.28989C103.723 7.28989 90.3047 7.28989 76.8728 7.28989C76.8728 8.31021 76.8728 9.30368 76.8728 10.3341C82.659 10.3341 88.4118 10.3341 94.2182 10.3341C94.2182 10.522 94.2182 10.6798 94.2182 10.8375C94.2182 13.2138 94.2182 15.59 94.2182 17.9663C94.2182 21.8193 94.2215 25.6724 94.2148 29.5254C94.2115 31.3311 93.4194 32.4353 91.8117 32.8213C91.2814 32.9488 90.7242 33.0059 90.1805 33.0093C85.8979 33.0227 81.6152 33.016 77.3326 33.016C77.1782 33.016 77.0238 33.016 76.8694 33.016C76.8694 34.1135 76.8694 35.1539 76.8694 36.2414C83.9881 36.2414 91.08 36.2414 98.2289 36.2414C98.135 36.4025 98.0813 36.5065 98.0209 36.6038C97.0274 38.1175 96.0272 39.6245 95.0472 41.1483C94.8793 41.4101 94.7015 41.4906 94.3994 41.4906C88.7071 41.4806 83.0148 41.4839 77.3225 41.4839C77.1681 41.4839 77.0138 41.4839 76.8258 41.4839C76.8258 43.3131 76.8258 45.0785 76.8258 46.8473C74.9463 46.8473 73.1003 46.8473 71.2174 46.8473C71.2174 45.055 71.2174 43.2896 71.2174 41.5141C61.0646 41.5141 50.952 41.5141 40.7959 41.5141C40.7959 43.3097 40.7959 45.0752 40.7959 46.8439C38.8828 46.8439 37.0133 46.8439 35.1069 46.8439C35.1069 45.045 35.1069 43.2795 35.1069 41.4873C34.9123 41.4873 34.7545 41.4873 34.5968 41.4873C30.5961 41.4873 26.5953 41.4906 22.5946 41.4873C21.0407 41.4839 20.121 40.7388 19.8525 39.2654C19.8022 38.9902 19.8022 38.7049 19.8022 38.423C19.7988 27.2532 19.7988 16.0834 19.7988 4.91363C19.7988 4.76931 19.7988 4.62498 19.7988 4.46388C21.5542 4.46388 23.2659 4.46388 25.028 4.46388C25.028 4.64848 25.028 4.81965 25.028 4.99082C25.028 14.9792 25.028 24.9675 25.028 34.9559C25.028 35.117 25.0246 35.2781 25.038 35.4392C25.0749 35.852 25.2998 36.1071 25.7026 36.181C25.9006 36.2179 26.102 36.2347 26.3 36.2347C29.0924 36.238 31.8849 36.238 34.6773 36.238C34.8183 36.238 34.9593 36.238 35.1069 36.238C35.1136 36.0803 35.1237 35.9863 35.1237 35.8923C35.1237 23.9304 35.1237 11.9686 35.1204 0.00670892C37.0267 0.00670892 38.9331 0.00670892 40.8395 0.00670892C40.8294 0.140961 40.816 0.271858 40.816 0.40611C40.816 12.1934 40.816 23.9774 40.816 35.7648C40.816 35.9057 40.816 36.0501 40.816 36.2112C50.9722 36.2112 61.0747 36.2112 71.1872 36.2112C71.1872 35.1371 71.1872 34.09 71.1872 33.0093C65.4815 33.0093 59.806 33.0093 54.1204 33.0093C54.1204 25.4341 54.1204 17.8891 54.1204 10.3139C59.8328 10.3139 65.5083 10.3139 71.2006 10.3139C71.2006 9.29697 71.2006 8.31021 71.2006 7.27312C71.0127 7.27312 70.8415 7.27312 70.6703 7.27312C65.3002 7.27312 59.9302 7.26975 54.5601 7.27982C54.2211 7.27982 54.0063 7.19591 53.8016 6.90056C52.8416 5.51105 51.8515 4.14168 50.8715 2.76224C50.8044 2.66827 50.7507 2.57093 50.65 2.41318C57.5405 2.41318 64.3638 2.41318 71.2073 2.41318C71.2073 1.57746 71.2073 0.788731 71.2073 0ZM76.8661 28.2836C77.0406 28.2836 77.1883 28.2836 77.3326 28.2836C80.4305 28.2836 83.5283 28.2836 86.6262 28.2836C86.8947 28.2836 87.1632 28.2936 87.4317 28.2769C88.1701 28.2366 88.5594 27.8472 88.5829 27.1089C88.5997 26.5316 88.5863 25.9543 88.5863 25.3804C88.5863 24.9004 88.5863 24.4238 88.5863 23.9237C84.6527 23.9237 80.7695 23.9237 76.8627 23.9237C76.8661 25.3669 76.8661 26.7967 76.8661 28.2836ZM71.1838 23.9405C67.3644 23.9405 63.5717 23.9405 59.7556 23.9405C59.7556 25.3871 59.7556 26.8135 59.7556 28.2399C63.5818 28.2399 67.3744 28.2399 71.1838 28.2399C71.1838 26.8068 71.1838 25.4005 71.1838 23.9405ZM76.8795 19.1511C80.7728 19.1511 84.646 19.1511 88.5527 19.1511C88.5594 18.99 88.5729 18.8456 88.5729 18.7013C88.5729 17.6273 88.5594 16.5533 88.5829 15.4793C88.5896 15.1101 88.4856 15.0027 88.113 15.006C84.5151 15.0195 80.9171 15.0127 77.3192 15.0161C77.1749 15.0161 77.0305 15.0295 76.8829 15.0362C76.8795 16.4257 76.8795 17.775 76.8795 19.1511ZM59.7355 19.1678C63.5818 19.1678 67.3845 19.1678 71.1973 19.1678C71.1973 17.775 71.1973 16.4123 71.1973 15.0262C67.3711 15.0262 63.565 15.0262 59.7355 15.0262C59.7355 16.4123 59.7355 17.775 59.7355 19.1678Z" fill="white"/>
<path d="M143.14 0.00335958C143.654 0.140968 144.181 0.238298 144.677 0.419538C147.121 1.30896 148.953 2.84951 149.755 5.40701C149.91 5.89703 149.977 6.43404 149.977 6.94755C149.99 14.2106 149.964 21.4736 150.001 28.7367C150.011 31.1734 148.708 31.9487 146.775 31.952C142.197 31.9621 137.619 31.9554 133.041 31.9554C132.128 31.9554 131.219 31.9554 130.245 31.9554C130.245 32.1366 130.245 32.291 130.245 32.4454C130.245 35.0767 130.245 37.7081 130.245 40.3394C130.245 41.155 130.561 41.4671 131.397 41.4671C134.055 41.4705 136.713 41.4671 139.371 41.4671C142.754 41.4671 146.137 41.4671 149.521 41.4671C149.665 41.4671 149.809 41.4671 149.97 41.4671C149.97 43.2795 149.97 45.0483 149.97 46.8741C149.799 46.8741 149.628 46.8741 149.46 46.8741C142.573 46.8741 135.686 46.8574 128.799 46.8842C126.674 46.8943 125.466 45.6055 125.117 43.7293C125.05 43.3635 125.03 42.9842 125.026 42.6083C125.02 28.4044 125.02 14.2039 125.02 0C131.058 0.0033563 137.099 0.00335958 143.14 0.00335958ZM135.25 4.85993C133.615 4.85993 132.024 4.85993 130.433 4.85993C130.433 12.3411 130.433 19.7955 130.433 27.2666C132.048 27.2666 133.635 27.2666 135.25 27.2666C135.25 19.7854 135.25 12.3344 135.25 4.85993ZM140.395 27.2901C140.868 27.2901 141.294 27.2935 141.72 27.2901C142.607 27.28 143.489 27.2868 144.375 27.2465C144.842 27.223 145.026 27.0048 145.104 26.5383C145.127 26.394 145.137 26.2463 145.137 26.0986C145.137 20.5037 145.141 14.9087 145.134 9.3171C145.134 8.90428 145.08 8.48474 144.996 8.08199C144.526 5.84669 142.348 4.77938 140.395 4.90692C140.395 12.3445 140.395 19.7854 140.395 27.2901Z" fill="white"/>
<path d="M13.8548 0C14.0327 0.0503446 14.2106 0.104046 14.3885 0.147678C15.8451 0.520228 16.6674 1.52041 16.7446 3.02403C16.7547 3.19856 16.7513 3.37309 16.7513 3.54762C16.7513 17.8018 16.7513 32.0561 16.7513 46.3103C16.7513 46.4815 16.7513 46.6526 16.7513 46.8473C16.6003 46.8574 16.4828 46.8708 16.3653 46.8708C13.9354 46.8708 11.5054 46.9111 9.0788 46.8641C5.11501 46.7835 1.17806 43.9542 0.211449 40.2421C0.13761 39.9602 0.0704824 39.6749 0 39.3929C0 26.2731 0 13.1534 0 0.00335958C4.61828 3.27772e-06 9.23655 0 13.8548 0ZM11.4416 41.5108C11.4416 41.2926 11.4416 41.1214 11.4416 40.9503C11.4416 29.4113 11.4416 17.869 11.4416 6.32998C11.4416 6.19573 11.4484 6.06149 11.4349 5.92723C11.3846 5.42043 11.1362 5.11165 10.6428 4.98411C10.4381 4.93041 10.2199 4.90691 10.0085 4.90691C8.59885 4.9002 7.18921 4.90355 5.78291 4.90355C5.6688 4.90355 5.55469 4.9237 5.41372 4.93377C5.41372 5.08816 5.41372 5.20563 5.41372 5.32645C5.41372 15.6874 5.41036 26.0449 5.42043 36.4058C5.42043 37.8927 5.98765 39.1546 7.14893 40.1045C8.37398 41.1046 9.82055 41.4772 11.4416 41.5108Z" fill="white"/>
<path d="M71.1841 23.9453C71.1841 25.4053 71.1841 26.8116 71.1841 28.2447C67.3747 28.2447 63.582 28.2447 59.7559 28.2447C59.7559 26.8183 59.7559 25.3919 59.7559 23.9453C63.572 23.9453 67.3646 23.9453 71.1841 23.9453Z" fill="#2D80B4"/>
<path d="M76.8789 19.1528C76.8789 17.7768 76.8789 16.4242 76.8789 15.038C77.0299 15.0313 77.1709 15.0179 77.3152 15.0179C80.9132 15.0179 84.5111 15.0212 88.1091 15.0078C88.4817 15.0078 88.5891 15.1152 88.579 15.4811C88.5555 16.5551 88.5723 17.6291 88.5689 18.7031C88.5689 18.8474 88.5555 18.9917 88.5488 19.1528C84.6454 19.1528 80.7722 19.1528 76.8789 19.1528Z" fill="#2D80B4"/>
</svg>
