<svg width="150" height="64" viewBox="0 0 150 64" fill="none" xmlns="http://www.w3.org/2000/svg">
<g clip-path="url(#clip0_255_638)">
<mask id="mask0_255_638" style="mask-type:luminance" maskUnits="userSpaceOnUse" x="0" y="0" width="150" height="64">
<path d="M150 0H0V64H150V0Z" fill="white"/>
</mask>
<g mask="url(#mask0_255_638)">
<path d="M13.3745 52.0547L10.4701 59.6204H8.30755L6.75449 54.2151L5.06478 59.6204H2.97163L0 52.0547H2.02591L4.11907 57.5945L5.60488 52.0547H7.83469L9.45498 57.5945L11.4137 52.0547H13.3745Z" fill="#898989"/>
<path d="M27.6616 52.0547L24.7572 59.6204H22.5947L21.0416 54.2151L19.3519 59.6204H17.2587L14.2871 52.0547H16.313L18.4062 57.5945L19.892 52.0547H22.1218L23.7421 57.5945L25.7008 52.0547H27.6616Z" fill="#898989"/>
<path d="M41.9507 52.0547L39.0463 59.6204H36.8837L35.3307 54.2151L33.641 59.6204H31.5478L28.5762 52.0547H30.6021L32.6952 57.5945L34.1811 52.0547H36.4109L38.0312 57.5945L39.9898 52.0547H41.9507Z" fill="#898989"/>
<path d="M45.0911 59.6235H42.8613V57.4609H45.0911V59.6235Z" fill="#898989"/>
<path d="M54.2444 59.6216H52.0146V54.893C51.9691 54.4419 51.789 54.1057 51.4745 53.8801C51.1145 53.6089 50.7544 53.4744 50.3943 53.4744C49.0885 53.6089 48.3684 54.4419 48.2318 55.9732C48.1407 57.4591 48.1645 58.6759 48.299 59.6216H46.002V49.2188H48.299V53.1361C48.5246 52.596 48.9063 52.2142 49.4464 51.9887C49.941 51.7175 50.4811 51.6068 51.0667 51.6502C51.8324 51.6502 52.5309 51.8519 53.1599 52.2575C53.8345 52.7087 54.1945 53.3617 54.2401 54.2163V59.6216H54.2444Z" fill="#898989"/>
<path d="M62.8235 55.3659C62.8235 55.457 62.8018 55.5459 62.7562 55.637C62.7562 55.7715 62.7562 55.9081 62.7562 56.0426H57.2164C57.1709 56.8538 57.3965 57.4395 57.891 57.7996C58.3422 58.2052 58.9712 58.4069 59.7824 58.4069C60.188 58.4069 60.5937 58.3613 60.9993 58.2724C61.4504 58.1813 61.8778 58.0468 62.2834 57.8668L62.0122 59.4199C61.6522 59.5543 61.2249 59.6454 60.7281 59.691C60.277 59.7821 59.8714 59.8255 59.5113 59.8255C58.16 59.8255 57.0798 59.4871 56.2685 58.8125C55.5029 58.1813 55.1211 57.1922 55.1211 55.8409C55.1211 54.5807 55.4812 53.5894 56.2013 52.8693C56.8759 52.1491 57.8454 51.7891 59.1057 51.7891C60.1403 51.7891 61.0188 52.1036 61.7411 52.7348C62.4179 53.3616 62.7779 54.2401 62.8235 55.3659ZM60.7303 54.893C60.6848 54.3985 60.5286 53.9928 60.2575 53.6762C59.9429 53.3616 59.559 53.2033 59.11 53.2033C58.5244 53.2033 58.0732 53.3616 57.7587 53.6762C57.4442 53.9907 57.2641 54.3963 57.2186 54.893H60.7303Z" fill="#898989"/>
<path d="M72.181 52.0547L68.5326 61.1735C68.2181 61.8047 67.8124 62.2775 67.3157 62.592C66.8212 62.9066 66.2355 63.0649 65.5588 63.0649C65.2443 63.0649 64.9514 63.041 64.6803 62.9977C64.3658 62.9521 64.073 62.9066 63.8018 62.8632L63.7346 61.3101C63.9146 61.3557 64.1163 61.4229 64.3419 61.5118C64.522 61.5574 64.7475 61.6008 65.0165 61.6463C65.5566 61.6008 65.9622 61.399 66.2334 61.039C66.5045 60.6334 66.7062 60.2061 66.8407 59.7549L63.7324 52.0547H66.0295L68.0554 57.9307L70.0813 52.0547H72.181Z" fill="#898989"/>
<path d="M79.4745 53.9495C79.16 53.7694 78.8216 53.6566 78.4615 53.6111C78.147 53.52 77.8303 53.4766 77.5158 53.4766C76.7957 53.4766 76.21 53.7022 75.7589 54.1512C75.3533 54.5568 75.1515 55.1186 75.1515 55.8409C75.1515 56.561 75.3533 57.1467 75.7589 57.5978C76.2079 58.0924 76.8174 58.3635 77.5831 58.4091C77.8542 58.3635 78.147 58.3201 78.4615 58.2746C78.7327 58.1835 79.0255 58.0729 79.34 57.9362L79.2055 59.5565C78.8455 59.691 78.4854 59.7821 78.1253 59.8276C77.7653 59.9166 77.4052 59.9621 77.0451 59.9621C75.8283 59.9166 74.8609 59.511 74.1407 58.7453C73.4206 57.934 73.0605 56.9449 73.0605 55.7736C73.0605 54.5568 73.4206 53.5894 74.1407 52.8693C74.9064 52.1491 75.8977 51.7891 77.1124 51.7891C77.4724 51.7891 77.8108 51.8108 78.1253 51.8563C78.4854 51.9019 78.8455 51.9908 79.2055 52.1274L79.4745 53.9495Z" fill="#898989"/>
<path d="M87.7848 59.6239H85.6916V55.7738C85.1949 55.9538 84.5442 56.1794 83.7329 56.4483C82.9217 56.7195 82.4944 57.1468 82.4488 57.7324C82.4488 58.047 82.5833 58.2725 82.8545 58.407C83.08 58.5415 83.3729 58.6087 83.7329 58.6087C83.913 58.6087 84.1147 58.5871 84.3403 58.5415C84.6114 58.496 84.8348 58.4287 85.017 58.3398L84.7459 59.6239C84.4748 59.6694 84.2058 59.7128 83.9346 59.7584C83.6635 59.8039 83.3946 59.8495 83.1234 59.8928C82.3577 59.8928 81.7048 59.6911 81.1647 59.2855C80.6246 58.9254 80.3535 58.3636 80.3535 57.5958C80.5335 56.2445 81.412 55.4571 82.9889 55.2315C84.5203 55.0059 85.3988 54.6242 85.6244 54.0841C85.5788 53.724 85.4226 53.4767 85.1515 53.3401C84.837 53.2056 84.5658 53.16 84.3403 53.2056C83.8002 53.2056 83.2601 53.2511 82.72 53.3401C82.1799 53.4745 81.6832 53.6546 81.2342 53.8802L81.3686 52.3944C81.9087 52.2143 82.4488 52.0798 82.9889 51.9887C83.529 51.8976 84.0691 51.8759 84.6092 51.9215C85.2838 51.8759 85.9606 51.9887 86.6351 52.2599C87.3119 52.4855 87.6937 53.0256 87.7826 53.8802V59.6239H87.7848Z" fill="#898989"/>
<path d="M93.6278 53.6114C92.9532 53.3858 92.322 53.4097 91.7363 53.6787C91.1507 53.9042 90.8579 54.4227 90.8579 55.2317V59.6219H88.6953V52.0562H90.7212V52.8674C90.9013 52.5074 91.1485 52.2362 91.4652 52.0562C91.7797 51.9217 92.1637 51.8545 92.6127 51.8545C92.7016 51.8089 92.8144 51.8089 92.951 51.8545C93.0421 51.8545 93.1766 51.8762 93.3566 51.9217L93.6278 53.6114Z" fill="#898989"/>
<path d="M96.7689 59.6235H94.5391V57.4609H96.7689V59.6235Z" fill="#898989"/>
<path d="M104.098 53.9495C103.783 53.7694 103.445 53.6566 103.085 53.6111C102.77 53.52 102.453 53.4766 102.139 53.4766C101.419 53.4766 100.833 53.7022 100.382 54.1512C99.9763 54.5568 99.7746 55.1186 99.7746 55.8409C99.7746 56.561 99.9763 57.1467 100.382 57.5978C100.833 58.0924 101.44 58.3635 102.206 58.4091C102.477 58.3635 102.768 58.3201 103.085 58.2746C103.356 58.1835 103.646 58.0729 103.963 57.9362L103.829 59.5565C103.469 59.691 103.108 59.7821 102.748 59.8276C102.388 59.9166 102.028 59.9621 101.668 59.9621C100.451 59.9166 99.4839 59.511 98.7638 58.7453C98.0437 57.934 97.6836 56.9449 97.6836 55.7736C97.6836 54.5568 98.0437 53.5894 98.7638 52.8693C99.5295 52.1491 100.521 51.7891 101.735 51.7891C102.095 51.7891 102.434 51.8108 102.748 51.8563C103.108 51.9019 103.469 51.9908 103.829 52.1274L104.098 53.9495Z" fill="#898989"/>
<path d="M113.353 55.7697C113.308 56.9865 112.88 57.9539 112.069 58.6741C111.304 59.3486 110.336 59.7109 109.165 59.7543C107.905 59.7087 106.889 59.3703 106.126 58.7413C105.36 58.0667 104.979 57.0971 104.979 55.8369C104.979 54.6201 105.339 53.631 106.059 52.8653C106.824 52.0541 107.816 51.6484 109.03 51.6484C110.247 51.6484 111.26 52.0085 112.069 52.7286C112.88 53.4488 113.308 54.4639 113.353 55.7697ZM111.258 55.7697C111.258 55.0495 111.056 54.4639 110.651 54.0127C110.291 53.5182 109.75 53.2687 109.03 53.2687C108.356 53.2687 107.859 53.5399 107.545 54.08C107.23 54.6201 107.093 55.184 107.139 55.7697C107.093 56.4009 107.23 56.9627 107.545 57.4594C107.859 57.9995 108.356 58.2923 109.03 58.3379C109.705 58.2923 110.247 58.0233 110.651 57.5266C111.011 57.0299 111.212 56.4443 111.258 55.7697Z" fill="#898989"/>
<path d="M126.323 59.6213H124.093V54.6888C124.048 54.3288 123.935 54.0359 123.755 53.8103C123.575 53.6303 123.328 53.5392 123.011 53.5392C122.56 53.5392 122.178 53.6737 121.864 53.9448C121.593 54.2593 121.458 54.6433 121.458 55.0923V59.6191H119.161V54.6866C119.115 54.3266 118.981 54.0338 118.755 53.8082C118.53 53.5826 118.259 53.4698 117.944 53.4698C116.864 53.6498 116.324 54.55 116.324 56.1725C116.324 57.7928 116.391 58.9424 116.526 59.617H114.229V52.0512H116.391V52.9969C116.662 52.5913 117.044 52.2985 117.539 52.1185C117.99 51.9384 118.463 51.8473 118.957 51.8473C119.408 51.8018 119.857 51.8929 120.308 52.1185C120.714 52.2985 121.029 52.6369 121.254 53.1314C121.48 52.6803 121.861 52.3441 122.402 52.1185C122.896 51.8929 123.415 51.804 123.955 51.8473C124.586 51.8018 125.126 51.9601 125.575 52.3202C126.026 52.6803 126.273 53.2204 126.319 53.9405V59.6213H126.323Z" fill="#898989"/>
<path d="M129.431 59.6235H127.201V57.4609H129.431V59.6235Z" fill="#898989"/>
<path d="M135.747 57.9289L135.476 59.5492C135.161 59.5948 134.845 59.6403 134.53 59.6837C134.17 59.7293 133.856 59.7748 133.585 59.8182C132.819 59.8182 132.257 59.6165 131.895 59.2109C131.535 58.8508 131.376 58.3107 131.422 57.5906V53.6038H130.342V52.0508H131.422V50.8339L133.585 50.2266V52.0508H135.476V53.6038H133.585V57.1155C133.585 57.3867 133.676 57.6339 133.856 57.8595C134.081 58.0396 134.35 58.1524 134.667 58.1979C134.801 58.1524 134.981 58.1068 135.207 58.0634C135.387 58.02 135.567 57.9745 135.747 57.9289Z" fill="#898989"/>
<path d="M150 52.0547L147.095 59.6204H144.933L143.379 54.2151L141.69 59.6204H139.597L136.625 52.0547H138.651L140.744 57.5945L142.23 52.0547H144.46L146.08 57.5945L148.039 52.0547H150Z" fill="#898989"/>
<path d="M42.6424 20.9424C42.6424 32.5079 33.2676 41.8826 21.7022 41.8826C10.1388 41.8826 0.759766 32.5079 0.759766 20.9424C0.759766 9.3769 10.1367 0 21.7022 0C33.2676 0 42.6424 9.37473 42.6424 20.9424Z" fill="url(#paint0_linear_255_638)"/>
<path d="M21.1749 6.90625L11.8652 6.97132L12.0518 33.3255L18.4354 33.28V33.2843L20.9602 33.2648C20.9059 33.1954 20.8734 33.1086 20.8712 33.0132L20.8625 31.7118C20.8604 31.4775 21.0469 31.2866 21.2812 31.2866L25.8427 31.2541C26.077 31.2519 26.2657 31.4406 26.2679 31.6727L26.2765 32.9742C26.2787 33.0696 26.244 33.1564 26.1941 33.2279L27.0618 33.2214V33.2193L34.1177 33.1672L34.0331 21.4716C33.9052 19.3936 33.2588 17.7863 32.1027 16.6519C30.8316 15.6216 29.1592 15.114 27.0921 15.1292C25.8254 15.0338 24.6801 15.2485 23.6498 15.7756C22.6195 16.3027 21.882 17.09 21.2009 18.1334M27.027 23.3738L26.4587 26.263C26.3134 27.0027 26.244 27.7532 26.2483 28.5059C26.257 29.6012 25.372 30.4992 24.2745 30.5079L22.4742 30.5231C21.8647 30.5253 21.3202 30.239 20.9753 29.79L17.9733 26.7185C17.6849 26.4214 17.6892 25.9464 17.9864 25.6557C18.2835 25.365 18.7585 25.3716 19.047 25.6687L20.3116 26.9637C20.3572 27.0092 20.4266 27.0222 20.4851 26.994C20.5415 26.9658 20.5762 26.9029 20.5676 26.84L19.9472 21.8707C19.8951 21.4607 20.188 21.0833 20.6001 21.0334C21.01 20.9814 21.3853 21.2742 21.4373 21.6841L21.7388 24.0961C21.7454 24.1482 21.7909 24.1872 21.8451 24.1829C21.8972 24.1786 21.9384 24.1352 21.9384 24.0831L21.9167 21.1115C21.9145 20.695 22.2464 20.3588 22.6629 20.3545C23.0772 20.3502 23.4155 20.6864 23.4199 21.1007L23.4416 24.12C23.4416 24.1851 23.4936 24.2371 23.5587 24.2415C23.6238 24.2436 23.678 24.1938 23.6845 24.1287L23.8776 21.6581C23.9101 21.246 24.2702 20.9358 24.6844 20.9683C25.0966 20.9987 25.4068 21.3609 25.3764 21.7752L25.1508 24.6753C25.1443 24.736 25.1898 24.7902 25.2484 24.7989C25.3091 24.8054 25.3655 24.7664 25.3764 24.7078L25.6909 23.1136C25.7646 22.7426 26.1225 22.5019 26.4935 22.5756C26.86 22.645 27.0986 23.0029 27.027 23.3738Z" fill="#202020"/>
<path d="M103.304 40.4329C103.304 40.2898 103.228 40.2182 103.076 40.2182H100.131C100.007 40.2182 99.9116 40.1835 99.84 40.1119C99.7793 40.0187 99.7468 39.9232 99.7468 39.8213V34.301C99.7468 34.1882 99.7836 34.0971 99.8552 34.0255C99.9376 33.9431 100.029 33.9062 100.131 33.9171H103.076C103.228 33.9171 103.304 33.839 103.304 33.6871V32.0603H99.6557V30.2969H112.612V32.0603H109.115V33.6871C109.126 33.839 109.195 33.9171 109.33 33.9171H112.212C112.479 33.9171 112.612 34.045 112.612 34.2988V39.8191C112.601 40.0837 112.468 40.216 112.212 40.216H109.33C109.187 40.2269 109.115 40.2985 109.115 40.4308V42.1942H112.976V43.9577H99.3477V42.1942H103.302V40.4329H103.304ZM107.291 42.1986V38.9016C107.299 38.6044 107.449 38.4569 107.735 38.4569H110.527C110.701 38.4461 110.787 38.3593 110.787 38.1945V35.9256C110.776 35.7629 110.69 35.6805 110.527 35.6805H107.735C107.436 35.6805 107.291 35.5287 107.291 35.2207V32.0625H105.128V35.2055C105.107 35.327 105.063 35.4354 104.989 35.5287C104.898 35.6198 104.788 35.6718 104.653 35.6805H101.818C101.651 35.6805 101.571 35.7629 101.571 35.9256V38.1945C101.571 38.368 101.653 38.4569 101.818 38.4569H104.668C104.781 38.4678 104.883 38.5068 104.974 38.5784C105.067 38.6695 105.12 38.7779 105.128 38.9016V42.1986H107.291Z" fill="white"/>
<path d="M119.37 38.5301V38.4997H115.294V36.7362H119.37V35.6777H115.047V33.9143H119.37V33.3004H121.196V38.5279C121.187 39.0398 121.114 39.5864 120.981 40.1677C120.497 42.0917 119.324 43.5558 117.454 44.5688L116.183 43.0808C117.192 42.6426 117.96 42.0656 118.482 41.3499L115.077 42.1003L114.539 40.3521L119.322 39.2784C119.357 39.0354 119.37 38.786 119.37 38.5301ZM119.602 32.3959V32.8861H117.777V32.3959H114.862V30.6954H117.777V29.9297H119.602V30.6954H124.033V29.9297H125.857V30.6954H128.803V32.3959H125.857V32.949H124.033V32.3959H119.602ZM124.202 44.3562H122.378V33.1768H124.202V33.7906H128.619V35.5541H124.202V36.6733H128.373V38.4368H124.202V39.6797H128.803V41.4431H124.202V44.3562Z" fill="white"/>
<path d="M130.629 38.9608L130.121 37.2125C131.429 36.3623 132.559 35.1888 133.511 33.6856L134.936 34.7441C134.509 35.3884 134.086 35.9436 133.681 36.4143V44.1709H131.915V38.0845C131.466 38.4446 131.036 38.7352 130.629 38.9608ZM134.568 30.8962C133.474 32.664 132.24 33.9676 130.859 34.8049L130.29 33.0718C131.394 32.3061 132.336 31.2454 133.112 29.8984L134.568 30.8962ZM134.125 40.4033V38.7613H141.116V38.1322H134.553V36.4902H144.318V38.1322H142.877V38.7613H144.504V40.4033H142.877V43.056C142.871 43.3423 142.797 43.5766 142.663 43.761C142.5 43.9974 142.264 44.1796 141.96 44.3141C141.335 44.5982 140.329 44.5896 138.938 44.2816V42.4422C139.951 42.7697 140.609 42.8521 140.917 42.6895C141.049 42.6179 141.118 42.4856 141.118 42.2903V40.4054H137.008C137.518 40.8653 138.069 41.4379 138.661 42.1233L137.359 43.3489C136.611 42.4812 135.962 41.8327 135.411 41.4032L136.379 40.4076H134.125V40.4033ZM143.463 36.1085H135.55C135.255 36.1085 135.106 35.9567 135.106 35.6486V30.6815C135.116 30.3843 135.264 30.2368 135.55 30.2368H143.463C143.769 30.2477 143.923 30.3952 143.923 30.6815V35.6486C143.923 35.9567 143.769 36.1085 143.463 36.1085ZM142.159 32.4146V31.8311C142.149 31.7812 142.123 31.7552 142.084 31.7552H136.932C136.88 31.766 136.86 31.7899 136.869 31.8311V32.4146H142.159ZM136.867 33.87V34.4969C136.867 34.5489 136.889 34.5793 136.93 34.588H142.081C142.131 34.5685 142.157 34.5381 142.157 34.4969V33.87H136.867Z" fill="white"/>
<path d="M55.0798 6.95312V14.7856H62.6715V6.95312H67.2656V27.3359H62.6715V18.8071H55.0798V27.3359H50.4531V6.95312H55.0798Z" fill="white"/>
<path d="M74.587 21.4113C74.7367 23.3157 76.6129 24.2224 78.7582 24.2224C80.3307 24.2224 81.6018 24.012 82.8425 23.6172L83.4477 26.7341C81.9358 27.3393 80.0921 27.6409 78.0944 27.6409C73.0752 27.6409 70.2012 24.7386 70.2012 20.1098C70.2012 16.3617 72.5264 12.2188 77.6693 12.2188C82.4478 12.2188 84.2633 15.9387 84.2633 19.5979C84.2633 20.3831 84.17 21.0794 84.1093 21.4113H74.587ZM80.001 18.2682C80.001 17.149 79.5152 15.2728 77.3982 15.2728C75.4612 15.2728 74.676 17.0275 74.5545 18.2682H80.001Z" fill="white"/>
<path d="M90.2842 12.5469L92.4901 19.8046C92.733 20.6831 93.0324 21.7698 93.2146 22.5571H93.3078C93.5182 21.7698 93.759 20.6505 93.9737 19.8046L95.7871 12.5469H100.715L97.2707 22.2838C95.1537 28.1512 93.733 30.5111 92.0671 31.9926C90.4664 33.383 88.7701 33.8688 87.6227 34.0185L86.6531 30.1185C87.2301 30.0274 87.9567 29.7563 88.6508 29.3333C89.345 28.9711 90.1041 28.2444 90.5553 27.4874C90.7071 27.2749 90.7982 27.0341 90.7982 26.8215C90.7982 26.6697 90.7679 26.4268 90.5878 26.0645L85.1738 12.5469H90.2842Z" fill="white"/>
<path d="M102.139 24.9178C102.139 23.3148 103.258 22.1652 104.861 22.1652C106.464 22.1652 107.522 23.3148 107.553 24.9178C107.553 26.4904 106.492 27.6703 104.861 27.6703C103.225 27.6682 102.139 26.4904 102.139 24.9178ZM103.136 20.6512L102.44 7.77344H107.249L106.581 20.6512H103.136Z" fill="white"/>
<path d="M121.855 26.9771C121.039 27.3394 119.497 27.643 117.745 27.643C112.966 27.643 109.912 24.7408 109.912 20.0816C109.912 15.7565 112.875 12.2188 118.378 12.2188C119.588 12.2188 120.92 12.4313 121.888 12.7936L121.161 16.2098C120.619 15.9669 119.801 15.7543 118.591 15.7543C116.172 15.7543 114.597 17.4787 114.628 19.8973C114.628 22.6194 116.443 24.0424 118.682 24.0424C119.768 24.0424 120.619 23.8602 121.313 23.5869L121.855 26.9771Z" fill="white"/>
<path d="M132.924 27.3337L132.652 25.8522H132.561C131.594 27.0322 130.082 27.6656 128.329 27.6656C125.334 27.6656 123.549 25.4878 123.549 23.13C123.549 19.2886 126.998 17.4449 132.232 17.4731V17.2605C132.232 16.4753 131.809 15.3561 129.54 15.3561C128.028 15.3561 126.425 15.8702 125.458 16.4753L124.61 13.5102C125.638 12.9376 127.666 12.2109 130.358 12.2109C135.288 12.2109 136.86 15.1153 136.86 18.5923V23.733C136.86 25.1538 136.919 26.5138 137.071 27.3315H132.924V27.3337ZM132.379 20.3471C129.961 20.3168 128.087 20.8916 128.087 22.6745C128.087 23.8545 128.872 24.4293 129.9 24.4293C131.047 24.4293 131.989 23.6723 132.29 22.7353C132.349 22.4945 132.379 22.2212 132.379 21.9501V20.3471Z" fill="white"/>
<path d="M140.485 17.4202C140.485 15.2424 140.424 13.8195 140.363 12.5506H144.326L144.476 15.2728H144.597C145.352 13.1254 147.168 12.2188 148.588 12.2188C149.011 12.2188 149.224 12.2187 149.558 12.2795V16.6024C149.224 16.5417 148.831 16.481 148.317 16.481C146.623 16.481 145.474 17.3876 145.172 18.8106C145.109 19.1121 145.081 19.4764 145.081 19.8386V27.3393H140.485V17.4202Z" fill="white"/>
</g>
</g>
<defs>
<linearGradient id="paint0_linear_255_638" x1="0.76098" y1="20.9408" x2="42.6426" y2="20.9408" gradientUnits="userSpaceOnUse">
<stop stop-color="#BE8537"/>
<stop offset="0.15" stop-color="#C8923F"/>
<stop offset="0.3" stop-color="#D3A24E"/>
<stop offset="0.5" stop-color="#DCB05A"/>
<stop offset="0.68" stop-color="#E7C471"/>
<stop offset="0.85" stop-color="#F9E08F"/>
<stop offset="1" stop-color="#EFE99F"/>
</linearGradient>
<clipPath id="clip0_255_638">
<rect width="150" height="64" fill="white"/>
</clipPath>
</defs>
</svg>
