<svg width="263" height="127" viewBox="0 0 263 127" fill="none" xmlns="http://www.w3.org/2000/svg">
<path d="M259.43 38.7395C257.56 34.8195 255.13 31.8995 252.14 29.9595C248.58 27.3595 245.05 25.7395 241.58 25.0995C238.1 24.6895 234.49 24.6395 230.76 24.9695L186.17 28.8695V126.93L210.71 124.78V86.4995L232.62 84.5795C242.4 83.5495 249.84 79.6695 254.93 72.9395C259.89 66.5395 262.37 59.7095 262.37 52.4495C262.37 47.0695 261.39 42.4895 259.44 38.7195L259.43 38.7395ZM238.59 60.9195C236.9 63.1495 234.38 64.4395 231.03 64.7895L210.7 66.5695V46.6595L230.71 44.9095C233.16 44.6395 235.31 45.0295 237.16 46.0795C238.38 46.7095 239.34 47.6195 240.02 48.8295C240.67 50.1795 241 51.8895 241 53.9395C241 56.4195 240.2 58.7395 238.59 60.9095V60.9195Z" fill="white"/>
<path d="M4.3999 102.66C6.3199 100.98 8.7199 99.37 11.6599 98.16C18.3799 44.73 65.8699 3.32001 123.47 3.32001C146.52 3.32001 167.95 9.95999 185.79 21.33C166.87 7.92999 143.46 0 118.12 0C57.4599 0 7.8799 45.41 4.3999 102.66Z" fill="white"/>
<path d="M154.29 82.8496C154.99 83.3196 155.71 83.8096 156.45 84.3396C155.71 83.8096 154.99 83.3096 154.29 82.8496Z" fill="white"/>
<path d="M157.36 83.1898C157.57 83.3598 161.12 86.1798 165.1 90.3898L181.22 88.9798V29.2998L154.03 31.6798V80.9598C155.11 81.6398 156.21 82.3598 157.36 83.1898Z" fill="white"/>
<path d="M139.32 76.2297C139.16 76.1997 138.99 76.1596 138.84 76.1396C138.99 76.1696 139.15 76.1997 139.32 76.2297Z" fill="white"/>
<path d="M140.35 76.4591C140.16 76.4191 139.97 76.3691 139.8 76.3291C139.97 76.3691 140.17 76.4191 140.35 76.4591Z" fill="white"/>
<path d="M141.53 76.7591C141.32 76.6991 141.1 76.6391 140.9 76.5791C141.1 76.6291 141.32 76.6991 141.53 76.7591Z" fill="white"/>
<path d="M137.18 75.9097C137.1 75.9097 137.01 75.8996 136.95 75.8896C137.02 75.8896 137.1 75.8997 137.18 75.9097Z" fill="white"/>
<path d="M137.73 75.9697C137.62 75.9597 137.51 75.9397 137.41 75.9297C137.5 75.9297 137.62 75.9497 137.73 75.9697Z" fill="white"/>
<path d="M144.3 77.6797C144.04 77.5797 143.77 77.4796 143.51 77.3896C143.76 77.4796 144.03 77.5797 144.3 77.6797Z" fill="white"/>
<path d="M149.11 79.8192C148.87 79.6992 148.63 79.5592 148.4 79.4492C148.63 79.5592 148.88 79.6992 149.11 79.8192Z" fill="white"/>
<path d="M145.89 78.3094C145.6 78.1894 145.3 78.0595 145.01 77.9395C145.29 78.0495 145.59 78.1794 145.89 78.3094Z" fill="white"/>
<path d="M100.64 77.0396C100.64 77.0396 100.71 77.0295 100.75 77.0195C100.71 77.0195 100.68 77.0195 100.64 77.0295V77.0396Z" fill="white"/>
<path d="M108.11 76.1895C107.21 76.2695 106.32 76.3495 105.46 76.4495C106.32 76.3595 107.21 76.2695 108.11 76.1895Z" fill="white"/>
<path d="M130.72 75.5998C130.12 75.5798 129.54 75.5698 128.95 75.5498C129.54 75.5598 130.12 75.5698 130.72 75.5998Z" fill="white"/>
<path d="M124.11 74.0092C128.22 74.0092 132.42 74.1391 136.59 74.4091C137.15 74.4091 141.89 74.5991 149.11 78.1791V32.1191L125.18 34.2091V66.0191L108.34 35.6891L79.17 38.2391L99.88 75.6791C106.92 74.6791 115.16 74.0191 124.11 74.0191V74.0092Z" fill="white"/>
<path d="M112.95 75.8193C111.64 75.8993 110.36 75.9893 109.11 76.0993C110.36 75.9993 111.64 75.8993 112.95 75.8193Z" fill="white"/>
<path d="M147.6 79.0692C147.28 78.9192 146.96 78.7591 146.65 78.6191C146.96 78.7591 147.28 78.9092 147.6 79.0692Z" fill="white"/>
<path d="M121.16 75.5098C120.21 75.5198 119.28 75.5497 118.36 75.5797C119.28 75.5497 120.21 75.5298 121.16 75.5098Z" fill="white"/>
<path d="M122.77 75.4995C123.53 75.4995 124.29 75.4995 125.06 75.4995C124.75 75.4995 124.41 75.4795 124.1 75.4795C123.65 75.4795 123.21 75.4895 122.77 75.4895V75.4995Z" fill="white"/>
<path d="M114.69 117.96C115.94 117.96 116.74 118.32 117.33 118.91C117.92 119.5 118.31 120.37 118.31 121.25C118.31 122.03 118.02 122.77 117.54 123.36C116.94 124.08 116.04 124.54 114.69 124.54H110.65V126.75H108.3V118.51C108.3 118.15 108.5 117.96 108.87 117.96H114.7H114.69ZM114.74 122.39C115.26 122.39 115.56 122.23 115.75 121.97C115.88 121.8 115.96 121.59 115.96 121.35C115.96 121.09 115.88 120.87 115.74 120.69C115.54 120.46 115.25 120.3 114.74 120.3H110.81C110.71 120.3 110.64 120.35 110.64 120.48V122.39H114.74Z" fill="white"/>
<path d="M129.51 126.36C129.58 126.5 129.61 126.62 129.65 126.75H127C126.97 126.63 126.93 126.54 126.9 126.45L126.43 125.38H121.23L120.77 126.43C120.73 126.53 120.69 126.64 120.68 126.74H117.96C118 126.61 118.04 126.49 118.1 126.35L121.25 119.38C121.74 118.29 122.54 117.75 123.8 117.75C125.06 117.75 125.84 118.28 126.34 119.38L129.51 126.35V126.36ZM125.57 123.45L124.22 120.3C124.14 120.1 123.99 120.03 123.82 120.03C123.66 120.03 123.52 120.1 123.43 120.3L122.09 123.45H125.57Z" fill="white"/>
<path d="M133.58 126.75H131.23V118.51C131.23 118.15 131.43 117.96 131.82 117.96H138.06C139.14 117.96 139.83 118.29 140.31 118.79C140.74 119.25 141.01 119.86 141.01 120.52C141.01 121.22 140.8 121.89 140.18 122.34C140.77 122.69 141.03 123.16 141.03 124.16V125.92C141.03 126.3 141.04 126.51 141.07 126.75H138.69C138.66 126.55 138.65 126.36 138.65 126.16V124.4C138.65 123.84 138.38 123.62 137.69 123.62H133.59V126.74L133.58 126.75ZM137.74 121.63C138.07 121.63 138.26 121.51 138.4 121.34C138.5 121.21 138.57 121.05 138.57 120.88C138.57 120.7 138.5 120.52 138.37 120.39C138.24 120.25 138.03 120.16 137.73 120.16H133.76C133.63 120.16 133.56 120.24 133.56 120.36V121.63H137.72H137.74Z" fill="white"/>
<path d="M145.2 117.96V121.56L149.21 118.32C149.34 118.22 149.48 118.07 149.57 117.96H152.86C152.81 118.04 152.7 118.13 152.63 118.19L147.79 121.94C147.74 121.98 147.71 122.02 147.71 122.08C147.71 122.14 147.72 122.17 147.79 122.22L152.98 126.42C153.1 126.52 153.21 126.63 153.32 126.75H149.81C149.71 126.63 149.58 126.52 149.42 126.39L145.21 122.87V126.76H142.83V117.97H145.21L145.2 117.96Z" fill="white"/>
<path d="M157.18 117.96V126.75H154.81V117.96H157.18Z" fill="white"/>
<path d="M170.05 125.049C170.05 126.379 169.26 126.939 168.4 126.939C167.66 126.939 167.1 126.729 166.68 126.249L161.86 120.669C161.79 120.589 161.73 120.549 161.65 120.549C161.53 120.549 161.43 120.639 161.43 120.799V126.759H159.12V119.829C159.12 118.329 159.98 117.779 161.16 117.779C161.99 117.779 162.51 117.999 163.06 118.649L167.35 123.789C167.41 123.879 167.49 123.889 167.57 123.889C167.67 123.889 167.75 123.809 167.75 123.659V117.979H170.05V125.069V125.049Z" fill="white"/>
<path d="M176.47 126.749C174.9 126.749 173.74 126.199 172.93 125.319C172.23 124.549 171.8 123.509 171.8 122.349C171.8 121.079 172.35 119.919 173.22 119.109C174 118.389 175.05 117.949 176.47 117.949H181.22V120.279H176.47C175.68 120.279 175.18 120.499 174.81 120.849C174.41 121.229 174.16 121.769 174.16 122.359C174.16 122.889 174.37 123.389 174.71 123.749C175.09 124.169 175.65 124.469 176.48 124.469H178.73C178.85 124.469 178.9 124.419 178.9 124.289V121.939H181.24V126.189C181.24 126.569 181.06 126.749 180.68 126.749H176.48H176.47Z" fill="white"/>
<path d="M32.98 101.239C32.77 101.639 32.42 102.719 32.1 103.969C32.05 104.159 32.2 104.349 32.4 104.339L33.72 104.279C33.86 104.279 33.99 104.169 34.02 104.029C34.12 103.519 34.38 102.319 34.8 101.449C34.9 101.239 34.76 100.999 34.53 101.009L33.25 101.079C33.14 101.079 33.04 101.149 32.98 101.249V101.239Z" fill="white"/>
<path d="M44.4199 120.969L44.3999 109.929L42.9099 121.109C42.9099 121.109 42.8399 121.149 42.8399 121.109L42.6799 110.089L41.0299 121.119C41.0299 121.119 40.9599 121.159 40.9599 121.119L41.1599 110.029L39.4099 121.279C39.4099 121.279 39.3399 121.319 39.3399 121.279L39.2899 110.149L37.6499 121.199C37.6499 121.199 37.5799 121.239 37.5799 121.199L37.8899 110.209L36.0899 121.359C36.0899 121.359 36.0199 121.399 36.0199 121.359L36.1999 110.249L34.3599 121.479C34.3599 121.479 34.2899 121.519 34.2899 121.479V110.399L32.8299 121.489C32.8299 121.529 32.7599 121.529 32.7599 121.489L32.5899 110.489L31.5599 121.499H31.4899L31.0699 110.399L29.8999 121.589C29.8999 121.589 29.8299 121.629 29.8299 121.589L29.3799 110.619L28.2899 121.689H28.2199L27.5899 110.649L26.5399 121.659H26.4699L26.0999 110.719L24.9099 121.729H24.8399L24.5899 111.069L23.5799 121.779C23.5799 121.779 23.5099 121.819 23.5099 121.779L23.0399 111.119L22.1499 121.719C22.1499 121.719 22.0799 121.759 22.0799 121.719L21.7499 111.159L20.6199 121.659C20.6199 121.719 20.5199 121.719 20.5199 121.659L20.1399 111.209L19.0199 121.629C19.0199 121.689 18.9199 121.689 18.9199 121.629L18.7599 111.259L17.4499 121.529C17.4499 121.529 17.3799 121.569 17.3799 121.529L17.3299 111.309L15.9099 121.679C15.9099 121.679 15.8399 121.719 15.8399 121.679L15.3999 111.379L14.4599 121.499C14.4599 121.499 14.4299 121.789 14.1999 121.789C13.8899 121.789 13.8799 121.509 13.8799 121.509C13.8799 121.509 13.4599 112.269 13.9499 109.439C14.2399 107.739 15.7399 107.349 17.9699 107.039C20.1899 106.729 25.7999 105.809 33.1799 105.409C42.4399 104.899 50.9999 105.359 53.1799 105.599C55.3599 105.839 56.1599 106.739 55.9799 107.989C55.4599 111.639 54.2199 118.769 53.8899 120.639C53.8899 120.679 53.8199 120.669 53.8199 120.639L54.0699 110.089L52.4499 120.919C52.4499 120.919 52.3799 120.959 52.3799 120.919L52.6399 109.929L50.6999 120.959C50.6999 120.959 50.6299 120.999 50.6299 120.959L51.0499 110.099L49.4199 121.079H49.3499L49.2299 110.089L47.8599 121.139C47.8599 121.139 47.7899 121.179 47.7899 121.139L47.3999 109.999L46.1099 121.099C46.1099 121.099 46.0399 121.139 46.0399 121.099L45.8799 110.069L44.5099 121.129C44.5099 121.129 44.4399 121.169 44.4399 121.129L44.4199 120.969Z" fill="white"/>
<path d="M176.45 101.879C176.45 101.879 171.87 99.9994 171.01 99.6194C170.15 99.2394 169.17 97.4794 169.17 97.4794C163.73 90.0994 156.45 84.3494 156.45 84.3494C144.59 75.8094 136.53 75.8894 136.53 75.8894C109.09 74.1494 88.64 78.4994 81.08 81.7094C73.51 84.9194 66.1 91.0794 66.1 91.0794C61.56 91.3894 61.55 93.2394 61.57 93.4794C62.64 93.4094 63.68 93.3394 64.65 93.2894C69.72 88.5894 79.59 83.0094 79.59 83.0094C104.89 75.6394 133.35 78.2394 133.35 78.2394C131.71 79.8794 126.37 92.4994 126.37 92.4994C125.81 92.2794 125.1 92.0794 124.3 91.9094C122.19 91.6194 120.06 91.3894 117.94 91.2394C115.91 91.0894 113.87 90.9794 111.83 90.9294C109.5 90.8994 107.03 90.9094 104.48 90.9494C100.49 91.0894 96.52 91.4294 92.58 92.0294C81.41 93.7694 70.5 97.0794 59.91 100.999C70.38 96.6594 81.29 93.2494 92.49 91.4594C92.96 91.3894 93.44 91.3494 93.91 91.2794C78.91 91.9594 64.65 93.2794 64.65 93.2794C57.24 94.1494 46.42 95.1194 38.87 95.8194C30.72 96.4794 20.86 97.2894 14.67 103.189C16.05 101.509 17.97 100.369 19.88 99.3694C20.53 99.0494 21.18 98.7694 21.85 98.4994C18.92 99.5494 17.76 100.479 17.76 100.479C17.76 100.479 9.09 101.159 5.16 107.299C2.82 110.949 0.67 119.999 0.16 124.969L0 126.939H9.44L10.96 125.349L56.78 125.049L55.49 126.929H102.74C102.74 126.929 102.96 124.519 103.7 121.599C103.82 121.089 103.94 120.589 104.07 120.079C106.73 109.349 112.06 104.619 116.35 105.589C119.27 106.249 121.93 108.419 123.83 112.659L125.62 112.419C124.53 108.559 122.29 104.909 118.53 103.309C109.59 99.2994 104.56 110.299 102.5 117.219C103.53 112.959 105.51 107.289 109.15 104.169C101.65 101.199 93.17 102.819 85.33 103.029C78.24 103.319 68.19 103.769 61.18 103.879C68.12 103.329 78.23 102.829 85.29 102.459C93.14 102.299 101.77 100.759 109.15 104.169C110.46 103.039 111.99 102.239 113.77 101.959C120.22 101.489 124.5 106.649 125.8 112.399L156.79 108.319L150.13 112.849L163.65 111.919C163.64 111.289 163.63 110.659 163.62 110.039L163.54 104.999C163.68 101.229 162.82 98.5994 159.34 96.7394C160.95 97.3094 162.36 98.4594 163.21 99.9594C164.12 101.469 164.05 103.299 164.11 104.989C164.15 107.299 164.11 109.599 163.97 111.909L170.33 111.469C171.11 109.519 172.33 107.659 174.41 106.959C175.73 106.579 177.25 107.129 178.02 108.219C178.81 109.279 179.13 110.569 179.22 111.819C179.06 111.209 178.88 110.609 178.62 110.049C178 108.409 176.38 106.959 174.55 107.509C172.74 108.099 171.54 109.759 170.59 111.449L172.65 111.309C173.64 109.849 174.81 109.199 176.23 109.879C177.91 110.689 178.88 112.639 179.43 114.959C179.43 114.959 180.99 114.169 180.99 112.189C181.22 102.899 176.44 101.899 176.44 101.899L176.45 101.879ZM6.12 108.549C4.27 111.119 3.79 114.479 3.1 117.509L2.51 120.709C2.56 119.079 2.72 117.449 2.97 115.829C3.51 113.139 4 110.199 5.9 108.089C7.54 108.039 9.19 107.979 10.84 108.009C9.27 108.239 7.7 108.389 6.12 108.539V108.549ZM10.86 122.949C10.92 118.839 11.13 110.409 11.82 107.339C11.82 107.339 11.94 105.729 14.11 104.239C16.28 102.749 23.05 101.389 29.05 100.529C35.05 99.6694 41.64 99.4994 46.75 99.7994C52.13 100.119 57.57 101.269 58.3 101.669C59.03 102.069 59.51 103.409 59.35 103.929C59.19 104.449 58.71 103.789 58.6 107.069C58.51 109.869 57.63 119.329 57.26 122.219L10.86 122.949ZM57.6 123.209C59 120.309 60.95 117.389 63.83 115.789C61.45 118.009 59.69 120.709 57.6 123.209ZM88.6 122.539C88.71 119.979 89.03 117.429 89.47 114.899L64.89 115.759C64.3 115.779 63.93 115.149 64.24 114.629L65.47 112.549C66.36 111.039 67.94 110.049 69.67 109.919L90.69 108.329C90.77 108.329 90.83 108.389 90.83 108.469C91.07 107.499 91.31 106.529 91.57 105.559C90.86 111.259 89.65 116.899 88.61 122.549L88.6 122.539ZM83.54 104.929C86.12 104.899 89.24 104.669 91.55 104.769L92.31 102.949L91.68 104.819C81.17 105.719 69.95 106.129 59.35 106.289C67.09 105.619 75.72 105.239 83.53 104.929H83.54ZM148.43 100.999C148.23 101.179 144.49 101.339 141.31 101.329C141.31 101.379 141.31 101.429 141.31 101.479C141.05 103.309 140.74 105.139 140.46 106.969C140.25 108.169 140.04 109.369 139.82 110.559L139.31 110.629C139.5 109.379 139.7 108.139 139.9 106.889C140.23 105.069 140.53 103.239 140.88 101.429C140.88 101.399 140.88 101.369 140.88 101.329C139.29 101.319 137.88 101.259 137.23 101.129C137.07 101.099 136.96 100.959 136.96 100.799V100.169C136.96 100.019 137.05 99.8894 137.18 99.8294C137.58 99.6694 138.59 99.3794 140.74 99.3394C140.52 98.2394 140.1 97.1594 139.7 96.1294C140.25 97.1394 140.77 98.2094 141.06 99.3294C141.33 99.3294 141.6 99.3294 141.9 99.3294C145.17 99.4094 147.44 99.4894 148.16 99.5194C148.31 99.5194 148.44 99.6294 148.47 99.7794C148.55 100.139 148.64 100.779 148.41 100.989L148.43 100.999ZM143.85 92.9794L143.94 92.1494C143.94 92.1494 151.05 91.2694 151.49 90.9394C151.93 90.6094 151.99 88.7794 150.74 86.2494C149.49 83.7194 144.77 83.9394 141.75 84.4394C139.38 84.8294 139.18 90.1794 139.2 92.4694C135.56 92.0894 133.04 91.8594 133.04 91.8594C133.04 91.8594 136.8 83.1094 138.17 80.7794C139.54 78.4494 142.91 78.8694 151.04 82.7294C159.16 86.5894 164.89 96.5294 164.89 96.5294C161.49 95.1994 151.7 93.8694 143.87 92.9794H143.85Z" fill="white"/>
<path d="M33.3798 94.7638C33.3798 94.7638 32.949 94.7406 33.0189 95.1707C33.0887 95.6009 33.1528 95.6183 33.2925 95.6939C33.4322 95.7695 33.4264 95.5253 33.5661 95.5834C33.7058 95.6416 33.9911 95.7578 34.2065 95.7171C34.2065 95.7171 34.1133 96.188 34.1482 96.5251C34.1832 96.8623 34.4219 97.211 34.3229 97.5714C34.2239 97.9318 34.0842 98.1527 34.0842 98.1527L35.1961 98.1237V97.99C35.1961 97.99 34.905 97.8737 34.9225 97.618C34.94 97.3622 34.8759 96.7635 34.841 96.5716C34.8061 96.3798 35.0855 96.2287 35.1321 95.4556C35.1321 95.4556 35.7375 94.8452 35.7957 94.1884C35.8539 93.5315 35.9878 93.4269 35.9878 93.4269C35.9878 93.4269 36.1799 93.049 35.9878 93.0083C35.7957 92.9676 35.3766 93.049 34.9167 93.8686C34.9167 93.8686 34.5441 93.2641 34.0726 93.4094C33.601 93.5547 33.5021 93.6303 33.3624 94.7638H33.3798Z" fill="white"/>
</svg>
