<svg width="72" height="72" viewBox="0 0 72 72" fill="none" xmlns="http://www.w3.org/2000/svg">
<g clip-path="url(#clip0_98_642)">
<path d="M72.0001 51.0966H13.9355V39.4837H15.0968C17.018 39.4837 18.5807 37.921 18.5807 35.9998C18.5807 34.0787 17.018 32.516 15.0968 32.516H13.9355V20.9031H72.0001V51.0966ZM16.2581 48.774H69.6775V23.2257H16.2581V30.3102C18.905 30.85 20.9033 33.1953 20.9033 35.9998C20.9033 38.8044 18.905 41.1497 16.2581 41.6895V48.774Z" fill="#E4CD9F"/>
<path d="M37.1614 22.0645H34.8389V25.5483H37.1614V22.0645Z" fill="#E4CD9F"/>
<path d="M37.1614 27.8708H34.8389V30.1934H37.1614V27.8708Z" fill="#E4CD9F"/>
<path d="M37.1614 32.5161H34.8389V34.8387H37.1614V32.5161Z" fill="#E4CD9F"/>
<path d="M37.1614 37.1614H34.8389V39.484H37.1614V37.1614Z" fill="#E4CD9F"/>
<path d="M37.1614 41.8064H34.8389V44.129H37.1614V41.8064Z" fill="#E4CD9F"/>
<path d="M37.1614 46.4517H34.8389V49.9355H37.1614V46.4517Z" fill="#E4CD9F"/>
<path d="M22.0657 25.5483H19.7432V27.8709H22.0657V25.5483Z" fill="#E4CD9F"/>
<path d="M26.7103 25.5483H24.3877V27.8709H26.7103V25.5483Z" fill="#E4CD9F"/>
<path d="M31.3558 25.5483H29.0332V27.8709H31.3558V25.5483Z" fill="#E4CD9F"/>
<path d="M58.0648 44.1292H55.7422V46.4517H58.0648V44.1292Z" fill="#E4CD9F"/>
<path d="M53.4193 44.1292H51.0967V46.4517H53.4193V44.1292Z" fill="#E4CD9F"/>
<path d="M62.7103 44.1292H60.3877V46.4517H62.7103V44.1292Z" fill="#E4CD9F"/>
<path d="M67.3558 44.1289H65.0332V46.4515H67.3558V44.1289Z" fill="#E4CD9F"/>
<path d="M32.5159 30.1936H23.2256V32.5162H32.5159V30.1936Z" fill="#E4CD9F"/>
<path d="M32.5159 39.4839H23.2256V41.8065H32.5159V39.4839Z" fill="#E4CD9F"/>
<path d="M32.5159 34.8386H23.2256V37.1612H32.5159V34.8386Z" fill="#E4CD9F"/>
<path d="M67.3552 27.8708H54.5811V30.1934H67.3552V27.8708Z" fill="#E4CD9F"/>
<path d="M52.2576 27.8708H39.4834V30.1934H52.2576V27.8708Z" fill="#E4CD9F"/>
<path d="M67.3544 32.5161H39.4834V34.8387H67.3544V32.5161Z" fill="#E4CD9F"/>
<path d="M67.3544 37.1614H39.4834V39.484H67.3544V37.1614Z" fill="#E4CD9F"/>
<path d="M36 71.9999H5.80645C2.605 71.9999 0 69.3949 0 66.1935V5.80645C0 2.605 2.605 0 5.80645 0H36C39.2014 0 41.8065 2.605 41.8065 5.80645V22.0645H39.4839V5.80645C39.4839 3.88533 37.9211 2.32258 36 2.32258H5.80645C3.88532 2.32258 2.32258 3.88533 2.32258 5.80645V66.1935C2.32258 68.1146 3.88532 69.6774 5.80645 69.6774H36C37.9211 69.6774 39.4839 68.1146 39.4839 66.1935V49.9354H41.8065V66.1935C41.8065 69.3949 39.2014 71.9999 36 71.9999Z" fill="#E4CD9F"/>
<path d="M40.645 60.387H1.16113V62.7095H40.645V60.387Z" fill="#E4CD9F"/>
<path d="M40.645 8.12915H1.16113V10.4517H40.645V8.12915Z" fill="#E4CD9F"/>
<path d="M26.7096 65.0322H15.0967V67.3548H26.7096V65.0322Z" fill="#E4CD9F"/>
<path d="M6.96809 12.7742H4.64551V15.0967H6.96809V12.7742Z" fill="#E4CD9F"/>
<path d="M6.96809 17.4194H4.64551V58.0646H6.96809V17.4194Z" fill="#E4CD9F"/>
<path d="M32.5159 44.1292H23.2256V46.4517H32.5159V44.1292Z" fill="#E4CD9F"/>
<path d="M20.9036 44.1292H18.5811V46.4517H20.9036V44.1292Z" fill="#E4CD9F"/>
</g>
<defs>
<clipPath id="clip0_98_642">
<rect width="72" height="71.9999" fill="white"/>
</clipPath>
</defs>
</svg>
