<svg width="80" height="72" viewBox="0 0 80 72" fill="none" xmlns="http://www.w3.org/2000/svg">
<g clip-path="url(#clip0_98_672)">
<path d="M12.8797 24.6602H10.3037V7.78735H18.0316C20.873 7.78735 23.1835 10.1157 23.1835 12.979C23.1835 15.8423 20.873 18.1707 18.0316 18.1707H12.8797V24.6602ZM12.8797 15.5748H18.0316C19.4516 15.5748 20.6075 14.41 20.6075 12.979C20.6075 11.5481 19.4516 10.3832 18.0316 10.3832H12.8797V15.5748Z" fill="#E4CD9F"/>
<path d="M15.4557 31.1499C6.93292 31.1499 0 24.1635 0 15.5749C0 6.9864 6.93292 0 15.4557 0C23.9785 0 30.9115 6.9864 30.9115 15.5749C30.9115 24.1635 23.9785 31.1499 15.4557 31.1499ZM15.4557 2.59582C8.3542 2.59582 2.57595 8.41865 2.57595 15.5749C2.57595 22.7312 8.3542 28.5541 15.4557 28.5541C22.5572 28.5541 28.3355 22.7312 28.3355 15.5749C28.3355 8.41865 22.5572 2.59582 15.4557 2.59582Z" fill="#E4CD9F"/>
<path d="M21.8974 70.7021H19.3214V47.3397H11.5935V70.7021H9.01758V44.7439H21.8974V70.7021Z" fill="#E4CD9F"/>
<path d="M14.1687 28.9412H11.5928V46.0417H14.1687V28.9412Z" fill="#E4CD9F"/>
<path d="M19.3201 28.9414H16.7441V46.0419H19.3201V28.9414Z" fill="#E4CD9F"/>
<path d="M79.8547 64.2125H56.6711V61.6167H77.2788V33.0626H54.6285L41.8343 45.9556L30.2763 47.8974C28.4061 48.2117 27.0476 49.8265 27.0476 51.7379V61.6167H41.2154V64.2125H24.4717V51.7379C24.4717 48.5527 26.7344 45.8606 29.8537 45.337L40.5965 43.5321L53.5618 30.4668H79.8547V64.2125Z" fill="#E4CD9F"/>
<path d="M74.7028 46.0417H45.834L56.1378 35.6584H74.7028V46.0417ZM52.0526 43.4459H72.1269V38.2543H57.2045L52.0526 43.4459Z" fill="#E4CD9F"/>
<path d="M48.9436 71.9999C43.9728 71.9999 39.9277 67.9237 39.9277 62.9145C39.9277 57.9053 43.9728 53.8291 48.9436 53.8291C53.9144 53.8291 57.9594 57.9053 57.9594 62.9145C57.9594 67.9237 53.9144 71.9999 48.9436 71.9999ZM48.9436 56.4249C45.3929 56.4249 42.5037 59.3364 42.5037 62.9145C42.5037 66.4926 45.3929 69.4041 48.9436 69.4041C52.4943 69.4041 55.3835 66.4926 55.3835 62.9145C55.3835 59.3364 52.4943 56.4249 48.9436 56.4249Z" fill="#E4CD9F"/>
<path d="M48.944 66.8085C46.8133 66.8085 45.0801 65.0619 45.0801 62.9147C45.0801 60.7676 46.8133 59.021 48.944 59.021C51.0747 59.021 52.8079 60.7676 52.8079 62.9147C52.8079 65.0619 51.0747 66.8085 48.944 66.8085ZM48.944 61.6168C48.2333 61.6168 47.656 62.1985 47.656 62.9147C47.656 63.6309 48.2333 64.2126 48.944 64.2126C49.6547 64.2126 50.232 63.6309 50.232 62.9147C50.232 62.1985 49.6547 61.6168 48.944 61.6168Z" fill="#E4CD9F"/>
<path d="M74.7033 48.6375H65.6875V51.2333H74.7033V48.6375Z" fill="#E4CD9F"/>
<path d="M78.5673 56.425H65.6875V59.0209H78.5673V56.425Z" fill="#E4CD9F"/>
<path d="M63.1117 56.425H55.3838V59.0209H63.1117V56.425Z" fill="#E4CD9F"/>
<path d="M42.5035 56.4253H25.7598V59.0211H42.5035V56.4253Z" fill="#E4CD9F"/>
<path d="M2.57595 69.4041H0V71.9999H2.57595V69.4041Z" fill="#E4CD9F"/>
<path d="M74.7031 69.4041H5.15234V71.9999H74.7031V69.4041Z" fill="#E4CD9F"/>
<path d="M79.8553 69.4043H77.2793V72.0001H79.8553V69.4043Z" fill="#E4CD9F"/>
<path d="M20.6075 49.9355H10.3037V52.5314H20.6075V49.9355Z" fill="#E4CD9F"/>
</g>
<defs>
<clipPath id="clip0_98_672">
<rect width="79.8546" height="72" fill="white"/>
</clipPath>
</defs>
</svg>
