<svg width="73" height="75" viewBox="0 0 73 75" fill="none" xmlns="http://www.w3.org/2000/svg">
<path fill-rule="evenodd" clip-rule="evenodd" d="M36.6102 15.7993H5.12667C2.70836 15.7993 0.741211 17.7781 0.741211 20.2107V61.3837C0.741211 63.8163 2.70836 65.7951 5.12667 65.7951H57.7522C60.1705 65.7951 62.1377 63.8163 62.1377 61.3837V48.4361H59.2141V61.3837C59.2141 62.1951 58.5588 62.8542 57.7522 62.8542H5.12667C4.32002 62.8542 3.66485 62.1951 3.66485 61.3837V20.2107C3.66485 19.3993 4.32002 18.7402 5.12667 18.7402H36.6102V15.7993Z" fill="#E4CD9F"/>
<path d="M60.676 51.0908H2.20312V54.0317H60.676V51.0908Z" fill="#E4CD9F"/>
<path d="M26.5378 42.3403L24.6361 40.8641C25.7985 39.3691 26.4121 37.585 26.4121 35.7045C26.4121 31.0596 22.6323 27.2798 17.9874 27.2798C16.1069 27.2798 14.3228 27.8934 12.8278 29.0558L11.3516 27.1541C13.272 25.6615 15.5663 24.8728 17.9874 24.8728C23.9603 24.8728 28.8191 29.7315 28.8191 35.7045C28.8191 38.1256 28.0304 40.4199 26.5378 42.3403Z" fill="#E4CD9F"/>
<path d="M17.9879 46.5359C12.015 46.5359 7.15625 41.6771 7.15625 35.7042C7.15625 33.2831 7.9449 30.9888 9.43751 29.0684L11.3392 30.5446C10.1768 32.0396 9.56329 33.8237 9.56329 35.7042C9.56329 40.3491 13.343 44.1288 17.9879 44.1288C19.8684 44.1288 21.6525 43.5153 23.1475 42.3529L24.6237 44.2546C22.7033 45.7472 20.409 46.5359 17.9879 46.5359Z" fill="#E4CD9F"/>
<path d="M22.6688 64.325H19.7451V73.1477H22.6688V64.325Z" fill="#E4CD9F"/>
<path d="M43.1346 64.325H40.2109V73.1477H43.1346V64.325Z" fill="#E4CD9F"/>
<path d="M48.9812 71.6772H13.8975V74.6182H48.9812V71.6772Z" fill="#E4CD9F"/>
<path d="M41.6727 56.9727H38.749V59.9136H41.6727V56.9727Z" fill="#E4CD9F"/>
<path d="M47.5193 56.9727H44.5957V59.9136H47.5193V56.9727Z" fill="#E4CD9F"/>
<path d="M53.367 56.9727H50.4434V59.9136H53.367V56.9727Z" fill="#E4CD9F"/>
<rect x="37.9204" y="4.5818" width="33.3818" height="42.5454" stroke="#E4CD9F" stroke-width="2.61818"/>
<path d="M66.7203 20.291H57.5566V22.9092H66.7203V20.291Z" fill="#E4CD9F"/>
<path d="M60.1748 11.1274H57.5566V22.9093H60.1748V11.1274Z" fill="#E4CD9F"/>
<path d="M66.7197 11.1274H64.1016V22.9093H66.7197V11.1274Z" fill="#E4CD9F"/>
<path d="M54.2828 9.81812H42.501V12.4363H54.2828V9.81812Z" fill="#E4CD9F"/>
<path d="M66.7203 9.81836H57.5566V12.4365H66.7203V9.81836Z" fill="#E4CD9F"/>
<path d="M54.2828 15.0544H42.501V17.6726H54.2828V15.0544Z" fill="#E4CD9F"/>
<path d="M54.2828 20.2908H42.501V22.909H54.2828V20.2908Z" fill="#E4CD9F"/>
<path d="M66.7192 25.5273H42.501V28.1455H66.7192V25.5273Z" fill="#E4CD9F"/>
<path d="M66.7192 30.7637H42.501V33.3819H66.7192V30.7637Z" fill="#E4CD9F"/>
<path d="M66.7192 36H42.501V38.6182H66.7192V36Z" fill="#E4CD9F"/>
<path d="M19.244 30.1091H16.3203V33.0501H19.244V30.1091Z" fill="#E4CD9F"/>
<path d="M19.244 34.6909H16.3203V41.5571H19.244V34.6909Z" fill="#E4CD9F"/>
</svg>
