<svg width="72" height="72" viewBox="0 0 72 72" fill="none" xmlns="http://www.w3.org/2000/svg">
<g clip-path="url(#clip0_98_620)">
<path d="M13.9355 16.2581C10.0933 16.2581 6.96777 13.1326 6.96777 9.29032V6.96774C6.96777 3.12549 10.0933 0 13.9355 0C17.7777 0 20.9033 3.12549 20.9033 6.96774V9.29032C20.9033 13.1326 17.7777 16.2581 13.9355 16.2581ZM13.9355 2.32258C11.3736 2.32258 9.29035 4.40582 9.29035 6.96774V9.29032C9.29035 11.8522 11.3736 13.9355 13.9355 13.9355C16.4974 13.9355 18.5807 11.8522 18.5807 9.29032V6.96774C18.5807 4.40582 16.4974 2.32258 13.9355 2.32258Z" fill="#E4CD9F"/>
<path d="M27.8707 46.4514H20.903V44.1288H25.5481V23.3685C25.5481 21.7672 24.4628 20.3769 22.9091 19.9878L16.2578 18.3265V13.9353H18.5804V16.512L23.4716 17.7356C26.0619 18.3832 27.8707 20.6989 27.8707 23.3685V46.4514Z" fill="#E4CD9F"/>
<path d="M6.96774 46.4514H0V23.3685C0 20.6989 1.80881 18.3832 4.39907 17.7356L9.29032 16.512V13.9353H11.6129V18.3265L4.9616 19.9878C3.40791 20.3769 2.32258 21.7672 2.32258 23.3685V44.1288H6.96774V46.4514Z" fill="#E4CD9F"/>
<path d="M22.0648 24.387H19.7422V70.8385H22.0648V24.387Z" fill="#E4CD9F"/>
<path d="M15.097 38.3225H12.7744V70.8386H15.097V38.3225Z" fill="#E4CD9F"/>
<path d="M20.9033 37.1611H6.96777V39.4837H20.9033V37.1611Z" fill="#E4CD9F"/>
<path d="M59.2258 70.8386H56.9032V54.5805C56.9032 53.9397 56.3827 53.4193 55.7419 53.4193H32.5161C31.8753 53.4193 31.3548 53.9397 31.3548 54.5805V70.8386H29.0322V54.5805C29.0322 52.6594 30.595 51.0967 32.5161 51.0967H55.7419C57.663 51.0967 59.2258 52.6594 59.2258 54.5805V70.8386Z" fill="#E4CD9F"/>
<path d="M52.2574 39.4839H26.709V41.8065H52.2574V39.4839Z" fill="#E4CD9F"/>
<path d="M71.9994 41.8064H54.5801V39.4838H69.6769V37.1612H56.9027V34.8386H71.9994V41.8064Z" fill="#E4CD9F"/>
<path d="M49.9348 34.8386H26.709V37.1612H49.9348V34.8386Z" fill="#E4CD9F"/>
<path d="M68.5163 71.9998H5.80664V24.387H8.12922V69.6772H66.1937V40.645H68.5163V71.9998Z" fill="#E4CD9F"/>
<path d="M53.419 43.8997L40.858 25.0583C39.1989 22.5701 38.3223 19.6737 38.3223 16.6832V16.2579C38.3223 7.93377 45.0949 1.16113 53.419 1.16113C61.7432 1.16113 68.5158 7.93377 68.5158 16.2579V16.6832C68.5158 19.6737 67.6391 22.5701 65.98 25.0583L53.419 43.8997ZM53.419 3.48371C46.3753 3.48371 40.6448 9.21421 40.6448 16.2579V16.6832C40.6448 19.2133 41.3865 21.6641 42.7905 23.77L53.419 39.7128L64.0475 23.77C65.4515 21.6641 66.1932 19.2133 66.1932 16.6832V16.2579C66.1932 9.21421 60.4627 3.48371 53.419 3.48371Z" fill="#E4CD9F"/>
<path d="M61.67 22.661L59.835 21.2366C60.9566 19.794 61.5487 18.0725 61.5487 16.258C61.5487 11.7761 57.9015 8.12898 53.4196 8.12898C51.6051 8.12898 49.8836 8.721 48.441 9.84257L47.0166 8.00762C48.8697 6.56739 51.0834 5.8064 53.4196 5.8064C59.183 5.8064 63.8712 10.4946 63.8712 16.258C63.8712 18.5942 63.1102 20.8079 61.67 22.661Z" fill="#E4CD9F"/>
<path d="M53.4194 26.7096C47.656 26.7096 42.9678 22.0213 42.9678 16.258C42.9678 13.9218 43.7288 11.708 45.169 9.85498L47.0039 11.2794C45.8824 12.722 45.2904 14.4435 45.2904 16.258C45.2904 20.7399 48.9375 24.387 53.4194 24.387C55.2339 24.387 56.9554 23.795 58.3979 22.6734L59.8224 24.5084C57.9693 25.9486 55.7555 26.7096 53.4194 26.7096Z" fill="#E4CD9F"/>
<path d="M53.4192 20.2229L49.1143 15.9179L50.7563 14.2758L53.4192 16.9385L70.0175 0.340332L71.6595 1.9824L53.4192 20.2229Z" fill="#E4CD9F"/>
<path d="M13.9358 22.5452L9.63086 18.2402L11.2729 16.5981L13.9358 19.2609L16.5986 16.5981L18.2407 18.2402L13.9358 22.5452Z" fill="#E4CD9F"/>
<path d="M58.0643 56.9031H30.1934V59.2257H58.0643V56.9031Z" fill="#E4CD9F"/>
<path d="M55.5787 61.2629H47.3682V63.7893H55.5787V61.2629Z" fill="#E4CD9F"/>
<path d="M55.5787 65.0525H47.3682V67.5788H55.5787V65.0525Z" fill="#E4CD9F"/>
<rect x="34.113" y="62.5341" width="10.0892" height="3.77341" stroke="#E4CD9F" stroke-width="2.54237"/>
</g>
<defs>
<clipPath id="clip0_98_620">
<rect width="72" height="71.9999" fill="white"/>
</clipPath>
</defs>
</svg>
