<svg width="45" height="59" viewBox="0 0 45 59" fill="none" xmlns="http://www.w3.org/2000/svg">
<path d="M20.257 58.4486L3.40253 33.1669C1.17629 29.8283 0 25.9419 0 21.9291V21.3585C0 10.1891 9.08759 1.10156 20.257 1.10156C31.4264 1.10156 40.514 10.1891 40.514 21.3585V21.9291C40.514 25.9419 39.3376 29.8283 37.1114 33.1669L20.257 58.4486ZM20.257 4.21802C10.8057 4.21802 3.11646 11.9073 3.11646 21.3585V21.9291C3.11646 25.3241 4.11168 28.6125 5.99558 31.4384L20.257 52.8305L34.5183 31.4384C36.4022 28.6125 37.3975 25.3241 37.3975 21.9291V21.3585C37.3975 11.9073 29.7082 4.21802 20.257 4.21802Z" fill="#E4CD9F"/>
<path d="M31.3261 29.9501L28.8639 28.0388C30.3689 26.1032 31.1633 23.7933 31.1633 21.3585C31.1633 15.3447 26.2695 10.4509 20.2557 10.4509C17.8209 10.4509 15.511 11.2453 13.5754 12.7502L11.6641 10.2881C14.1505 8.35558 17.121 7.33447 20.2557 7.33447C27.989 7.33447 34.2797 13.6252 34.2797 21.3585C34.2797 24.4932 33.2586 27.4637 31.3261 29.9501Z" fill="#E4CD9F"/>
<path d="M20.2565 35.3827C12.5231 35.3827 6.23242 29.092 6.23242 21.3587C6.23242 18.224 7.25351 15.2536 9.18603 12.7671L11.6482 14.6784C10.1432 16.614 9.34888 18.924 9.34888 21.3587C9.34888 27.3725 14.2426 32.2663 20.2565 32.2663C22.6912 32.2663 25.0011 31.4719 26.9367 29.967L28.8481 32.4291C26.3616 34.3616 23.3912 35.3827 20.2565 35.3827Z" fill="#E4CD9F"/>
<path d="M20.2568 26.6786L14.4805 20.9021L16.6838 18.6987L20.2568 22.2716L42.5286 0L44.7319 2.20333L20.2568 26.6786Z" fill="#E4CD9F"/>
</svg>
