<svg width="348" height="127" viewBox="0 0 348 127" fill="none" xmlns="http://www.w3.org/2000/svg">
<g clip-path="url(#clip0_2469_16677)">
<path d="M181.33 19.1484V69.0115H199.372V79.7452H168.947V19.1484H181.33Z" fill="white"/>
<path d="M168.947 19.1484V79.7452H199.372V69.0254H181.33V19.1484H168.947Z" fill="white"/>
<path d="M212.788 46.7491C215.328 45.0345 218.282 44.1842 221.651 44.1842C224.757 44.1842 227.476 44.9509 229.823 46.4703C232.169 48.0037 233.743 49.9832 234.544 52.4226H208.371C209.71 49.7183 211.187 47.8225 212.788 46.7491ZM203.25 41.5077C198.515 45.9127 196.154 51.4469 196.154 58.1241C196.154 64.634 198.529 70.0566 203.277 74.378C208.026 78.6994 214.169 80.874 221.72 80.874C226.579 80.874 230.789 80.0933 234.323 78.5181C237.857 76.9569 240.894 74.5313 243.434 71.2694L233.26 66.9341C230.016 69.8057 226.137 71.2276 221.637 71.2276C217.868 71.2276 214.762 70.3075 212.333 68.4814C209.903 66.6413 208.399 64.174 207.846 61.0654H246.622L246.664 58.9744C246.664 51.7396 244.289 45.9267 239.541 41.5216C234.792 37.1166 228.635 34.9141 221.057 34.9141C213.906 34.9002 207.984 37.1027 203.25 41.5077Z" fill="white"/>
<path d="M260.897 67.1693C258.385 64.7298 257.129 61.6212 257.129 57.8435C257.129 54.0937 258.357 51.013 260.828 48.6153C263.299 46.2176 266.391 45.0188 270.132 45.0188C273.956 45.0188 277.104 46.2037 279.602 48.5595C282.101 50.9154 283.343 53.9961 283.343 57.8017C283.343 61.6909 282.087 64.8274 279.602 67.2251C277.104 69.6227 273.956 70.8216 270.174 70.8216C266.502 70.8216 263.41 69.6088 260.897 67.1693ZM251.69 41.3666C247.3 45.674 245.105 51.2081 245.105 57.955C245.105 64.465 247.369 69.9155 251.911 74.2926C256.439 78.6697 261.822 80.8583 268.034 80.8583C270.795 80.8583 273.376 80.4122 275.737 79.5061C278.111 78.614 280.472 77.1363 282.818 75.1011V79.7152H294.883V36.0276H282.818V40.8508C280.665 38.8713 278.332 37.3797 275.792 36.39C273.266 35.4003 270.547 34.8984 267.661 34.8984C261.408 34.8984 256.08 37.0591 251.69 41.3666Z" fill="white"/>
<path d="M311.626 67.1714C309.114 64.7319 307.858 61.6233 307.858 57.8456C307.858 54.0958 309.086 51.0151 311.557 48.6174C314.028 46.2197 317.12 45.0209 320.861 45.0209C324.685 45.0209 327.832 46.2058 330.331 48.5616C332.829 50.9175 334.072 53.9982 334.072 57.8038C334.072 61.693 332.815 64.8295 330.331 67.2272C327.832 69.6248 324.685 70.8237 320.902 70.8237C317.217 70.8237 314.125 69.6109 311.626 67.1714ZM333.547 19.1484V40.8529C331.394 38.8734 329.061 37.3818 326.521 36.3921C323.995 35.4024 321.275 34.9005 318.39 34.9005C312.123 34.9005 306.795 37.0612 302.405 41.3686C298.015 45.6761 295.82 51.2102 295.82 57.9571C295.82 64.4671 298.084 69.9176 302.626 74.2947C307.153 78.6718 312.537 80.8604 318.749 80.8604C321.51 80.8604 324.091 80.4143 326.452 79.5082C328.826 78.6161 331.187 77.1384 333.533 75.1032V79.7173H345.598V19.1484H333.547Z" fill="white"/>
<path d="M230.03 103.208H243.903V106.107H211.988V103.221H217.441V97.5758H220.823V103.221H226.579V96.0703H230.03V98.2449H241.874V101.033H230.03V103.208ZM240.894 122.626C240.894 124.159 240.659 125.177 240.176 125.679C239.721 126.194 238.672 126.459 237.001 126.459H231.783L230.969 123.309L236.422 123.476C237.167 123.476 237.54 123.128 237.54 122.445V120.535H218.518V126.668H215.136V107.822H240.936L240.894 122.626ZM237.512 110.651H218.49V112.854H237.512V110.651ZM218.49 117.886H237.512V115.489H218.49V117.886Z" fill="white"/>
<path d="M249.384 115.293V116.729C249.384 119.977 249.218 122.626 248.873 124.647L247.01 124.284C247.438 121.831 247.659 118.834 247.659 115.293H249.384ZM259.613 104.322H256.604V106.762H259.613V108.839H256.604V111.599H260.055C259.834 119.712 259.53 124.145 259.171 124.884C258.785 125.623 258.15 126.069 257.28 126.222C256.397 126.375 255.278 126.445 253.926 126.445L253.153 123.81C253.87 123.88 254.643 123.908 255.458 123.908C256.479 123.908 257.073 123.643 257.252 123.127C257.432 122.626 257.529 120.576 257.529 116.952V114.052H248.086V97.1016H259.834V99.7362H256.659V102.176H259.668L259.613 104.322ZM250.199 123.769C250.309 122.584 250.378 121.287 250.406 119.907V119.029C250.406 117.816 250.378 116.59 250.309 115.363L251.731 115.293C251.883 117.482 252.007 120.256 252.076 123.643L250.199 123.769ZM250.737 102.176H254.05V99.7362H250.737V102.176ZM254.064 104.322H250.751V106.762H254.064V104.322ZM254.064 108.825H250.751V111.585H254.064V108.825ZM253.139 121.719C253.042 119.405 252.849 117.259 252.559 115.293L253.912 115.126C254.229 117.133 254.492 119.238 254.685 121.427L253.139 121.719ZM255.72 120.493C255.568 118.681 255.278 116.882 254.878 115.098L255.996 114.875C256.341 116.088 256.686 117.816 257.045 120.075L255.72 120.493ZM270.919 104.378V106.037H277.586V108.379H270.919V110.233H278.566V112.728H275.35C275.005 113.592 274.604 114.415 274.135 115.196H278.235V117.663H270.919V119.768H277.821V122.166H270.919V126.654H268.075V122.166H261.311V119.768H268.075V117.663H260.938V115.196H265.038C264.541 114.094 264.127 113.272 263.782 112.728H260.869V110.233H268.075V108.379H261.338V106.037H268.075V104.378H260.8V97.1016H277.89V104.378H270.919ZM263.464 102.106H265.77V99.4156H263.464V102.106ZM271.153 115.196C271.761 114.526 272.244 113.704 272.575 112.728H266.653C267.122 113.509 267.523 114.331 267.84 115.196H271.153ZM268.172 102.106H270.435V99.4156H268.172V102.106ZM275.212 99.3738H272.837V102.064H275.212V99.3738Z" fill="white"/>
<path d="M18.5235 104.445C20.3043 104.445 21.7813 104.836 22.9546 105.602C24.8458 106.843 25.7845 108.293 25.7845 109.938H24.2798C24.266 108.864 23.562 107.861 22.1816 106.913C21.1601 106.244 19.9453 105.909 18.5235 105.909C16.6185 105.923 15.0035 106.606 13.6507 107.944C12.3393 109.269 11.6767 111.011 11.6767 113.158C11.6767 115.528 12.284 117.298 13.485 118.455C14.8378 119.751 16.5219 120.407 18.5097 120.407C20.2904 120.393 21.7399 119.863 22.8442 118.817C23.7829 117.897 24.266 116.754 24.266 115.36H25.7707C25.7707 117.172 25.2047 118.636 24.0866 119.765C22.6786 121.173 20.8288 121.87 18.5097 121.87C16.0388 121.856 14.1062 121.173 12.6844 119.835C11.0003 118.218 10.1582 116.001 10.1582 113.158C10.172 110.495 11.0555 108.321 12.7948 106.634C14.3547 105.184 16.2596 104.445 18.5235 104.445Z" fill="white"/>
<path d="M38.0832 119.766C38.2903 120.114 38.6906 120.281 39.2842 120.281V121.745H38.028C37.4482 121.745 37.0203 121.383 36.7442 120.658C36.62 120.393 36.5372 120.086 36.4819 119.78C36.3025 120.017 36.123 120.253 35.9298 120.463C35.0601 121.41 33.5555 121.884 31.4434 121.884C30.2149 121.884 29.2624 121.55 28.586 120.895C27.9096 120.24 27.5645 119.375 27.5645 118.302C27.5645 117.479 27.8129 116.769 28.3237 116.197C28.9449 115.486 29.8974 114.97 31.1811 114.678C32.6168 114.315 34.3285 114.05 36.3439 113.869V113.311C36.3439 112.377 36.0816 111.708 35.5433 111.276C34.9635 110.802 34.08 110.565 32.8652 110.565C31.6781 110.579 30.7808 110.802 30.1458 111.248C29.5523 111.708 29.2624 112.419 29.2624 113.367H27.7301C27.7439 111.931 28.2271 110.844 29.1657 110.105C30.0216 109.436 31.2502 109.102 32.8376 109.102C34.6874 109.116 35.9574 109.408 36.6614 109.98C37.4344 110.635 37.8071 111.75 37.8071 113.311V117.814C37.8209 118.79 37.9038 119.459 38.0832 119.766ZM36.3163 115.333C33.4036 115.723 31.5124 116.085 30.6014 116.42C29.5661 116.81 29.0553 117.424 29.0553 118.288C29.0691 118.887 29.2624 119.361 29.6351 119.71C30.1458 120.184 30.9741 120.421 32.0922 120.421C33.6659 120.407 34.7978 120.086 35.4604 119.473C35.8884 119.055 36.1782 118.511 36.3163 117.828V117.8V115.333Z" fill="white"/>
<path d="M40.8302 109.237H42.3349V110.798C42.6386 110.394 42.9146 110.129 43.1493 109.99C44.157 109.335 45.2751 109 46.5313 109C47.4286 109 48.243 109.167 48.9609 109.516C49.6235 109.85 50.1618 110.296 50.5483 110.868C50.9625 111.453 51.1695 112.499 51.1695 114.018V121.713H49.6787V114.018C49.6787 112.833 49.3888 111.955 48.809 111.398C48.2016 110.798 47.2767 110.492 46.0206 110.492C45.2337 110.506 44.5849 110.673 44.0466 110.979C43.4116 111.398 42.9699 111.886 42.7352 112.457C42.5143 112.959 42.3763 113.558 42.3211 114.255V121.713H40.8164V114.897V109.237H40.8302Z" fill="white"/>
<path d="M55.6023 104.602V120.256H65.4447V121.72H54.0977V104.602H55.6023Z" fill="white"/>
<path d="M69.2254 119.099C70.0399 119.977 71.1304 120.41 72.5246 120.41C73.5047 120.41 74.3329 120.173 75.0508 119.685C75.7134 119.253 76.0447 118.695 76.0447 117.984H77.5493C77.5493 119.169 77.0662 120.117 76.0861 120.814C75.1336 121.511 73.9464 121.859 72.5246 121.859C70.5368 121.845 69.0045 121.19 67.9278 119.88C66.9753 118.723 66.4922 117.329 66.4922 115.698C66.506 113.509 67.072 111.837 68.1901 110.652C69.2392 109.592 70.6058 109.062 72.2899 109.062C73.9602 109.062 75.2716 109.592 76.2517 110.666C77.2318 111.767 77.715 113.147 77.715 114.778V115.893H67.9968C68.0521 117.176 68.4524 118.235 69.2254 119.099ZM76.1965 114.471C76.1827 113.412 75.8514 112.52 75.2164 111.795C74.4572 110.972 73.4771 110.554 72.2761 110.554C70.9785 110.568 69.9432 110.986 69.184 111.823C68.5766 112.464 68.2039 113.356 68.0521 114.485H76.1965V114.471Z" fill="white"/>
<path d="M89.8215 119.766C90.0286 120.114 90.4289 120.281 91.0225 120.281V121.745H89.7663C89.1865 121.745 88.7586 121.383 88.4825 120.658C88.3583 120.393 88.2754 120.086 88.2202 119.78C88.0408 120.017 87.8613 120.253 87.6681 120.463C86.7984 121.41 85.2937 121.884 83.1817 121.884C81.9531 121.884 81.0006 121.55 80.3242 120.895C79.6478 120.24 79.3027 119.375 79.3027 118.302C79.3027 117.479 79.5512 116.769 80.0482 116.197C80.6693 115.486 81.6218 114.97 82.9056 114.678C84.3413 114.315 86.053 114.05 88.0684 113.869V113.311C88.0684 112.377 87.8061 111.708 87.2677 111.276C86.688 110.802 85.8045 110.565 84.5897 110.565C83.4026 110.579 82.5053 110.802 81.8703 111.248C81.2767 111.708 80.9868 112.419 80.9868 113.367H79.4822C79.496 111.931 79.9791 110.844 80.9178 110.105C81.7737 109.436 83.0023 109.102 84.5897 109.102C86.4395 109.116 87.7095 109.408 88.4135 109.98C89.1865 110.635 89.5592 111.75 89.5592 113.311V117.814C89.5592 118.79 89.642 119.459 89.8215 119.766ZM88.0546 115.333C85.1419 115.723 83.2507 116.085 82.3396 116.42C81.3043 116.81 80.7936 117.424 80.7936 118.288C80.8074 118.887 81.0006 119.361 81.3734 119.71C81.8841 120.184 82.7124 120.421 83.8305 120.421C85.4042 120.407 86.5361 120.086 87.1987 119.473C87.6266 119.055 87.9165 118.511 88.0684 117.828V117.8V115.333H88.0546Z" fill="white"/>
<path d="M93.3146 110.916C94.267 109.704 95.5508 109.09 97.1659 109.09C98.85 109.09 100.134 109.648 101.045 110.763C101.169 110.93 101.293 111.111 101.418 111.279V104.602H102.922V121.72H101.418V119.517C101.252 119.754 101.072 120.005 100.893 120.27C100.051 121.343 98.781 121.873 97.0831 121.873C95.8407 121.859 94.7088 121.357 93.6735 120.354C92.5001 119.197 91.9065 117.607 91.9065 115.572C91.8927 113.718 92.3759 112.171 93.3146 110.916ZM94.4603 111.767C93.7563 112.561 93.3974 113.83 93.3974 115.558C93.3974 117.175 93.7977 118.416 94.6121 119.266C95.3162 120.019 96.2963 120.409 97.5524 120.409C98.6982 120.395 99.6092 119.991 100.272 119.211C100.976 118.374 101.335 117.147 101.335 115.503C101.321 113.816 100.948 112.533 100.23 111.669C99.6093 110.93 98.6982 110.554 97.4834 110.554C96.2272 110.54 95.2195 110.958 94.4603 111.767Z" fill="white"/>
<path d="M49.5966 90.9793C47.1809 90.812 44.7237 90.4635 42.2252 89.9059C31.4304 87.4804 22.5405 81.5699 15.8041 72.3556C1.84806 53.2022 5.42334 25.5733 23.7829 10.7552C25.605 9.29148 27.5238 7.95325 27.5238 7.95325C28.5177 7.28414 29.9809 6.37805 31.8169 5.44407C31.8169 5.44407 34.0255 4.31494 36.4413 3.42279C41.3555 1.6106 46.2698 0.662685 51.1565 0.551166C47.3327 0.188729 42.2804 0.160849 36.5655 1.45726C31.3889 2.62821 20.3456 6.05743 11.4972 16.4008C-0.415819 30.3547 0.357214 46.7062 0.550472 49.7033C0.702318 52.1009 2.20697 70.8501 17.2259 82.6014C24.0313 87.9265 31.0024 89.7665 33.708 90.4496C42.5151 92.68 49.9693 91.8296 54.1382 91.0351C52.6335 91.1048 51.1289 91.0908 49.5966 90.9793Z" fill="white"/>
<path d="M33.0865 73.1223C21.7947 64.6887 18.1366 50.5118 20.1934 40.3078C20.3038 40.4751 20.4004 40.6284 20.5109 40.7957C20.9526 41.4648 21.3805 42.12 21.7947 42.7891C23.5754 45.6189 24.9144 48.8808 25.8807 52.7561C26.0878 53.5646 26.5433 54.415 27.1369 55.098C27.5648 55.5859 28.5449 55.8229 29.1799 55.5859C29.8149 55.3489 30.1462 54.3034 30.0772 53.7319C30.0081 53.0767 29.7597 52.4494 29.525 51.85L29.3455 51.3761C29.2351 51.0973 29.1247 50.8185 28.9866 50.5118C29.1937 50.5536 29.3869 50.6094 29.6216 50.693C30.7121 51.0694 31.8441 51.4736 32.907 51.9476C33.4178 52.1706 33.8043 52.4773 33.9147 52.7282C34.4531 53.8852 35.3365 54.401 36.1924 54.9029C36.855 55.2932 37.421 55.8647 38.0283 56.4781C38.2354 56.7011 38.4563 56.9102 38.6771 57.1193C38.8152 57.2587 38.9394 57.412 39.0637 57.5654C39.2431 57.7884 39.4364 58.0254 39.6848 58.2345C40.7478 59.0988 41.7969 59.2939 42.9288 58.82C43.5914 58.5412 43.9365 58.5551 44.3368 58.9733C44.254 59.0291 44.1574 59.0848 44.0746 59.1406C42.5423 60.0885 42.1696 61.3292 42.9702 62.8347C44.4611 65.6366 46.6559 67.5045 49.5134 68.3967C49.8309 68.4943 50.1622 68.5918 50.4935 68.6755C50.949 68.8009 51.3908 68.9264 51.8463 69.0797C53.4752 69.6373 54.3448 70.6968 54.5381 72.3138C54.5657 72.5647 54.5795 72.8156 54.6071 73.0666C54.6623 73.7496 54.7176 74.4605 54.9246 75.1297C55.1455 75.8406 55.5596 76.8721 56.2912 77.7782C56.4293 77.9455 56.5811 78.1964 56.7468 78.4473C57.009 78.8655 57.2851 79.2977 57.5888 79.6183C56.1532 79.8135 54.7176 79.8971 53.2819 79.8971C46.1452 79.8832 39.0498 77.597 33.0865 73.1223ZM32.2582 19.5791C32.2858 19.5094 32.3272 19.4119 32.3548 19.384C33.045 18.91 33.7491 18.4221 34.4807 17.9342C34.4393 18.0179 34.384 18.0876 34.3426 18.1712C34.1218 18.5476 33.9147 18.8961 33.6524 19.1749C33.3901 19.4537 32.9898 19.6907 32.5067 19.844C32.4515 19.7882 32.341 19.6767 32.2582 19.5791ZM41.3551 7.04717C39.1465 7.68841 37.0897 8.56662 37.0897 8.56662C35.3779 9.2915 34.0113 10.0164 33.1003 10.5461C33.1003 10.5461 31.2919 11.6195 29.5802 12.8183C12.256 24.9181 7.36933 49.3827 18.6887 67.3651C24.1414 76.0357 31.7198 81.8626 41.2171 84.7064C43.412 85.3615 45.5792 85.8355 47.7327 86.1282C55.2007 87.1598 62.4617 86.0167 69.4052 82.7548C69.1843 82.5596 68.9772 82.3645 68.7564 82.1554C67.3207 80.7753 66.037 79.2837 64.905 77.7225C63.4004 78.294 61.8681 78.768 60.322 79.1025C61.0951 78.5589 61.6334 77.9037 61.0261 76.3564C60.8742 75.98 60.7914 75.8824 60.5291 75.5757C59.5076 74.4187 59.3143 69.1494 60.046 67.8809C60.046 67.8809 60.046 67.867 60.0598 67.867C59.1349 64.7305 58.6517 61.4128 58.6517 57.9557C58.6517 54.4707 59.1073 51.153 59.9769 48.0165C59.4386 47.3474 58.7622 46.8874 58.0306 46.6923C57.2437 46.4971 56.4293 46.6226 55.7391 47.0686C55.2145 47.4032 54.7866 47.8632 54.3863 48.3093C54.2344 48.4766 54.0688 48.6578 53.9031 48.8111C53.627 49.0899 53.3648 49.3687 53.1025 49.6615C52.5503 50.2609 52.0258 50.8185 51.4322 51.2645C50.5211 51.9337 49.5272 51.8082 48.1744 50.8742C47.6498 50.4978 47.1943 50.233 46.725 50.3306C46.2418 50.4282 45.9381 50.8742 45.6206 51.39L45.5516 51.5015C45.0685 52.31 44.5577 53.1464 44.0193 53.9271C43.6052 54.5265 43.3705 54.5822 42.5699 54.2616C41.9901 54.0386 41.3828 53.9828 40.7892 53.9271L40.5821 53.9131C40.3612 53.8852 40.1266 53.9131 39.9057 53.941C39.6848 53.9689 39.4778 53.9828 39.3535 53.941C38.4839 53.6483 38.2768 53.467 38.2354 53.3974C38.1526 53.1464 38.3044 52.5052 38.5805 52.1985C38.967 51.7664 39.464 51.4179 39.9885 51.0415C40.2646 50.8463 40.5407 50.6512 40.803 50.4421C41.2585 50.0797 41.6588 49.7451 42.0315 49.3408C42.4733 48.8529 42.4733 48.4347 42.3905 48.1838C42.3076 47.919 42.0592 47.5705 41.3966 47.4171C41.0238 47.3335 40.6373 47.3335 40.2784 47.3614C39.4778 47.4171 38.6771 47.4729 37.8627 47.5426C37.1173 47.5984 36.3718 47.6541 35.6126 47.7099C35.2537 47.7378 34.8948 47.7238 34.5635 47.682C34.1494 47.6262 33.9423 47.5287 33.8595 47.3893C33.7905 47.2638 33.8181 47.0129 33.9561 46.7062C35.2261 43.6394 37.7661 40.4193 42.6665 42.4824C43.4258 42.803 44.1436 43.2352 44.889 43.7091C45.4964 44.0855 46.1314 44.4758 46.794 44.7964C48.0364 45.3958 49.2649 45.828 50.4521 46.065C51.1561 46.2183 52.219 45.7722 52.6469 45.1728C53.2129 44.3643 52.9506 43.277 52.0257 42.5382C51.4184 42.0503 50.811 41.66 50.2174 41.3533C48.837 40.6702 47.6774 39.1368 47.2633 37.4501C46.863 35.8331 47.1667 34.2021 48.1192 32.8778C48.9198 31.7626 49.9137 30.3826 49.6238 28.2219L49.4858 27.2182L48.1606 28.3752C47.8569 28.6401 47.6084 28.8631 47.3461 29.1001C47.2219 29.2116 47.1115 29.3092 47.0286 29.3928C47.1805 29.0025 47.4566 28.5286 47.7741 28.2498C48.1882 27.8734 48.1054 27.511 48.0364 27.3716C47.9949 27.274 47.9121 27.0788 47.567 26.9534C47.8017 26.7164 48.064 26.4236 48.34 26.117C48.8508 25.5175 49.4306 24.8066 49.8033 23.9981C50.0103 23.552 49.9827 23.0502 49.9551 22.618C49.9413 22.4508 49.9413 22.2974 49.9413 22.1302L49.9551 21.7677L49.0855 21.3774L48.1468 22.0047C47.7465 22.2695 47.3599 22.5344 46.9458 22.7993C46.5317 23.0641 46.2418 23.2175 46.1314 23.1478C46.0071 23.1199 45.8139 22.8829 45.5516 22.4508C45.2479 21.935 44.7234 21.6283 44.1574 21.6004C43.5638 21.5726 42.9978 21.8653 42.6251 22.395C42.3905 22.7435 42.1972 23.1059 42.0177 23.4684C41.9073 23.6914 41.7831 23.9284 41.6588 24.1375C41.4518 24.4721 41.1343 24.8902 40.7478 24.946C40.3612 25.0018 39.9471 24.6672 39.671 24.3884C39.3811 24.1096 38.9394 23.7332 38.4011 23.8029C37.8489 23.8587 37.5038 24.3187 37.2967 24.6533C37.1725 24.8484 37.0621 25.0715 36.9654 25.2945C36.8688 25.4897 36.786 25.6848 36.6617 25.8521C36.289 26.4097 35.8473 27.0231 35.3503 27.5388C34.6463 28.2637 34.3426 28.1661 34.1218 28.0267C33.5282 27.6504 33.7353 26.9673 33.9147 26.5909C34.2874 25.7824 34.8258 25.0157 35.3365 24.2769L35.447 24.1096C35.7645 23.6496 36.0958 23.1896 36.4409 22.7435C36.9516 22.0465 37.49 21.3356 37.9455 20.5828C38.6219 19.4676 38.5115 18.213 37.6556 17.1954C37.2967 16.7772 36.9378 16.5821 36.6341 16.5124C36.6617 16.4984 36.7031 16.4705 36.7308 16.4566C36.786 16.4287 36.9516 16.4148 36.993 16.4427C38.9118 17.3627 40.9272 17.1954 42.4595 16.9445C43.1497 16.833 43.7847 16.6796 44.0884 16.1778C44.3368 15.7596 44.254 15.2438 44.0746 14.6305C44.2264 14.4911 44.3921 14.3517 44.5439 14.2123C45.6758 13.2226 46.7388 12.2746 48.2848 12.4559C49.2787 12.5674 50.3554 12.8322 51.6116 13.2365C51.6392 13.2644 51.7497 13.4038 51.8877 14.0589C51.9429 14.3099 51.9567 14.5887 51.9705 14.8675C51.9843 15.1741 52.0119 15.4948 52.0672 15.8014C52.2052 16.4984 52.6055 17.0281 53.1715 17.3069C53.7375 17.5857 54.4277 17.5579 55.0627 17.2372C55.2559 17.1397 55.4354 17.0281 55.6148 16.9027C55.7391 16.819 55.8633 16.7354 56.0013 16.6657C56.4017 16.4427 56.5811 16.4566 56.6501 16.4845C56.7192 16.5124 56.871 16.6239 57.0367 17.07C57.2851 17.753 57.5612 18.3664 58.1272 18.5337C58.6932 18.7149 59.2729 18.3385 59.9079 17.8785C60.115 17.7251 60.5291 17.6833 60.888 17.6415L61.0122 17.6276C61.0951 17.6276 61.2469 17.6554 61.385 17.6973C61.4954 17.7251 61.592 17.753 61.7025 17.7809C62.9862 18.0458 63.6765 17.6554 64.0354 17.293C64.3805 16.9306 64.7394 16.2196 64.4495 14.8953C64.4219 14.7559 64.3805 14.6305 64.3252 14.4911C64.2976 14.4214 64.27 14.3656 64.2562 14.3099C64.2286 14.1705 64.2148 14.0729 64.2148 14.0171C64.2562 14.0171 64.3114 14.0311 64.3805 14.0589C65.4434 14.4632 66.4787 14.9093 67.5416 15.3693L68.4665 15.7596C68.0248 17.4463 68.8116 18.7706 69.4742 19.6488C70.3301 20.7919 70.4957 22.0744 70.5233 23.3011L70.5509 24.0817C70.5785 25.1969 70.6061 26.3539 70.7994 27.4831C70.9926 28.6261 71.393 29.365 72.0142 29.7832C72.1936 29.9086 72.4145 29.9923 72.6353 30.048C75.5756 27.957 78.7782 26.3818 82.2016 25.3642C82.8918 24.2351 83.7615 23.2175 84.8244 22.4089L85.2385 22.0883L84.9348 21.6562C81.5252 16.9027 77.0803 13.0413 71.7381 10.1837C65.6366 6.93566 59.3281 5.30469 52.8816 5.30469C49.0717 5.34651 45.2341 5.91804 41.3551 7.04717Z" fill="white"/>
<path d="M107.119 36.0293H119.184V79.7448H107.119V75.1307C104.759 77.1659 102.398 78.6296 100.038 79.5357C97.6633 80.4278 95.0958 80.8879 92.3349 80.8879C86.1231 80.8879 80.7533 78.6993 76.2117 74.3222C71.6839 69.945 69.4062 64.4945 69.4062 57.9846C69.4062 51.2377 71.6011 45.7035 75.9908 41.3822C80.3805 37.0748 85.7089 34.9141 91.976 34.9141C94.8611 34.9141 97.5667 35.4159 100.107 36.4056C102.633 37.3954 104.98 38.8869 107.133 40.8664V36.0293H107.119ZM94.4332 45.0344C90.706 45.0344 87.6001 46.2333 85.1292 48.6309C82.672 51.0286 81.4297 54.0954 81.4297 57.8452C81.4297 61.6229 82.6858 64.7315 85.1982 67.171C87.7105 69.6105 90.8027 70.8233 94.4746 70.8233C98.2707 70.8233 101.404 69.6244 103.903 67.2268C106.401 64.8291 107.644 61.6926 107.644 57.8034C107.644 53.9978 106.388 50.9171 103.903 48.5612C101.418 46.2054 98.2569 45.0344 94.4332 45.0344Z" fill="white"/>
<path d="M122.344 36.0276H134.409V40.5023C137.142 38.4113 139.627 36.9476 141.849 36.1251C144.071 35.3027 146.349 34.8984 148.668 34.8984C153.431 34.8984 157.489 36.4179 160.816 39.4428C163.618 42.0217 165.012 45.8134 165.012 50.8596V79.757H153.072V60.6036C153.072 55.3901 152.81 51.9191 152.299 50.2044C151.788 48.4898 150.891 47.1934 149.607 46.2873C148.323 45.3952 146.749 44.9491 144.872 44.9491C142.429 44.9491 140.331 45.6879 138.591 47.1795C136.838 48.6711 135.623 50.7202 134.947 53.3409C134.588 54.707 134.422 57.6623 134.422 62.2067V79.7431H122.358V36.0276H122.344Z" fill="white"/>
<path d="M294.704 103.082H288.243C288.243 104.295 288.202 105.675 288.105 107.194H293.944C293.917 111.934 293.806 115.851 293.654 118.932C293.489 122.012 293.309 123.811 293.116 124.313C292.923 124.814 292.564 125.26 292.039 125.637C291.515 126.013 290.355 126.194 288.547 126.194C288.16 126.194 287.815 126.18 287.498 126.139L286.67 123.142H289.748C290.148 123.142 290.383 122.974 290.438 122.654C290.493 122.319 290.576 120.549 290.714 117.343C290.852 114.136 290.921 111.753 290.935 110.191H287.995C287.608 117.12 286.421 122.5 284.433 126.334L282.018 123.978C283.15 121.873 283.964 119.336 284.433 116.339C284.903 113.356 285.165 108.923 285.193 103.082H282.39V100.029H287.443C287.042 98.6492 286.573 97.3946 286.062 96.2933L288.933 95.3594C289.637 96.9903 290.19 98.5516 290.576 100.029H294.717V103.082H294.704ZM312.249 102.315H299.521C298.389 103.946 297.119 105.494 295.725 106.957L293.447 105.131C296.526 102.064 298.555 98.8165 299.563 95.4012L302.365 96.3073C302.172 97.074 301.785 98.0777 301.219 99.3462H312.262V102.315H312.249ZM311.103 106.037C307.859 107.417 304.104 108.505 299.825 109.313V122.333C301.067 122.054 302.613 121.552 304.436 120.8L305.222 123.657C301.109 125.149 298.306 125.999 296.816 126.236L295.96 123.629C296.581 123.211 296.885 122.654 296.885 121.957V106.874C301.274 106.191 305.36 105.089 309.157 103.556L311.103 106.037ZM312.787 124.396L310.468 126.431C306.23 122.696 303.731 117.287 302.972 110.219L305.774 109.578C306.051 111.418 306.313 112.784 306.575 113.69C307.721 112.31 308.687 110.916 309.474 109.494L312.18 110.958C311.006 112.924 309.46 115.015 307.541 117.217C308.48 119.852 310.233 122.249 312.787 124.396Z" fill="white"/>
<path d="M347.545 122.902L346.537 125.829C345.267 125.857 340.864 125.857 333.34 125.857C328.067 125.857 324.34 124.519 322.131 121.828C321.248 123.446 320.144 124.965 318.86 126.387L316.582 124.533C319.412 121.48 321.206 118.148 321.966 114.538H317.41V111.638C318.846 109.938 320.157 107.944 321.372 105.672H316.955V102.87H324.602V105.686C323.47 107.805 322.242 109.812 320.944 111.736H324.947V114.552C324.519 116.28 324.009 117.856 323.401 119.277C325.251 121.787 328.481 123.041 333.092 123.041C339.676 123.041 344.508 122.986 347.545 122.902ZM324.299 100.138L321.979 102.076C320.544 100.347 318.956 98.8695 317.217 97.6428L319.274 95.4821C321.179 96.7227 322.849 98.284 324.299 100.138ZM335.369 102.313H330.317C330.345 103.358 330.331 104.473 330.248 105.658H335.149C335.204 108.864 335.149 111.861 334.983 114.663C334.817 117.465 334.596 119.138 334.334 119.71C334.072 120.281 333.616 120.713 332.954 121.034C332.305 121.341 331.242 121.466 329.793 121.382L329.13 118.622C330.386 118.706 331.145 118.678 331.38 118.539C331.629 118.413 331.794 118.218 331.891 117.953C331.987 117.702 332.098 116.629 332.208 114.761C332.319 112.879 332.388 110.76 332.415 108.39H330.165C330.013 114.203 328.771 118.511 326.452 121.313L324.312 119.152C325.486 117.647 326.3 115.779 326.783 113.534C327.253 111.29 327.501 107.554 327.515 102.327H325.375V99.4968H329.171C328.951 98.6046 328.536 97.5591 327.957 96.3463L330.786 95.4124C331.504 96.9736 332.001 98.3398 332.277 99.4968H335.369V102.313ZM347.158 114.412H343.196V118.218C343.196 119.724 342.769 120.658 341.926 120.992C341.071 121.327 339.594 121.48 337.468 121.438L336.626 118.636C337.937 118.664 338.862 118.664 339.4 118.636C339.952 118.608 340.215 118.371 340.215 117.897V114.399H336.115V111.597H340.215V110.161C341.222 109.143 342.051 108.195 342.686 107.345H337.247V105.101C336.888 105.505 336.543 105.825 336.212 106.049L334.652 103.498C336.515 101.783 338.241 99.0786 339.801 95.3984L342.354 96.2627C341.94 97.4058 341.485 98.3955 340.988 99.2598H347.034V102.062H339.455C339.028 102.801 338.448 103.623 337.702 104.515H346.109V107.345C345.17 108.613 344.19 109.784 343.21 110.858V111.597H347.172V114.412H347.158Z" fill="white"/>
<path d="M124.677 103.635H118.769V121.632H115.58V103.635H109.686V100.875H124.677V103.635Z" fill="white"/>
<path d="M133.152 109.809C132.697 109.502 132.075 109.349 131.316 109.349C130.309 109.349 129.494 109.795 128.873 110.687C128.252 111.579 127.934 112.764 127.934 114.242V121.63H124.814V106.812H127.934V109.753H128.003C128.735 107.62 130.005 106.547 131.855 106.547C132.407 106.547 132.835 106.617 133.152 106.728V109.809Z" fill="white"/>
<path d="M135.901 107.807C137.391 106.915 139.131 106.469 141.091 106.469C144.804 106.469 146.654 108.406 146.654 112.268V121.635H143.631V119.391H143.562C142.568 121.12 141.077 121.984 139.103 121.984C137.668 121.984 136.522 121.594 135.694 120.799C134.865 120.018 134.451 118.959 134.451 117.621C134.451 114.833 136.094 113.202 139.379 112.742L143.645 112.156C143.645 109.954 142.678 108.852 140.76 108.852C138.993 108.852 137.378 109.424 135.901 110.581V107.807ZM140.401 114.749C139.338 114.888 138.592 115.167 138.151 115.572C137.709 115.976 137.488 116.561 137.488 117.342C137.488 117.997 137.723 118.527 138.192 118.945C138.661 119.363 139.269 119.572 140 119.572C141.05 119.572 141.905 119.196 142.596 118.457C143.286 117.718 143.631 116.77 143.631 115.641V114.331L140.401 114.749Z" fill="white"/>
<path d="M163.191 106.812L157.476 121.631H154.177L148.738 106.812H152.12L155.419 117.017C155.709 117.895 155.875 118.647 155.93 119.275H155.999C156.082 118.55 156.234 117.811 156.482 117.072L159.92 106.812H163.191Z" fill="white"/>
<path d="M177.603 115.068H167.513C167.651 118.065 169.155 119.557 172.04 119.557C173.669 119.557 175.146 119.069 176.485 118.079V120.686C175.174 121.55 173.462 121.982 171.323 121.982C169.141 121.982 167.444 121.313 166.215 119.975C164.986 118.637 164.365 116.755 164.365 114.343C164.365 112.057 165.028 110.175 166.353 108.684C167.678 107.206 169.335 106.453 171.323 106.453C173.31 106.453 174.843 107.08 175.947 108.349C177.051 109.617 177.603 111.346 177.603 113.562V115.068ZM174.566 112.782C174.553 111.513 174.277 110.538 173.711 109.854C173.145 109.171 172.344 108.837 171.295 108.837C170.342 108.837 169.528 109.199 168.824 109.91C168.12 110.635 167.692 111.583 167.526 112.768H174.566V112.782Z" fill="white"/>
<path d="M183.938 99.6953H180.818V121.637H183.938V99.6953Z" fill="white"/>
</g>
<defs>
<clipPath id="clip0_2469_16677">
<rect width="348" height="127" fill="white"/>
</clipPath>
</defs>
</svg>
