<svg width="143" height="13" viewBox="0 0 143 13" fill="none" xmlns="http://www.w3.org/2000/svg">
<path d="M2 9.97242C2.89881 9.92249 3.74664 9.5882 4.63486 9.44545C8.95466 8.7512 13.4178 8.64332 17.7701 8.33295C38.4057 6.86143 58.9068 5.84607 79.6016 6.18603C79.774 6.18886 91.7108 5.90652 91.7805 7.1619C91.8776 8.90888 87.104 10.0322 86.1009 10.3042C83.5354 11 80.8394 11.0768 78.1964 10.9483C77.6663 10.9225 76.447 10.9555 75.9714 10.4799C75.0165 9.52503 77.3321 8.10264 77.8841 7.86453C81.4548 6.32421 85.7231 5.92523 89.5165 5.32726C99.2015 3.80055 109.002 2.70733 118.793 2.16542C126.259 1.75213 133.666 2.24349 141.121 2.24349" stroke="#24A09A" stroke-width="3" stroke-linecap="round"/>
</svg>
