<svg width="121" height="120" viewBox="0 0 121 120" fill="none" xmlns="http://www.w3.org/2000/svg">
<circle cx="60.4692" cy="60" r="57" fill="white" stroke="#3DAA70" stroke-width="6"/>
<g clip-path="url(#clip0_41_5456)">
<path d="M85.567 33.0159H34.7515C33.2906 33.0159 32.0952 34.2134 32.0952 35.677C32.0952 37.1406 33.2906 38.3381 34.7515 38.3381H85.567C87.0279 38.3381 88.2233 37.1406 88.2233 35.677C88.2233 34.2134 87.0279 33.0159 85.567 33.0159Z" fill="#505050"/>
<path d="M87.7452 42.8086H32.6C30.6343 42.8086 29.0405 44.4053 29.0405 46.3745V83.7895C29.0405 85.7587 30.6343 87.3554 32.6 87.3554H87.7452C89.7109 87.3554 91.3047 85.7587 91.3047 83.7895V46.3745C91.3047 44.4053 89.7109 42.8086 87.7452 42.8086ZM43.2784 49.9403C46.2269 49.9403 48.6176 52.3353 48.6176 55.2891C48.6176 58.243 46.2269 60.638 43.2784 60.638C40.3299 60.638 37.9392 58.243 37.9392 55.2891C37.9392 52.3353 40.3299 49.9403 43.2784 49.9403ZM47.7145 79.7979H40.5955C39.3736 79.7979 38.3642 78.8133 38.3642 77.5625C38.3642 76.3118 39.3471 75.3272 40.5955 75.3272H47.7145C48.9364 75.3272 49.9458 76.3118 49.9458 77.5625C49.9458 78.8133 48.9629 79.7979 47.7145 79.7979ZM63.7321 79.7979H56.6131C55.3912 79.7979 54.3818 78.8133 54.3818 77.5625C54.3818 76.3118 55.3647 75.3272 56.6131 75.3272H63.7321C64.954 75.3272 65.9634 76.3118 65.9634 77.5625C65.9634 78.8133 64.9805 79.7979 63.7321 79.7979ZM79.7497 79.7979H72.6307C71.4088 79.7979 70.3994 78.8133 70.3994 77.5625C70.3994 76.3118 71.3823 75.3272 72.6307 75.3272H79.7497C80.9716 75.3272 81.981 76.3118 81.981 77.5625C81.981 78.8133 80.9982 79.7979 79.7497 79.7979ZM79.7497 58.4026H56.6131C55.3912 58.4026 54.3818 57.418 54.3818 56.1673C54.3818 54.9166 55.3647 53.932 56.6131 53.932H79.7497C80.9716 53.932 81.981 54.9166 81.981 56.1673C81.981 57.418 80.9982 58.4026 79.7497 58.4026Z" fill="#3DAA70"/>
</g>
<defs>
<clipPath id="clip0_41_5456">
<rect width="62.2642" height="54.3396" fill="white" transform="translate(29.0405 33.0159)"/>
</clipPath>
</defs>
</svg>
