<svg width="73" height="67" viewBox="0 0 73 67" fill="none" xmlns="http://www.w3.org/2000/svg">
<g clip-path="url(#clip0_693_7565)">
<path d="M36.2673 18.8486L59.6938 30.5619L36.2673 42.2751L12.8408 30.5619L36.2673 18.8486Z" stroke="#444444" stroke-width="3" stroke-linecap="round" stroke-linejoin="round"/>
<path d="M12.8408 30.5615V54.2527L36.2673 65.7012V42.2748L12.8408 30.5615Z" stroke="#444444" stroke-width="3" stroke-linecap="round" stroke-linejoin="round"/>
<path d="M1.12793 36.4181L12.8412 30.5615L36.2676 42.2748L24.5544 48.1314L1.12793 36.4181Z" fill="white" stroke="#444444" stroke-width="3" stroke-linecap="round" stroke-linejoin="round"/>
<path d="M59.695 30.5615V54.2527L36.2686 65.7012V42.2748L59.695 30.5615Z" stroke="#444444" stroke-width="3" stroke-linecap="round" stroke-linejoin="round"/>
<path d="M71.4083 36.4181L59.695 30.5615L36.2686 42.2748L47.9818 48.1314L71.4083 36.4181Z" fill="white" stroke="#444444" stroke-width="3" stroke-linecap="round" stroke-linejoin="round"/>
<path d="M36.2686 18.8488L47.9818 12.9922L71.4083 24.7054L59.695 30.562L36.2686 18.8488Z" fill="white" stroke="#444444" stroke-width="3" stroke-linecap="round" stroke-linejoin="round"/>
<path d="M24.5544 12.9922L36.2676 18.8488L12.8412 30.562L1.12793 24.7054L24.5544 12.9922Z" fill="white" stroke="#444444" stroke-width="3" stroke-linecap="round" stroke-linejoin="round"/>
<path d="M36.2686 18.8486V37.3165" stroke="#444444" stroke-width="3" stroke-linecap="round" stroke-linejoin="round"/>
<path d="M40.5404 21.5399V4.26562H31.9919V21.5399H25.8662L36.2661 36.7035L46.6661 21.5399H40.5404Z" fill="white" stroke="white" stroke-width="7.18433" stroke-linecap="round" stroke-linejoin="round"/>
<path d="M40.5404 21.5399V4.26562H31.9919V21.5399H25.8662L36.2661 36.7035L46.6661 21.5399H40.5404Z" fill="white" stroke="#FF8000" stroke-width="3" stroke-linecap="round" stroke-linejoin="round"/>
</g>
<defs>
<clipPath id="clip0_693_7565">
<rect width="72.5333" height="66.8444" fill="white"/>
</clipPath>
</defs>
</svg>
