<svg width="45" height="68" viewBox="0 0 45 68" fill="none" xmlns="http://www.w3.org/2000/svg">
<g clip-path="url(#clip0_693_7635)">
<path d="M34.377 1.55566H10.538C5.46557 1.55566 1.35352 5.23487 1.35352 9.7734V57.786C1.35352 62.3246 5.46557 66.0038 10.538 66.0038H34.377C39.4495 66.0038 43.5616 62.3246 43.5616 57.786V9.7734C43.5616 5.23487 39.4495 1.55566 34.377 1.55566Z" stroke="#444444" stroke-width="3" stroke-linecap="round" stroke-linejoin="round"/>
<path d="M43.5616 56.0986H1.35352" stroke="#444444" stroke-width="3" stroke-linecap="round" stroke-linejoin="round"/>
<path d="M1.35352 11.46H43.5616" stroke="#444444" stroke-width="3" stroke-linecap="round" stroke-linejoin="round"/>
<path d="M17.6885 61.0508H27.2317" stroke="#444444" stroke-width="2.70842" stroke-linecap="round" stroke-linejoin="round"/>
<path d="M24.7005 6.49365C24.7005 7.60225 23.6981 8.50026 22.4601 8.50026C21.2198 8.50026 20.2148 7.60225 20.2148 6.49365C20.2148 5.38596 21.2198 4.49023 22.4601 4.49023C23.6981 4.49023 24.7005 5.38596 24.7005 6.49365Z" fill="#444444"/>
<path d="M25.1778 42.0718C25.1778 43.5584 23.9764 44.7618 22.4933 44.7618C21.0068 44.7618 19.8025 43.5579 19.8025 42.0718C19.8025 40.5874 21.0064 39.3865 22.4933 39.3865C23.9768 39.3865 25.1778 40.587 25.1778 42.0718Z" fill="#FF8000" stroke="#FF8000" stroke-width="0.397968"/>
<path d="M13.7432 35.584C18.6163 30.5748 26.5172 30.5747 31.3903 35.584" stroke="#FF8000" stroke-width="3.46397" stroke-linecap="round" stroke-linejoin="round"/>
<path d="M9.13281 29.4873C16.552 21.8609 28.581 21.8609 36.0002 29.4873" stroke="#FF8000" stroke-width="3.46397" stroke-linecap="round" stroke-linejoin="round"/>
</g>
<defs>
<clipPath id="clip0_693_7635">
<rect width="45" height="68" fill="white"/>
</clipPath>
</defs>
</svg>
