<svg width="399" height="331" viewBox="0 0 399 331" fill="none" xmlns="http://www.w3.org/2000/svg">
<g clip-path="url(#clip0_727_1533)">
<path d="M364.156 285.452C380.975 272.67 389.009 251.191 383.98 230.701C383.855 230.192 383.723 229.684 383.584 229.177C380.25 217.015 372.001 205.455 359.979 201.569C349.884 198.306 338.866 200.815 328.334 199.518C307.661 196.97 291.634 180.281 280.357 162.807C269.079 145.332 260.412 125.773 245.427 111.336C220.726 87.5406 180.433 82.4173 149.808 97.9066C119.183 113.396 99.6751 147.76 100.507 182.008C101.339 216.257 121.716 249 151.309 266.373C162.18 272.755 174.754 277.276 187.267 275.694C198.125 274.321 207.99 268.5 218.797 266.772C235.787 264.055 252.669 271.72 267.364 280.652C282.059 289.583 296.254 300.17 312.953 304.311C329.168 308.331 349.257 296.775 364.156 285.452Z" fill="#FBFBFB"/>
<path d="M231.075 1.19336H63.5157C60.0212 1.19741 56.671 2.58428 54.2 5.04975C51.729 7.51522 50.339 10.858 50.335 14.3447V97.5522C50.339 101.039 51.729 104.382 54.2 106.847C56.671 109.313 60.0212 110.699 63.5157 110.703H231.075C234.569 110.701 237.92 109.314 240.392 106.848C242.863 104.383 244.252 101.039 244.255 97.5522V14.3447C244.252 10.8576 242.863 7.51426 240.392 5.04855C237.92 2.58284 234.569 1.19632 231.075 1.19336Z" fill="white"/>
<path d="M231.074 111.351H63.5175C59.8511 111.347 56.336 109.892 53.7435 107.305C51.1509 104.718 49.6926 101.211 49.6885 97.553V14.343C49.6926 10.6848 51.1509 7.17761 53.7435 4.59086C56.336 2.00411 59.8511 0.54906 63.5175 0.544922H231.074C234.74 0.54906 238.256 2.00411 240.848 4.59086C243.441 7.17761 244.899 10.6848 244.903 14.343V97.553C244.899 101.211 243.441 104.718 240.848 107.305C238.256 109.892 234.74 111.347 231.074 111.351ZM63.5175 1.83807C60.1947 1.84187 57.0091 3.16057 54.6595 5.50488C52.31 7.84919 50.9883 11.0277 50.9845 14.343V97.553C50.9883 100.868 52.31 104.047 54.6595 106.391C57.0091 108.735 60.1947 110.054 63.5175 110.058H231.074C234.397 110.054 237.582 108.735 239.932 106.391C242.282 104.047 243.603 100.868 243.607 97.553V14.343C243.603 11.0277 242.282 7.84919 239.932 5.50488C237.582 3.16057 234.397 1.84187 231.074 1.83807H63.5175Z" fill="#CCCCCC"/>
<path d="M238.782 134.354H78.2098C76.8219 134.354 75.4908 133.804 74.5093 132.825C73.5279 131.846 72.9766 130.517 72.9766 129.133C72.9766 127.748 73.5279 126.42 74.5093 125.44C75.4908 124.461 76.8219 123.911 78.2098 123.911H238.782C240.17 123.911 241.501 124.461 242.483 125.44C243.464 126.42 244.015 127.748 244.015 129.133C244.015 130.517 243.464 131.846 242.483 132.825C241.501 133.804 240.17 134.354 238.782 134.354Z" fill="#E6E6E6"/>
<path d="M129.685 84.564C128.734 84.5613 127.799 84.3183 126.967 83.8577C126.077 83.3789 125.335 82.6672 124.821 81.7992C124.306 80.9311 124.038 79.9395 124.046 78.9309V32.4925C124.046 31.4855 124.317 30.4971 124.831 29.6304C125.345 28.7638 126.082 28.0507 126.967 27.5658C127.851 27.0809 128.85 26.842 129.859 26.8739C130.867 26.9059 131.849 27.2076 132.701 27.7475L176.851 50.9667C177.652 51.4742 178.311 52.1752 178.768 53.0047C179.224 53.8342 179.464 54.7653 179.464 55.7117C179.464 56.6581 179.224 57.5892 178.768 58.4187C178.311 59.2482 177.652 59.9491 176.851 60.4567L132.701 83.6759C131.801 84.2528 130.755 84.561 129.685 84.564Z" fill="#F2F2F2"/>
<path d="M388.962 61.4108H318.942C317.481 61.4092 316.081 60.8296 315.049 59.7993C314.016 58.769 313.435 57.372 313.434 55.9149V21.1424C313.435 19.6853 314.016 18.2883 315.049 17.258C316.081 16.2277 317.481 15.6481 318.942 15.6465H388.962C390.422 15.6481 391.822 16.2277 392.855 17.258C393.888 18.2883 394.469 19.6853 394.47 21.1424V55.9149C394.469 57.372 393.888 58.769 392.855 59.7993C391.822 60.8296 390.422 61.4092 388.962 61.4108Z" fill="white"/>
<path d="M385.176 93.0575H315.156C313.524 93.0556 311.959 92.4079 310.805 91.2563C309.651 90.1048 309.002 88.5435 309 86.915V52.1424C309.002 50.5139 309.651 48.9527 310.805 47.8011C311.959 46.6496 313.524 46.0018 315.156 46H385.176C386.809 46.0018 388.373 46.6496 389.527 47.8011C390.682 48.9527 391.331 50.5139 391.333 52.1424V86.915C391.331 88.5435 390.682 90.1048 389.527 91.2563C388.373 92.4079 386.809 93.0556 385.176 93.0575ZM315.156 47.2931C313.868 47.2946 312.632 47.8059 311.721 48.715C310.81 49.6241 310.297 50.8568 310.296 52.1424V86.915C310.297 88.2007 310.81 89.4333 311.721 90.3424C312.632 91.2516 313.868 91.7629 315.156 91.7643H385.176C386.465 91.7629 387.7 91.2516 388.611 90.3424C389.523 89.4333 390.035 88.2007 390.037 86.915V52.1424C390.035 50.8568 389.523 49.6241 388.611 48.715C387.7 47.8059 386.465 47.2946 385.176 47.2931H315.156Z" fill="#CCCCCC"/>
<path d="M373.672 109.427H326.504C325.117 109.426 323.787 108.875 322.807 107.896C321.827 106.917 321.276 105.59 321.276 104.206C321.276 102.822 321.827 101.495 322.807 100.516C323.787 99.5367 325.117 98.9859 326.504 98.9844H373.672C375.06 98.9844 376.391 99.5345 377.373 100.514C378.354 101.493 378.906 102.821 378.906 104.206C378.906 105.591 378.354 106.919 377.373 107.898C376.391 108.877 375.06 109.427 373.672 109.427Z" fill="#E6E6E6"/>
<path d="M342.636 81.9042C342.238 81.903 341.848 81.8015 341.5 81.609C341.128 81.4089 340.818 81.1115 340.603 80.7488C340.388 80.386 340.276 79.9716 340.279 79.5502V60.144C340.279 59.7233 340.393 59.3102 340.607 58.948C340.822 58.5859 341.13 58.2879 341.5 58.0853C341.87 57.8826 342.287 57.7828 342.708 57.7961C343.13 57.8095 343.54 57.9355 343.896 58.1612L362.346 67.8642C362.681 68.0763 362.956 68.3692 363.147 68.7159C363.338 69.0625 363.438 69.4516 363.438 69.8471C363.438 70.2426 363.338 70.6317 363.147 70.9783C362.956 71.325 362.681 71.6179 362.346 71.83L343.896 81.5331C343.52 81.7742 343.083 81.9029 342.636 81.9042Z" fill="#FF8000"/>
<path d="M344.248 211H274.228C272.768 210.998 271.368 210.418 270.335 209.388C269.302 208.358 268.721 206.961 268.72 205.504V170.731C268.721 169.274 269.302 167.877 270.335 166.847C271.367 165.817 272.768 165.237 274.228 165.235H344.248C345.708 165.237 347.109 165.817 348.141 166.847C349.174 167.877 349.755 169.274 349.756 170.731V205.504C349.755 206.961 349.174 208.358 348.141 209.388C347.109 210.418 345.708 210.998 344.248 211Z" fill="white"/>
<path d="M304 179.179L304 198.823C303.999 199.401 303.788 199.954 303.413 200.363C303.038 200.771 302.53 201 302 201C301.47 201 300.962 200.771 300.587 200.363C300.212 199.954 300.001 199.401 300 198.823L300 179.179C300 178.601 300.211 178.047 300.586 177.638C300.961 177.23 301.47 177 302 177C302.53 177 303.039 177.23 303.414 177.638C303.789 178.047 304 178.601 304 179.179Z" fill="#5D5D5D"/>
<path d="M317 179.179L317 198.823C316.999 199.401 316.788 199.954 316.413 200.363C316.038 200.771 315.53 201 315 201C314.47 201 313.962 200.771 313.587 200.363C313.212 199.954 313.001 199.401 313 198.823L313 179.179C313 178.601 313.211 178.047 313.586 177.638C313.961 177.23 314.47 177 315 177C315.53 177 316.039 177.23 316.414 177.638C316.789 178.047 317 178.601 317 179.179Z" fill="#5D5D5D"/>
<path d="M344.248 211.645H274.227C272.595 211.644 271.031 210.996 269.876 209.844C268.722 208.693 268.073 207.131 268.071 205.503V170.73C268.073 169.102 268.722 167.541 269.876 166.389C271.031 165.237 272.595 164.59 274.227 164.588H344.248C345.88 164.59 347.445 165.237 348.599 166.389C349.753 167.541 350.402 169.102 350.404 170.73V205.503C350.402 207.131 349.753 208.693 348.599 209.844C347.445 210.996 345.88 211.644 344.248 211.645ZM274.227 165.881C272.939 165.882 271.704 166.394 270.792 167.303C269.881 168.212 269.369 169.445 269.367 170.73V205.503C269.369 206.789 269.881 208.021 270.792 208.93C271.704 209.839 272.939 210.351 274.227 210.352H344.248C345.536 210.351 346.772 209.839 347.683 208.93C348.594 208.021 349.106 206.789 349.108 205.503V170.73C349.106 169.445 348.594 168.212 347.683 167.303C346.772 166.394 345.536 165.882 344.248 165.881H274.227Z" fill="#CCCCCC"/>
<path d="M332.746 228.107H285.577C284.19 228.106 282.861 227.555 281.88 226.576C280.9 225.597 280.35 224.269 280.35 222.886C280.35 221.502 280.9 220.175 281.88 219.195C282.861 218.216 284.19 217.666 285.577 217.664H332.746C334.134 217.664 335.465 218.214 336.446 219.193C337.427 220.173 337.979 221.501 337.979 222.886C337.979 224.27 337.427 225.599 336.446 226.578C335.465 227.557 334.134 228.107 332.746 228.107Z" fill="#E6E6E6"/>
<path d="M106.482 90.6936L70.6441 90.9338C70.6441 90.9338 50.2332 84.3685 40.9767 85.7403L37.4375 99.6124L62.8624 108.017L107.112 101.612C108.105 102.112 109.212 102.343 110.323 102.28C111.434 102.218 112.509 101.865 113.439 101.256C114.37 100.647 115.123 99.8049 115.624 98.8134C116.124 97.8219 116.354 96.7164 116.29 95.6081C116.226 94.4998 115.871 93.4278 115.26 92.5001C114.649 91.5724 113.804 90.8216 112.809 90.3234C111.815 89.8252 110.707 89.5971 109.596 89.6621C108.485 89.7271 107.411 90.0829 106.482 90.6936Z" fill="#E8D7C7"/>
<path d="M62.5586 109.362L20.0395 97.1604L16.1686 82.7692C15.1601 80.8492 14.7101 78.686 14.8692 76.5241C15.0283 74.3622 15.7902 72.2878 17.0689 70.5353C20.6988 65.6301 23.5361 70.5024 28.6876 73.7825C37.7182 74.4196 60.2589 82.1151 69.409 91.0255L68.688 96.5028L62.5586 109.362Z" fill="black"/>
<path d="M99.5532 97.6148C98.602 97.6121 97.6669 97.3691 96.8352 96.9085C95.9455 96.4297 95.2034 95.718 94.6888 94.8499C94.1741 93.9819 93.9063 92.9902 93.9142 91.9817V45.5433C93.9142 44.5363 94.1853 43.5479 94.6991 42.6812C95.2129 41.8146 95.9505 41.1015 96.835 40.6166C97.7195 40.1317 98.7182 39.8928 99.7269 39.9247C100.736 39.9567 101.717 40.2584 102.569 40.7983L146.719 64.0175C147.52 64.525 148.179 65.226 148.636 66.0555C149.093 66.8849 149.332 67.816 149.332 68.7625C149.332 69.7089 149.093 70.64 148.636 71.4695C148.179 72.2989 147.52 72.9999 146.719 73.5074L102.569 96.7267C101.669 97.3036 100.623 97.6118 99.5532 97.6148Z" fill="#FF8000"/>
<path d="M69.8939 321.29L78.9396 321.289L83.2425 286.478L69.8926 286.478L69.8939 321.29Z" fill="#E8D7C7"/>
<path d="M67.5859 318.342L70.132 318.342L80.072 314.309L85.3996 318.341H85.4003C88.4111 318.341 91.2985 319.535 93.4274 321.659C95.5563 323.783 96.7524 326.664 96.7526 329.668V330.036L67.5865 330.037L67.5859 318.342Z" fill="#5D5D5D"/>
<path d="M5.47949 312.792L14.0476 315.686L29.3137 284.091L16.6689 279.819L5.47949 312.792Z" fill="#E8D7C7"/>
<path d="M4.24145 309.263L6.65298 310.077L17.3645 309.438L21.1142 314.963L21.1149 314.963C23.9665 315.927 26.3177 317.981 27.6513 320.674C28.9849 323.368 29.1917 326.479 28.2263 329.324L28.108 329.673L0.482422 320.34L4.24145 309.263Z" fill="#5D5D5D"/>
<path d="M15.9219 171.419C15.9219 171.419 14.8656 184.065 17.5062 196.184C20.1467 208.304 25.8293 248.534 25.8293 248.534C14.3194 267.41 7.64872 285.984 6.38867 304.786L22.5892 306.079C22.5892 306.079 40.8423 273.913 45.7861 251.163C50.3495 230.163 48.1364 196.184 48.1364 196.184L65.0358 233.596L64.1668 236.487C63.9613 237.17 63.9865 237.902 64.2385 238.57C64.4906 239.238 64.9555 239.804 65.5618 240.183C65.5618 240.183 63.9796 250.458 65.0358 250.458C66.092 250.458 68.7325 252.039 68.7325 252.039C62.1488 272.489 61.265 292.072 67.3027 310.605L81.5592 309.958C81.5592 309.958 93.0764 260.986 90.913 229.381C89.2315 204.816 77.7103 167.73 77.7103 167.73L15.9219 171.419Z" fill="#5D5D5D"/>
<path d="M15.0516 174.001L14.9575 173.869C9.93072 166.847 17.491 149.974 18.6313 147.528L13.8286 145.973L9.62901 110.514L6.55762 98.2651C5.40035 93.6345 5.49898 88.78 6.84338 84.1999C8.18778 79.6198 10.7295 75.4792 14.2077 72.2031L21.3072 65.5242L29.9354 52.7861H43.8492L48.6199 61.7773C53.2453 62.844 57.349 65.4958 60.2162 69.2709C63.0835 73.046 64.5326 77.7051 64.311 82.4365L63.2298 106.018L67.4627 135.378L67.4652 140.692L74.8139 152.714L76.4147 160.167C77.0771 161.039 81.4497 166.856 81.4497 168.446C81.4497 168.685 81.2731 168.916 80.894 169.172C77.9141 171.185 61.4438 175.29 54.1543 172.379C46.3894 169.282 15.5231 173.929 15.2121 173.976L15.0516 174.001Z" fill="black"/>
<path d="M38.6898 48.6723C48.8669 48.6723 57.117 40.4407 57.117 30.2864C57.117 20.1321 48.8669 11.9004 38.6898 11.9004C28.5128 11.9004 20.2627 20.1321 20.2627 30.2864C20.2627 40.4407 28.5128 48.6723 38.6898 48.6723Z" fill="#E8D7C7"/>
<path d="M107.094 44.4025L78.6639 66.1745C78.6639 66.1745 58.4182 73.2304 51.8672 79.8981L57.436 93.0903L82.7925 84.4821L114.2 52.7291C115.295 52.5302 116.317 52.047 117.165 51.3283C118.013 50.6096 118.657 49.6807 119.03 48.6351C119.404 47.5895 119.495 46.4641 119.295 45.3721C119.094 44.2802 118.609 43.2603 117.887 42.4151C117.166 41.5698 116.234 40.929 115.186 40.5573C114.137 40.1855 113.009 40.0959 111.915 40.2973C110.821 40.4988 109.8 40.9843 108.953 41.705C108.107 42.4256 107.466 43.356 107.094 44.4025Z" fill="#E8D7C7"/>
<path d="M83.3633 85.736L43.8685 97.2749L30.2892 92.4668C28.3238 91.5431 26.6565 90.0893 25.4757 88.2697C24.2949 86.4501 23.6477 84.3373 23.6072 82.1699C23.5345 76.073 28.7439 78.2493 34.8355 77.7627C42.4214 72.8327 65.049 65.3955 77.7344 66.9904L80.4726 71.7919L83.3633 85.736Z" fill="black"/>
<path d="M51.3249 9.05822C50.0042 9.01907 50.4575 6.53526 49.3935 5.74292C49.3883 5.76695 49.3829 5.79093 49.3774 5.81488C49.2379 6.35141 48.9294 6.82907 48.4974 7.17752C48.0654 7.52597 47.5326 7.72679 46.9776 7.75042C46.4225 7.77404 45.8746 7.61923 45.4144 7.30876C44.9542 6.99829 44.606 6.54858 44.4212 6.02585C44.2448 5.42117 43.9254 4.86763 43.4898 4.41177C43.0543 3.9559 42.5155 3.61106 41.9186 3.40625C41.8523 5.70843 40.107 7.70651 38.0249 8.70086C35.9428 9.69521 33.5687 9.86069 31.2606 9.89475C28.9525 9.92877 26.6112 9.85166 24.3731 10.4152C22.1349 10.9788 19.9579 12.3037 19.0016 14.4C18.0454 16.4962 18.7276 19.3823 20.8186 20.3579C19.1988 20.3665 17.8243 21.7002 17.2642 23.2168C16.8051 24.7723 16.6853 26.408 16.9129 28.0136C17.3682 33.959 18.4781 40.3598 22.817 44.46C26.1239 47.585 30.8571 48.8438 35.4116 48.8256C39.9662 48.8074 39.1653 48.3897 43.5691 47.2299C43.5691 47.2299 47.7558 35.2543 46.7016 34.0762C45.6473 32.8982 44.7716 31.3907 44.9624 29.8228C45.1532 28.255 46.8419 26.8505 48.3074 27.4473C48.061 26.8188 47.8754 26.6991 47.7591 26.731C47.8331 26.5523 47.8977 26.37 47.9527 26.1846C48.2286 25.24 48.7252 24.3742 49.4018 23.6584C50.0783 22.9426 50.9154 22.3972 51.8444 22.0671C52.7827 21.7632 53.7917 21.7532 54.7359 22.0383C55.6801 22.3234 56.5142 22.89 57.1262 23.662C61.9483 19.1497 58.9567 9.28435 51.3249 9.05822Z" fill="#5D5D5D"/>
<path d="M206.687 1.19336V18.7543C206.687 19.6271 205.158 20.3578 203.097 20.5582C203.08 20.5572 203.062 20.5594 203.045 20.5647C202.702 20.5906 202.339 20.61 201.97 20.61C200.833 20.6308 199.703 20.4468 198.632 20.0668C198.535 20.028 198.438 19.9828 198.341 19.944C198.25 19.8923 198.153 19.847 198.062 19.7953C197.55 19.4914 197.252 19.1358 197.252 18.7543V1.19336H206.687Z" fill="#CCCCCC"/>
<path d="M349.917 217.236C354.345 217.236 357.935 213.654 357.935 209.236C357.935 204.818 354.345 201.236 349.917 201.236C345.489 201.236 341.899 204.818 341.899 209.236C341.899 213.654 345.489 217.236 349.917 217.236Z" fill="black"/>
<path d="M349.317 212.433C349.3 212.433 349.283 212.433 349.266 212.432C349.115 212.424 348.967 212.385 348.833 212.315C348.699 212.246 348.581 212.148 348.489 212.029L347.149 210.31C347.064 210.202 347.002 210.078 346.965 209.945C346.929 209.812 346.919 209.674 346.936 209.538C346.953 209.401 346.997 209.27 347.065 209.15C347.133 209.031 347.224 208.926 347.333 208.841L347.381 208.804C347.49 208.719 347.614 208.657 347.747 208.621C347.88 208.584 348.019 208.574 348.155 208.591C348.292 208.608 348.424 208.652 348.544 208.72C348.664 208.788 348.769 208.879 348.853 208.987C348.921 209.074 349.007 209.145 349.104 209.196C349.202 209.246 349.31 209.275 349.42 209.281C349.53 209.286 349.64 209.268 349.742 209.227C349.844 209.186 349.936 209.123 350.012 209.044L352.732 206.178C352.924 205.977 353.188 205.859 353.466 205.852C353.744 205.844 354.013 205.947 354.216 206.138L354.26 206.18C354.36 206.275 354.441 206.388 354.497 206.514C354.553 206.639 354.584 206.774 354.587 206.912C354.591 207.049 354.568 207.186 354.518 207.314C354.469 207.443 354.395 207.56 354.3 207.66L350.078 212.106C349.98 212.209 349.862 212.292 349.732 212.348C349.601 212.404 349.46 212.433 349.317 212.433Z" fill="white"/>
<path d="M390.197 99.5247C394.625 99.5247 398.215 95.9431 398.215 91.525C398.215 87.107 394.625 83.5254 390.197 83.5254C385.769 83.5254 382.18 87.107 382.18 91.525C382.18 95.9431 385.769 99.5247 390.197 99.5247Z" fill="black"/>
<path d="M389.597 94.7212C389.579 94.7212 389.562 94.7207 389.545 94.7198C389.394 94.7125 389.247 94.6728 389.112 94.6032C388.978 94.5337 388.861 94.436 388.768 94.3169L387.428 92.5982C387.344 92.4897 387.281 92.3656 387.245 92.2331C387.208 92.1006 387.198 91.9621 387.215 91.8257C387.232 91.6893 387.276 91.5576 387.344 91.4381C387.412 91.3186 387.503 91.2137 387.612 91.1293L387.66 91.0919C387.769 91.0074 387.893 90.9451 388.026 90.9086C388.159 90.8721 388.298 90.8621 388.435 90.8792C388.571 90.8962 388.703 90.94 388.823 91.008C388.943 91.076 389.048 91.1669 389.133 91.2754C389.2 91.3621 389.286 91.4332 389.384 91.4839C389.481 91.5345 389.589 91.5635 389.699 91.5688C389.809 91.5742 389.919 91.5558 390.021 91.5148C390.123 91.4739 390.216 91.4114 390.291 91.3317L393.012 88.4661C393.203 88.2648 393.467 88.1476 393.745 88.14C394.023 88.1325 394.293 88.2353 394.495 88.4259L394.54 88.4683C394.64 88.5628 394.72 88.6761 394.776 88.8016C394.832 88.9271 394.863 89.0625 394.867 89.1999C394.871 89.3373 394.847 89.4741 394.798 89.6024C394.748 89.7308 394.674 89.8482 394.58 89.948L390.358 94.3943C390.26 94.4975 390.142 94.5798 390.011 94.636C389.88 94.6922 389.739 94.7212 389.597 94.7212Z" fill="white"/>
</g>
<defs>
<clipPath id="clip0_727_1533">
<rect width="399" height="331" fill="white"/>
</clipPath>
</defs>
</svg>
