<svg width="172" height="54" viewBox="0 0 172 54" fill="none" xmlns="http://www.w3.org/2000/svg">
<g clip-path="url(#clip0_1083_4570)">
<path d="M11.7552 7.29545L9.74777 11.8353C8.12346 10.7472 6.46283 9.81739 4.76734 9.04462C3.21373 8.23759 1.62384 7.58843 0 7.09768L2.43005 2.45117C4.08974 3.08293 5.69707 3.80208 7.25069 4.60916C8.80516 5.41671 10.3064 6.31211 11.7552 7.29545Z" fill="white"/>
<path d="M11.7552 18.5411L9.74777 23.0812C8.12346 21.9935 6.46283 21.0635 4.76734 20.2908C3.21373 19.4837 1.62384 18.8341 0 18.3438L2.43005 13.6973C4.08974 14.329 5.69707 15.0482 7.25069 15.8553C8.80516 16.6633 10.3064 17.5578 11.7552 18.5411Z" fill="white"/>
<path d="M48.9604 47.8653C46.3406 47.5751 43.7209 47.1402 41.1006 46.5606C42.7015 45.689 45.2487 44.1664 48.7422 41.991C52.2353 39.8147 54.2 38.0019 54.6369 36.5516C54.4912 36.2614 53.9823 35.8265 53.1085 35.2461C52.3804 34.5209 51.871 34.086 51.5807 33.9404H19.2687V38.2921H24.0718L21.8885 41.7731C23.1981 42.3536 24.5083 43.0787 25.8184 43.9485C27.128 44.6736 28.4381 45.5443 29.7478 46.5606C26.8363 47.1402 23.9984 47.5751 21.2334 47.8653C18.3219 48.1555 18.5057 48.3011 15.7412 48.3011L16.614 53.0877C20.2522 52.7966 20.8691 52.3617 24.5083 51.7821C28.1464 51.0561 31.7856 50.1863 35.4247 49.1709C38.626 50.1863 41.9009 51.0561 45.2487 51.7821C48.5966 52.3617 52.0171 52.7966 55.5101 53.0877L56.8202 48.3011C54.2 48.3011 51.5807 48.1555 48.9604 47.8653ZM35.4247 44.3843C33.386 43.369 31.4943 42.3536 29.7478 41.3382C28.0013 40.3228 26.3999 39.3075 24.9446 38.2921H45.9038L46.3406 38.727C44.7388 39.888 42.9197 40.9024 40.8824 41.7731C38.9903 42.6429 37.1712 43.5136 35.4247 44.3843Z" fill="white"/>
<path d="M55.0737 18.711C54.9276 18.5664 54.7815 18.5664 54.6368 18.711H17.5221L16.6484 19.1459V30.8943C16.6484 31.0399 16.721 31.1122 16.8671 31.1122C17.0118 31.2578 17.23 31.3292 17.5221 31.3292H54.6368L55.5101 30.8943V19.1459C55.364 18.8557 55.2184 18.711 55.0737 18.711ZM28.4381 27.4133H21.4516V22.1918H28.4381V27.4133ZM39.7909 27.4133H32.8044V22.1918H39.7909V27.4133ZM51.1438 27.4133H44.1572V22.1918H50.7069L51.1438 22.6267V27.4133Z" fill="white"/>
<path d="M88.4335 47.4309C86.1045 47.4309 82.51 47.1406 80.4727 46.5611C78.4345 46.1253 76.688 44.9643 75.2326 43.0791C74.6502 42.4996 74.2138 41.9191 73.923 41.3387C73.6313 40.7591 73.4861 40.1786 73.4861 39.5982V28.9208C73.3405 28.4859 73.1223 28.1243 72.8311 27.8331C72.5398 27.6885 72.3212 27.6152 72.176 27.6152H64.4518V32.4018C65.0333 32.2581 64.85 32.3277 66.3058 32.3277C67.7606 32.3277 68.1873 32.4256 68.2466 33.2725V40.9029C68.1005 42.7889 67.2277 44.3848 65.6264 45.6895C64.025 46.996 63.8357 48.0104 62.2344 48.7365L64.4182 53.0882C66.0186 52.3621 66.2079 51.2744 67.8102 49.8242C69.5567 48.2283 70.7207 46.7048 71.3032 45.2546C71.8848 46.1253 72.5398 46.9227 73.268 47.6488C73.9951 48.3739 74.9414 49.0258 76.1064 49.6063C77.416 50.477 78.8709 51.1298 80.4727 51.5647C82.0736 51.9995 85.2313 52.2175 87.1234 52.2175H113.322L114.632 46.5611C110.265 46.7048 105.9 46.8504 101.533 46.996C97.1661 47.1406 92.8003 47.2853 88.4335 47.4309Z" fill="white"/>
<path d="M107.428 24.8024C106.991 24.0782 106.772 23.6424 106.772 23.4977C106.918 22.7726 108.009 21.3216 110.048 19.1462C112.085 17.1155 113.613 15.6653 114.632 14.7945L112.012 12.6191H99.35V16.9708H106.772C106.045 17.696 104.952 18.7837 103.498 20.2339C102.042 21.8296 101.242 22.9181 101.096 23.4977C101.242 24.0782 101.605 24.5854 102.188 25.0203C102.624 25.3114 103.133 25.8187 103.716 26.5429H96.2933V30.8946H105.9C106.336 31.91 106.627 32.9985 106.772 34.1586C107.064 35.174 107.21 36.2616 107.21 37.4217C107.064 38.0021 106.627 38.7272 105.9 39.598C105.026 40.3231 104.297 40.7589 103.716 40.9027C102.697 40.7589 101.605 40.4677 100.441 40.0329C99.1313 39.4533 98.185 38.8728 97.6035 38.2924L96.7297 43.0789C97.6035 43.5139 98.7675 43.9487 100.223 44.3846C101.533 44.8194 102.697 45.1088 103.716 45.2544C106.045 45.1088 107.937 44.3113 109.393 42.8611C110.703 41.2662 111.43 39.3077 111.576 36.9868C111.43 35.8267 111.284 34.8114 111.139 33.9407C110.993 32.9262 110.847 31.91 110.703 30.8946H115.506V26.5429H108.519C108.228 25.9633 107.864 25.3828 107.428 24.8024Z" fill="white"/>
<path d="M79.7005 27.8486C78.8272 32.3459 77.3715 36.552 75.3342 40.4679L80.1369 41.7735C81.7383 38.5828 82.9753 34.8838 83.8486 30.6777C84.5762 26.4716 85.0852 22.6271 85.3769 19.1463H90.1801L90.6165 19.5813C90.6165 21.3218 90.4713 24.9481 90.1801 30.4598C89.8889 36.1162 89.0151 39.3079 87.5598 40.033C86.8322 39.8883 86.032 39.7428 85.1587 39.5981C84.4302 39.4535 83.6304 39.3079 82.7571 39.1623L82.3207 43.514C83.3387 43.6595 84.2855 43.8765 85.1587 44.1668C86.1771 44.4561 87.1235 44.674 87.9972 44.8196L90.6165 44.3847C92.8003 42.4995 94.1095 38.0023 94.5468 30.8947C94.8372 23.7881 94.9832 18.8561 94.9832 16.1003C94.9832 15.6654 94.8372 15.3028 94.5468 15.0126C94.4008 14.8679 94.1095 14.7946 93.6731 14.7946H85.8133V10.0081H94.5468V5.2215H88.8699V0H84.0673V5.2215H77.0807V10.0081H81.0106V14.3598C81.0106 18.7115 80.5742 23.2076 79.7005 27.8486Z" fill="white"/>
<path d="M149.921 36.1609H168.211C168.506 36.1609 168.784 36.1435 169.042 36.1087C170.851 35.8634 171.756 34.7601 171.756 32.7971V8.48076C171.756 4.16844 167.357 0.671875 163.029 0.671875H143.907V47.9553C143.907 50.6086 145.238 52.7574 147.902 52.7574H171.756V46.7778H150.883C150.095 46.7778 149.701 46.3109 149.701 45.7488V36.1609H149.921ZM161.01 6.04258H161.032C164.171 6.08838 166.354 7.81238 166.354 10.9501V29.9378C166.354 30.6492 165.997 31.0035 165.285 31.0035H161.01V6.04258ZM149.921 6.04258H155.384V31.0035H149.921V6.04258Z" fill="white"/>
<path d="M123.949 3.37112H102.188L102.843 0.434879L98.4762 0C98.0399 2.6112 97.4574 4.85984 96.7297 6.74501C96.0012 8.48551 94.692 10.4439 92.8003 12.6193L96.7297 15.2296C97.6035 14.3598 98.3302 13.3453 98.9127 12.1844C99.6403 11.169 100.223 10.0081 100.66 8.7025H100.664V8.74549H135.223V39.3765C135.223 40.4221 134.754 40.9458 133.816 40.9458H128.416V12.2585H123.072V46.757H136.517C139.218 46.757 140.568 44.7024 140.568 41.8989V3.37571L123.949 3.37112Z" fill="white"/>
<path d="M76.6916 9.08405L77.5194 9.9291L77.5433 9.90439L80.5393 6.44627L80.0018 5.86762C76.6999 2.3134 72.7365 0.435547 68.5397 0.435547C64.3319 0.435547 60.3051 2.37748 57.2007 5.90517L56.7146 6.45724L59.6831 9.8833L60.4915 9.07669C65.7752 3.81037 71.5467 3.82134 76.6916 9.08405Z" fill="#FE9432"/>
<path d="M68.6572 9.84863C66.3053 9.84863 64.0856 10.8255 62.5642 12.5267L62.1351 13.0055L65.1541 16.4892L65.8955 15.7421C67.3618 14.2662 69.8874 14.2598 71.384 15.7431L72.119 16.4709L75.1192 13.0064L74.7117 12.5395C73.2234 10.8301 71.0156 9.84863 68.6572 9.84863Z" fill="#FE9432"/>
<path d="M51.4714 0.435547H20.0327C19.887 0.435547 19.8145 0.508816 19.8145 0.653479C19.6684 0.653479 19.5958 0.726701 19.5958 0.871363V15.6661C19.5958 15.8107 19.6684 15.8831 19.8145 15.8831C19.8145 16.0286 19.887 16.1009 20.0327 16.1009H51.4714C51.6166 16.1009 51.7622 16.0286 51.9078 15.8831C52.053 15.8831 52.199 15.8107 52.3447 15.6661V0.871363L51.4714 0.435547ZM24.1808 5.55907H34.8641L30.0821 10.9783H24.1808V5.55907ZM47.7597 10.9783H36.4216L41.2036 5.55907H47.7597V10.9783Z" fill="white"/>
<path d="M10.8967 26.5773L5.62497 25.8906C5.62497 25.8906 5.44124 39.3861 0.603149 50.8014L5.78854 53.0876C5.78854 53.0876 11.2302 39.4896 10.8967 26.5773Z" fill="white"/>
<path d="M71.6017 21.6973C71.6017 23.3343 70.27 24.6619 68.6269 24.6619C66.9842 24.6619 65.652 23.3343 65.652 21.6973C65.652 20.0595 66.9842 18.7324 68.6269 18.7324C70.27 18.7324 71.6017 20.0595 71.6017 21.6973Z" fill="#FE9432"/>
</g>
<defs>
<clipPath id="clip0_1083_4570">
<rect width="171.756" height="53.0881" fill="white"/>
</clipPath>
</defs>
</svg>
