<svg width="122" height="32" viewBox="0 0 122 32" fill="none" xmlns="http://www.w3.org/2000/svg">
<g clip-path="url(#clip0_1103_871)">
<path d="M108.523 24.1425C111.785 28.7148 116.786 32 122.403 32C173.73 32 -11.6234 32 0.578742 32C6.42999 32 11.6353 28.5722 15.0651 23.8316C25.5109 9.39351 42.4997 0 61.6824 0C81.0024 0 98.097 9.5285 108.523 24.1425Z" fill="#FF8000"/>
<path d="M55.1203 17.1972L54.4084 16.4044C54.107 16.0687 54.107 15.5259 54.4084 15.1938L60.6388 8.25176C60.9403 7.91608 61.4277 7.91608 61.7259 8.25176L67.9563 15.1903C68.2577 15.5259 68.2577 16.0687 67.9563 16.4008L67.2444 17.1936C66.9398 17.5329 66.4428 17.5257 66.1446 17.1793L62.4666 12.8798V23.143C62.4666 23.6179 62.1235 24 61.697 24H60.6709C60.2444 24 59.9013 23.6179 59.9013 23.143V12.8798L56.2201 17.1829C55.9219 17.5329 55.4249 17.54 55.1203 17.1972Z" fill="white"/>
</g>
<defs>
<clipPath id="clip0_1103_871">
<rect width="122" height="32" fill="white"/>
</clipPath>
</defs>
</svg>
