<svg width="167" height="156" viewBox="0 0 167 156" fill="none" xmlns="http://www.w3.org/2000/svg">
<g clip-path="url(#clip0_675_454)">
<path d="M100.27 71.7839C104.734 71.7839 108.353 68.1535 108.353 63.6751C108.353 59.1968 104.734 55.5664 100.27 55.5664C95.8059 55.5664 92.1869 59.1968 92.1869 63.6751C92.1869 68.1535 95.8059 71.7839 100.27 71.7839Z" fill="#2D2D2D"/>
<path d="M102.522 55.7892C103.921 55.7894 105.296 56.1537 106.512 56.8466C107.729 57.5395 108.745 58.5371 109.462 59.7421C110.18 60.947 110.573 62.318 110.603 63.721C110.634 65.124 110.301 66.5109 109.638 67.7463C110.339 66.8667 110.849 65.8503 111.137 64.7619C111.424 63.6735 111.483 62.5369 111.308 61.4246C111.134 60.3123 110.73 59.2487 110.123 58.3015C109.516 57.3543 108.719 56.5443 107.783 55.9232C106.847 55.302 105.792 54.8833 104.685 54.6938C103.579 54.5043 102.445 54.548 101.357 54.8223C100.268 55.0966 99.2482 55.5953 98.3624 56.2868C97.4765 56.9783 96.7439 57.8473 96.2114 58.8385C96.967 57.8868 97.9268 57.1185 99.0194 56.5905C100.112 56.0626 101.309 55.7887 102.522 55.7892Z" fill="#2D2D2D"/>
<path d="M85.1655 63.6583C98.2791 63.6583 108.91 52.994 108.91 39.8389C108.91 26.6838 98.2791 16.0195 85.1655 16.0195C72.0518 16.0195 61.4211 26.6838 61.4211 39.8389C61.4211 52.994 72.0518 63.6583 85.1655 63.6583Z" fill="#2D2D2D"/>
<path d="M66.5301 25.0599C70.6214 20.444 76.3404 17.6034 82.4801 17.1374C88.6197 16.6714 94.6996 18.6166 99.4367 22.5624C99.2425 22.3772 99.0504 22.1906 98.8487 22.0106C94.1417 17.8166 87.967 15.6695 81.6823 16.0414C75.3976 16.4132 69.5174 19.2737 65.3346 23.9937C61.1517 28.7138 59.0087 34.9071 59.3767 41.2118C59.7447 47.5165 62.5936 53.4165 67.297 57.6146C67.4988 57.7946 67.7061 57.9641 67.9121 58.1358C63.451 53.8787 60.8131 48.0494 60.5553 41.8781C60.2974 35.7069 62.4397 29.6766 66.5301 25.0599Z" fill="#2D2D2D"/>
<path d="M84.9643 63.4561C93.4104 63.4561 100.257 56.5875 100.257 48.1147C100.257 39.642 93.4104 32.7734 84.9643 32.7734C76.5182 32.7734 69.6713 39.642 69.6713 48.1147C69.6713 56.5875 76.5182 63.4561 84.9643 63.4561Z" fill="#FFB8B8"/>
<path d="M92.7765 67.6211L76.411 68.3591C76.411 68.3591 77.7769 76.8494 68.9231 77.6568C60.0693 78.4643 52.0203 76.042 48.8007 82.0977C45.5812 88.1535 46.9689 109.717 46.9689 109.717C46.9689 109.717 53.0056 131.517 57.8349 134.747C62.6643 137.977 104.921 133.536 104.921 133.536L122.606 111.135L122.007 93.8602C121.694 84.839 113.484 78.066 104.641 79.7355C104.467 79.7682 104.292 79.8036 104.116 79.8414C104.116 79.8414 102.174 78.3848 96.8434 75.7113C93.5838 74.0764 92.7765 67.6211 92.7765 67.6211Z" fill="#CACACA"/>
<path d="M57.2521 77.2533C57.2521 77.2533 61.1418 84.3332 59.532 94.4262C57.9222 104.519 64.6765 125.866 64.6765 125.866L69.5059 124.654C69.5059 124.654 66.2863 103.661 67.0912 98.8164C67.8961 93.9718 68.1182 79.6756 64.0937 77.2533C60.0693 74.831 57.2521 77.2533 57.2521 77.2533Z" fill="#2D2D2D"/>
<path d="M103.833 80.965L105.525 125.663L108.744 127.682C108.744 127.682 113.373 78.6299 110.958 78.6299H106.045C105.754 78.6299 105.466 78.6873 105.197 78.799C104.929 78.9106 104.684 79.0742 104.479 79.2805C104.273 79.4868 104.11 79.7316 103.999 80.0012C103.888 80.2707 103.83 80.5595 103.83 80.8512C103.83 80.8892 103.831 80.9271 103.833 80.965Z" fill="#2D2D2D"/>
<path d="M66.89 124.856C68.0013 124.856 68.9022 123.952 68.9022 122.837C68.9022 121.722 68.0013 120.818 66.89 120.818C65.7787 120.818 64.8777 121.722 64.8777 122.837C64.8777 123.952 65.7787 124.856 66.89 124.856Z" fill="#FF9D00"/>
<path d="M107.135 126.874C108.246 126.874 109.147 125.97 109.147 124.856C109.147 123.741 108.246 122.837 107.135 122.837C106.023 122.837 105.122 123.741 105.122 124.856C105.122 125.97 106.023 126.874 107.135 126.874Z" fill="#FF9D00"/>
<path d="M71.8848 28.9385V44.2798H75.4265L79.9338 39.4352L79.3302 44.2798H94.9852L94.0193 39.4352L95.951 44.2798H98.4462V28.9385H71.8848Z" fill="#2D2D2D"/>
<path d="M69.4701 47.1059C70.1369 47.1059 70.6774 46.1118 70.6774 44.8855C70.6774 43.6592 70.1369 42.665 69.4701 42.665C68.8033 42.665 68.2628 43.6592 68.2628 44.8855C68.2628 46.1118 68.8033 47.1059 69.4701 47.1059Z" fill="#FFB8B8"/>
<path d="M100.458 47.1059C101.125 47.1059 101.666 46.1118 101.666 44.8855C101.666 43.6592 101.125 42.665 100.458 42.665C99.7917 42.665 99.2512 43.6592 99.2512 44.8855C99.2512 46.1118 99.7917 47.1059 100.458 47.1059Z" fill="#FFB8B8"/>
<path d="M133.955 141.953V143.306C133.955 143.677 133.887 144.045 133.753 144.391C133.693 144.545 133.621 144.694 133.537 144.836C133.273 145.282 132.897 145.651 132.447 145.907C131.998 146.164 131.489 146.298 130.972 146.298H31.7971C31.28 146.298 30.7717 146.164 30.322 145.907C29.8723 145.651 29.4967 145.282 29.232 144.836C29.1483 144.694 29.0762 144.545 29.0166 144.391C28.8823 144.045 28.8137 143.677 28.8145 143.306V141.953C28.8144 141.561 28.8914 141.172 29.0411 140.809C29.1909 140.446 29.4104 140.116 29.6873 139.838C29.9641 139.56 30.2928 139.34 30.6545 139.189C31.0162 139.039 31.404 138.961 31.7956 138.961H37.5138V138.331C37.5138 138.314 37.5169 138.298 37.5232 138.283C37.5294 138.268 37.5385 138.254 37.55 138.243C37.5615 138.231 37.5752 138.222 37.5902 138.216C37.6053 138.209 37.6214 138.206 37.6377 138.206H40.6208C40.6538 138.206 40.6854 138.219 40.7087 138.242C40.732 138.266 40.7451 138.297 40.7452 138.33V138.961H42.6085V138.331C42.6085 138.314 42.6117 138.298 42.6179 138.283C42.6241 138.268 42.6333 138.254 42.6448 138.243C42.6563 138.231 42.67 138.222 42.685 138.216C42.7001 138.209 42.7162 138.206 42.7325 138.206H45.7156C45.7485 138.206 45.7801 138.219 45.8035 138.242C45.8268 138.266 45.8399 138.297 45.84 138.33V138.961H47.7055V138.331C47.7055 138.314 47.7087 138.298 47.7149 138.283C47.7211 138.268 47.7303 138.254 47.7418 138.243C47.7533 138.231 47.767 138.222 47.782 138.216C47.7971 138.209 47.8132 138.206 47.8295 138.206H50.8126C50.8455 138.206 50.8771 138.219 50.9005 138.242C50.9238 138.266 50.9369 138.297 50.937 138.33V138.961H52.8003V138.331C52.8003 138.314 52.8035 138.298 52.8097 138.283C52.8159 138.268 52.825 138.254 52.8365 138.243C52.8481 138.231 52.8617 138.222 52.8768 138.216C52.8918 138.209 52.908 138.206 52.9243 138.206H55.9074C55.9403 138.206 55.9719 138.219 55.9952 138.242C56.0186 138.266 56.0317 138.297 56.0317 138.33V138.961H57.8951V138.331C57.8951 138.314 57.8983 138.298 57.9045 138.283C57.9107 138.268 57.9198 138.254 57.9313 138.243C57.9428 138.231 57.9565 138.222 57.9716 138.216C57.9866 138.209 58.0028 138.206 58.0191 138.206H61.0022C61.0351 138.206 61.0667 138.219 61.09 138.242C61.1133 138.266 61.1265 138.297 61.1265 138.33V138.961H62.9921V138.331C62.9921 138.314 62.9952 138.298 63.0015 138.283C63.0077 138.268 63.0168 138.254 63.0283 138.243C63.0398 138.231 63.0535 138.222 63.0685 138.216C63.0836 138.209 63.0997 138.206 63.1161 138.206H66.0991C66.1321 138.206 66.1637 138.219 66.187 138.242C66.2103 138.266 66.2235 138.297 66.2235 138.33V138.961H68.0869V138.331C68.0868 138.314 68.09 138.298 68.0962 138.283C68.1025 138.268 68.1116 138.254 68.1231 138.243C68.1346 138.231 68.1483 138.222 68.1633 138.216C68.1784 138.209 68.1945 138.206 68.2108 138.206H91.5753C91.5916 138.206 91.6077 138.209 91.6228 138.215C91.6379 138.222 91.6516 138.231 91.6631 138.242C91.6747 138.254 91.6838 138.268 91.6901 138.283C91.6964 138.298 91.6996 138.314 91.6996 138.33V138.961H93.5652V138.331C93.5652 138.314 93.5684 138.298 93.5746 138.283C93.5808 138.268 93.5899 138.254 93.6014 138.243C93.6129 138.231 93.6266 138.222 93.6417 138.216C93.6567 138.209 93.6729 138.206 93.6892 138.206H96.6723C96.7051 138.206 96.7366 138.22 96.7598 138.243C96.7831 138.266 96.7963 138.298 96.7966 138.331V138.961H98.66V138.331C98.66 138.314 98.6631 138.298 98.6693 138.283C98.6756 138.268 98.6847 138.254 98.6962 138.243C98.7077 138.231 98.7214 138.222 98.7364 138.216C98.7515 138.209 98.7676 138.206 98.7839 138.206H101.767C101.783 138.206 101.799 138.209 101.815 138.215C101.83 138.222 101.843 138.231 101.855 138.242C101.866 138.254 101.876 138.268 101.882 138.283C101.888 138.298 101.891 138.314 101.891 138.33V138.961H103.755V138.331C103.755 138.315 103.758 138.298 103.764 138.283C103.77 138.268 103.779 138.254 103.791 138.243C103.802 138.231 103.816 138.222 103.831 138.216C103.846 138.209 103.862 138.206 103.879 138.206H106.862C106.878 138.206 106.894 138.209 106.909 138.215C106.924 138.222 106.938 138.231 106.95 138.242C106.961 138.254 106.97 138.268 106.977 138.283C106.983 138.298 106.986 138.314 106.986 138.33V138.961H108.852V138.331C108.852 138.315 108.855 138.298 108.861 138.283C108.867 138.268 108.876 138.254 108.888 138.243C108.899 138.231 108.913 138.222 108.928 138.216C108.943 138.209 108.959 138.206 108.976 138.206H111.959C111.991 138.207 112.023 138.22 112.045 138.243C112.068 138.267 112.081 138.298 112.081 138.331V138.961H113.947V138.331C113.946 138.315 113.95 138.298 113.956 138.283C113.962 138.268 113.971 138.254 113.983 138.243C113.994 138.231 114.008 138.222 114.023 138.216C114.038 138.209 114.054 138.206 114.07 138.206H117.054C117.07 138.206 117.086 138.209 117.101 138.215C117.116 138.222 117.13 138.231 117.141 138.242C117.153 138.254 117.162 138.268 117.168 138.283C117.175 138.298 117.178 138.314 117.178 138.33V138.961H119.041V138.331C119.041 138.315 119.044 138.298 119.051 138.283C119.057 138.268 119.066 138.254 119.078 138.243C119.089 138.231 119.103 138.222 119.118 138.216C119.133 138.209 119.149 138.206 119.165 138.206H122.148C122.165 138.206 122.181 138.209 122.196 138.216C122.211 138.222 122.225 138.231 122.236 138.242C122.248 138.254 122.257 138.268 122.263 138.283C122.269 138.298 122.273 138.314 122.273 138.33V138.961H130.972C131.763 138.961 132.521 139.276 133.081 139.837C133.64 140.398 133.955 141.159 133.955 141.952L133.955 141.953Z" fill="#585858"/>
<path d="M125.969 85H35.124C34.7956 85 34.4705 85.0649 34.1671 85.1909C33.8637 85.317 33.5881 85.5018 33.3559 85.7347C33.1237 85.9676 32.9395 86.2441 32.8139 86.5484C32.6882 86.8528 32.6235 87.1789 32.6235 87.5083V138.286C32.6235 138.951 32.887 139.589 33.3559 140.059C33.8248 140.53 34.4608 140.794 35.124 140.794H125.969C126.632 140.794 127.268 140.53 127.737 140.059C128.206 139.589 128.469 138.951 128.469 138.286V87.5083C128.469 86.8431 128.206 86.2051 127.737 85.7347C127.268 85.2643 126.632 85 125.969 85Z" fill="#585858"/>
<path d="M80.6192 108.298C83.6856 108.298 86.1715 105.804 86.1715 102.728C86.1715 99.6519 83.6856 97.1582 80.6192 97.1582C77.5527 97.1582 75.0669 99.6519 75.0669 102.728C75.0669 105.804 77.5527 108.298 80.6192 108.298Z" fill="#FF9D00"/>
<path d="M159.911 29H101.089C100.797 28.9964 100.519 28.8755 100.314 28.664C100.11 28.4524 99.9972 28.1674 100 27.8715V1.1285C99.9972 0.832581 100.11 0.547597 100.314 0.336046C100.519 0.124495 100.797 0.00364433 101.089 0H159.911C160.203 0.0036477 160.481 0.124498 160.686 0.336048C160.89 0.547599 161.003 0.832583 161 1.1285V27.8715C161.003 28.1674 160.89 28.4524 160.686 28.664C160.481 28.8755 160.203 28.9964 159.911 29Z" fill="#FF9D00"/>
<path d="M112.753 9C112.552 9.00575 112.36 9.11363 112.22 9.30054C112.079 9.48745 112 9.73853 112 10C112 10.2615 112.079 10.5125 112.22 10.6995C112.36 10.8864 112.552 10.9942 112.753 11H148.248C148.449 10.9938 148.641 10.8857 148.781 10.6988C148.921 10.512 149 10.2612 149 10C149 9.73884 148.921 9.48804 148.781 9.30119C148.641 9.11433 148.449 9.00624 148.248 9.00001L112.753 9Z" fill="white"/>
<path d="M112.752 13C112.551 13.0093 112.36 13.1715 112.219 13.4518C112.079 13.732 112 14.1083 112 14.5C112 14.8918 112.079 15.268 112.219 15.5482C112.36 15.8285 112.551 15.9907 112.752 16H148.248C148.449 15.9907 148.64 15.8285 148.781 15.5482C148.921 15.268 149 14.8918 149 14.5C149 14.1083 148.921 13.732 148.781 13.4518C148.64 13.1715 148.449 13.0093 148.248 13H112.752Z" fill="white"/>
<path d="M112.763 18C112.559 18.0058 112.365 18.1136 112.222 18.3005C112.08 18.4875 112 18.7385 112 19C112 19.2615 112.08 19.5125 112.222 19.6995C112.365 19.8864 112.559 19.9942 112.763 20H128.237C128.441 19.9942 128.635 19.8864 128.778 19.6995C128.92 19.5125 129 19.2615 129 19C129 18.7385 128.92 18.4875 128.778 18.3005C128.635 18.1136 128.441 18.0058 128.237 18H112.763Z" fill="white"/>
<path d="M160.5 32C162.985 32 165 29.9853 165 27.5C165 25.0147 162.985 23 160.5 23C158.015 23 156 25.0147 156 27.5C156 29.9853 158.015 32 160.5 32Z" fill="#585858"/>
<path d="M160.254 29L159 27.1747L159.729 26.5326L160.323 27.3968L162.329 25L163 25.7193L160.254 29Z" fill="white"/>
</g>
<defs>
<clipPath id="clip0_675_454">
<rect width="167" height="156" fill="white"/>
</clipPath>
</defs>
</svg>
