<svg width="614" height="38" viewBox="0 0 614 38" fill="none" xmlns="http://www.w3.org/2000/svg">
<path d="M24.6 7.484C24.6 7.484 23.844 9.464 23.592 10.436C19.38 25.124 17.616 30.884 15.996 32.9C14.628 34.052 13.836 34.376 12.756 34.736C11.388 34.88 9.948 34.772 8.4 34.448C8.436 33.044 8.544 30.848 8.148 29.624C6.6 32.036 5.16 33.98 3.648 35.492C2.964 33.908 1.704 32.288 0.408 31.244C4.98 26.564 7.788 19.976 9.948 12.308L6.06 12.596L7.32 7.484L11.316 7.196C11.82 5.18 12.36 3.128 12.864 1.004L18.012 1.58C17.508 3.668 16.932 5.756 16.392 7.772L24.6 7.484ZM40.296 5.144L33.024 34.304H27.552L28.092 32.144H24.492L23.88 34.592H18.66L26.004 5.144H40.296ZM29.352 27.104L33.564 10.184H29.964L25.752 27.104H29.352ZM14.988 12.884C13.116 19.112 11.1 24.836 7.824 29.696C8.868 29.552 9.804 29.552 10.2 29.552C10.956 29.552 11.568 29.084 12 28.328C13.008 27.572 14.664 23.324 17.796 12.308L14.988 12.884ZM59.304 1.292C68.7 9.788 65.748 21.812 75.36 29.516C74.388 30.776 72.12 33.8 71.688 35.276C65.748 31.064 64.092 24.044 62.148 17.852C57.18 25.808 51.564 31.424 44.724 34.844C43.896 33.584 41.988 31.424 40.692 30.344C48.792 26.888 55.056 19.976 59.628 10.508C58.548 8.708 57.252 6.944 55.308 5.504L59.304 1.292ZM93.792 10.22C92.784 8.78 90.228 6.764 88.176 5.396L91.776 2.084C93.756 3.272 96.456 5.216 97.752 6.62L93.792 10.22ZM116.112 12.2H98.148L100.668 2.12H118.632L116.112 12.2ZM112.764 5H104.844L104.628 5.792H112.548L112.764 5ZM111.864 8.492H103.944L103.764 9.32H111.684L111.864 8.492ZM89.364 19.544C88.392 18.104 85.944 16.088 84 14.684L87.564 11.408C89.436 12.632 92.028 14.576 93.288 15.944L89.364 19.544ZM95.916 13.208H117.444L115.464 21.092H93.936L95.916 13.208ZM99.084 18.032H100.668L101.136 16.268H99.552L99.084 18.032ZM104.52 18.032H106.104L106.572 16.268H104.988L104.52 18.032ZM109.956 18.032H111.576L112.044 16.268H110.424L109.956 18.032ZM92.748 24.044C90.048 27.752 87.096 31.568 84.288 35.096L80.4 31.172C82.884 28.544 86.484 24.26 89.508 20.156L92.748 24.044ZM114.78 23.756C112.8 26.348 110.532 28.328 107.58 30.056C109.452 30.452 111.72 30.812 114.384 31.28C113.304 32.288 111.324 34.448 110.568 35.744C107.004 34.952 103.98 34.016 101.676 32.864C98.112 34.16 94.512 34.916 90.912 35.204C90.552 33.908 90.084 31.928 89.292 30.812C91.668 30.74 94.26 30.272 96.888 29.48C95.988 28.508 95.052 27.212 94.332 25.808L92.244 26.06L93.252 22.028H110.892L111.756 21.848L114.78 23.756ZM100.092 26.24C100.776 26.888 101.532 27.428 102.252 27.824C103.692 27.14 104.808 26.528 105.816 25.88L100.092 26.24ZM146.136 12.02C146.136 12.02 145.488 13.496 145.272 14.324C142.86 23.324 141.852 26.96 140.808 28.4C139.908 29.084 139.296 29.3 138.54 29.552C137.496 29.624 136.344 29.516 135.156 29.228C135.12 28.112 135.264 26.528 135.012 25.664C134.076 27.068 133.176 28.076 131.916 29.156C133.788 30.092 136.812 30.092 140.124 30.092C143.868 30.092 150.204 29.696 154.092 29.372C153.408 30.812 151.824 33.368 151.644 34.772C148.872 34.7 143.328 34.88 139.728 34.88C135.084 34.88 132.312 34.232 130.44 32.756C128.928 32.072 128.028 31.208 127.524 31.208C126.192 31.208 123.744 33.764 121.944 35.78L119.496 30.524C121.152 29.228 122.88 28.22 124.464 27.5L126.984 18.176H123.384L124.608 13.388H133.32L130.296 24.872C133.32 21.56 134.904 16.808 135.696 13.568L136.596 10.04H134.112L135.156 5.792L139.26 5.504C139.332 4.388 139.332 3.128 139.296 2.12L143.904 1.904C144.048 3.2 144.12 4.856 144.12 6.08L147.216 5.792L146.712 7.16C148.26 5.252 149.808 2.912 150.96 0.715999L154.992 2.48C154.56 3.272 154.092 4.064 153.552 4.892L159.852 4.604L158.808 8.852L150.636 9.104C150.204 9.68 149.808 10.22 149.376 10.724L155.064 10.472L155.892 10.22L158.268 12.524C156.828 13.892 155.172 15.368 153.48 16.664L153.12 17.348H156.9L155.892 21.416H152.112L151.212 24.944C150.744 26.888 150.42 28.004 149.088 28.832C147.504 29.336 145.992 29.228 144.084 28.94C143.976 27.716 143.904 25.916 143.328 24.764C144.3 25.016 145.632 25.016 145.776 25.016C146.46 25.016 146.928 24.62 147 24.296L147.72 21.416H144.192L145.2 17.348H148.764L149.052 15.368C149.556 15.008 150.168 14.504 150.78 14L146.712 14.216L147.792 10.832C147.396 10.4 146.892 9.932 146.46 9.5L146.136 10.04H140.772L140.268 12.02H146.136ZM129.468 10.976C129.036 9.5 127.596 7.376 126.228 5.828L130.368 3.416C131.7 4.82 133.356 6.944 134.04 8.456L129.468 10.976ZM139.116 16.484C138.252 19.436 137.064 22.784 134.76 25.772C135.372 25.592 135.912 25.556 136.056 25.556C136.704 25.556 137.28 25.16 137.568 24.512C138.036 24.224 138.864 21.992 140.484 15.908L139.116 16.484ZM129.612 27.392C129.972 27.644 130.332 27.86 131.052 27.968C130.98 27.428 130.62 26.924 130.224 26.492L129.612 27.392ZM186.672 30.128C188.436 30.128 189.3 29.084 190.236 25.808C191.1 26.924 192.972 27.716 194.304 28.292C192.612 33.368 190.92 34.916 186.492 34.916H179.688C174.54 34.916 173.136 33.188 174.612 27.284L180.624 3.272H199.2L194.088 23.756H189.012L189.516 21.74H181.128L179.58 27.86C179.004 30.164 179.004 30.128 181.02 30.128H186.672ZM173.172 26.06H166.44L165.684 29.12H160.968L167.16 4.172H178.608L173.172 26.06ZM184.512 8.06L182.28 17.024H184.008L186.24 8.06H184.512ZM192.9 8.06H190.956L188.724 17.024H190.668L192.9 8.06ZM170.688 8.96L167.628 21.272H169.572L172.632 8.96H170.688ZM210.396 23.144C213.492 23.144 214.644 25.52 213.744 29.156C212.808 33.008 209.424 36.32 204.312 37.652L203.34 34.052C206.112 33.332 208.272 31.82 209.1 30.344C207.156 30.272 205.5 28.688 206.148 26.132C206.616 24.26 208.452 23.144 210.396 23.144ZM278.04 6.98H256.8L257.7 3.308L266.016 3.02C265.944 2.48 265.872 1.976 265.728 1.508L270.12 0.751999C270.408 1.616 270.624 2.66 270.768 3.596L278.94 3.308L278.04 6.98ZM255.54 11.264H243.372L244.38 7.196L249.384 6.908C249.348 5.576 249.132 3.848 248.808 2.444L252.444 1.58C252.876 3.092 253.344 5.216 253.416 6.512L250.932 7.196H256.548L255.54 11.264ZM273.108 28.94C272.064 29.516 270.912 30.02 269.616 30.632C270.408 31.1 271.524 31.496 273.072 32C272.172 32.792 270.444 34.52 269.868 35.564C265.332 33.836 263.136 30.596 262.596 26.168L262.056 26.672C261.336 27.212 260.58 27.68 259.788 28.148L259.068 30.272L262.632 30.092C262.308 31.244 261.876 32.9 262.02 33.908C256.44 34.592 255.108 35.024 254.46 35.168C254.064 34.304 253.452 32.936 252.804 32.18C253.236 31.964 254.244 31.064 255.108 30.02C254.136 30.668 253.128 30.92 252.3 30.956C251.832 30.2 251.184 28.76 250.644 27.968L249.096 33.476H242.508L242.184 34.88H238.584L241.68 22.388H251.904L250.248 27.932C252.012 27.536 253.848 26.996 255.504 26.348L251.616 26.456L252.48 23H257.34L257.52 22.28H254.136L254.892 19.256H258.276L258.456 18.536H254.712L255.468 15.512H259.212L259.536 14.144H256.188L257.808 7.664H266.808L265.188 14.144H264.144L263.82 15.512H266.736L267.06 14.144H266.196L267.816 7.664H276.924L275.304 14.144H271.704L271.38 15.512H275.592L274.836 18.536H270.624L270.444 19.256H274.368L273.612 22.28H269.688L269.508 23H274.548L273.684 26.456H271.056L273.108 28.94ZM260.508 11.588H261.948L262.272 10.256H260.832L260.508 11.588ZM270.516 11.588H272.064L272.388 10.256H270.84L270.516 11.588ZM253.092 16.232H243.588L244.56 12.344H254.064L253.092 16.232ZM243.3 17.312H252.804L251.832 21.2H242.328L243.3 17.312ZM262.884 19.256H265.8L265.98 18.536H263.064L262.884 19.256ZM261.948 23H264.864L265.044 22.28H262.128L261.948 23ZM266.484 26.708C266.664 27.32 266.916 27.896 267.096 28.256C268.392 27.464 269.616 26.816 270.516 26.312L266.484 26.708ZM247.224 26.348H244.308L243.516 29.516H246.432L247.224 26.348ZM309.108 1.796C308.244 5 307.488 8.312 306.948 11.516L316.488 11.228L315.264 16.16L306.192 16.448C306.012 18.176 305.868 19.832 305.724 21.128C307.128 19.616 308.46 18.248 309.54 16.844L313.788 19.328C311.448 22.208 308.856 24.728 305.904 27.284C306.012 29.228 306.408 30.236 306.912 30.236C307.776 30.236 308.928 28.256 309.9 24.404C310.62 25.916 312.06 27.068 313.248 27.968C311.052 34.376 309.396 35.564 306.048 35.564C303.312 35.564 301.728 33.332 301.152 30.344C298.668 32.108 296.364 33.332 294.132 34.232C293.484 32.828 292.548 31.136 291.36 29.804C294.168 28.796 297.264 27.14 300.324 24.944C300.396 22.352 300.576 19.22 301.008 15.872L294.132 16.16L293.34 19.364L298.704 18.536L298.128 23.36L292.332 24.44L290.748 29.768C290.1 32.432 289.452 33.728 287.832 34.664C285.852 35.348 283.584 35.348 280.776 35.06C280.668 33.62 280.524 31.28 279.84 29.876C281.496 30.2 283.584 30.164 284.016 30.128C284.88 30.164 285.492 29.696 285.636 29.12L286.572 25.376L280.488 26.456L280.272 21.128C282.288 20.876 284.844 20.552 287.616 20.12L288.84 16.16H282.504L283.728 11.228H290.064L291.108 8.06C289.236 8.312 287.436 8.456 285.852 8.312C285.672 7.088 285.6 5.144 285.06 3.956C290.064 3.596 295.896 2.444 299.928 1.22L302.772 5.72C303.06 4.208 303.42 2.696 303.78 1.22L309.108 1.796ZM317.244 8.132L312.6 10.544C312.204 8.852 310.728 6.44 309.216 4.712L313.392 2.408C314.868 4.028 316.596 6.404 317.244 8.132ZM295.356 11.228L301.764 10.94C302.052 9.284 302.376 7.592 302.736 5.9C300.792 6.404 298.74 6.836 296.616 7.232L295.356 11.228ZM341.94 17.24H336.252L331.752 35.312H326.928L334.56 4.964C333.552 6.62 332.508 8.276 331.356 9.896L324.876 35.384H319.908L324.192 18.788C323.544 19.472 322.932 20.048 322.428 20.372C322.176 18.896 321.744 15.872 321.204 14.252C324.588 11.228 328.548 6.044 331.248 0.931999L335.748 2.66L335.568 3.056H345.468L341.94 17.24ZM351.156 29.876C350.508 32.54 349.896 33.764 348.276 34.664C346.26 35.348 343.956 35.276 340.68 34.988C340.572 33.62 340.464 31.352 339.852 30.092C341.616 30.488 344.172 30.416 344.64 30.38C345.576 30.416 346.188 29.912 346.368 29.228L349.356 17.24H343.236L346.764 3.056H357.852L351.156 29.876ZM338.808 6.944L338.484 8.312H340.284L340.608 6.944H338.808ZM349.86 6.944L349.536 8.312H351.588L351.912 6.944H349.86ZM339.024 13.352L339.348 11.948H337.548L337.224 13.352H339.024ZM350.328 13.352L350.652 11.948H348.6L348.276 13.352H350.328ZM395.148 15.116L393.708 20.84H360.156L361.596 15.116H395.148ZM429.852 29.912C429.204 32.468 428.628 33.8 427.044 34.772C425.136 35.456 423.084 35.42 420.204 35.132C420.132 33.728 420.024 31.352 419.34 30.056C420.816 30.416 422.904 30.38 423.264 30.38C424.128 30.344 424.74 29.84 424.884 29.264L430.212 7.772H409.26L402.384 35.42H397.308L405.444 2.84H436.62L429.852 29.912ZM427.044 14H409.188L410.268 9.644H428.124L427.044 14ZM411.96 28.652L411.384 30.92H406.596L410.268 16.16H425.1L422.004 28.652H411.96ZM414.012 20.408L413.004 24.368H418.224L419.232 20.408H414.012ZM448.104 10.256C447.492 8.564 445.908 5.864 444.72 3.848L448.968 1.544C450.048 3.272 451.776 5.72 452.568 7.34L453.684 3.452H462.288L462.864 1.22H467.94L467.364 3.452H476.4L475.356 7.628H466.32L466.104 8.564H473.736L470.568 21.236H462.936L462.684 22.244H472.116L471.072 26.456H461.64L460.92 29.408H455.844L456.564 26.456H447.564L448.608 22.244H457.608L457.86 21.236H450.516L453.684 8.564H461.028L461.244 7.628H452.64L452.676 7.484L448.104 10.256ZM457.284 13.244H459.876L460.128 12.092H457.536L457.284 13.244ZM465.204 12.092L464.952 13.244H467.58L467.832 12.092H465.204ZM446.088 28.184C446.304 28.364 446.7 28.616 446.664 28.94C448.896 30.164 452.496 30.164 456.456 30.164C460.596 30.164 467.436 29.696 471.648 29.228C470.928 30.704 469.272 33.368 469.092 34.88C466.32 34.808 459.948 35.06 455.952 35.06C450.804 35.06 447.816 34.52 445.728 32.9C444.072 32.144 443.064 31.136 442.56 31.136C441.48 31.136 439.392 34.052 438.168 36.032L435.972 30.344C438.024 28.436 439.932 27.212 441.48 26.6L443.892 17.816H440.148L441.336 13.028H450.084L446.088 28.184ZM458.76 17.708L459.048 16.52H456.456L456.168 17.708H458.76ZM466.752 16.52H464.124L463.836 17.708H466.464L466.752 16.52ZM508.296 24.116C507.216 26.096 506.136 27.68 504.552 29.156C506.28 29.84 507.9 30.812 509.196 31.676L505.488 35.312C504.228 34.304 502.428 33.224 500.448 32.216C496.992 33.908 493.068 34.736 487.956 35.132C487.704 33.656 487.416 31.856 486.696 30.848C489.864 30.812 492.636 30.38 495.192 29.588C493.536 28.832 491.628 28.076 489.792 27.212C490.62 26.24 491.88 24.98 493.068 23.576L489.18 23.828L490.08 21.2L487.02 21.992L484.752 30.056C484.176 32.324 483.708 33.548 482.448 34.52C480.9 35.096 479.244 35.132 477.012 34.808C476.976 33.548 477.012 31.424 476.508 30.056C477.444 30.38 478.632 30.344 478.812 30.344C479.496 30.344 480 29.912 480.108 29.444L481.692 23.252L478.668 24.008L478.524 18.932C479.748 18.716 481.152 18.428 482.7 18.068L484.32 12.596H480.972L482.16 7.808H485.508L487.164 1.256H491.952L490.296 7.808H492.888L491.7 12.596H489.108L487.992 16.988L490.404 16.412L489.972 20.588L490.26 19.508L496.668 19.256C497.352 18.32 498.036 17.348 498.648 16.448L491.484 16.736L492.6 12.344L497.388 12.056C497.316 11.048 497.136 9.896 496.812 8.96L498.792 8.492H494.508L495.624 4.136L503.04 3.848C502.932 3.164 502.788 2.552 502.644 1.976L507.36 1.832C507.648 2.588 507.9 3.56 508.08 4.424L515.82 4.136L514.704 8.492H509.376L511.896 9.5C510.96 10.616 510.096 11.696 509.304 12.596L514.416 12.344L513.3 16.736H500.808L503.58 17.6C503.112 18.32 502.572 19.004 502.032 19.76L513.12 19.508L512.04 23.828L508.296 24.116ZM501.132 8.744C501.492 9.824 501.816 11.084 501.888 11.984L500.196 12.344L504.3 12.092C505.2 10.976 506.28 9.464 507.036 8.204L501.132 8.744ZM498.648 24.08C498.18 24.656 497.712 25.196 497.028 25.808C498.036 26.024 499.152 26.456 500.232 26.744C501.42 25.808 502.356 24.728 503.076 23.54L498.648 24.08ZM538.608 18.68L537.78 22.028H545.7L544.584 26.528H536.664L535.8 29.984H548.58L547.392 34.628H516.576L517.764 29.984H530.256L531.12 26.528H523.488L524.604 22.028H532.236L533.064 18.68H524.748L525.576 16.304C524.424 16.88 523.344 17.312 522.408 17.564C521.76 16.124 520.788 14.396 519.564 13.064C526.404 10.724 534.144 6.26 539.112 0.643998L543.432 3.344C543.144 3.668 542.856 3.956 542.28 4.496C545.34 8.564 549.444 11.336 554.736 13.748C553.404 14.828 551.352 16.7 550.488 18.104C549.588 17.276 548.652 16.772 547.824 16.196L546.996 18.68H538.608ZM544.692 13.928C542.496 12.128 540.48 10.076 538.788 7.736C535.692 10.364 532.632 12.452 529.428 14.288L544.692 13.928ZM593.4 15.224C590.916 17.564 588.18 20.048 585.804 21.992C586.488 24.656 587.928 26.78 590.484 28.904C589.26 29.66 587.352 31.424 586.632 32.648C584.58 30.452 583.14 28.328 582.204 25.916L581.052 30.056C580.44 32.468 579.9 33.728 578.46 34.736C576.696 35.384 574.824 35.42 572.304 35.132C572.196 33.764 572.016 31.532 571.368 30.2C572.736 30.488 574.356 30.488 574.644 30.488C575.436 30.488 576.012 30.02 576.156 29.48L577.308 25.592C574.5 27.788 571.584 29.912 569.172 31.784L567.984 28.832C563.88 30.056 559.416 31.316 555.852 32.36L555.564 27.212C556.824 26.924 558.3 26.564 559.92 26.132L562.116 18.212H558.768L559.956 13.424H563.304L564.672 7.916H561.18L562.404 3.092H574.104L572.88 7.916H569.532L568.164 13.424H571.008L569.82 18.212H566.976L565.32 24.836L568.776 23.864L568.488 25.736C571.188 24.188 574.932 21.848 578.424 19.616L580.62 11.552H572.592L573.78 6.8H581.808L583.212 1.256H588.252L586.848 6.8L591.06 6.584C590.376 5.612 589.404 4.604 588.432 3.812L591.528 1.508C592.752 2.48 594.336 3.992 595.092 5.036L592.824 6.8H595.344L594.156 11.552H585.66L585.12 13.496L585.012 17.204C586.632 15.44 588.18 13.82 589.26 12.452L593.4 15.224ZM576.156 13.064C576.948 14.936 577.812 17.492 577.956 19.22L573.42 20.624C573.384 18.932 572.808 16.304 572.052 14.324L576.156 13.064ZM604.272 11.048L605.496 5.072H613.38L611.724 11.048L607.404 22.424H602.904L604.272 11.048ZM603.084 32.432C600.42 32.432 598.836 30.488 599.484 27.86C599.988 25.952 601.896 24.512 604.092 24.512C606.792 24.512 608.304 26.528 607.692 29.084C607.188 31.064 605.316 32.432 603.084 32.432Z" fill="white"/>
</svg>
