<svg width="146" height="142" viewBox="0 0 146 142" fill="none" xmlns="http://www.w3.org/2000/svg">
<path d="M141.192 0H4.80754C3.53297 0.00152552 2.31104 0.508525 1.40978 1.40978C0.50852 2.31104 0.00152552 3.53297 0 4.80754V19.4838C0.00152552 20.7584 0.50852 21.9803 1.40978 22.8816C2.31104 23.7828 3.53297 24.2898 4.80754 24.2913H141.192C142.467 24.2898 143.689 23.7828 144.59 22.8816C145.491 21.9803 145.998 20.7584 146 19.4838V4.80754C145.998 3.53297 145.491 2.31104 144.59 1.40978C143.689 0.508525 142.467 0.00152552 141.192 0ZM145.494 19.4838C145.492 20.6241 145.038 21.7172 144.232 22.5235C143.426 23.3298 142.333 23.7836 141.192 23.7852H4.80754C3.66725 23.7836 2.57414 23.3298 1.76783 22.5235C0.961516 21.7172 0.507794 20.6241 0.506117 19.4838V4.80754C0.507794 3.66725 0.961516 2.57414 1.76783 1.76783C2.57414 0.961516 3.66725 0.507794 4.80754 0.506117H141.192C142.333 0.507794 143.426 0.961516 144.232 1.76783C145.038 2.57414 145.492 3.66725 145.494 4.80754V19.4838Z" fill="white"/>
<path d="M145.494 19.4838C145.492 20.6241 145.038 21.7172 144.232 22.5235C143.426 23.3298 142.333 23.7836 141.192 23.7852H4.80754C3.66725 23.7836 2.57414 23.3298 1.76783 22.5235C0.961516 21.7172 0.507794 20.6241 0.506117 19.4838V4.80754C0.507794 3.66725 0.961516 2.57414 1.76783 1.76783C2.57414 0.961516 3.66725 0.507794 4.80754 0.506117H141.192C142.333 0.507794 143.426 0.961516 144.232 1.76783C145.038 2.57414 145.492 3.66725 145.494 4.80754V19.4838Z" fill="white"/>
<path d="M141.192 58.9571H4.80754C3.53297 58.9556 2.31104 58.4486 1.40978 57.5473C0.50852 56.646 0.00152552 55.4241 0 54.1495V39.4736C0.00152552 38.199 0.50852 36.9771 1.40978 36.0758C2.31104 35.1745 3.53297 34.6675 4.80754 34.666H141.192C142.467 34.6675 143.689 35.1745 144.59 36.0758C145.491 36.9771 145.998 38.199 146 39.4736V54.1495C145.998 55.4241 145.491 56.646 144.59 57.5473C143.689 58.4486 142.467 58.9556 141.192 58.9571ZM4.80754 35.1721C3.66713 35.1734 2.5738 35.627 1.76741 36.4334C0.961016 37.2398 0.507414 38.3332 0.506117 39.4736V54.1495C0.507185 55.2901 0.960684 56.3836 1.7671 57.1902C2.57352 57.9968 3.66698 58.4505 4.80754 58.4518H141.192C142.333 58.4506 143.426 57.997 144.233 57.1906C145.039 56.3842 145.493 55.2909 145.494 54.1504V39.4736C145.493 38.3332 145.039 37.2398 144.233 36.4334C143.426 35.627 142.333 35.1734 141.193 35.1721H4.80754Z" fill="#F6F6F6"/>
<path d="M4.80754 35.1721C3.66713 35.1734 2.5738 35.627 1.76741 36.4334C0.961016 37.2398 0.507414 38.3332 0.506117 39.4736V54.1495C0.507185 55.2901 0.960684 56.3836 1.7671 57.1902C2.57352 57.9968 3.66698 58.4505 4.80754 58.4518H141.192C142.333 58.4506 143.426 57.997 144.233 57.1906C145.039 56.3842 145.493 55.2909 145.494 54.1504V39.4736C145.493 38.3332 145.039 37.2398 144.233 36.4334C143.426 35.627 142.333 35.1734 141.193 35.1721H4.80754Z" fill="#F6F6F6"/>
<path d="M141.192 93.6221H4.80754C3.53297 93.6206 2.31104 93.1136 1.40978 92.2123C0.50852 91.3111 0.00152552 90.0891 0 88.8146V74.1386C0.00152552 72.864 0.50852 71.6421 1.40978 70.7408C2.31104 69.8396 3.53297 69.3326 4.80754 69.3311H141.192C142.467 69.3326 143.689 69.8396 144.59 70.7408C145.491 71.6421 145.998 72.864 146 74.1386V88.8146C145.998 90.0891 145.491 91.3111 144.59 92.2123C143.689 93.1136 142.467 93.6206 141.192 93.6221ZM4.80754 69.836C3.66713 69.8373 2.5738 70.2909 1.76741 71.0973C0.961016 71.9037 0.507414 72.997 0.506117 74.1374V88.8134C0.507337 89.9539 0.960907 91.0473 1.76731 91.8537C2.57371 92.6602 3.66708 93.1138 4.80754 93.1151H141.192C142.333 93.1139 143.426 92.6603 144.233 91.8539C145.039 91.0475 145.493 89.9542 145.494 88.8137V74.1386C145.493 72.9979 145.04 71.9043 144.233 71.0976C143.427 70.291 142.333 69.8372 141.192 69.836H4.80754Z" fill="#F6F6F6"/>
<path d="M4.80754 69.836C3.66713 69.8373 2.5738 70.2909 1.76741 71.0973C0.961016 71.9037 0.507414 72.997 0.506117 74.1374V88.8134C0.507337 89.9539 0.960907 91.0473 1.76731 91.8537C2.57371 92.6602 3.66708 93.1138 4.80754 93.1151H141.192C142.333 93.1139 143.426 92.6603 144.233 91.8539C145.039 91.0475 145.493 89.9542 145.494 88.8137V74.1386C145.493 72.9979 145.04 71.9043 144.233 71.0976C143.427 70.291 142.333 69.8372 141.192 69.836H4.80754Z" fill="#F6F6F6"/>
<path d="M23.2361 20.5136C21.5812 20.5136 19.9634 20.0229 18.5873 19.1034C17.2113 18.184 16.1388 16.8771 15.5054 15.3481C14.8721 13.8192 14.7064 12.1367 15.0293 10.5135C15.3521 8.89037 16.1491 7.39939 17.3193 6.22916C18.4895 5.05892 19.9805 4.26197 21.6037 3.93911C23.2269 3.61624 24.9093 3.78195 26.4383 4.41527C27.9673 5.0486 29.2741 6.1211 30.1936 7.49716C31.113 8.87321 31.6038 10.491 31.6038 12.146C31.6038 14.3652 30.7222 16.4936 29.153 18.0628C27.5837 19.6321 25.4554 20.5136 23.2361 20.5136Z" fill="#FF9D00"/>
<path d="M128.838 18.9774H39.5179C38.981 18.9774 38.4661 18.7641 38.0865 18.3844C37.7068 18.0048 37.4936 17.4899 37.4936 16.953C37.4936 16.4162 37.7068 15.9013 38.0865 15.5216C38.4661 15.142 38.981 14.9287 39.5179 14.9287H128.838C129.375 14.9287 129.89 15.142 130.269 15.5216C130.649 15.9013 130.862 16.4162 130.862 16.953C130.862 17.4899 130.649 18.0048 130.269 18.3844C129.89 18.7641 129.375 18.9774 128.838 18.9774Z" fill="#CCCCCC"/>
<path d="M99.7378 10.3738H39.5161C38.9792 10.3738 38.4643 10.1606 38.0847 9.78093C37.705 9.4013 37.4918 8.88641 37.4918 8.34952C37.4918 7.81264 37.705 7.29774 38.0847 6.91811C38.4643 6.53847 38.9792 6.3252 39.5161 6.3252H99.7378C100.275 6.3252 100.79 6.53847 101.169 6.91811C101.549 7.29774 101.762 7.81264 101.762 8.34952C101.762 8.88641 101.549 9.4013 101.169 9.78093C100.79 10.1606 100.275 10.3738 99.7378 10.3738Z" fill="#CCCCCC"/>
<path d="M23.2361 55.1787C21.5812 55.1787 19.9634 54.6879 18.5873 53.7685C17.2113 52.849 16.1388 51.5422 15.5054 50.0132C14.8721 48.4842 14.7064 46.8017 15.0293 45.1786C15.3521 43.5554 16.1491 42.0644 17.3193 40.8942C18.4895 39.724 19.9805 38.927 21.6037 38.6041C23.2269 38.2813 24.9093 38.447 26.4383 39.0803C27.9673 39.7136 29.2741 40.7861 30.1936 42.1622C31.113 43.5383 31.6038 45.1561 31.6038 46.811C31.6038 49.0303 30.7222 51.1586 29.153 52.7278C27.5837 54.2971 25.4554 55.1787 23.2361 55.1787Z" fill="#E6E6E6"/>
<path d="M128.838 53.6434H39.5179C38.981 53.6434 38.4661 53.4301 38.0865 53.0505C37.7068 52.6708 37.4936 52.1559 37.4936 51.6191C37.4936 51.0822 37.7068 50.5673 38.0865 50.1876C38.4661 49.808 38.981 49.5947 39.5179 49.5947H128.838C129.375 49.5947 129.89 49.808 130.269 50.1876C130.649 50.5673 130.862 51.0822 130.862 51.6191C130.862 52.1559 130.649 52.6708 130.269 53.0505C129.89 53.4301 129.375 53.6434 128.838 53.6434Z" fill="#E6E6E6"/>
<path d="M99.7378 45.0399H39.5161C38.9792 45.0399 38.4643 44.8266 38.0847 44.447C37.705 44.0673 37.4918 43.5524 37.4918 43.0155C37.4918 42.4787 37.705 41.9638 38.0847 41.5841C38.4643 41.2045 38.9792 40.9912 39.5161 40.9912H99.7378C100.275 40.9912 100.79 41.2045 101.169 41.5841C101.549 41.9638 101.762 42.4787 101.762 43.0155C101.762 43.5524 101.549 44.0673 101.169 44.447C100.79 44.8266 100.275 45.0399 99.7378 45.0399Z" fill="#E6E6E6"/>
<path d="M23.2361 89.8447C21.5812 89.8447 19.9634 89.3539 18.5873 88.4345C17.2113 87.515 16.1388 86.2082 15.5054 84.6792C14.8721 83.1502 14.7064 81.4678 15.0293 79.8446C15.3521 78.2214 16.1491 76.7304 17.3193 75.5602C18.4895 74.39 19.9805 73.593 21.6037 73.2702C23.2269 72.9473 24.9093 73.113 26.4383 73.7463C27.9673 74.3797 29.2741 75.4522 30.1936 76.8282C31.113 78.2043 31.6038 79.8221 31.6038 81.477C31.6038 83.6963 30.7222 85.8246 29.153 87.3939C27.5837 88.9631 25.4554 89.8447 23.2361 89.8447Z" fill="#E6E6E6"/>
<path d="M128.838 88.3084H39.5179C38.981 88.3084 38.4661 88.0951 38.0865 87.7155C37.7068 87.3359 37.4936 86.821 37.4936 86.2841C37.4936 85.7472 37.7068 85.2323 38.0865 84.8527C38.4661 84.473 38.981 84.2598 39.5179 84.2598H128.838C129.375 84.2598 129.89 84.473 130.269 84.8527C130.649 85.2323 130.862 85.7472 130.862 86.2841C130.862 86.821 130.649 87.3359 130.269 87.7155C129.89 88.0951 129.375 88.3084 128.838 88.3084Z" fill="#E6E6E6"/>
<path d="M99.7378 79.7059H39.5161C38.9792 79.7059 38.4643 79.4926 38.0847 79.113C37.705 78.7333 37.4918 78.2184 37.4918 77.6816C37.4918 77.1447 37.705 76.6298 38.0847 76.2501C38.4643 75.8705 38.9792 75.6572 39.5161 75.6572H99.7378C100.275 75.6572 100.79 75.8705 101.169 76.2501C101.549 76.6298 101.762 77.1447 101.762 77.6816C101.762 78.2184 101.549 78.7333 101.169 79.113C100.79 79.4926 100.275 79.7059 99.7378 79.7059Z" fill="#E6E6E6"/>
<path d="M22.8089 15.089C22.6011 15.0894 22.3988 15.0223 22.2325 14.8976L22.2221 14.8898L20.0532 13.2308C19.9528 13.1538 19.8685 13.0577 19.8051 12.9482C19.7418 12.8386 19.7007 12.7176 19.6841 12.5921C19.6675 12.4666 19.6758 12.3391 19.7085 12.2168C19.7412 12.0945 19.7977 11.9799 19.8747 11.8795C19.9517 11.779 20.0477 11.6947 20.1573 11.6314C20.2669 11.568 20.3879 11.5269 20.5134 11.5103C20.6388 11.4937 20.7664 11.502 20.8886 11.5347C21.0109 11.5674 21.1256 11.6239 21.226 11.7009L22.6308 12.7783L25.9503 8.44745C26.1057 8.24474 26.3353 8.11207 26.5886 8.07861C26.8419 8.04516 27.0981 8.11365 27.3009 8.26904L27.2804 8.29786L27.3014 8.26904C27.5039 8.42475 27.6364 8.65442 27.6698 8.90767C27.7032 9.16091 27.6348 9.41706 27.4796 9.61994L23.575 14.7117C23.4845 14.8288 23.3683 14.9235 23.2354 14.9885C23.1024 15.0534 22.9563 15.0869 22.8084 15.0864L22.8089 15.089Z" fill="white"/>
<path d="M97.3663 90.0445C97.6074 89.7315 97.7769 89.3694 97.8629 88.9838C97.9489 88.5982 97.9494 88.1984 97.8642 87.8126C97.779 87.4268 97.6103 87.0643 97.3699 86.7508C97.1295 86.4372 96.8232 86.1802 96.4728 85.9978L97.0068 79.8449L93.3464 78.6084L92.7141 87.3081C92.4469 87.9172 92.4123 88.6031 92.6169 89.2359C92.8216 89.8688 93.2512 90.4046 93.8245 90.7419C94.3977 91.0792 95.0748 91.1945 95.7274 91.066C96.38 90.9375 96.9628 90.5742 97.3654 90.0448L97.3663 90.0445Z" fill="#FFB8B8"/>
<path d="M115.629 137.881H112.335L110.768 125.171H115.631L115.629 137.881Z" fill="#FFB8B8"/>
<path d="M109.982 136.939H116.337V140.941H105.981C105.981 139.879 106.402 138.862 107.153 138.111C107.903 137.361 108.921 136.939 109.982 136.939Z" fill="#2B2B2B"/>
<path d="M108.151 129.448L104.952 130.234L100.396 118.266L105.118 117.105L108.151 129.448Z" fill="#FFB8B8"/>
<path d="M102.486 129.767L108.657 128.249L109.613 132.134L99.5574 134.609C99.3038 133.578 99.4699 132.489 100.019 131.581C100.568 130.674 101.456 130.021 102.486 129.767Z" fill="#2B2B2B"/>
<path d="M111.774 133.829C111.473 133.829 111.182 133.719 110.959 133.517C110.735 133.316 110.594 133.039 110.563 132.739L106.773 97.4178L103.473 108.219L108.146 125.09C108.227 125.379 108.197 125.688 108.064 125.957C107.931 126.226 107.703 126.436 107.424 126.547L103.709 128.033C103.556 128.094 103.392 128.124 103.228 128.12C103.063 128.116 102.901 128.079 102.751 128.01C102.601 127.942 102.466 127.844 102.355 127.722C102.244 127.601 102.159 127.458 102.105 127.302L96.3784 110.871C95.7514 109.077 95.474 107.18 95.5613 105.281L96.3605 87.5488L117.413 88.4403L117.085 132.312C117.081 132.617 116.963 132.91 116.754 133.134C116.546 133.357 116.261 133.494 115.957 133.518L111.869 133.827C111.837 133.828 111.805 133.829 111.774 133.829Z" fill="#2B2B2B"/>
<path d="M108.287 48.3055C112.197 48.3055 115.366 45.1361 115.366 41.2265C115.366 37.3168 112.197 34.1475 108.287 34.1475C104.377 34.1475 101.208 37.3168 101.208 41.2265C101.208 45.1361 104.377 48.3055 108.287 48.3055Z" fill="#FFB8B8"/>
<path d="M113.493 89.5934C111.629 89.5934 109.314 89.4409 106.917 89.2833C103.643 89.0677 100.257 88.8449 97.7298 88.9913C97.3885 89.0252 97.0442 88.9711 96.7298 88.8342C96.4153 88.6972 96.1412 88.482 95.9336 88.2091C93.3283 84.8732 97.3458 71.8646 97.5188 71.3126L100.788 56.7667C101.509 53.5674 103.806 51.2074 106.787 50.6079C109.577 50.0476 112.276 51.1645 114.007 53.5982C114.098 53.7274 114.19 53.8598 114.282 53.9957C119.917 62.3417 116.73 83.0773 116.516 84.4144C116.814 84.7709 118.424 86.787 117.981 88.1875C117.801 88.7573 117.312 89.1455 116.528 89.3404C115.529 89.5383 114.51 89.6229 113.492 89.5926L113.493 89.5934Z" fill="#FF9D00"/>
<path d="M97.8435 89.6003C97.2022 89.6003 96.3373 89.3637 95.1711 88.8797C94.6699 88.6711 93.1446 88.0367 94.9965 71.8539C95.9061 63.9047 97.2091 56.0109 97.2221 55.9322L97.2345 55.8561L97.3048 55.8244C97.3383 55.8091 100.666 54.2839 101.245 52.3237C101.264 52.2559 101.287 52.19 101.312 52.1263C101.471 51.6905 101.793 51.3331 102.209 51.1286C102.626 50.9241 103.105 50.8883 103.547 51.0287C104.014 51.1403 104.421 51.4255 104.686 51.8263C104.95 52.2271 105.053 52.7135 104.972 53.1869C104.77 54.4654 104.382 55.7076 103.821 56.8738C102.255 60.1048 101.194 68.6702 101.184 68.7564C101.124 69.4879 99.7031 86.8198 99.4293 88.135C99.3336 88.5944 99.1578 89.1564 98.6416 89.4291C98.394 89.5513 98.1201 89.6107 97.8441 89.602L97.8435 89.6003Z" fill="#2B2B2B"/>
<path d="M105.577 88.9359C105.448 88.9359 105.322 88.8928 105.22 88.8134C103.137 87.2308 106.508 68.0467 108.506 61.4277C108.906 60.1019 109.262 58.9672 109.565 58.0538C110.117 56.4149 110.502 54.7244 110.715 53.0082C110.825 52.0784 111.064 51.5475 111.446 51.3846C111.711 51.2714 112.022 51.3483 112.374 51.6132C114.221 51.5221 116.015 52.2761 117.677 53.1065L119.174 53.853L120.853 83.5828C120.805 85.4801 117.065 86.8195 115.434 86.9051C112.815 87.0426 108.111 87.4692 106.038 88.7811C105.903 88.8756 105.743 88.9292 105.577 88.9356L105.577 88.9359Z" fill="#2B2B2B"/>
<path d="M96.2225 83.3578C96.1977 83.3578 96.173 83.3578 96.1479 83.3555L92.7561 83.1468C92.5872 83.1365 92.4223 83.0911 92.272 83.0136C92.1216 82.936 91.989 82.828 91.8827 82.6965C91.7763 82.5649 91.6985 82.4126 91.6542 82.2494C91.6099 82.0861 91.6001 81.9154 91.6254 81.7481L93.1602 71.5799L96.0493 57.3129C96.1205 56.9615 96.2647 56.6289 96.4726 56.3368C96.6806 56.0447 96.9476 55.7995 97.2563 55.6172C97.5651 55.4349 97.9087 55.3195 98.2649 55.2785C98.6211 55.2375 98.982 55.2718 99.3241 55.3792C99.9089 55.5658 100.408 55.9554 100.731 56.4775C101.053 56.9996 101.179 57.62 101.085 58.2266L98.7891 72.5224L97.4302 82.3067C97.3884 82.5976 97.2434 82.8639 97.0217 83.0569C96.7999 83.2498 96.5165 83.3566 96.2225 83.3578Z" fill="#2B2B2B"/>
<path d="M107.809 72.228C108.016 71.8913 108.294 71.6042 108.624 71.3867C108.954 71.1692 109.328 71.0267 109.719 70.9692C110.109 70.9117 110.508 70.9406 110.887 71.0538C111.265 71.1671 111.614 71.362 111.909 71.6247L117.471 68.9385L119.927 71.9198L112.021 75.603C111.546 76.0694 110.917 76.3456 110.253 76.3793C109.589 76.413 108.935 76.2019 108.416 75.7859C107.897 75.3699 107.548 74.7779 107.437 74.1222C107.325 73.4664 107.457 72.7925 107.809 72.228Z" fill="#FFB8B8"/>
<path d="M115.535 75.1123C115.261 75.1123 114.995 75.0201 114.78 74.8507C114.565 74.6812 114.413 74.4443 114.349 74.1782L113.542 70.8204C113.48 70.5678 113.501 70.3022 113.602 70.0625C113.703 69.8229 113.878 69.6218 114.101 69.4891L118.972 66.5734L116.482 57.4558C116.266 56.675 116.365 55.8409 116.757 55.1321C117.149 54.4232 117.803 53.8959 118.578 53.6631C119.354 53.4302 120.19 53.5103 120.908 53.8862C121.625 54.2621 122.167 54.9039 122.417 55.6743L125.167 64.0688C125.504 65.092 125.507 66.1964 125.174 67.2212C124.841 68.2461 124.19 69.1382 123.316 69.7678L116.249 74.8808C116.041 75.0312 115.791 75.1122 115.535 75.1123Z" fill="#2B2B2B"/>
<path d="M136.905 141.293H79.8373C79.7608 141.293 79.6875 141.263 79.6335 141.209C79.5794 141.155 79.549 141.081 79.549 141.005C79.549 140.929 79.5794 140.855 79.6335 140.801C79.6875 140.747 79.7608 140.717 79.8373 140.717H136.905C136.982 140.717 137.055 140.747 137.109 140.801C137.163 140.855 137.193 140.929 137.193 141.005C137.193 141.081 137.163 141.155 137.109 141.209C137.055 141.263 136.982 141.293 136.905 141.293Z" fill="#CCCCCC"/>
<path d="M110.889 43.1134C110.889 43.1134 110.028 38.3502 108.068 38.9193C106.108 39.4884 101.063 40.0706 101.053 37.8274C101.044 35.5842 105.802 33.6014 108.607 33.8698C111.412 34.1381 116.183 34.9591 115.92 39.1663C115.71 41.816 114.891 44.3814 113.527 46.6629L110.889 43.1134Z" fill="#2B2B2B"/>
</svg>
