<svg width="78" height="24" viewBox="0 0 78 24" fill="none" xmlns="http://www.w3.org/2000/svg">
<g clip-path="url(#clip0_406_999)">
<path d="M5.341 3.30749L4.42235 5.36402C3.67461 4.87639 2.92687 4.45236 2.15776 4.09194C1.45275 3.73151 0.74774 3.43469 0 3.20148L1.11093 1.10254C1.85867 1.37816 2.58505 1.71738 3.29006 2.0778C3.99507 2.45943 4.67872 2.86226 5.341 3.30749Z" fill="black"/>
<path d="M5.341 8.39586L4.42235 10.4524C3.67461 9.96477 2.92687 9.54074 2.15776 9.18032C1.45275 8.81989 0.74774 8.52307 0 8.28986L1.11093 6.19092C1.85867 6.46654 2.58505 6.80576 3.29006 7.16618C3.99507 7.52661 4.67872 7.95064 5.341 8.39586Z" fill="black"/>
<path d="M25.0173 8.45932C24.9532 8.39572 24.8891 8.39572 24.825 8.45932H7.94742L7.5415 8.65014V13.9717C7.5415 14.0353 7.58423 14.0777 7.64832 14.0777C7.71242 14.1413 7.81924 14.1837 7.94742 14.1837H24.8036L25.2095 13.9929V8.65014C25.1454 8.52293 25.0814 8.45932 25.0173 8.45932ZM12.9252 12.4028H9.742V10.2402V10.0494H12.9252V12.4028ZM18.074 12.4028H14.8907V10.0282H18.074V12.4028ZM23.2227 12.4028H23.0304H20.0608V10.0282H23.0304L23.2227 10.219V12.4028Z" fill="black"/>
<path d="M22.2398 21.6467C21.0435 21.5195 19.8684 21.3287 18.6721 21.053C19.3984 20.6502 20.5521 19.9718 22.133 18.9965C23.714 18.0212 24.6113 17.1944 24.8035 16.5371C24.7394 16.4099 24.5044 16.2191 24.1199 15.9435C23.7994 15.6255 23.5644 15.4135 23.4362 15.3499H8.75916V17.3216H10.9383L9.95554 18.8905C10.5537 19.1449 11.1519 19.4841 11.7501 19.8658C12.3483 20.1838 12.9465 20.5866 13.5447 21.053C12.2201 21.3075 10.9383 21.5195 9.67781 21.6467C8.35324 21.7739 8.4387 21.8375 7.17822 21.8375L7.58414 24C9.22917 23.8728 9.5069 23.682 11.1733 23.4064C12.8183 23.0884 14.4847 22.6855 16.1297 22.2191C17.5825 22.6855 19.078 23.0672 20.5948 23.4064C22.1117 23.6608 23.6712 23.8728 25.2522 24L25.8504 21.8375C24.6113 21.8375 23.4362 21.7739 22.2398 21.6467ZM16.087 20.0778C15.1684 19.6113 14.2924 19.1661 13.502 18.6997C12.7115 18.2332 11.9851 17.788 11.3228 17.3216H20.8512L21.0435 17.5124C20.3171 18.0424 19.4839 18.4877 18.5652 18.8905C17.7107 19.2933 16.8775 19.6749 16.087 20.0778Z" fill="black"/>
<path d="M40.1643 21.4557C39.0961 21.4557 37.4724 21.3285 36.5538 21.0529C35.6351 20.8621 34.8446 20.3321 34.1824 19.484C33.926 19.2296 33.7123 18.954 33.5842 18.6996C33.456 18.4451 33.3919 18.1695 33.3919 17.9151V13.0812C33.3278 12.8904 33.221 12.7208 33.0928 12.5936C32.9646 12.53 32.8578 12.4875 32.7937 12.4875H29.2686V14.6501C29.525 14.5865 29.4395 14.6077 30.1018 14.6077C30.7641 14.6077 30.9564 14.6501 30.9778 15.0317V18.4875C30.9137 19.3356 30.5077 20.0565 29.7814 20.6501C29.055 21.2437 28.9695 21.7102 28.2432 22.0282L29.2259 23.9999C29.9523 23.6819 30.0377 23.1731 30.7641 22.5158C31.5546 21.795 32.0887 21.0953 32.3451 20.4593C32.6014 20.8621 32.9005 21.2225 33.2423 21.5405C33.5628 21.8586 34.0114 22.1554 34.5242 22.431C35.1224 22.8338 35.7847 23.1095 36.511 23.3215C37.2374 23.5123 38.6688 23.6183 39.5234 23.6183H51.4231L52.0213 21.0529C50.0344 21.1165 48.0476 21.1801 46.0821 21.2437C44.138 21.3285 42.1511 21.3921 40.1643 21.4557Z" fill="black"/>
<path d="M48.7956 11.2155C48.6033 10.8975 48.4965 10.6855 48.4965 10.6219C48.5606 10.3038 49.0519 9.64659 49.9919 8.65012C50.9106 7.73846 51.6156 7.08122 52.0642 6.67839L50.8679 5.70312H45.121V7.67486H48.4965C48.176 7.99288 47.6633 8.50171 47.001 9.15896C46.3387 9.8798 45.9755 10.3674 45.9114 10.6431C45.9755 10.8975 46.1464 11.1307 46.4028 11.3215C46.5951 11.4487 46.8301 11.6819 47.0864 11.9999H43.7109V13.9717H48.0692C48.2615 14.4381 48.3896 14.9257 48.4751 15.4558C48.6033 15.9222 48.6674 16.4098 48.6674 16.9399C48.6033 17.1943 48.411 17.5335 48.0692 17.9151C47.6633 18.2332 47.3428 18.4452 47.0864 18.5088C46.6164 18.4452 46.1251 18.318 45.591 18.106C44.9928 17.8515 44.5655 17.5759 44.3091 17.3215L43.9032 19.484C44.3091 19.6749 44.8219 19.8869 45.4841 20.0777C46.0823 20.2685 46.6164 20.3957 47.0651 20.4805C48.1333 20.4169 48.9878 20.0565 49.6501 19.3992C50.2483 18.6784 50.5688 17.7879 50.6329 16.7491C50.5688 16.219 50.5047 15.7738 50.4406 15.371C50.3765 14.9045 50.3124 14.4593 50.2483 13.9929H52.4274V12.0211H49.2442C49.1588 11.7455 48.9878 11.4699 48.7956 11.2155Z" fill="black"/>
<path d="M36.1905 12.5936C35.7845 14.629 35.1223 16.5371 34.2036 18.2968L36.3827 18.8905C37.1091 17.4488 37.6646 15.7739 38.0705 13.8657C38.391 11.9576 38.626 10.2191 38.7541 8.65018H40.9333L41.1256 8.84099C41.1256 9.62544 41.0615 11.258 40.9333 13.7597C40.8051 16.3251 40.3992 17.7668 39.7369 18.0848C39.4164 18.0212 39.0532 17.9576 38.6473 17.894C38.3269 17.8304 37.9637 17.7668 37.5578 17.7032L37.3655 19.6749C37.8355 19.7385 38.2628 19.8445 38.6473 19.9717C39.1173 20.0989 39.5446 20.2049 39.9292 20.2686L41.1256 20.0777C42.1083 19.2297 42.7065 17.1943 42.9201 13.9717C43.0483 10.7491 43.1124 8.52297 43.1124 7.27209C43.1124 7.08127 43.0483 6.91166 42.9201 6.78445C42.856 6.72085 42.7279 6.67845 42.5142 6.67845H38.9464V6.48763V4.5159H42.9415V2.35336H40.3564V0H38.1773V2.35336H34.9941V4.5159H36.7887V6.48763C36.7887 8.45936 36.5964 10.4947 36.1905 12.5936Z" fill="black"/>
<path d="M68.0871 16.3463H76.3978C76.5259 16.3463 76.6541 16.3463 76.7823 16.3251C77.5941 16.2191 78.0214 15.7103 78.0214 14.8198V3.83751C78.0214 1.88698 76.0132 0.296875 74.0477 0.296875H70.8858H65.3525V17.1308V20.1838V21.6891C65.3525 22.8976 65.9507 23.8516 67.1685 23.8516H67.553H75.2655H78.0001V21.1591H69.4972H68.5358C68.1726 21.1591 68.0017 20.9471 68.0017 20.6926V16.3463H68.0871ZM73.1291 2.73504C74.5604 2.75624 75.5646 3.54069 75.5646 4.96119V7.14493V13.5478C75.5646 13.8658 75.3936 14.0354 75.0732 14.0354H73.1504V2.73504H73.1291ZM68.0871 2.73504H70.5654V14.0142H68.0871V2.73504Z" fill="black"/>
<path d="M56.2942 1.5265H46.4027L46.7018 0.190813L44.7149 0C44.5227 1.18728 44.2449 2.20495 43.9245 3.053C43.604 3.83746 43.0058 4.72792 42.1299 5.70318L43.9245 6.89046C44.3304 6.48763 44.6508 6.0424 44.9072 5.51237C45.2277 5.04594 45.5054 4.5371 45.6977 3.94346V3.96466H55.696H56.2728H61.4002V17.8092C61.4002 18.2756 61.1866 18.5088 60.7593 18.5088H58.3238V5.55477H55.8883V21.159H61.9984C63.2162 21.159 63.8357 20.2261 63.8357 18.9541V3.96466V1.5265H56.2942Z" fill="black"/>
<path d="M34.8236 4.11318L35.2082 4.4948L35.2295 4.4736L36.5968 2.9047L36.3618 2.65028C34.8663 1.03897 33.0718 0.190918 31.149 0.190918C29.2476 0.190918 27.4103 1.06018 26.0003 2.67148L25.7866 2.9259L27.1326 4.4736L27.4957 4.11318C29.8671 1.71742 32.4949 1.73862 34.8236 4.11318Z" fill="#E95513"/>
<path d="M31.1913 4.45239C30.1231 4.45239 29.119 4.89762 28.414 5.66087L28.2217 5.87289L29.589 7.44179L29.9308 7.10257C30.5931 6.44533 31.7467 6.42412 32.4304 7.10257L32.7722 7.44179L34.1395 5.87289L33.9472 5.66087C33.2636 4.89762 32.2595 4.45239 31.1913 4.45239Z" fill="#E95513"/>
<path d="M23.372 0.190918H9.10085C9.03676 0.190918 8.99403 0.233321 8.99403 0.296925C8.92994 0.296925 8.88721 0.339328 8.88721 0.402932V7.10258C8.88721 7.16618 8.92994 7.20859 8.99403 7.20859C8.99403 7.27219 9.03676 7.31459 9.10085 7.31459H23.372C23.4361 7.31459 23.5002 7.27219 23.5643 7.20859C23.6284 7.20859 23.6925 7.16618 23.7566 7.10258V0.402932L23.372 0.190918ZM10.9809 2.52307H15.8305L13.6727 4.96124H10.9809V2.52307ZM21.6842 4.96124H16.5355L18.7147 2.50187H21.6842V4.96124Z" fill="#231815"/>
<path d="M4.95655 12.0211L2.56378 11.7031C2.56378 11.7031 2.47832 17.8091 0.277832 22.9611L2.62787 23.9999C2.62787 23.9999 5.1061 17.8515 4.95655 12.0211Z" fill="black"/>
<path d="M32.5161 9.81616C32.5161 10.5582 31.9179 11.1518 31.1701 11.1518C30.4224 11.1518 29.8242 10.5582 29.8242 9.81616C29.8242 9.07411 30.4224 8.48047 31.1701 8.48047C31.9179 8.48047 32.5161 9.07411 32.5161 9.81616Z" fill="#E95513"/>
</g>
<defs>
<clipPath id="clip0_406_999">
<rect width="78" height="24" fill="white"/>
</clipPath>
</defs>
</svg>
